G04 EAGLE Gerber X2 export*
G75*
%MOMM*%
%FSLAX34Y34*%
%LPD*%
%AMOC8*
5,1,8,0,0,1.08239X$1,22.5*%
G01*
%ADD10C,1.879600*%
%ADD11R,3.175000X2.032000*%
%ADD12C,8.000000*%
%ADD13C,0.508000*%

G36*
X431866Y10167D02*
X431866Y10167D01*
X431959Y10167D01*
X432039Y10173D01*
X432111Y10186D01*
X432184Y10190D01*
X432349Y10229D01*
X432435Y10244D01*
X432466Y10257D01*
X432507Y10266D01*
X432658Y10316D01*
X432799Y10377D01*
X432941Y10432D01*
X432988Y10460D01*
X433027Y10477D01*
X433097Y10527D01*
X433225Y10604D01*
X433353Y10698D01*
X433467Y10799D01*
X433586Y10895D01*
X433622Y10937D01*
X433654Y10965D01*
X433706Y11034D01*
X433802Y11147D01*
X433896Y11275D01*
X433973Y11407D01*
X434056Y11536D01*
X434078Y11586D01*
X434099Y11623D01*
X434127Y11704D01*
X434184Y11842D01*
X434234Y11993D01*
X434249Y12065D01*
X434274Y12134D01*
X434301Y12301D01*
X434319Y12386D01*
X434320Y12419D01*
X434327Y12461D01*
X434333Y12541D01*
X434332Y12607D01*
X434339Y12700D01*
X434339Y139267D01*
X434333Y139328D01*
X434334Y139411D01*
X434222Y140996D01*
X434235Y141036D01*
X434270Y141192D01*
X434312Y141348D01*
X434316Y141394D01*
X434324Y141429D01*
X434326Y141516D01*
X434339Y141679D01*
X434339Y141721D01*
X434947Y143188D01*
X434965Y143247D01*
X434997Y143323D01*
X442597Y166121D01*
X442610Y166179D01*
X442636Y166256D01*
X443093Y168024D01*
X443100Y168068D01*
X443113Y168111D01*
X443146Y168369D01*
X443154Y168422D01*
X443154Y168430D01*
X443155Y168440D01*
X443319Y172081D01*
X443313Y172196D01*
X443316Y172311D01*
X443301Y172412D01*
X443297Y172483D01*
X443281Y172547D01*
X443267Y172639D01*
X442429Y176185D01*
X442392Y176294D01*
X442364Y176406D01*
X442322Y176499D01*
X442298Y176566D01*
X442265Y176623D01*
X442227Y176708D01*
X440452Y179891D01*
X440426Y179927D01*
X440407Y179968D01*
X440252Y180178D01*
X440222Y180221D01*
X440216Y180227D01*
X440210Y180235D01*
X439011Y181613D01*
X438968Y181653D01*
X438915Y181715D01*
X437201Y183430D01*
X437200Y183430D01*
X431905Y188725D01*
X431863Y188760D01*
X431826Y188800D01*
X431652Y188932D01*
X431594Y188981D01*
X431579Y188988D01*
X431562Y189001D01*
X430979Y189374D01*
X430435Y190151D01*
X430428Y190160D01*
X430421Y190171D01*
X430207Y190424D01*
X429536Y191094D01*
X429271Y191734D01*
X429264Y191747D01*
X429260Y191760D01*
X429242Y191792D01*
X429227Y191833D01*
X429117Y192021D01*
X429081Y192089D01*
X429070Y192102D01*
X429060Y192120D01*
X428663Y192687D01*
X428459Y193613D01*
X428455Y193625D01*
X428454Y193637D01*
X428352Y193953D01*
X427989Y194829D01*
X427989Y195521D01*
X427984Y195575D01*
X427986Y195630D01*
X427957Y195846D01*
X427949Y195922D01*
X427944Y195938D01*
X427942Y195959D01*
X427792Y196634D01*
X427958Y197568D01*
X427959Y197580D01*
X427962Y197592D01*
X427989Y197923D01*
X427989Y198871D01*
X428254Y199510D01*
X428270Y199563D01*
X428293Y199612D01*
X428348Y199823D01*
X428371Y199896D01*
X428372Y199913D01*
X428377Y199933D01*
X428498Y200614D01*
X429009Y201414D01*
X429014Y201425D01*
X429022Y201434D01*
X429173Y201730D01*
X429536Y202606D01*
X429913Y202983D01*
X429967Y203048D01*
X430027Y203106D01*
X430114Y203227D01*
X430168Y203294D01*
X430188Y203332D01*
X430220Y203376D01*
X436940Y214608D01*
X436970Y214673D01*
X437024Y214764D01*
X449474Y240415D01*
X449504Y240496D01*
X449565Y240633D01*
X458953Y267556D01*
X458970Y267627D01*
X459004Y267726D01*
X462217Y280401D01*
X462230Y280486D01*
X462252Y280569D01*
X462264Y280715D01*
X462277Y280799D01*
X462275Y280843D01*
X462279Y280900D01*
X462279Y296110D01*
X462273Y296171D01*
X462276Y296232D01*
X462248Y296428D01*
X462239Y296510D01*
X462233Y296532D01*
X462229Y296560D01*
X462170Y296820D01*
X462159Y296852D01*
X462154Y296885D01*
X462044Y297198D01*
X462042Y297202D01*
X461269Y298933D01*
X461219Y299020D01*
X461179Y299111D01*
X461109Y299214D01*
X461069Y299283D01*
X461033Y299324D01*
X460991Y299385D01*
X459863Y300776D01*
X459767Y300873D01*
X459677Y300975D01*
X459626Y301015D01*
X459579Y301062D01*
X459466Y301138D01*
X459358Y301221D01*
X459291Y301255D01*
X459245Y301286D01*
X459172Y301317D01*
X459063Y301372D01*
X458884Y301447D01*
X458138Y302193D01*
X458109Y302217D01*
X457894Y302401D01*
X457039Y303020D01*
X456733Y303518D01*
X456690Y303576D01*
X456654Y303639D01*
X456542Y303770D01*
X456490Y303839D01*
X456466Y303860D01*
X456439Y303892D01*
X435310Y325020D01*
X434536Y325794D01*
X434516Y325811D01*
X434498Y325832D01*
X434360Y325939D01*
X434225Y326049D01*
X434201Y326062D01*
X434180Y326078D01*
X434023Y326156D01*
X433869Y326238D01*
X433844Y326246D01*
X433819Y326258D01*
X433650Y326303D01*
X433483Y326353D01*
X433457Y326355D01*
X433431Y326362D01*
X433100Y326389D01*
X319888Y326389D01*
X319863Y326387D01*
X319838Y326389D01*
X319662Y326367D01*
X319487Y326349D01*
X319463Y326342D01*
X319438Y326339D01*
X319122Y326239D01*
X306438Y321073D01*
X275542Y312119D01*
X243880Y306444D01*
X211798Y304109D01*
X179647Y305141D01*
X166321Y306975D01*
X166223Y306979D01*
X166126Y306993D01*
X166022Y306987D01*
X165919Y306991D01*
X165822Y306975D01*
X165724Y306969D01*
X165601Y306939D01*
X165521Y306926D01*
X165471Y306907D01*
X165401Y306890D01*
X141884Y299051D01*
X138752Y298007D01*
X131364Y298427D01*
X124655Y301547D01*
X119574Y306925D01*
X116839Y313800D01*
X116839Y314622D01*
X116829Y314725D01*
X116829Y314828D01*
X116809Y314924D01*
X116799Y315022D01*
X116769Y315121D01*
X116748Y315222D01*
X116704Y315333D01*
X116681Y315407D01*
X116654Y315458D01*
X116625Y315530D01*
X107029Y334721D01*
X106984Y334792D01*
X106948Y334868D01*
X106877Y334962D01*
X106815Y335062D01*
X106756Y335123D01*
X106706Y335190D01*
X106618Y335268D01*
X106537Y335353D01*
X106468Y335401D01*
X106405Y335457D01*
X106277Y335535D01*
X106207Y335584D01*
X106168Y335601D01*
X106121Y335629D01*
X105049Y336166D01*
X104778Y336301D01*
X104746Y336313D01*
X104707Y336335D01*
X98758Y339027D01*
X98676Y339055D01*
X98616Y339080D01*
X98592Y339092D01*
X98578Y339095D01*
X98538Y339112D01*
X86106Y343082D01*
X86053Y343093D01*
X85801Y343154D01*
X72906Y345163D01*
X72820Y345168D01*
X72671Y345185D01*
X66146Y345438D01*
X66112Y345436D01*
X66067Y345439D01*
X38100Y345439D01*
X38034Y345433D01*
X37941Y345433D01*
X37861Y345427D01*
X37789Y345414D01*
X37716Y345410D01*
X37551Y345371D01*
X37465Y345356D01*
X37434Y345343D01*
X37393Y345334D01*
X37242Y345284D01*
X37101Y345223D01*
X36959Y345168D01*
X36912Y345140D01*
X36873Y345123D01*
X36803Y345073D01*
X36675Y344996D01*
X36547Y344902D01*
X36433Y344801D01*
X36314Y344705D01*
X36278Y344663D01*
X36246Y344635D01*
X36194Y344566D01*
X36098Y344453D01*
X36004Y344325D01*
X36004Y344324D01*
X36003Y344323D01*
X35831Y344039D01*
X35824Y344021D01*
X35814Y344005D01*
X35809Y343990D01*
X35801Y343977D01*
X35747Y343820D01*
X35687Y343663D01*
X35684Y343644D01*
X35677Y343626D01*
X35675Y343611D01*
X35670Y343596D01*
X35648Y343431D01*
X35621Y343266D01*
X35621Y343247D01*
X35618Y343228D01*
X35619Y343211D01*
X35617Y343197D01*
X35622Y343129D01*
X35630Y342896D01*
X38046Y322120D01*
X40077Y277965D01*
X39023Y233775D01*
X34889Y189766D01*
X27695Y146154D01*
X23129Y126938D01*
X23126Y126919D01*
X23120Y126900D01*
X23100Y126720D01*
X23095Y126686D01*
X22575Y124606D01*
X22573Y124596D01*
X22569Y124583D01*
X22084Y122541D01*
X21987Y122255D01*
X12575Y84607D01*
X12569Y84563D01*
X12553Y84506D01*
X11730Y80313D01*
X11725Y80258D01*
X11694Y80003D01*
X11353Y71476D01*
X11357Y71421D01*
X11365Y71164D01*
X11850Y66919D01*
X11860Y66875D01*
X11865Y66816D01*
X12264Y64424D01*
X19822Y19070D01*
X19823Y19070D01*
X19848Y18915D01*
X19848Y18914D01*
X20221Y16678D01*
X20237Y16620D01*
X20250Y16538D01*
X20439Y15751D01*
X20454Y15705D01*
X20463Y15658D01*
X20546Y15441D01*
X20547Y15436D01*
X20548Y15435D01*
X20550Y15430D01*
X20571Y15370D01*
X20577Y15361D01*
X20581Y15348D01*
X21279Y13890D01*
X21341Y13788D01*
X21395Y13681D01*
X21453Y13603D01*
X21488Y13545D01*
X21535Y13495D01*
X21594Y13416D01*
X22669Y12208D01*
X22757Y12127D01*
X22838Y12040D01*
X22915Y11982D01*
X22965Y11936D01*
X23024Y11900D01*
X23103Y11840D01*
X24471Y10979D01*
X24578Y10925D01*
X24680Y10864D01*
X24770Y10829D01*
X24831Y10799D01*
X24898Y10781D01*
X24990Y10746D01*
X26543Y10297D01*
X26590Y10289D01*
X26636Y10273D01*
X26877Y10236D01*
X26939Y10225D01*
X26950Y10225D01*
X26964Y10223D01*
X27772Y10166D01*
X27832Y10168D01*
X27915Y10161D01*
X431800Y10161D01*
X431866Y10167D01*
G37*
%LPC*%
G36*
X324666Y98067D02*
X324666Y98067D01*
X313976Y100932D01*
X304391Y106465D01*
X296565Y114291D01*
X291032Y123876D01*
X288167Y134566D01*
X288167Y145796D01*
X288165Y145814D01*
X288167Y145832D01*
X288146Y146014D01*
X288127Y146197D01*
X288122Y146214D01*
X288120Y146231D01*
X288063Y146406D01*
X288009Y146582D01*
X288001Y146597D01*
X287995Y146614D01*
X287905Y146774D01*
X287817Y146936D01*
X287806Y146949D01*
X287797Y146965D01*
X287677Y147104D01*
X287560Y147245D01*
X287546Y147256D01*
X287534Y147270D01*
X287389Y147382D01*
X287246Y147497D01*
X287230Y147505D01*
X287216Y147516D01*
X287051Y147598D01*
X286889Y147683D01*
X286872Y147688D01*
X286856Y147696D01*
X286677Y147743D01*
X286502Y147794D01*
X286484Y147796D01*
X286467Y147800D01*
X286136Y147827D01*
X227736Y147827D01*
X227713Y147825D01*
X227691Y147827D01*
X227514Y147805D01*
X227335Y147787D01*
X227314Y147781D01*
X227292Y147778D01*
X227122Y147722D01*
X226950Y147669D01*
X226930Y147659D01*
X226909Y147652D01*
X226754Y147563D01*
X226596Y147477D01*
X226579Y147463D01*
X226560Y147452D01*
X226425Y147335D01*
X226287Y147220D01*
X226273Y147202D01*
X226256Y147188D01*
X226147Y147046D01*
X226035Y146906D01*
X226024Y146886D01*
X226011Y146868D01*
X225859Y146573D01*
X225591Y145925D01*
X222375Y142709D01*
X220744Y142034D01*
X218174Y140969D01*
X213626Y140969D01*
X209425Y142709D01*
X206209Y145925D01*
X205369Y147955D01*
X205327Y148033D01*
X205294Y148116D01*
X205232Y148210D01*
X205179Y148310D01*
X205122Y148378D01*
X205073Y148453D01*
X204994Y148533D01*
X204922Y148620D01*
X204853Y148676D01*
X204791Y148739D01*
X204697Y148803D01*
X204609Y148874D01*
X204531Y148915D01*
X204457Y148965D01*
X204353Y149009D01*
X204253Y149061D01*
X204168Y149086D01*
X204086Y149120D01*
X203975Y149142D01*
X203867Y149174D01*
X203778Y149182D01*
X203691Y149199D01*
X203578Y149199D01*
X203465Y149209D01*
X203377Y149199D01*
X203288Y149199D01*
X203178Y149176D01*
X203065Y149164D01*
X202981Y149136D01*
X202894Y149119D01*
X202790Y149075D01*
X202682Y149040D01*
X202604Y148997D01*
X202523Y148963D01*
X202429Y148899D01*
X202331Y148844D01*
X202263Y148786D01*
X202190Y148736D01*
X202110Y148656D01*
X202025Y148582D01*
X201970Y148512D01*
X201908Y148449D01*
X201846Y148354D01*
X201776Y148265D01*
X201737Y148186D01*
X201688Y148111D01*
X201634Y147981D01*
X201596Y147905D01*
X201584Y147861D01*
X201570Y147829D01*
X200711Y146143D01*
X199606Y144622D01*
X198278Y143294D01*
X196757Y142189D01*
X195083Y141336D01*
X193296Y140755D01*
X192531Y140634D01*
X192531Y152400D01*
X192531Y164166D01*
X193296Y164045D01*
X195083Y163464D01*
X196757Y162611D01*
X198278Y161506D01*
X199606Y160178D01*
X200711Y158657D01*
X201574Y156964D01*
X201596Y156913D01*
X201622Y156829D01*
X201676Y156730D01*
X201722Y156626D01*
X201773Y156553D01*
X201816Y156475D01*
X201888Y156389D01*
X201953Y156296D01*
X202018Y156235D01*
X202075Y156167D01*
X202163Y156097D01*
X202245Y156019D01*
X202320Y155972D01*
X202390Y155916D01*
X202490Y155865D01*
X202586Y155805D01*
X202669Y155773D01*
X202748Y155732D01*
X202856Y155702D01*
X202962Y155661D01*
X203050Y155647D01*
X203135Y155623D01*
X203248Y155614D01*
X203359Y155595D01*
X203448Y155598D01*
X203536Y155592D01*
X203649Y155605D01*
X203762Y155609D01*
X203848Y155630D01*
X203936Y155640D01*
X204043Y155676D01*
X204153Y155702D01*
X204234Y155739D01*
X204318Y155767D01*
X204416Y155823D01*
X204519Y155870D01*
X204591Y155922D01*
X204668Y155966D01*
X204753Y156041D01*
X204845Y156107D01*
X204905Y156172D01*
X204972Y156231D01*
X205041Y156320D01*
X205117Y156403D01*
X205163Y156480D01*
X205217Y156550D01*
X205281Y156675D01*
X205325Y156748D01*
X205341Y156791D01*
X205369Y156845D01*
X206209Y158875D01*
X209425Y162091D01*
X210806Y162662D01*
X210806Y162663D01*
X213626Y163831D01*
X218174Y163831D01*
X222375Y162091D01*
X225591Y158875D01*
X225859Y158227D01*
X225870Y158207D01*
X225876Y158186D01*
X225965Y158030D01*
X226049Y157872D01*
X226063Y157855D01*
X226074Y157835D01*
X226191Y157700D01*
X226306Y157561D01*
X226323Y157547D01*
X226338Y157530D01*
X226479Y157421D01*
X226618Y157308D01*
X226638Y157297D01*
X226656Y157284D01*
X226816Y157204D01*
X226975Y157121D01*
X226996Y157114D01*
X227016Y157104D01*
X227190Y157058D01*
X227361Y157008D01*
X227383Y157006D01*
X227405Y157000D01*
X227736Y156973D01*
X286136Y156973D01*
X286154Y156975D01*
X286172Y156973D01*
X286354Y156994D01*
X286537Y157013D01*
X286554Y157018D01*
X286571Y157020D01*
X286746Y157077D01*
X286922Y157131D01*
X286937Y157139D01*
X286954Y157145D01*
X287114Y157235D01*
X287276Y157323D01*
X287289Y157334D01*
X287305Y157343D01*
X287444Y157463D01*
X287585Y157580D01*
X287596Y157594D01*
X287610Y157606D01*
X287722Y157751D01*
X287837Y157894D01*
X287845Y157910D01*
X287856Y157924D01*
X287938Y158089D01*
X288023Y158251D01*
X288028Y158268D01*
X288036Y158284D01*
X288083Y158463D01*
X288134Y158638D01*
X288136Y158656D01*
X288140Y158673D01*
X288167Y159004D01*
X288167Y195634D01*
X291032Y206324D01*
X296565Y215909D01*
X304391Y223735D01*
X313976Y229268D01*
X324666Y232133D01*
X335734Y232133D01*
X346424Y229268D01*
X356009Y223735D01*
X363835Y215909D01*
X369368Y206324D01*
X372233Y195634D01*
X372233Y134566D01*
X369368Y123876D01*
X363835Y114291D01*
X356009Y106465D01*
X346424Y100932D01*
X335734Y98067D01*
X324666Y98067D01*
G37*
%LPD*%
%LPC*%
G36*
X236753Y243839D02*
X236753Y243839D01*
X228350Y247320D01*
X221920Y253750D01*
X218439Y262153D01*
X218439Y271247D01*
X221920Y279650D01*
X228350Y286080D01*
X236753Y289561D01*
X245847Y289561D01*
X254250Y286080D01*
X260680Y279650D01*
X264161Y271247D01*
X264161Y262153D01*
X260680Y253750D01*
X254250Y247320D01*
X245847Y243839D01*
X236753Y243839D01*
G37*
%LPD*%
%LPC*%
G36*
X213626Y24891D02*
X213626Y24891D01*
X209425Y26631D01*
X206209Y29847D01*
X204469Y34048D01*
X204469Y38596D01*
X206209Y42797D01*
X209425Y46013D01*
X211522Y46881D01*
X213626Y47753D01*
X218174Y47753D01*
X222375Y46013D01*
X225591Y42797D01*
X226723Y40062D01*
X226728Y40054D01*
X226730Y40046D01*
X226823Y39877D01*
X226914Y39707D01*
X226919Y39700D01*
X226924Y39692D01*
X227047Y39546D01*
X227170Y39397D01*
X227177Y39391D01*
X227183Y39384D01*
X227333Y39265D01*
X227483Y39143D01*
X227491Y39139D01*
X227497Y39133D01*
X227669Y39045D01*
X227839Y38956D01*
X227848Y38953D01*
X227856Y38949D01*
X228041Y38897D01*
X228226Y38843D01*
X228234Y38842D01*
X228243Y38840D01*
X228434Y38825D01*
X228627Y38808D01*
X228636Y38809D01*
X228644Y38809D01*
X228837Y38832D01*
X229027Y38853D01*
X229035Y38856D01*
X229044Y38857D01*
X229229Y38918D01*
X229410Y38977D01*
X229418Y38981D01*
X229426Y38984D01*
X229594Y39079D01*
X229762Y39173D01*
X229768Y39179D01*
X229776Y39183D01*
X229921Y39310D01*
X230067Y39435D01*
X230073Y39442D01*
X230080Y39448D01*
X230197Y39600D01*
X230316Y39752D01*
X230320Y39760D01*
X230325Y39767D01*
X230477Y40062D01*
X231609Y42797D01*
X234825Y46013D01*
X236922Y46881D01*
X239026Y47753D01*
X243574Y47753D01*
X247775Y46013D01*
X250991Y42797D01*
X252731Y38596D01*
X252731Y34048D01*
X250991Y29847D01*
X247775Y26631D01*
X243574Y24891D01*
X239026Y24891D01*
X234825Y26631D01*
X231609Y29847D01*
X230477Y32582D01*
X230472Y32590D01*
X230470Y32598D01*
X230377Y32767D01*
X230286Y32937D01*
X230281Y32944D01*
X230276Y32952D01*
X230152Y33099D01*
X230030Y33247D01*
X230023Y33253D01*
X230017Y33260D01*
X229866Y33380D01*
X229717Y33501D01*
X229710Y33505D01*
X229702Y33511D01*
X229532Y33598D01*
X229361Y33688D01*
X229352Y33691D01*
X229344Y33695D01*
X229162Y33746D01*
X228974Y33801D01*
X228965Y33802D01*
X228957Y33804D01*
X228766Y33819D01*
X228573Y33836D01*
X228564Y33835D01*
X228556Y33835D01*
X228365Y33812D01*
X228173Y33791D01*
X228165Y33788D01*
X228156Y33787D01*
X227975Y33727D01*
X227790Y33667D01*
X227782Y33663D01*
X227774Y33660D01*
X227607Y33565D01*
X227438Y33471D01*
X227432Y33465D01*
X227424Y33461D01*
X227277Y33333D01*
X227133Y33209D01*
X227127Y33202D01*
X227120Y33196D01*
X227003Y33043D01*
X226884Y32892D01*
X226880Y32884D01*
X226875Y32877D01*
X226723Y32582D01*
X225591Y29847D01*
X222375Y26631D01*
X218174Y24891D01*
X213626Y24891D01*
G37*
%LPD*%
%LPC*%
G36*
X218439Y64770D02*
X218439Y64770D01*
X218437Y64788D01*
X218439Y64805D01*
X218418Y64988D01*
X218399Y65170D01*
X218394Y65187D01*
X218392Y65205D01*
X218367Y65283D01*
X218406Y65420D01*
X218408Y65438D01*
X218412Y65455D01*
X218439Y65786D01*
X218439Y76963D01*
X218696Y76923D01*
X220483Y76342D01*
X222157Y75489D01*
X223678Y74384D01*
X225006Y73056D01*
X226111Y71535D01*
X226974Y69842D01*
X226996Y69791D01*
X227022Y69707D01*
X227076Y69608D01*
X227122Y69504D01*
X227173Y69431D01*
X227216Y69353D01*
X227288Y69267D01*
X227353Y69174D01*
X227418Y69113D01*
X227475Y69045D01*
X227563Y68975D01*
X227645Y68897D01*
X227720Y68850D01*
X227790Y68794D01*
X227890Y68743D01*
X227986Y68683D01*
X228069Y68651D01*
X228148Y68610D01*
X228256Y68580D01*
X228362Y68539D01*
X228450Y68525D01*
X228535Y68501D01*
X228648Y68492D01*
X228759Y68473D01*
X228848Y68476D01*
X228936Y68470D01*
X229049Y68483D01*
X229162Y68487D01*
X229248Y68508D01*
X229336Y68518D01*
X229443Y68554D01*
X229553Y68580D01*
X229634Y68617D01*
X229718Y68645D01*
X229816Y68701D01*
X229919Y68748D01*
X229991Y68800D01*
X230068Y68844D01*
X230153Y68919D01*
X230245Y68985D01*
X230305Y69050D01*
X230372Y69109D01*
X230441Y69198D01*
X230517Y69281D01*
X230563Y69358D01*
X230617Y69428D01*
X230681Y69553D01*
X230725Y69626D01*
X230741Y69669D01*
X230769Y69723D01*
X231609Y71753D01*
X234825Y74969D01*
X239026Y76709D01*
X243574Y76709D01*
X247775Y74969D01*
X250991Y71753D01*
X252731Y67552D01*
X252731Y63004D01*
X250991Y58803D01*
X247775Y55587D01*
X243574Y53847D01*
X239026Y53847D01*
X234825Y55587D01*
X231609Y58803D01*
X230769Y60833D01*
X230727Y60911D01*
X230694Y60994D01*
X230632Y61088D01*
X230579Y61188D01*
X230522Y61256D01*
X230473Y61331D01*
X230394Y61411D01*
X230322Y61498D01*
X230253Y61554D01*
X230191Y61617D01*
X230097Y61681D01*
X230009Y61752D01*
X229931Y61793D01*
X229857Y61843D01*
X229753Y61887D01*
X229653Y61939D01*
X229568Y61964D01*
X229486Y61998D01*
X229375Y62020D01*
X229267Y62052D01*
X229178Y62060D01*
X229091Y62077D01*
X228978Y62077D01*
X228865Y62087D01*
X228777Y62077D01*
X228688Y62077D01*
X228578Y62054D01*
X228465Y62042D01*
X228381Y62014D01*
X228294Y61997D01*
X228190Y61953D01*
X228082Y61918D01*
X228004Y61875D01*
X227923Y61841D01*
X227829Y61777D01*
X227731Y61722D01*
X227663Y61664D01*
X227590Y61614D01*
X227510Y61534D01*
X227425Y61460D01*
X227370Y61390D01*
X227308Y61327D01*
X227246Y61232D01*
X227176Y61143D01*
X227137Y61064D01*
X227088Y60989D01*
X227034Y60859D01*
X226996Y60783D01*
X226984Y60739D01*
X226970Y60707D01*
X226111Y59021D01*
X225006Y57500D01*
X223678Y56172D01*
X222157Y55067D01*
X220483Y54214D01*
X218696Y53633D01*
X218439Y53593D01*
X218439Y64770D01*
G37*
%LPD*%
%LPC*%
G36*
X317753Y280923D02*
X317753Y280923D01*
X317753Y289561D01*
X341377Y289561D01*
X341377Y280923D01*
X317753Y280923D01*
G37*
%LPD*%
%LPC*%
G36*
X319023Y57403D02*
X319023Y57403D01*
X319023Y66041D01*
X342647Y66041D01*
X342647Y57403D01*
X319023Y57403D01*
G37*
%LPD*%
%LPC*%
G36*
X319023Y40639D02*
X319023Y40639D01*
X319023Y49277D01*
X342647Y49277D01*
X342647Y40639D01*
X319023Y40639D01*
G37*
%LPD*%
%LPC*%
G36*
X317753Y264159D02*
X317753Y264159D01*
X317753Y272797D01*
X341377Y272797D01*
X341377Y264159D01*
X317753Y264159D01*
G37*
%LPD*%
%LPC*%
G36*
X349503Y280923D02*
X349503Y280923D01*
X349503Y289561D01*
X361650Y289561D01*
X362296Y289388D01*
X362875Y289053D01*
X363348Y288580D01*
X363683Y288001D01*
X363856Y287355D01*
X363856Y280923D01*
X349503Y280923D01*
G37*
%LPD*%
%LPC*%
G36*
X350773Y57403D02*
X350773Y57403D01*
X350773Y66041D01*
X362920Y66041D01*
X363566Y65868D01*
X364145Y65533D01*
X364618Y65060D01*
X364953Y64481D01*
X365126Y63835D01*
X365126Y57403D01*
X350773Y57403D01*
G37*
%LPD*%
%LPC*%
G36*
X296544Y57403D02*
X296544Y57403D01*
X296544Y63835D01*
X296717Y64481D01*
X297052Y65060D01*
X297525Y65533D01*
X298104Y65868D01*
X298750Y66041D01*
X310897Y66041D01*
X310897Y57403D01*
X296544Y57403D01*
G37*
%LPD*%
%LPC*%
G36*
X295274Y280923D02*
X295274Y280923D01*
X295274Y287355D01*
X295447Y288001D01*
X295782Y288580D01*
X296255Y289053D01*
X296834Y289388D01*
X297480Y289561D01*
X309627Y289561D01*
X309627Y280923D01*
X295274Y280923D01*
G37*
%LPD*%
%LPC*%
G36*
X349503Y264159D02*
X349503Y264159D01*
X349503Y272797D01*
X363856Y272797D01*
X363856Y266365D01*
X363683Y265719D01*
X363348Y265140D01*
X362875Y264667D01*
X362296Y264332D01*
X361650Y264159D01*
X349503Y264159D01*
G37*
%LPD*%
%LPC*%
G36*
X350773Y40639D02*
X350773Y40639D01*
X350773Y49277D01*
X365126Y49277D01*
X365126Y42845D01*
X364953Y42199D01*
X364618Y41620D01*
X364145Y41147D01*
X363566Y40812D01*
X362920Y40639D01*
X350773Y40639D01*
G37*
%LPD*%
%LPC*%
G36*
X297480Y264159D02*
X297480Y264159D01*
X296834Y264332D01*
X296255Y264667D01*
X295782Y265140D01*
X295447Y265719D01*
X295274Y266365D01*
X295274Y272797D01*
X309627Y272797D01*
X309627Y264159D01*
X297480Y264159D01*
G37*
%LPD*%
%LPC*%
G36*
X298750Y40639D02*
X298750Y40639D01*
X298104Y40812D01*
X297525Y41147D01*
X297052Y41620D01*
X296717Y42199D01*
X296544Y42845D01*
X296544Y49277D01*
X310897Y49277D01*
X310897Y40639D01*
X298750Y40639D01*
G37*
%LPD*%
%LPC*%
G36*
X178734Y154431D02*
X178734Y154431D01*
X178855Y155196D01*
X179436Y156983D01*
X180289Y158657D01*
X181394Y160178D01*
X182722Y161506D01*
X184243Y162611D01*
X185917Y163464D01*
X187704Y164045D01*
X188469Y164166D01*
X188469Y154431D01*
X178734Y154431D01*
G37*
%LPD*%
%LPC*%
G36*
X187704Y140755D02*
X187704Y140755D01*
X185917Y141336D01*
X184243Y142189D01*
X182722Y143294D01*
X181394Y144622D01*
X180289Y146143D01*
X179436Y147817D01*
X178855Y149604D01*
X178734Y150369D01*
X188469Y150369D01*
X188469Y140634D01*
X187704Y140755D01*
G37*
%LPD*%
%LPC*%
G36*
X204215Y67817D02*
X204215Y67817D01*
X204255Y68074D01*
X204836Y69861D01*
X205689Y71535D01*
X206794Y73056D01*
X208122Y74384D01*
X209643Y75489D01*
X211317Y76342D01*
X213104Y76923D01*
X213361Y76963D01*
X213361Y67817D01*
X204215Y67817D01*
G37*
%LPD*%
%LPC*%
G36*
X213104Y53633D02*
X213104Y53633D01*
X211317Y54214D01*
X209643Y55067D01*
X208122Y56172D01*
X206794Y57500D01*
X205689Y59021D01*
X204836Y60695D01*
X204255Y62482D01*
X204215Y62739D01*
X213361Y62739D01*
X213361Y53593D01*
X213104Y53633D01*
G37*
%LPD*%
%LPC*%
G36*
X313689Y276859D02*
X313689Y276859D01*
X313689Y276861D01*
X313691Y276861D01*
X313691Y276859D01*
X313689Y276859D01*
G37*
%LPD*%
%LPC*%
G36*
X346709Y53339D02*
X346709Y53339D01*
X346709Y53341D01*
X346711Y53341D01*
X346711Y53339D01*
X346709Y53339D01*
G37*
%LPD*%
%LPC*%
G36*
X314959Y53339D02*
X314959Y53339D01*
X314959Y53341D01*
X314961Y53341D01*
X314961Y53339D01*
X314959Y53339D01*
G37*
%LPD*%
%LPC*%
G36*
X345439Y276859D02*
X345439Y276859D01*
X345439Y276861D01*
X345441Y276861D01*
X345441Y276859D01*
X345439Y276859D01*
G37*
%LPD*%
D10*
X215900Y65278D03*
X215900Y36322D03*
X241300Y65278D03*
X241300Y36322D03*
X190500Y152400D03*
X215900Y152400D03*
D11*
X313690Y276860D03*
D12*
X330200Y190100D02*
X330200Y140100D01*
D11*
X346710Y53340D03*
X345440Y276860D03*
X314960Y53340D03*
D13*
X304800Y152400D02*
X215900Y152400D01*
X304800Y152400D02*
X342900Y190500D01*
M02*
