G04 EAGLE Gerber X2 export*
G75*
%MOMM*%
%FSLAX34Y34*%
%LPD*%
%AMOC8*
5,1,8,0,0,1.08239X$1,22.5*%
G01*
%ADD10C,0.355600*%
%ADD11C,2.743200*%
%ADD12R,5.850000X0.150000*%
%ADD13R,3.000000X0.150000*%
%ADD14R,28.350000X0.150000*%
%ADD15R,40.200000X0.150000*%
%ADD16R,40.350000X0.150000*%
%ADD17R,18.000000X0.150000*%
%ADD18R,4.050000X0.150000*%
%ADD19R,8.850000X0.150000*%
%ADD20R,0.750000X0.150000*%
%ADD21R,0.600000X0.150000*%
%ADD22R,0.450000X0.150000*%
%ADD23R,0.900000X0.150000*%
%ADD24R,1.050000X0.150000*%
%ADD25R,1.350000X0.150000*%
%ADD26R,0.300000X0.150000*%
%ADD27R,1.800000X0.150000*%
%ADD28R,1.200000X0.150000*%
%ADD29R,1.950000X0.150000*%
%ADD30R,2.400000X0.150000*%
%ADD31R,1.650000X0.150000*%
%ADD32R,0.150000X0.150000*%
%ADD33R,2.250000X0.150000*%
%ADD34R,2.550000X0.150000*%
%ADD35R,2.100000X0.150000*%
%ADD36R,1.500000X0.150000*%
%ADD37R,3.450000X0.150000*%
%ADD38R,3.600000X0.150000*%
%ADD39R,2.700000X0.150000*%
%ADD40R,12.750000X0.150000*%
%ADD41R,12.300000X0.150000*%
%ADD42R,12.000000X0.150000*%
%ADD43R,11.700000X0.150000*%
%ADD44C,2.082800*%
%ADD45R,3.378200X2.235200*%
%ADD46C,8.203200*%


D10*
X146045Y169672D02*
X146045Y181874D01*
X139944Y187976D01*
X133842Y181874D01*
X133842Y169672D01*
X133842Y178824D02*
X146045Y178824D01*
X125931Y187976D02*
X122881Y187976D01*
X122881Y169672D01*
X125931Y169672D02*
X119830Y169672D01*
X112522Y181874D02*
X109471Y181874D01*
X109471Y169672D01*
X106421Y169672D02*
X112522Y169672D01*
X109471Y187976D02*
X109471Y191026D01*
X99113Y169672D02*
X89961Y169672D01*
X86911Y172723D01*
X89961Y175773D01*
X96062Y175773D01*
X99113Y178824D01*
X96062Y181874D01*
X86911Y181874D01*
X156102Y155210D02*
X156102Y143007D01*
X150000Y136906D01*
X143899Y143007D01*
X143899Y155210D01*
X132937Y136906D02*
X126836Y136906D01*
X123786Y139957D01*
X123786Y146058D01*
X126836Y149108D01*
X132937Y149108D01*
X135988Y146058D01*
X135988Y139957D01*
X132937Y136906D01*
X115874Y155210D02*
X112824Y155210D01*
X112824Y136906D01*
X115874Y136906D02*
X109773Y136906D01*
X99415Y149108D02*
X93313Y149108D01*
X90263Y146058D01*
X90263Y136906D01*
X99415Y136906D01*
X102465Y139957D01*
X99415Y143007D01*
X90263Y143007D01*
X79301Y139957D02*
X79301Y152159D01*
X79301Y139957D02*
X76250Y136906D01*
X76250Y149108D02*
X82352Y149108D01*
X182920Y122444D02*
X182920Y104140D01*
X182920Y122444D02*
X173768Y122444D01*
X170717Y119393D01*
X170717Y113292D01*
X173768Y110241D01*
X182920Y110241D01*
X162806Y104140D02*
X162806Y116342D01*
X162806Y110241D02*
X156705Y116342D01*
X153654Y116342D01*
X142994Y104140D02*
X136893Y104140D01*
X133842Y107191D01*
X133842Y113292D01*
X136893Y116342D01*
X142994Y116342D01*
X146045Y113292D01*
X146045Y107191D01*
X142994Y104140D01*
X125931Y98039D02*
X125931Y116342D01*
X116779Y116342D01*
X113729Y113292D01*
X113729Y107191D01*
X116779Y104140D01*
X125931Y104140D01*
X105818Y104140D02*
X105818Y116342D01*
X105818Y110241D02*
X99716Y116342D01*
X96666Y116342D01*
X89056Y116342D02*
X86006Y116342D01*
X86006Y104140D01*
X89056Y104140D02*
X82955Y104140D01*
X86006Y122444D02*
X86006Y125494D01*
X75647Y116342D02*
X72596Y116342D01*
X72596Y104140D01*
X69546Y104140D02*
X75647Y104140D01*
X72596Y122444D02*
X72596Y125494D01*
X62238Y104140D02*
X53086Y104140D01*
X50036Y107191D01*
X53086Y110241D01*
X59187Y110241D01*
X62238Y113292D01*
X59187Y116342D01*
X50036Y116342D01*
D11*
X241300Y266700D03*
D12*
X60700Y12700D03*
D13*
X107950Y12700D03*
D14*
X288700Y12700D03*
D15*
X230950Y14200D03*
D16*
X230200Y15700D03*
D17*
X115450Y17200D03*
D18*
X279700Y17200D03*
D19*
X387700Y17200D03*
D20*
X29200Y18700D03*
D21*
X428950Y18700D03*
D20*
X27700Y20200D03*
D21*
X428950Y20200D03*
D20*
X26200Y21700D03*
D21*
X428950Y21700D03*
X25450Y23200D03*
X428950Y23200D03*
X25450Y24700D03*
X428950Y24700D03*
X25450Y26200D03*
X428950Y26200D03*
X23950Y27700D03*
X428950Y27700D03*
X23950Y29200D03*
X428950Y29200D03*
X23950Y30700D03*
X428950Y30700D03*
D20*
X23200Y32200D03*
D21*
X428950Y32200D03*
X22450Y33700D03*
X428950Y33700D03*
X22450Y35200D03*
X428950Y35200D03*
X22450Y36700D03*
X428950Y36700D03*
D20*
X21700Y38200D03*
D21*
X428950Y38200D03*
X20950Y39700D03*
X428950Y39700D03*
X20950Y41200D03*
X428950Y41200D03*
X20950Y42700D03*
X428950Y42700D03*
X20950Y44200D03*
X428950Y44200D03*
X20950Y45700D03*
X428950Y45700D03*
X20950Y47200D03*
X428950Y47200D03*
X20950Y48700D03*
X428950Y48700D03*
D22*
X21700Y50200D03*
D21*
X428950Y50200D03*
X22450Y51700D03*
X428950Y51700D03*
X22450Y53200D03*
X428950Y53200D03*
X22450Y54700D03*
X428950Y54700D03*
D22*
X23200Y56200D03*
D21*
X428950Y56200D03*
X22450Y57700D03*
X428950Y57700D03*
X22450Y59200D03*
X428950Y59200D03*
X22450Y60700D03*
X428950Y60700D03*
X22450Y62200D03*
X428950Y62200D03*
D20*
X21700Y63700D03*
D21*
X428950Y63700D03*
D20*
X20200Y65200D03*
D21*
X428950Y65200D03*
D20*
X18700Y66700D03*
D21*
X428950Y66700D03*
D23*
X17950Y68200D03*
D21*
X428950Y68200D03*
D20*
X17200Y69700D03*
D21*
X428950Y69700D03*
D20*
X17200Y71200D03*
D21*
X428950Y71200D03*
D22*
X15700Y72700D03*
D21*
X428950Y72700D03*
X14950Y74200D03*
X428950Y74200D03*
X14950Y75700D03*
X428950Y75700D03*
X14950Y77200D03*
X428950Y77200D03*
X14950Y78700D03*
X428950Y78700D03*
D20*
X15700Y80200D03*
D21*
X428950Y80200D03*
X16450Y81700D03*
X428950Y81700D03*
D20*
X17200Y83200D03*
D21*
X428950Y83200D03*
X17950Y84700D03*
X428950Y84700D03*
X17950Y86200D03*
X428950Y86200D03*
X19450Y87700D03*
X428950Y87700D03*
X19450Y89200D03*
X428950Y89200D03*
X19450Y90700D03*
X428950Y90700D03*
D22*
X20200Y92200D03*
D21*
X428950Y92200D03*
X20950Y93700D03*
X428950Y93700D03*
X20950Y95200D03*
X428950Y95200D03*
X20950Y96700D03*
X428950Y96700D03*
X20950Y98200D03*
X428950Y98200D03*
D20*
X21700Y99700D03*
D21*
X428950Y99700D03*
X22450Y101200D03*
X428950Y101200D03*
X22450Y102700D03*
X428950Y102700D03*
X22450Y104200D03*
X428950Y104200D03*
D22*
X23200Y105700D03*
D21*
X428950Y105700D03*
D22*
X23200Y107200D03*
D21*
X428950Y107200D03*
X23950Y108700D03*
X428950Y108700D03*
X23950Y110200D03*
X428950Y110200D03*
X22450Y111700D03*
X428950Y111700D03*
D20*
X23200Y113200D03*
D21*
X428950Y113200D03*
D20*
X24700Y114700D03*
D21*
X428950Y114700D03*
D23*
X25450Y116200D03*
D21*
X428950Y116200D03*
X26950Y117700D03*
X428950Y117700D03*
D22*
X27700Y119200D03*
D21*
X428950Y119200D03*
X28450Y120700D03*
X428950Y120700D03*
X28450Y122200D03*
X428950Y122200D03*
D22*
X29200Y123700D03*
D21*
X428950Y123700D03*
X29950Y125200D03*
X428950Y125200D03*
X29950Y126700D03*
X428950Y126700D03*
X31450Y128200D03*
X428950Y128200D03*
X31450Y129700D03*
X428950Y129700D03*
X31450Y131200D03*
X428950Y131200D03*
X31450Y132700D03*
X428950Y132700D03*
X32950Y134200D03*
X428950Y134200D03*
X32950Y135700D03*
X428950Y135700D03*
X32950Y137200D03*
X428950Y137200D03*
X32950Y138700D03*
X428950Y138700D03*
X32950Y140200D03*
X428950Y140200D03*
X34450Y141700D03*
X428950Y141700D03*
X34450Y143200D03*
X428950Y143200D03*
X34450Y144700D03*
X428950Y144700D03*
X34450Y146200D03*
X428950Y146200D03*
X34450Y147700D03*
X428950Y147700D03*
D22*
X35200Y149200D03*
D21*
X428950Y149200D03*
X35950Y150700D03*
X428950Y150700D03*
X35950Y152200D03*
X428950Y152200D03*
X35950Y153700D03*
D20*
X429700Y153700D03*
D21*
X35950Y155200D03*
D20*
X431200Y155200D03*
D21*
X35950Y156700D03*
D20*
X431200Y156700D03*
D22*
X36700Y158200D03*
D21*
X431950Y158200D03*
D22*
X36700Y159700D03*
D21*
X431950Y159700D03*
D22*
X36700Y161200D03*
D21*
X431950Y161200D03*
D22*
X36700Y162700D03*
D20*
X432700Y162700D03*
D21*
X37450Y164200D03*
X433450Y164200D03*
X37450Y165700D03*
X433450Y165700D03*
X37450Y167200D03*
D20*
X432700Y167200D03*
D21*
X37450Y168700D03*
D20*
X432700Y168700D03*
D21*
X37450Y170200D03*
X431950Y170200D03*
X37450Y171700D03*
D20*
X432700Y171700D03*
D22*
X38200Y173200D03*
D24*
X432700Y173200D03*
D22*
X38200Y174700D03*
D23*
X433450Y174700D03*
D22*
X38200Y176200D03*
D21*
X434950Y176200D03*
D22*
X38200Y177700D03*
D20*
X434200Y177700D03*
D21*
X38950Y179200D03*
D23*
X433450Y179200D03*
D21*
X38950Y180700D03*
D25*
X431200Y180700D03*
D21*
X38950Y182200D03*
D26*
X421450Y182200D03*
D24*
X429700Y182200D03*
D21*
X38950Y183700D03*
D27*
X425950Y183700D03*
D21*
X38950Y185200D03*
D27*
X424450Y185200D03*
D21*
X38950Y186700D03*
D28*
X421450Y186700D03*
D21*
X38950Y188200D03*
D24*
X420700Y188200D03*
D21*
X38950Y189700D03*
X418450Y189700D03*
X38950Y191200D03*
X418450Y191200D03*
D22*
X39700Y192700D03*
D20*
X417700Y192700D03*
D22*
X39700Y194200D03*
D21*
X416950Y194200D03*
X40450Y195700D03*
X416950Y195700D03*
X40450Y197200D03*
X418450Y197200D03*
X40450Y198700D03*
X418450Y198700D03*
X40450Y200200D03*
X418450Y200200D03*
X40450Y201700D03*
X418450Y201700D03*
X40450Y203200D03*
D20*
X419200Y203200D03*
D21*
X40450Y204700D03*
D20*
X420700Y204700D03*
D21*
X40450Y206200D03*
X421450Y206200D03*
X40450Y207700D03*
X422950Y207700D03*
X40450Y209200D03*
X422950Y209200D03*
X40450Y210700D03*
X422950Y210700D03*
X40450Y212200D03*
X424450Y212200D03*
D20*
X41200Y213700D03*
D21*
X424450Y213700D03*
X41950Y215200D03*
X424450Y215200D03*
X40450Y216700D03*
X425950Y216700D03*
X40450Y218200D03*
X425950Y218200D03*
D22*
X41200Y219700D03*
D20*
X426700Y219700D03*
D22*
X41200Y221200D03*
D23*
X428950Y221200D03*
D21*
X40450Y222700D03*
D24*
X429700Y222700D03*
D21*
X40450Y224200D03*
D24*
X431200Y224200D03*
D21*
X40450Y225700D03*
D20*
X432700Y225700D03*
D21*
X40450Y227200D03*
X434950Y227200D03*
X41950Y228700D03*
D20*
X435700Y228700D03*
D21*
X41950Y230200D03*
X436450Y230200D03*
X41950Y231700D03*
D20*
X437200Y231700D03*
D22*
X42700Y233200D03*
D21*
X437950Y233200D03*
D22*
X42700Y234700D03*
D21*
X439450Y234700D03*
X43450Y236200D03*
X439450Y236200D03*
X43450Y237700D03*
X439450Y237700D03*
X43450Y239200D03*
X437950Y239200D03*
X43450Y240700D03*
X437950Y240700D03*
D22*
X44200Y242200D03*
D21*
X437950Y242200D03*
D22*
X44200Y243700D03*
D21*
X439450Y243700D03*
X43450Y245200D03*
D20*
X440200Y245200D03*
D21*
X43450Y246700D03*
D20*
X441700Y246700D03*
D21*
X44950Y248200D03*
X442450Y248200D03*
X44950Y249700D03*
D20*
X443200Y249700D03*
D22*
X45700Y251200D03*
D21*
X443950Y251200D03*
D22*
X45700Y252700D03*
D21*
X445450Y252700D03*
X46450Y254200D03*
X445450Y254200D03*
X46450Y255700D03*
X445450Y255700D03*
X46450Y257200D03*
D22*
X446200Y257200D03*
D21*
X46450Y258700D03*
D22*
X446200Y258700D03*
D21*
X46450Y260200D03*
X446950Y260200D03*
X46450Y261700D03*
X446950Y261700D03*
X46450Y263200D03*
X448450Y263200D03*
X46450Y264700D03*
X448450Y264700D03*
D20*
X45700Y266200D03*
D21*
X448450Y266200D03*
D20*
X45700Y267700D03*
D21*
X448450Y267700D03*
D20*
X45700Y269200D03*
D21*
X449950Y269200D03*
X46450Y270700D03*
X449950Y270700D03*
X46450Y272200D03*
X451450Y272200D03*
X46450Y273700D03*
D20*
X452200Y273700D03*
D21*
X46450Y275200D03*
X452950Y275200D03*
X46450Y276700D03*
D20*
X453700Y276700D03*
D21*
X46450Y278200D03*
X454450Y278200D03*
X46450Y279700D03*
X454450Y279700D03*
X46450Y281200D03*
D26*
X139450Y281200D03*
D21*
X455950Y281200D03*
X47950Y282700D03*
D23*
X139450Y282700D03*
D21*
X455950Y282700D03*
X47950Y284200D03*
D29*
X137200Y284200D03*
D26*
X149950Y284200D03*
D20*
X456700Y284200D03*
D21*
X47950Y285700D03*
D13*
X137950Y285700D03*
D20*
X458200Y285700D03*
D21*
X47950Y287200D03*
D30*
X125950Y287200D03*
D25*
X147700Y287200D03*
D20*
X201700Y287200D03*
X458200Y287200D03*
D21*
X47950Y288700D03*
D31*
X122200Y288700D03*
D22*
X134200Y288700D03*
D31*
X150700Y288700D03*
D23*
X200950Y288700D03*
D32*
X215200Y288700D03*
D20*
X458200Y288700D03*
D21*
X47950Y290200D03*
D31*
X119200Y290200D03*
D25*
X155200Y290200D03*
D33*
X207700Y290200D03*
D21*
X458950Y290200D03*
X47950Y291700D03*
D24*
X116200Y291700D03*
X156700Y291700D03*
D34*
X207700Y291700D03*
D21*
X458950Y291700D03*
X47950Y293200D03*
D23*
X113950Y293200D03*
X158950Y293200D03*
D22*
X170200Y293200D03*
X186700Y293200D03*
D23*
X196450Y293200D03*
D33*
X213700Y293200D03*
D21*
X239950Y293200D03*
D20*
X458200Y293200D03*
D21*
X47950Y294700D03*
X112450Y294700D03*
D35*
X167950Y294700D03*
D29*
X191200Y294700D03*
D30*
X215950Y294700D03*
D36*
X241450Y294700D03*
D20*
X456700Y294700D03*
D21*
X47950Y296200D03*
X112450Y296200D03*
D18*
X179200Y296200D03*
D25*
X222700Y296200D03*
D33*
X243700Y296200D03*
D21*
X455950Y296200D03*
X47950Y297700D03*
X112450Y297700D03*
D37*
X177700Y297700D03*
D38*
X238450Y297700D03*
D21*
X455950Y297700D03*
D20*
X47200Y299200D03*
D22*
X113200Y299200D03*
D26*
X164950Y299200D03*
D25*
X179200Y299200D03*
D26*
X190450Y299200D03*
D36*
X230950Y299200D03*
D25*
X251200Y299200D03*
D20*
X455200Y299200D03*
D21*
X46450Y300700D03*
X112450Y300700D03*
D22*
X180700Y300700D03*
D24*
X231700Y300700D03*
D28*
X256450Y300700D03*
D24*
X452200Y300700D03*
D21*
X46450Y302200D03*
X112450Y302200D03*
D22*
X231700Y302200D03*
D28*
X259450Y302200D03*
X451450Y302200D03*
D21*
X46450Y303700D03*
D20*
X111700Y303700D03*
D31*
X263200Y303700D03*
D25*
X447700Y303700D03*
D21*
X46450Y305200D03*
X110950Y305200D03*
D33*
X269200Y305200D03*
D25*
X446200Y305200D03*
D21*
X46450Y306700D03*
X110950Y306700D03*
D33*
X273700Y306700D03*
D24*
X444700Y306700D03*
D21*
X46450Y308200D03*
D22*
X111700Y308200D03*
D35*
X275950Y308200D03*
D24*
X443200Y308200D03*
D21*
X46450Y309700D03*
X110950Y309700D03*
D36*
X280450Y309700D03*
D32*
X293200Y309700D03*
D20*
X440200Y309700D03*
D21*
X46450Y311200D03*
X110950Y311200D03*
D29*
X291700Y311200D03*
D23*
X439450Y311200D03*
D21*
X46450Y312700D03*
D22*
X110200Y312700D03*
D37*
X299200Y312700D03*
D20*
X438700Y312700D03*
X45700Y314200D03*
D22*
X110200Y314200D03*
D37*
X300700Y314200D03*
D21*
X437950Y314200D03*
D20*
X45700Y315700D03*
D21*
X109450Y315700D03*
X287950Y315700D03*
D39*
X307450Y315700D03*
D21*
X436450Y315700D03*
D20*
X47200Y317200D03*
D21*
X109450Y317200D03*
D22*
X305200Y317200D03*
D40*
X375700Y317200D03*
D20*
X47200Y318700D03*
X108700Y318700D03*
D41*
X376450Y318700D03*
D21*
X47950Y320200D03*
X107950Y320200D03*
D42*
X377950Y320200D03*
D22*
X48700Y321700D03*
D20*
X107200Y321700D03*
D43*
X377950Y321700D03*
D22*
X48700Y323200D03*
D21*
X106450Y323200D03*
X47950Y324700D03*
D20*
X105700Y324700D03*
D21*
X47950Y326200D03*
D23*
X103450Y326200D03*
D21*
X47950Y327700D03*
D24*
X102700Y327700D03*
D21*
X47950Y329200D03*
D23*
X82450Y329200D03*
X100450Y329200D03*
D28*
X49450Y330700D03*
X82450Y330700D03*
D23*
X98950Y330700D03*
D28*
X49450Y332200D03*
D13*
X88450Y332200D03*
D29*
X53200Y333700D03*
D34*
X86200Y333700D03*
X54700Y335200D03*
D21*
X76450Y335200D03*
D28*
X91450Y335200D03*
D13*
X55450Y336700D03*
D21*
X76450Y336700D03*
X91450Y336700D03*
D23*
X44950Y338200D03*
D30*
X67450Y338200D03*
D22*
X44200Y339700D03*
D31*
X69700Y339700D03*
D25*
X71200Y341200D03*
D20*
X72700Y342700D03*
D44*
X215900Y65278D03*
X215900Y36322D03*
X241300Y65278D03*
X241300Y36322D03*
X190500Y152400D03*
X215900Y152400D03*
D45*
X313690Y276860D03*
D46*
X330200Y190100D02*
X330200Y140100D01*
D45*
X346710Y53340D03*
X345440Y276860D03*
X314960Y53340D03*
M02*
