G04 EAGLE Gerber X2 export*
G75*
%MOMM*%
%FSLAX34Y34*%
%LPD*%
%AMOC8*
5,1,8,0,0,1.08239X$1,22.5*%
G01*
%ADD10C,1.879600*%
%ADD11R,6.070000X6.070000*%
%ADD12C,0.304800*%
%ADD13C,0.406400*%

G36*
X341644Y2544D02*
X341644Y2544D01*
X341681Y2543D01*
X346379Y2900D01*
X346382Y2901D01*
X346385Y2901D01*
X346549Y2933D01*
X355516Y5743D01*
X355545Y5757D01*
X355576Y5764D01*
X355723Y5844D01*
X363440Y11207D01*
X363463Y11229D01*
X363490Y11245D01*
X363607Y11365D01*
X369367Y18790D01*
X369383Y18818D01*
X369404Y18841D01*
X369479Y18991D01*
X372756Y27798D01*
X372762Y27829D01*
X372776Y27858D01*
X372803Y28024D01*
X373296Y37408D01*
X373296Y37410D01*
X373296Y37413D01*
X373286Y37580D01*
X372465Y42216D01*
X372457Y42240D01*
X372450Y42284D01*
X320266Y233011D01*
X320253Y233041D01*
X320223Y233130D01*
X318301Y237294D01*
X317354Y246969D01*
X319638Y256418D01*
X324901Y264591D01*
X332557Y270581D01*
X336183Y271819D01*
X336203Y271830D01*
X336225Y271835D01*
X336311Y271887D01*
X336400Y271935D01*
X336416Y271952D01*
X336435Y271963D01*
X336549Y272086D01*
X336563Y272105D01*
X337307Y272216D01*
X337336Y272225D01*
X337441Y272249D01*
X338153Y272492D01*
X338174Y272481D01*
X338196Y272475D01*
X338215Y272463D01*
X338313Y272439D01*
X338410Y272410D01*
X338432Y272411D01*
X338454Y272405D01*
X338622Y272412D01*
X435555Y286835D01*
X435576Y286842D01*
X435613Y286846D01*
X441512Y288198D01*
X441540Y288210D01*
X441643Y288241D01*
X452756Y293015D01*
X452762Y293019D01*
X452770Y293021D01*
X452914Y293107D01*
X462570Y300391D01*
X462575Y300397D01*
X462582Y300400D01*
X462701Y300518D01*
X470344Y309893D01*
X470347Y309900D01*
X470353Y309905D01*
X470441Y310048D01*
X475629Y320974D01*
X475631Y320981D01*
X475636Y320987D01*
X475687Y321147D01*
X478123Y332995D01*
X478124Y333024D01*
X478138Y333131D01*
X478273Y339188D01*
X478271Y339205D01*
X478273Y339234D01*
X478271Y339292D01*
X478271Y339293D01*
X478221Y340600D01*
X478221Y340601D01*
X467992Y610759D01*
X467987Y610782D01*
X467986Y610823D01*
X466469Y623182D01*
X466462Y623208D01*
X466456Y623258D01*
X460892Y647617D01*
X460879Y647647D01*
X460862Y647717D01*
X452033Y671091D01*
X452017Y671119D01*
X451989Y671186D01*
X440061Y693141D01*
X440041Y693166D01*
X440005Y693229D01*
X425198Y713355D01*
X425175Y713378D01*
X425131Y713434D01*
X407722Y731358D01*
X407696Y731377D01*
X407644Y731427D01*
X387957Y746813D01*
X387929Y746829D01*
X387871Y746871D01*
X366273Y759434D01*
X366243Y759446D01*
X366179Y759480D01*
X343072Y768985D01*
X343040Y768993D01*
X342973Y769018D01*
X318786Y775289D01*
X318759Y775291D01*
X318710Y775305D01*
X306352Y777188D01*
X306342Y777188D01*
X306327Y777192D01*
X241503Y784818D01*
X241472Y784816D01*
X241441Y784823D01*
X241274Y784810D01*
X196579Y776430D01*
X196570Y776427D01*
X196555Y776425D01*
X183316Y773497D01*
X183292Y773487D01*
X183245Y773478D01*
X157469Y765092D01*
X157441Y765077D01*
X157378Y765055D01*
X132897Y753418D01*
X132871Y753400D01*
X132811Y753370D01*
X110034Y738676D01*
X110011Y738655D01*
X109955Y738618D01*
X89261Y721112D01*
X89241Y721088D01*
X89190Y721044D01*
X70924Y701017D01*
X70907Y700991D01*
X70863Y700940D01*
X55329Y678728D01*
X55327Y678723D01*
X55323Y678719D01*
X55311Y678692D01*
X55278Y678644D01*
X42736Y654614D01*
X42726Y654585D01*
X42696Y654525D01*
X33354Y629080D01*
X33348Y629049D01*
X33326Y628986D01*
X27340Y602549D01*
X27339Y602523D01*
X27327Y602477D01*
X25627Y589027D01*
X25627Y589015D01*
X25623Y588996D01*
X4813Y344125D01*
X4813Y344124D01*
X4742Y343295D01*
X4742Y343294D01*
X4697Y342762D01*
X4698Y342742D01*
X4694Y342708D01*
X4640Y338941D01*
X4642Y338929D01*
X4655Y338781D01*
X6129Y331411D01*
X6137Y331389D01*
X6139Y331366D01*
X6200Y331209D01*
X9667Y324540D01*
X9681Y324522D01*
X9690Y324500D01*
X9791Y324366D01*
X14978Y318927D01*
X14997Y318912D01*
X15011Y318894D01*
X15146Y318794D01*
X21642Y315013D01*
X21654Y315009D01*
X21789Y314947D01*
X24668Y314008D01*
X24675Y314006D01*
X24682Y314003D01*
X24796Y313988D01*
X24911Y313970D01*
X24918Y313971D01*
X24926Y313970D01*
X25092Y313994D01*
X25197Y314021D01*
X25687Y313730D01*
X25712Y313720D01*
X25733Y313705D01*
X25891Y313646D01*
X26443Y313508D01*
X26555Y313321D01*
X26623Y313241D01*
X26685Y313159D01*
X26704Y313145D01*
X26714Y313133D01*
X26742Y313117D01*
X26819Y313058D01*
X58313Y294364D01*
X58338Y294354D01*
X58382Y294328D01*
X70822Y288573D01*
X70845Y288567D01*
X70883Y288548D01*
X96818Y279180D01*
X96848Y279174D01*
X96903Y279155D01*
X123746Y272839D01*
X123775Y272837D01*
X123832Y272823D01*
X151224Y269644D01*
X151248Y269645D01*
X151290Y269639D01*
X165078Y269241D01*
X165087Y269242D01*
X165100Y269241D01*
X169958Y269241D01*
X179218Y266293D01*
X187146Y260676D01*
X192998Y252919D01*
X196220Y243752D01*
X196511Y234039D01*
X195176Y229368D01*
X194800Y228053D01*
X142163Y43821D01*
X142160Y43800D01*
X142149Y43764D01*
X141176Y38995D01*
X141176Y38991D01*
X141174Y38987D01*
X141161Y38820D01*
X141451Y29117D01*
X141457Y29084D01*
X141456Y29051D01*
X141494Y28887D01*
X144713Y19730D01*
X144729Y19700D01*
X144738Y19668D01*
X144823Y19524D01*
X150669Y11774D01*
X150693Y11751D01*
X150711Y11723D01*
X150837Y11611D01*
X158758Y6000D01*
X158788Y5985D01*
X158814Y5964D01*
X158967Y5896D01*
X168217Y2951D01*
X168221Y2951D01*
X168224Y2949D01*
X168389Y2918D01*
X173242Y2543D01*
X173264Y2545D01*
X173301Y2541D01*
X341623Y2541D01*
X341644Y2544D01*
G37*
%LPC*%
G36*
X236587Y194309D02*
X236587Y194309D01*
X232573Y195972D01*
X229500Y199045D01*
X227837Y203059D01*
X227837Y207405D01*
X228732Y209565D01*
X228759Y209679D01*
X228787Y209792D01*
X228787Y209799D01*
X228788Y209805D01*
X228777Y209921D01*
X228768Y210038D01*
X228766Y210043D01*
X228765Y210050D01*
X228717Y210157D01*
X228672Y210264D01*
X228667Y210270D01*
X228665Y210274D01*
X228653Y210288D01*
X228567Y210395D01*
X217423Y221539D01*
X217423Y330705D01*
X217415Y330754D01*
X217417Y330804D01*
X217388Y330923D01*
X217384Y330948D01*
X217380Y330955D01*
X217377Y330966D01*
X217134Y331632D01*
X217352Y332103D01*
X217374Y332181D01*
X217405Y332257D01*
X217411Y332312D01*
X217419Y332340D01*
X217417Y332368D01*
X217423Y332424D01*
X217423Y332943D01*
X217924Y333444D01*
X217953Y333484D01*
X217989Y333518D01*
X218053Y333624D01*
X218068Y333644D01*
X218070Y333651D01*
X218076Y333662D01*
X234777Y369633D01*
X234794Y369693D01*
X234820Y369749D01*
X234827Y369811D01*
X234844Y369870D01*
X234840Y369932D01*
X234847Y369993D01*
X234834Y370054D01*
X234831Y370116D01*
X234808Y370173D01*
X234795Y370234D01*
X234763Y370287D01*
X234740Y370345D01*
X234700Y370392D01*
X234669Y370445D01*
X234622Y370485D01*
X234582Y370533D01*
X234529Y370565D01*
X234482Y370605D01*
X234424Y370628D01*
X234371Y370660D01*
X234311Y370674D01*
X234254Y370697D01*
X234163Y370707D01*
X234131Y370714D01*
X234114Y370712D01*
X234087Y370715D01*
X223018Y370715D01*
X222125Y371608D01*
X222125Y433572D01*
X223018Y434465D01*
X284982Y434465D01*
X285875Y433572D01*
X285875Y371608D01*
X284982Y370715D01*
X243608Y370715D01*
X243509Y370699D01*
X243408Y370688D01*
X243388Y370679D01*
X243366Y370676D01*
X243276Y370628D01*
X243184Y370586D01*
X243168Y370571D01*
X243148Y370560D01*
X243079Y370487D01*
X243005Y370418D01*
X242990Y370394D01*
X242979Y370382D01*
X242965Y370352D01*
X242918Y370275D01*
X224608Y330837D01*
X224586Y330759D01*
X224555Y330683D01*
X224549Y330628D01*
X224541Y330600D01*
X224543Y330572D01*
X224537Y330516D01*
X224537Y224801D01*
X224538Y224791D01*
X224538Y224786D01*
X224543Y224762D01*
X224551Y224710D01*
X224559Y224620D01*
X224571Y224590D01*
X224576Y224558D01*
X224619Y224477D01*
X224655Y224393D01*
X224681Y224361D01*
X224692Y224340D01*
X224715Y224318D01*
X224760Y224262D01*
X233597Y215425D01*
X233691Y215357D01*
X233786Y215287D01*
X233792Y215285D01*
X233797Y215281D01*
X233908Y215247D01*
X234020Y215211D01*
X234026Y215211D01*
X234032Y215209D01*
X234149Y215212D01*
X234266Y215213D01*
X234273Y215215D01*
X234278Y215215D01*
X234295Y215222D01*
X234427Y215260D01*
X236587Y216155D01*
X240933Y216155D01*
X244947Y214492D01*
X248020Y211419D01*
X249683Y207405D01*
X249683Y203059D01*
X248020Y199045D01*
X244947Y195972D01*
X240933Y194309D01*
X236587Y194309D01*
G37*
%LPD*%
%LPC*%
G36*
X98018Y370715D02*
X98018Y370715D01*
X97125Y371608D01*
X97125Y433572D01*
X98018Y434465D01*
X159982Y434465D01*
X160875Y433572D01*
X160875Y371608D01*
X159982Y370715D01*
X98018Y370715D01*
G37*
%LPD*%
%LPC*%
G36*
X340727Y27177D02*
X340727Y27177D01*
X336713Y28840D01*
X333640Y31913D01*
X331977Y35927D01*
X331977Y40273D01*
X333640Y44287D01*
X335580Y46227D01*
X335650Y46324D01*
X335722Y46424D01*
X335722Y46425D01*
X335723Y46426D01*
X335759Y46541D01*
X335795Y46658D01*
X335795Y46660D01*
X335796Y46661D01*
X335792Y46782D01*
X335790Y46904D01*
X335789Y46906D01*
X335789Y46907D01*
X335787Y46913D01*
X335741Y47065D01*
X302287Y125125D01*
X302254Y125176D01*
X302230Y125232D01*
X302172Y125305D01*
X302155Y125332D01*
X302142Y125342D01*
X302125Y125363D01*
X301751Y125737D01*
X301751Y126218D01*
X301740Y126287D01*
X301738Y126357D01*
X301717Y126429D01*
X301712Y126461D01*
X301701Y126481D01*
X301690Y126518D01*
X301500Y126960D01*
X301697Y127451D01*
X301710Y127510D01*
X301733Y127567D01*
X301743Y127659D01*
X301750Y127691D01*
X301748Y127707D01*
X301751Y127734D01*
X301751Y189002D01*
X301739Y189079D01*
X301735Y189156D01*
X301719Y189199D01*
X301712Y189245D01*
X301675Y189313D01*
X301647Y189386D01*
X301611Y189435D01*
X301596Y189462D01*
X301577Y189480D01*
X301547Y189520D01*
X269453Y224022D01*
X269447Y224026D01*
X269443Y224032D01*
X269351Y224101D01*
X269259Y224172D01*
X269252Y224175D01*
X269246Y224179D01*
X269136Y224215D01*
X269027Y224253D01*
X269019Y224253D01*
X269012Y224255D01*
X268896Y224254D01*
X268781Y224256D01*
X268773Y224253D01*
X268766Y224253D01*
X268605Y224206D01*
X266333Y223265D01*
X261987Y223265D01*
X257973Y224928D01*
X254900Y228001D01*
X253237Y232015D01*
X253237Y236361D01*
X254900Y240375D01*
X257973Y243448D01*
X261987Y245111D01*
X266333Y245111D01*
X270347Y243448D01*
X273420Y240375D01*
X275083Y236361D01*
X275083Y232015D01*
X273810Y228943D01*
X273787Y228843D01*
X273758Y228743D01*
X273759Y228723D01*
X273754Y228704D01*
X273764Y228601D01*
X273768Y228498D01*
X273775Y228479D01*
X273777Y228459D01*
X273819Y228365D01*
X273856Y228268D01*
X273871Y228248D01*
X273877Y228234D01*
X273899Y228210D01*
X273949Y228142D01*
X273950Y228141D01*
X273951Y228141D01*
X273956Y228133D01*
X306985Y192627D01*
X306994Y192620D01*
X307005Y192607D01*
X307895Y191717D01*
X307849Y190459D01*
X307851Y190448D01*
X307849Y190431D01*
X307849Y127782D01*
X307860Y127713D01*
X307862Y127643D01*
X307883Y127571D01*
X307888Y127539D01*
X307899Y127519D01*
X307910Y127482D01*
X341338Y49484D01*
X341398Y49390D01*
X341456Y49293D01*
X341464Y49286D01*
X341470Y49277D01*
X341557Y49206D01*
X341643Y49133D01*
X341653Y49129D01*
X341662Y49122D01*
X341766Y49083D01*
X341871Y49041D01*
X341884Y49040D01*
X341892Y49037D01*
X341918Y49036D01*
X342038Y49023D01*
X345073Y49023D01*
X349087Y47360D01*
X352160Y44287D01*
X353823Y40273D01*
X353823Y35927D01*
X352160Y31913D01*
X349087Y28840D01*
X345073Y27177D01*
X340727Y27177D01*
G37*
%LPD*%
%LPC*%
G36*
X162927Y27177D02*
X162927Y27177D01*
X158913Y28840D01*
X155840Y31913D01*
X154177Y35927D01*
X154177Y40273D01*
X155840Y44287D01*
X158913Y47360D01*
X162927Y49023D01*
X167274Y49023D01*
X167337Y49008D01*
X167368Y48995D01*
X167387Y48993D01*
X167442Y48975D01*
X167477Y48975D01*
X167510Y48967D01*
X167599Y48976D01*
X167688Y48976D01*
X167721Y48987D01*
X167755Y48990D01*
X167836Y49026D01*
X167921Y49055D01*
X167948Y49076D01*
X167980Y49090D01*
X168020Y49127D01*
X168029Y49132D01*
X168051Y49155D01*
X168116Y49205D01*
X168143Y49240D01*
X168161Y49257D01*
X168176Y49284D01*
X168185Y49296D01*
X168199Y49310D01*
X168203Y49320D01*
X168217Y49339D01*
X255885Y197250D01*
X255903Y197295D01*
X255929Y197335D01*
X255947Y197409D01*
X255975Y197479D01*
X255977Y197527D01*
X255989Y197574D01*
X255983Y197649D01*
X255986Y197725D01*
X255973Y197771D01*
X255970Y197819D01*
X255940Y197889D01*
X255919Y197961D01*
X255892Y198001D01*
X255873Y198045D01*
X255793Y198145D01*
X255780Y198164D01*
X255775Y198168D01*
X255768Y198176D01*
X254900Y199045D01*
X253237Y203059D01*
X253237Y207405D01*
X254900Y211419D01*
X257973Y214492D01*
X261987Y216155D01*
X266333Y216155D01*
X270347Y214492D01*
X273420Y211419D01*
X275083Y207405D01*
X275083Y203059D01*
X273420Y199045D01*
X270347Y195972D01*
X266333Y194309D01*
X261986Y194309D01*
X261902Y194329D01*
X261818Y194357D01*
X261783Y194357D01*
X261750Y194365D01*
X261661Y194356D01*
X261572Y194356D01*
X261539Y194345D01*
X261505Y194342D01*
X261424Y194306D01*
X261339Y194277D01*
X261312Y194256D01*
X261280Y194242D01*
X261215Y194182D01*
X261144Y194127D01*
X261117Y194092D01*
X261099Y194075D01*
X261084Y194048D01*
X261043Y193993D01*
X173375Y46082D01*
X173357Y46037D01*
X173331Y45997D01*
X173313Y45923D01*
X173285Y45853D01*
X173283Y45805D01*
X173271Y45758D01*
X173277Y45683D01*
X173274Y45607D01*
X173287Y45561D01*
X173290Y45513D01*
X173320Y45443D01*
X173341Y45371D01*
X173368Y45331D01*
X173387Y45287D01*
X173467Y45187D01*
X173480Y45168D01*
X173485Y45164D01*
X173492Y45156D01*
X174360Y44287D01*
X176023Y40273D01*
X176023Y35927D01*
X174360Y31913D01*
X171287Y28840D01*
X167273Y27177D01*
X162927Y27177D01*
G37*
%LPD*%
%LPC*%
G36*
X380523Y404113D02*
X380523Y404113D01*
X380523Y435481D01*
X409684Y435481D01*
X410331Y435308D01*
X410910Y434973D01*
X411383Y434500D01*
X411718Y433921D01*
X411891Y433274D01*
X411891Y404113D01*
X380523Y404113D01*
G37*
%LPD*%
%LPC*%
G36*
X346109Y404113D02*
X346109Y404113D01*
X346109Y433274D01*
X346282Y433921D01*
X346617Y434500D01*
X347090Y434973D01*
X347669Y435308D01*
X348316Y435481D01*
X377477Y435481D01*
X377477Y404113D01*
X346109Y404113D01*
G37*
%LPD*%
%LPC*%
G36*
X380523Y369699D02*
X380523Y369699D01*
X380523Y401067D01*
X411891Y401067D01*
X411891Y371906D01*
X411718Y371259D01*
X411383Y370680D01*
X410910Y370207D01*
X410331Y369872D01*
X409684Y369699D01*
X380523Y369699D01*
G37*
%LPD*%
%LPC*%
G36*
X348316Y369699D02*
X348316Y369699D01*
X347669Y369872D01*
X347090Y370207D01*
X346617Y370680D01*
X346282Y371259D01*
X346109Y371906D01*
X346109Y401067D01*
X377477Y401067D01*
X377477Y369699D01*
X348316Y369699D01*
G37*
%LPD*%
%LPC*%
G36*
X250968Y734059D02*
X250968Y734059D01*
X245367Y736380D01*
X241080Y740667D01*
X238759Y746268D01*
X238759Y752332D01*
X241080Y757933D01*
X245367Y762220D01*
X250968Y764541D01*
X257032Y764541D01*
X262633Y762220D01*
X266920Y757933D01*
X269241Y752332D01*
X269241Y746268D01*
X266920Y740667D01*
X262633Y736380D01*
X257032Y734059D01*
X250968Y734059D01*
G37*
%LPD*%
%LPC*%
G36*
X240283Y235711D02*
X240283Y235711D01*
X240283Y246034D01*
X241556Y245833D01*
X243343Y245252D01*
X245017Y244399D01*
X246538Y243294D01*
X247866Y241966D01*
X248971Y240445D01*
X249824Y238771D01*
X250405Y236984D01*
X250606Y235711D01*
X240283Y235711D01*
G37*
%LPD*%
%LPC*%
G36*
X242823Y39623D02*
X242823Y39623D01*
X242823Y49946D01*
X244096Y49745D01*
X245883Y49164D01*
X247557Y48311D01*
X249078Y47206D01*
X250406Y45878D01*
X251511Y44357D01*
X252364Y42683D01*
X252945Y40896D01*
X253146Y39623D01*
X242823Y39623D01*
G37*
%LPD*%
%LPC*%
G36*
X268223Y39623D02*
X268223Y39623D01*
X268223Y49946D01*
X269496Y49745D01*
X271283Y49164D01*
X272957Y48311D01*
X274478Y47206D01*
X275806Y45878D01*
X276911Y44357D01*
X277764Y42683D01*
X278345Y40896D01*
X278546Y39623D01*
X268223Y39623D01*
G37*
%LPD*%
%LPC*%
G36*
X242823Y36577D02*
X242823Y36577D01*
X253146Y36577D01*
X252945Y35304D01*
X252364Y33517D01*
X251511Y31843D01*
X250406Y30322D01*
X249078Y28994D01*
X247557Y27889D01*
X245883Y27036D01*
X244096Y26455D01*
X242823Y26254D01*
X242823Y36577D01*
G37*
%LPD*%
%LPC*%
G36*
X229454Y39623D02*
X229454Y39623D01*
X229655Y40896D01*
X230236Y42683D01*
X231089Y44357D01*
X232194Y45878D01*
X233522Y47206D01*
X235043Y48311D01*
X236717Y49164D01*
X238504Y49745D01*
X239777Y49946D01*
X239777Y39623D01*
X229454Y39623D01*
G37*
%LPD*%
%LPC*%
G36*
X254854Y39623D02*
X254854Y39623D01*
X255055Y40896D01*
X255636Y42683D01*
X256489Y44357D01*
X257594Y45878D01*
X258922Y47206D01*
X260443Y48311D01*
X262117Y49164D01*
X263904Y49745D01*
X265177Y49946D01*
X265177Y39623D01*
X254854Y39623D01*
G37*
%LPD*%
%LPC*%
G36*
X240283Y232665D02*
X240283Y232665D01*
X250606Y232665D01*
X250405Y231392D01*
X249824Y229605D01*
X248971Y227931D01*
X247866Y226410D01*
X246538Y225082D01*
X245017Y223977D01*
X243343Y223124D01*
X241556Y222543D01*
X240283Y222342D01*
X240283Y232665D01*
G37*
%LPD*%
%LPC*%
G36*
X268223Y36577D02*
X268223Y36577D01*
X278546Y36577D01*
X278345Y35304D01*
X277764Y33517D01*
X276911Y31843D01*
X275806Y30322D01*
X274478Y28994D01*
X272957Y27889D01*
X271283Y27036D01*
X269496Y26455D01*
X268223Y26254D01*
X268223Y36577D01*
G37*
%LPD*%
%LPC*%
G36*
X226914Y235711D02*
X226914Y235711D01*
X227115Y236984D01*
X227696Y238771D01*
X228549Y240445D01*
X229654Y241966D01*
X230982Y243294D01*
X232503Y244399D01*
X234177Y245252D01*
X235964Y245833D01*
X237237Y246034D01*
X237237Y235711D01*
X226914Y235711D01*
G37*
%LPD*%
%LPC*%
G36*
X238504Y26455D02*
X238504Y26455D01*
X236717Y27036D01*
X235043Y27889D01*
X233522Y28994D01*
X232194Y30322D01*
X231089Y31843D01*
X230236Y33517D01*
X229655Y35304D01*
X229454Y36577D01*
X239777Y36577D01*
X239777Y26254D01*
X238504Y26455D01*
G37*
%LPD*%
%LPC*%
G36*
X263904Y26455D02*
X263904Y26455D01*
X262117Y27036D01*
X260443Y27889D01*
X258922Y28994D01*
X257594Y30322D01*
X256489Y31843D01*
X255636Y33517D01*
X255055Y35304D01*
X254854Y36577D01*
X265177Y36577D01*
X265177Y26254D01*
X263904Y26455D01*
G37*
%LPD*%
%LPC*%
G36*
X235964Y222543D02*
X235964Y222543D01*
X234177Y223124D01*
X232503Y223977D01*
X230982Y225082D01*
X229654Y226410D01*
X228549Y227931D01*
X227696Y229605D01*
X227115Y231392D01*
X226914Y232665D01*
X237237Y232665D01*
X237237Y222342D01*
X235964Y222543D01*
G37*
%LPD*%
%LPC*%
G36*
X241299Y38099D02*
X241299Y38099D01*
X241299Y38101D01*
X241301Y38101D01*
X241301Y38099D01*
X241299Y38099D01*
G37*
%LPD*%
%LPC*%
G36*
X266699Y38099D02*
X266699Y38099D01*
X266699Y38101D01*
X266701Y38101D01*
X266701Y38099D01*
X266699Y38099D01*
G37*
%LPD*%
%LPC*%
G36*
X238759Y234187D02*
X238759Y234187D01*
X238759Y234189D01*
X238761Y234189D01*
X238761Y234187D01*
X238759Y234187D01*
G37*
%LPD*%
%LPC*%
G36*
X378999Y402589D02*
X378999Y402589D01*
X378999Y402591D01*
X379001Y402591D01*
X379001Y402589D01*
X378999Y402589D01*
G37*
%LPD*%
D10*
X238760Y234188D03*
X238760Y205232D03*
X264160Y234188D03*
X264160Y205232D03*
X342900Y38100D03*
X266700Y38100D03*
X165100Y38100D03*
X241300Y38100D03*
D11*
X254000Y402590D03*
X379000Y402590D03*
X129000Y402590D03*
D12*
X264160Y234188D02*
X304800Y190500D01*
X304800Y127000D01*
X342900Y38100D01*
X165100Y38100D02*
X264160Y205232D01*
D13*
X238760Y205232D02*
X220980Y223012D01*
X220980Y331470D02*
X254000Y402590D01*
X220980Y331470D02*
X220980Y223012D01*
M02*
