G04 EAGLE Gerber X2 export*
G75*
%MOMM*%
%FSLAX34Y34*%
%LPD*%
%AMOC8*
5,1,8,0,0,1.08239X$1,22.5*%
G01*
%ADD10C,0.152400*%
%ADD11C,0.203200*%


D10*
X345056Y85852D02*
X349571Y85852D01*
X349672Y85854D01*
X349773Y85860D01*
X349874Y85869D01*
X349975Y85882D01*
X350075Y85899D01*
X350174Y85920D01*
X350272Y85944D01*
X350369Y85972D01*
X350466Y86004D01*
X350561Y86039D01*
X350654Y86078D01*
X350746Y86120D01*
X350837Y86166D01*
X350926Y86215D01*
X351012Y86267D01*
X351097Y86323D01*
X351180Y86381D01*
X351260Y86443D01*
X351338Y86508D01*
X351414Y86575D01*
X351487Y86645D01*
X351557Y86718D01*
X351624Y86794D01*
X351689Y86872D01*
X351751Y86952D01*
X351809Y87035D01*
X351865Y87120D01*
X351917Y87206D01*
X351966Y87295D01*
X352012Y87386D01*
X352054Y87478D01*
X352093Y87571D01*
X352128Y87666D01*
X352160Y87763D01*
X352188Y87860D01*
X352212Y87958D01*
X352233Y88057D01*
X352250Y88157D01*
X352263Y88258D01*
X352272Y88359D01*
X352278Y88460D01*
X352280Y88561D01*
X352281Y88561D02*
X352281Y93980D01*
X352280Y93980D02*
X352278Y94081D01*
X352272Y94182D01*
X352263Y94283D01*
X352250Y94384D01*
X352233Y94484D01*
X352212Y94583D01*
X352188Y94681D01*
X352160Y94778D01*
X352128Y94875D01*
X352093Y94970D01*
X352054Y95063D01*
X352012Y95155D01*
X351966Y95246D01*
X351917Y95335D01*
X351865Y95421D01*
X351809Y95506D01*
X351751Y95589D01*
X351689Y95669D01*
X351624Y95747D01*
X351557Y95823D01*
X351487Y95896D01*
X351414Y95966D01*
X351338Y96033D01*
X351260Y96098D01*
X351180Y96160D01*
X351097Y96218D01*
X351012Y96274D01*
X350926Y96326D01*
X350837Y96375D01*
X350746Y96421D01*
X350654Y96463D01*
X350561Y96502D01*
X350466Y96537D01*
X350369Y96569D01*
X350272Y96597D01*
X350174Y96621D01*
X350075Y96642D01*
X349975Y96659D01*
X349874Y96672D01*
X349773Y96681D01*
X349672Y96687D01*
X349571Y96689D01*
X345056Y96689D01*
X345056Y83143D01*
X345058Y83042D01*
X345064Y82941D01*
X345073Y82840D01*
X345086Y82739D01*
X345103Y82639D01*
X345124Y82540D01*
X345148Y82442D01*
X345176Y82345D01*
X345208Y82248D01*
X345243Y82153D01*
X345282Y82060D01*
X345324Y81968D01*
X345370Y81877D01*
X345419Y81789D01*
X345471Y81702D01*
X345527Y81617D01*
X345585Y81534D01*
X345647Y81454D01*
X345712Y81376D01*
X345779Y81300D01*
X345849Y81227D01*
X345922Y81157D01*
X345998Y81090D01*
X346076Y81025D01*
X346156Y80963D01*
X346239Y80905D01*
X346324Y80849D01*
X346411Y80797D01*
X346499Y80748D01*
X346590Y80702D01*
X346682Y80660D01*
X346775Y80621D01*
X346870Y80586D01*
X346967Y80554D01*
X347064Y80526D01*
X347162Y80502D01*
X347261Y80481D01*
X347361Y80464D01*
X347462Y80451D01*
X347563Y80442D01*
X347664Y80436D01*
X347765Y80434D01*
X347765Y80433D02*
X351378Y80433D01*
X338174Y85852D02*
X338174Y96689D01*
X338626Y101205D02*
X338626Y102108D01*
X337723Y102108D01*
X337723Y101205D01*
X338626Y101205D01*
X333184Y96689D02*
X327765Y96689D01*
X331378Y102108D02*
X331378Y88561D01*
X331376Y88460D01*
X331370Y88359D01*
X331361Y88258D01*
X331348Y88157D01*
X331331Y88057D01*
X331310Y87958D01*
X331286Y87860D01*
X331258Y87763D01*
X331226Y87666D01*
X331191Y87571D01*
X331152Y87478D01*
X331110Y87386D01*
X331064Y87295D01*
X331015Y87206D01*
X330963Y87120D01*
X330907Y87035D01*
X330849Y86952D01*
X330787Y86872D01*
X330722Y86794D01*
X330655Y86718D01*
X330585Y86645D01*
X330512Y86575D01*
X330436Y86508D01*
X330358Y86443D01*
X330278Y86381D01*
X330195Y86323D01*
X330110Y86267D01*
X330024Y86215D01*
X329935Y86166D01*
X329844Y86120D01*
X329752Y86078D01*
X329659Y86039D01*
X329564Y86004D01*
X329467Y85972D01*
X329370Y85944D01*
X329272Y85920D01*
X329173Y85899D01*
X329073Y85882D01*
X328972Y85869D01*
X328871Y85860D01*
X328770Y85854D01*
X328669Y85852D01*
X327765Y85852D01*
X322474Y85852D02*
X322474Y86755D01*
X321570Y86755D01*
X321570Y85852D01*
X322474Y85852D01*
X315770Y85852D02*
X315770Y96689D01*
X316221Y101205D02*
X316221Y102108D01*
X315318Y102108D01*
X315318Y101205D01*
X316221Y101205D01*
X309482Y93077D02*
X309482Y89464D01*
X309482Y93077D02*
X309480Y93196D01*
X309474Y93316D01*
X309464Y93435D01*
X309450Y93553D01*
X309433Y93672D01*
X309411Y93789D01*
X309386Y93906D01*
X309356Y94021D01*
X309323Y94136D01*
X309286Y94250D01*
X309246Y94362D01*
X309201Y94473D01*
X309153Y94582D01*
X309102Y94690D01*
X309047Y94796D01*
X308988Y94900D01*
X308926Y95002D01*
X308861Y95102D01*
X308792Y95200D01*
X308720Y95296D01*
X308645Y95389D01*
X308568Y95479D01*
X308487Y95567D01*
X308403Y95652D01*
X308316Y95734D01*
X308227Y95814D01*
X308135Y95890D01*
X308041Y95964D01*
X307944Y96034D01*
X307846Y96101D01*
X307745Y96165D01*
X307641Y96225D01*
X307536Y96282D01*
X307429Y96335D01*
X307321Y96385D01*
X307211Y96431D01*
X307099Y96473D01*
X306986Y96512D01*
X306872Y96547D01*
X306757Y96578D01*
X306640Y96606D01*
X306523Y96629D01*
X306406Y96649D01*
X306287Y96665D01*
X306168Y96677D01*
X306049Y96685D01*
X305930Y96689D01*
X305810Y96689D01*
X305691Y96685D01*
X305572Y96677D01*
X305453Y96665D01*
X305334Y96649D01*
X305217Y96629D01*
X305100Y96606D01*
X304983Y96578D01*
X304868Y96547D01*
X304754Y96512D01*
X304641Y96473D01*
X304529Y96431D01*
X304419Y96385D01*
X304311Y96335D01*
X304204Y96282D01*
X304099Y96225D01*
X303995Y96165D01*
X303894Y96101D01*
X303796Y96034D01*
X303699Y95964D01*
X303605Y95890D01*
X303513Y95814D01*
X303424Y95734D01*
X303337Y95652D01*
X303253Y95567D01*
X303172Y95479D01*
X303095Y95389D01*
X303020Y95296D01*
X302948Y95200D01*
X302879Y95102D01*
X302814Y95002D01*
X302752Y94900D01*
X302693Y94796D01*
X302638Y94690D01*
X302587Y94582D01*
X302539Y94473D01*
X302494Y94362D01*
X302454Y94250D01*
X302417Y94136D01*
X302384Y94021D01*
X302354Y93906D01*
X302329Y93789D01*
X302307Y93672D01*
X302290Y93553D01*
X302276Y93435D01*
X302266Y93316D01*
X302260Y93196D01*
X302258Y93077D01*
X302257Y93077D02*
X302257Y89464D01*
X302258Y89464D02*
X302260Y89345D01*
X302266Y89225D01*
X302276Y89106D01*
X302290Y88988D01*
X302307Y88869D01*
X302329Y88752D01*
X302354Y88635D01*
X302384Y88520D01*
X302417Y88405D01*
X302454Y88291D01*
X302494Y88179D01*
X302539Y88068D01*
X302587Y87959D01*
X302638Y87851D01*
X302693Y87745D01*
X302752Y87641D01*
X302814Y87539D01*
X302879Y87439D01*
X302948Y87341D01*
X303020Y87245D01*
X303095Y87152D01*
X303172Y87062D01*
X303253Y86974D01*
X303337Y86889D01*
X303424Y86807D01*
X303513Y86727D01*
X303605Y86651D01*
X303699Y86577D01*
X303796Y86507D01*
X303894Y86440D01*
X303995Y86376D01*
X304099Y86316D01*
X304204Y86259D01*
X304311Y86206D01*
X304419Y86156D01*
X304529Y86110D01*
X304641Y86068D01*
X304754Y86029D01*
X304868Y85994D01*
X304983Y85963D01*
X305100Y85935D01*
X305217Y85912D01*
X305334Y85892D01*
X305453Y85876D01*
X305572Y85864D01*
X305691Y85856D01*
X305810Y85852D01*
X305930Y85852D01*
X306049Y85856D01*
X306168Y85864D01*
X306287Y85876D01*
X306406Y85892D01*
X306523Y85912D01*
X306640Y85935D01*
X306757Y85963D01*
X306872Y85994D01*
X306986Y86029D01*
X307099Y86068D01*
X307211Y86110D01*
X307321Y86156D01*
X307429Y86206D01*
X307536Y86259D01*
X307641Y86316D01*
X307745Y86376D01*
X307846Y86440D01*
X307944Y86507D01*
X308041Y86577D01*
X308135Y86651D01*
X308227Y86727D01*
X308316Y86807D01*
X308403Y86889D01*
X308487Y86974D01*
X308568Y87062D01*
X308645Y87152D01*
X308720Y87245D01*
X308792Y87341D01*
X308861Y87439D01*
X308926Y87539D01*
X308988Y87641D01*
X309047Y87745D01*
X309102Y87851D01*
X309153Y87959D01*
X309201Y88068D01*
X309246Y88179D01*
X309286Y88291D01*
X309323Y88405D01*
X309356Y88520D01*
X309386Y88635D01*
X309411Y88752D01*
X309433Y88869D01*
X309450Y88988D01*
X309464Y89106D01*
X309474Y89225D01*
X309480Y89345D01*
X309482Y89464D01*
X296456Y84046D02*
X289231Y103914D01*
X282076Y92174D02*
X277560Y90368D01*
X282076Y92174D02*
X282164Y92211D01*
X282250Y92252D01*
X282335Y92296D01*
X282418Y92344D01*
X282498Y92395D01*
X282577Y92449D01*
X282653Y92507D01*
X282727Y92567D01*
X282799Y92631D01*
X282867Y92697D01*
X282933Y92767D01*
X282996Y92838D01*
X283057Y92913D01*
X283114Y92989D01*
X283167Y93068D01*
X283218Y93149D01*
X283265Y93232D01*
X283309Y93317D01*
X283349Y93404D01*
X283386Y93492D01*
X283419Y93582D01*
X283449Y93673D01*
X283474Y93765D01*
X283496Y93858D01*
X283514Y93952D01*
X283529Y94046D01*
X283539Y94141D01*
X283545Y94237D01*
X283548Y94332D01*
X283547Y94428D01*
X283541Y94523D01*
X283532Y94619D01*
X283519Y94713D01*
X283503Y94807D01*
X283482Y94901D01*
X283457Y94993D01*
X283429Y95084D01*
X283397Y95174D01*
X283362Y95263D01*
X283323Y95350D01*
X283280Y95436D01*
X283234Y95520D01*
X283184Y95601D01*
X283132Y95681D01*
X283076Y95759D01*
X283016Y95834D01*
X282954Y95906D01*
X282889Y95976D01*
X282821Y96044D01*
X282751Y96108D01*
X282678Y96170D01*
X282602Y96228D01*
X282524Y96284D01*
X282444Y96336D01*
X282362Y96385D01*
X282278Y96430D01*
X282192Y96472D01*
X282105Y96511D01*
X282016Y96546D01*
X281925Y96577D01*
X281834Y96604D01*
X281741Y96628D01*
X281648Y96648D01*
X281554Y96664D01*
X281459Y96676D01*
X281364Y96685D01*
X281268Y96689D01*
X281173Y96690D01*
X280926Y96683D01*
X280680Y96671D01*
X280434Y96653D01*
X280188Y96628D01*
X279944Y96598D01*
X279700Y96562D01*
X279457Y96521D01*
X279215Y96473D01*
X278974Y96419D01*
X278735Y96360D01*
X278497Y96295D01*
X278261Y96224D01*
X278026Y96148D01*
X277793Y96066D01*
X277563Y95978D01*
X277335Y95885D01*
X277108Y95787D01*
X277560Y90367D02*
X277472Y90330D01*
X277386Y90289D01*
X277301Y90245D01*
X277218Y90197D01*
X277138Y90146D01*
X277059Y90092D01*
X276983Y90034D01*
X276909Y89974D01*
X276837Y89910D01*
X276769Y89844D01*
X276703Y89774D01*
X276640Y89703D01*
X276579Y89628D01*
X276522Y89552D01*
X276469Y89473D01*
X276418Y89392D01*
X276371Y89309D01*
X276327Y89224D01*
X276287Y89137D01*
X276250Y89049D01*
X276217Y88959D01*
X276187Y88868D01*
X276162Y88776D01*
X276140Y88683D01*
X276122Y88589D01*
X276107Y88495D01*
X276097Y88400D01*
X276091Y88304D01*
X276088Y88209D01*
X276089Y88113D01*
X276095Y88018D01*
X276104Y87922D01*
X276117Y87828D01*
X276133Y87734D01*
X276154Y87640D01*
X276179Y87548D01*
X276207Y87457D01*
X276239Y87367D01*
X276274Y87278D01*
X276313Y87191D01*
X276356Y87105D01*
X276402Y87021D01*
X276452Y86940D01*
X276504Y86860D01*
X276560Y86782D01*
X276620Y86707D01*
X276682Y86635D01*
X276747Y86565D01*
X276815Y86497D01*
X276885Y86433D01*
X276958Y86371D01*
X277034Y86313D01*
X277112Y86257D01*
X277192Y86205D01*
X277274Y86156D01*
X277358Y86111D01*
X277444Y86069D01*
X277531Y86030D01*
X277620Y85995D01*
X277711Y85964D01*
X277802Y85937D01*
X277895Y85913D01*
X277988Y85893D01*
X278082Y85877D01*
X278177Y85865D01*
X278272Y85856D01*
X278368Y85852D01*
X278463Y85851D01*
X278463Y85852D02*
X278825Y85861D01*
X279187Y85879D01*
X279548Y85906D01*
X279908Y85941D01*
X280268Y85984D01*
X280627Y86036D01*
X280984Y86097D01*
X281339Y86166D01*
X281693Y86243D01*
X282045Y86329D01*
X282395Y86423D01*
X282743Y86526D01*
X283088Y86636D01*
X283430Y86755D01*
X266796Y92174D02*
X262732Y92174D01*
X266796Y92174D02*
X266908Y92172D01*
X267019Y92166D01*
X267130Y92156D01*
X267241Y92143D01*
X267351Y92125D01*
X267460Y92103D01*
X267569Y92078D01*
X267677Y92049D01*
X267783Y92016D01*
X267889Y91979D01*
X267993Y91939D01*
X268095Y91895D01*
X268196Y91847D01*
X268295Y91796D01*
X268393Y91741D01*
X268488Y91683D01*
X268581Y91622D01*
X268672Y91557D01*
X268761Y91489D01*
X268847Y91418D01*
X268930Y91345D01*
X269011Y91268D01*
X269090Y91188D01*
X269165Y91106D01*
X269237Y91021D01*
X269307Y90934D01*
X269373Y90844D01*
X269436Y90752D01*
X269496Y90657D01*
X269552Y90561D01*
X269605Y90463D01*
X269654Y90363D01*
X269700Y90261D01*
X269742Y90158D01*
X269781Y90053D01*
X269816Y89947D01*
X269847Y89840D01*
X269874Y89732D01*
X269898Y89623D01*
X269917Y89513D01*
X269933Y89403D01*
X269945Y89292D01*
X269953Y89180D01*
X269957Y89069D01*
X269957Y88957D01*
X269953Y88846D01*
X269945Y88734D01*
X269933Y88623D01*
X269917Y88513D01*
X269898Y88403D01*
X269874Y88294D01*
X269847Y88186D01*
X269816Y88079D01*
X269781Y87973D01*
X269742Y87868D01*
X269700Y87765D01*
X269654Y87663D01*
X269605Y87563D01*
X269552Y87465D01*
X269496Y87369D01*
X269436Y87274D01*
X269373Y87182D01*
X269307Y87092D01*
X269237Y87005D01*
X269165Y86920D01*
X269090Y86838D01*
X269011Y86758D01*
X268930Y86681D01*
X268847Y86608D01*
X268761Y86537D01*
X268672Y86469D01*
X268581Y86404D01*
X268488Y86343D01*
X268393Y86285D01*
X268295Y86230D01*
X268196Y86179D01*
X268095Y86131D01*
X267993Y86087D01*
X267889Y86047D01*
X267783Y86010D01*
X267677Y85977D01*
X267569Y85948D01*
X267460Y85923D01*
X267351Y85901D01*
X267241Y85883D01*
X267130Y85870D01*
X267019Y85860D01*
X266908Y85854D01*
X266796Y85852D01*
X262732Y85852D01*
X262732Y93980D01*
X262734Y94081D01*
X262740Y94182D01*
X262749Y94283D01*
X262762Y94384D01*
X262779Y94484D01*
X262800Y94583D01*
X262824Y94681D01*
X262852Y94778D01*
X262884Y94875D01*
X262919Y94970D01*
X262958Y95063D01*
X263000Y95155D01*
X263046Y95246D01*
X263095Y95335D01*
X263147Y95421D01*
X263203Y95506D01*
X263261Y95589D01*
X263323Y95669D01*
X263388Y95747D01*
X263455Y95823D01*
X263525Y95896D01*
X263598Y95966D01*
X263674Y96033D01*
X263752Y96098D01*
X263832Y96160D01*
X263915Y96218D01*
X264000Y96274D01*
X264087Y96326D01*
X264175Y96375D01*
X264266Y96421D01*
X264358Y96463D01*
X264451Y96502D01*
X264546Y96537D01*
X264643Y96569D01*
X264740Y96597D01*
X264838Y96621D01*
X264937Y96642D01*
X265037Y96659D01*
X265138Y96672D01*
X265239Y96681D01*
X265340Y96687D01*
X265441Y96689D01*
X269053Y96689D01*
X255815Y93077D02*
X255815Y89464D01*
X255815Y93077D02*
X255813Y93196D01*
X255807Y93316D01*
X255797Y93435D01*
X255783Y93553D01*
X255766Y93672D01*
X255744Y93789D01*
X255719Y93906D01*
X255689Y94021D01*
X255656Y94136D01*
X255619Y94250D01*
X255579Y94362D01*
X255534Y94473D01*
X255486Y94582D01*
X255435Y94690D01*
X255380Y94796D01*
X255321Y94900D01*
X255259Y95002D01*
X255194Y95102D01*
X255125Y95200D01*
X255053Y95296D01*
X254978Y95389D01*
X254901Y95479D01*
X254820Y95567D01*
X254736Y95652D01*
X254649Y95734D01*
X254560Y95814D01*
X254468Y95890D01*
X254374Y95964D01*
X254277Y96034D01*
X254179Y96101D01*
X254078Y96165D01*
X253974Y96225D01*
X253869Y96282D01*
X253762Y96335D01*
X253654Y96385D01*
X253544Y96431D01*
X253432Y96473D01*
X253319Y96512D01*
X253205Y96547D01*
X253090Y96578D01*
X252973Y96606D01*
X252856Y96629D01*
X252739Y96649D01*
X252620Y96665D01*
X252501Y96677D01*
X252382Y96685D01*
X252263Y96689D01*
X252143Y96689D01*
X252024Y96685D01*
X251905Y96677D01*
X251786Y96665D01*
X251667Y96649D01*
X251550Y96629D01*
X251433Y96606D01*
X251316Y96578D01*
X251201Y96547D01*
X251087Y96512D01*
X250974Y96473D01*
X250862Y96431D01*
X250752Y96385D01*
X250644Y96335D01*
X250537Y96282D01*
X250432Y96225D01*
X250328Y96165D01*
X250227Y96101D01*
X250129Y96034D01*
X250032Y95964D01*
X249938Y95890D01*
X249846Y95814D01*
X249757Y95734D01*
X249670Y95652D01*
X249586Y95567D01*
X249505Y95479D01*
X249428Y95389D01*
X249353Y95296D01*
X249281Y95200D01*
X249212Y95102D01*
X249147Y95002D01*
X249085Y94900D01*
X249026Y94796D01*
X248971Y94690D01*
X248920Y94582D01*
X248872Y94473D01*
X248827Y94362D01*
X248787Y94250D01*
X248750Y94136D01*
X248717Y94021D01*
X248687Y93906D01*
X248662Y93789D01*
X248640Y93672D01*
X248623Y93553D01*
X248609Y93435D01*
X248599Y93316D01*
X248593Y93196D01*
X248591Y93077D01*
X248590Y93077D02*
X248590Y89464D01*
X248591Y89464D02*
X248593Y89345D01*
X248599Y89225D01*
X248609Y89106D01*
X248623Y88988D01*
X248640Y88869D01*
X248662Y88752D01*
X248687Y88635D01*
X248717Y88520D01*
X248750Y88405D01*
X248787Y88291D01*
X248827Y88179D01*
X248872Y88068D01*
X248920Y87959D01*
X248971Y87851D01*
X249026Y87745D01*
X249085Y87641D01*
X249147Y87539D01*
X249212Y87439D01*
X249281Y87341D01*
X249353Y87245D01*
X249428Y87152D01*
X249505Y87062D01*
X249586Y86974D01*
X249670Y86889D01*
X249757Y86807D01*
X249846Y86727D01*
X249938Y86651D01*
X250032Y86577D01*
X250129Y86507D01*
X250227Y86440D01*
X250328Y86376D01*
X250432Y86316D01*
X250537Y86259D01*
X250644Y86206D01*
X250752Y86156D01*
X250862Y86110D01*
X250974Y86068D01*
X251087Y86029D01*
X251201Y85994D01*
X251316Y85963D01*
X251433Y85935D01*
X251550Y85912D01*
X251667Y85892D01*
X251786Y85876D01*
X251905Y85864D01*
X252024Y85856D01*
X252143Y85852D01*
X252263Y85852D01*
X252382Y85856D01*
X252501Y85864D01*
X252620Y85876D01*
X252739Y85892D01*
X252856Y85912D01*
X252973Y85935D01*
X253090Y85963D01*
X253205Y85994D01*
X253319Y86029D01*
X253432Y86068D01*
X253544Y86110D01*
X253654Y86156D01*
X253762Y86206D01*
X253869Y86259D01*
X253974Y86316D01*
X254078Y86376D01*
X254179Y86440D01*
X254277Y86507D01*
X254374Y86577D01*
X254468Y86651D01*
X254560Y86727D01*
X254649Y86807D01*
X254736Y86889D01*
X254820Y86974D01*
X254901Y87062D01*
X254978Y87152D01*
X255053Y87245D01*
X255125Y87341D01*
X255194Y87439D01*
X255259Y87539D01*
X255321Y87641D01*
X255380Y87745D01*
X255435Y87851D01*
X255486Y87959D01*
X255534Y88068D01*
X255579Y88179D01*
X255619Y88291D01*
X255656Y88405D01*
X255689Y88520D01*
X255719Y88635D01*
X255744Y88752D01*
X255766Y88869D01*
X255783Y88988D01*
X255797Y89106D01*
X255807Y89225D01*
X255813Y89345D01*
X255815Y89464D01*
X241990Y92174D02*
X231153Y92174D01*
X223665Y85852D02*
X223665Y99399D01*
X223664Y99399D02*
X223662Y99500D01*
X223656Y99601D01*
X223647Y99702D01*
X223634Y99803D01*
X223617Y99903D01*
X223596Y100002D01*
X223572Y100100D01*
X223544Y100197D01*
X223512Y100294D01*
X223477Y100389D01*
X223438Y100482D01*
X223396Y100574D01*
X223350Y100665D01*
X223301Y100754D01*
X223249Y100840D01*
X223193Y100925D01*
X223135Y101008D01*
X223073Y101088D01*
X223008Y101166D01*
X222941Y101242D01*
X222871Y101315D01*
X222798Y101385D01*
X222722Y101452D01*
X222644Y101517D01*
X222564Y101579D01*
X222481Y101637D01*
X222396Y101693D01*
X222310Y101745D01*
X222221Y101794D01*
X222130Y101840D01*
X222038Y101882D01*
X221945Y101921D01*
X221850Y101956D01*
X221753Y101988D01*
X221656Y102016D01*
X221558Y102040D01*
X221459Y102061D01*
X221359Y102078D01*
X221258Y102091D01*
X221157Y102100D01*
X221056Y102106D01*
X220955Y102108D01*
X220052Y102108D01*
X220052Y96689D02*
X225471Y96689D01*
X212607Y92174D02*
X208543Y92174D01*
X212607Y92174D02*
X212719Y92172D01*
X212830Y92166D01*
X212941Y92156D01*
X213052Y92143D01*
X213162Y92125D01*
X213271Y92103D01*
X213380Y92078D01*
X213488Y92049D01*
X213594Y92016D01*
X213700Y91979D01*
X213804Y91939D01*
X213906Y91895D01*
X214007Y91847D01*
X214106Y91796D01*
X214204Y91741D01*
X214299Y91683D01*
X214392Y91622D01*
X214483Y91557D01*
X214572Y91489D01*
X214658Y91418D01*
X214741Y91345D01*
X214822Y91268D01*
X214901Y91188D01*
X214976Y91106D01*
X215048Y91021D01*
X215118Y90934D01*
X215184Y90844D01*
X215247Y90752D01*
X215307Y90657D01*
X215363Y90561D01*
X215416Y90463D01*
X215465Y90363D01*
X215511Y90261D01*
X215553Y90158D01*
X215592Y90053D01*
X215627Y89947D01*
X215658Y89840D01*
X215685Y89732D01*
X215709Y89623D01*
X215728Y89513D01*
X215744Y89403D01*
X215756Y89292D01*
X215764Y89180D01*
X215768Y89069D01*
X215768Y88957D01*
X215764Y88846D01*
X215756Y88734D01*
X215744Y88623D01*
X215728Y88513D01*
X215709Y88403D01*
X215685Y88294D01*
X215658Y88186D01*
X215627Y88079D01*
X215592Y87973D01*
X215553Y87868D01*
X215511Y87765D01*
X215465Y87663D01*
X215416Y87563D01*
X215363Y87465D01*
X215307Y87369D01*
X215247Y87274D01*
X215184Y87182D01*
X215118Y87092D01*
X215048Y87005D01*
X214976Y86920D01*
X214901Y86838D01*
X214822Y86758D01*
X214741Y86681D01*
X214658Y86608D01*
X214572Y86537D01*
X214483Y86469D01*
X214392Y86404D01*
X214299Y86343D01*
X214204Y86285D01*
X214106Y86230D01*
X214007Y86179D01*
X213906Y86131D01*
X213804Y86087D01*
X213700Y86047D01*
X213594Y86010D01*
X213488Y85977D01*
X213380Y85948D01*
X213271Y85923D01*
X213162Y85901D01*
X213052Y85883D01*
X212941Y85870D01*
X212830Y85860D01*
X212719Y85854D01*
X212607Y85852D01*
X208543Y85852D01*
X208543Y93980D01*
X208544Y93980D02*
X208546Y94081D01*
X208552Y94182D01*
X208561Y94283D01*
X208574Y94384D01*
X208591Y94484D01*
X208612Y94583D01*
X208636Y94681D01*
X208664Y94778D01*
X208696Y94875D01*
X208731Y94970D01*
X208770Y95063D01*
X208812Y95155D01*
X208858Y95246D01*
X208907Y95335D01*
X208959Y95421D01*
X209015Y95506D01*
X209073Y95589D01*
X209135Y95669D01*
X209200Y95747D01*
X209267Y95823D01*
X209337Y95896D01*
X209410Y95966D01*
X209486Y96033D01*
X209564Y96098D01*
X209644Y96160D01*
X209727Y96218D01*
X209812Y96274D01*
X209899Y96326D01*
X209987Y96375D01*
X210078Y96421D01*
X210170Y96463D01*
X210263Y96502D01*
X210358Y96537D01*
X210455Y96569D01*
X210552Y96597D01*
X210650Y96621D01*
X210749Y96642D01*
X210849Y96659D01*
X210950Y96672D01*
X211051Y96681D01*
X211152Y96687D01*
X211253Y96689D01*
X214865Y96689D01*
X198900Y85852D02*
X195287Y85852D01*
X198900Y85852D02*
X199001Y85854D01*
X199102Y85860D01*
X199203Y85869D01*
X199304Y85882D01*
X199404Y85899D01*
X199503Y85920D01*
X199601Y85944D01*
X199698Y85972D01*
X199795Y86004D01*
X199890Y86039D01*
X199983Y86078D01*
X200075Y86120D01*
X200166Y86166D01*
X200255Y86215D01*
X200341Y86267D01*
X200426Y86323D01*
X200509Y86381D01*
X200589Y86443D01*
X200667Y86508D01*
X200743Y86575D01*
X200816Y86645D01*
X200886Y86718D01*
X200953Y86794D01*
X201018Y86872D01*
X201080Y86952D01*
X201138Y87035D01*
X201194Y87120D01*
X201246Y87206D01*
X201295Y87295D01*
X201341Y87386D01*
X201383Y87478D01*
X201422Y87571D01*
X201457Y87666D01*
X201489Y87763D01*
X201517Y87860D01*
X201541Y87958D01*
X201562Y88057D01*
X201579Y88157D01*
X201592Y88258D01*
X201601Y88359D01*
X201607Y88460D01*
X201609Y88561D01*
X201609Y93980D01*
X201607Y94081D01*
X201601Y94182D01*
X201592Y94283D01*
X201579Y94384D01*
X201562Y94484D01*
X201541Y94583D01*
X201517Y94681D01*
X201489Y94778D01*
X201457Y94875D01*
X201422Y94970D01*
X201383Y95063D01*
X201341Y95155D01*
X201295Y95246D01*
X201246Y95335D01*
X201194Y95421D01*
X201138Y95506D01*
X201080Y95589D01*
X201018Y95669D01*
X200953Y95747D01*
X200886Y95823D01*
X200816Y95896D01*
X200743Y95966D01*
X200667Y96033D01*
X200589Y96098D01*
X200509Y96160D01*
X200426Y96218D01*
X200341Y96274D01*
X200255Y96326D01*
X200166Y96375D01*
X200075Y96421D01*
X199983Y96463D01*
X199890Y96502D01*
X199795Y96537D01*
X199698Y96569D01*
X199601Y96597D01*
X199503Y96621D01*
X199404Y96642D01*
X199304Y96659D01*
X199203Y96672D01*
X199102Y96681D01*
X199001Y96687D01*
X198900Y96689D01*
X195287Y96689D01*
X186934Y85852D02*
X182418Y85852D01*
X186934Y85852D02*
X187035Y85854D01*
X187136Y85860D01*
X187237Y85869D01*
X187338Y85882D01*
X187438Y85899D01*
X187537Y85920D01*
X187635Y85944D01*
X187732Y85972D01*
X187829Y86004D01*
X187924Y86039D01*
X188017Y86078D01*
X188109Y86120D01*
X188200Y86166D01*
X188289Y86215D01*
X188375Y86267D01*
X188460Y86323D01*
X188543Y86381D01*
X188623Y86443D01*
X188701Y86508D01*
X188777Y86575D01*
X188850Y86645D01*
X188920Y86718D01*
X188987Y86794D01*
X189052Y86872D01*
X189114Y86952D01*
X189172Y87035D01*
X189228Y87120D01*
X189280Y87206D01*
X189329Y87295D01*
X189375Y87386D01*
X189417Y87478D01*
X189456Y87571D01*
X189491Y87666D01*
X189523Y87763D01*
X189551Y87860D01*
X189575Y87958D01*
X189596Y88057D01*
X189613Y88157D01*
X189626Y88258D01*
X189635Y88359D01*
X189641Y88460D01*
X189643Y88561D01*
X189643Y93077D01*
X189642Y93077D02*
X189640Y93196D01*
X189634Y93316D01*
X189624Y93435D01*
X189610Y93553D01*
X189593Y93672D01*
X189571Y93789D01*
X189546Y93906D01*
X189516Y94021D01*
X189483Y94136D01*
X189446Y94250D01*
X189406Y94362D01*
X189361Y94473D01*
X189313Y94582D01*
X189262Y94690D01*
X189207Y94796D01*
X189148Y94900D01*
X189086Y95002D01*
X189021Y95102D01*
X188952Y95200D01*
X188880Y95296D01*
X188805Y95389D01*
X188728Y95479D01*
X188647Y95567D01*
X188563Y95652D01*
X188476Y95734D01*
X188387Y95814D01*
X188295Y95890D01*
X188201Y95964D01*
X188104Y96034D01*
X188006Y96101D01*
X187905Y96165D01*
X187801Y96225D01*
X187696Y96282D01*
X187589Y96335D01*
X187481Y96385D01*
X187371Y96431D01*
X187259Y96473D01*
X187146Y96512D01*
X187032Y96547D01*
X186917Y96578D01*
X186800Y96606D01*
X186683Y96629D01*
X186566Y96649D01*
X186447Y96665D01*
X186328Y96677D01*
X186209Y96685D01*
X186090Y96689D01*
X185970Y96689D01*
X185851Y96685D01*
X185732Y96677D01*
X185613Y96665D01*
X185494Y96649D01*
X185377Y96629D01*
X185260Y96606D01*
X185143Y96578D01*
X185028Y96547D01*
X184914Y96512D01*
X184801Y96473D01*
X184689Y96431D01*
X184579Y96385D01*
X184471Y96335D01*
X184364Y96282D01*
X184259Y96225D01*
X184155Y96165D01*
X184054Y96101D01*
X183956Y96034D01*
X183859Y95964D01*
X183765Y95890D01*
X183673Y95814D01*
X183584Y95734D01*
X183497Y95652D01*
X183413Y95567D01*
X183332Y95479D01*
X183255Y95389D01*
X183180Y95296D01*
X183108Y95200D01*
X183039Y95102D01*
X182974Y95002D01*
X182912Y94900D01*
X182853Y94796D01*
X182798Y94690D01*
X182747Y94582D01*
X182699Y94473D01*
X182654Y94362D01*
X182614Y94250D01*
X182577Y94136D01*
X182544Y94021D01*
X182514Y93906D01*
X182489Y93789D01*
X182467Y93672D01*
X182450Y93553D01*
X182436Y93435D01*
X182426Y93316D01*
X182420Y93196D01*
X182418Y93077D01*
X182418Y91271D01*
X189643Y91271D01*
X174741Y92174D02*
X170226Y90368D01*
X174741Y92174D02*
X174829Y92211D01*
X174915Y92252D01*
X175000Y92296D01*
X175083Y92344D01*
X175163Y92395D01*
X175242Y92449D01*
X175318Y92507D01*
X175392Y92567D01*
X175464Y92631D01*
X175532Y92697D01*
X175598Y92767D01*
X175661Y92838D01*
X175722Y92913D01*
X175779Y92989D01*
X175832Y93068D01*
X175883Y93149D01*
X175930Y93232D01*
X175974Y93317D01*
X176014Y93404D01*
X176051Y93492D01*
X176084Y93582D01*
X176114Y93673D01*
X176139Y93765D01*
X176161Y93858D01*
X176179Y93952D01*
X176194Y94046D01*
X176204Y94141D01*
X176210Y94237D01*
X176213Y94332D01*
X176212Y94428D01*
X176206Y94523D01*
X176197Y94619D01*
X176184Y94713D01*
X176168Y94807D01*
X176147Y94901D01*
X176122Y94993D01*
X176094Y95084D01*
X176062Y95174D01*
X176027Y95263D01*
X175988Y95350D01*
X175945Y95436D01*
X175899Y95520D01*
X175849Y95601D01*
X175797Y95681D01*
X175741Y95759D01*
X175681Y95834D01*
X175619Y95906D01*
X175554Y95976D01*
X175486Y96044D01*
X175416Y96108D01*
X175343Y96170D01*
X175267Y96228D01*
X175189Y96284D01*
X175109Y96336D01*
X175027Y96385D01*
X174943Y96430D01*
X174857Y96472D01*
X174770Y96511D01*
X174681Y96546D01*
X174590Y96577D01*
X174499Y96604D01*
X174406Y96628D01*
X174313Y96648D01*
X174219Y96664D01*
X174124Y96676D01*
X174029Y96685D01*
X173933Y96689D01*
X173838Y96690D01*
X173591Y96683D01*
X173345Y96671D01*
X173099Y96653D01*
X172853Y96628D01*
X172609Y96598D01*
X172365Y96562D01*
X172122Y96521D01*
X171880Y96473D01*
X171639Y96419D01*
X171400Y96360D01*
X171162Y96295D01*
X170926Y96224D01*
X170691Y96148D01*
X170458Y96066D01*
X170228Y95978D01*
X170000Y95885D01*
X169773Y95787D01*
X170225Y90367D02*
X170137Y90330D01*
X170051Y90289D01*
X169966Y90245D01*
X169883Y90197D01*
X169803Y90146D01*
X169724Y90092D01*
X169648Y90034D01*
X169574Y89974D01*
X169502Y89910D01*
X169434Y89844D01*
X169368Y89774D01*
X169305Y89703D01*
X169244Y89628D01*
X169187Y89552D01*
X169134Y89473D01*
X169083Y89392D01*
X169036Y89309D01*
X168992Y89224D01*
X168952Y89137D01*
X168915Y89049D01*
X168882Y88959D01*
X168852Y88868D01*
X168827Y88776D01*
X168805Y88683D01*
X168787Y88589D01*
X168772Y88495D01*
X168762Y88400D01*
X168756Y88304D01*
X168753Y88209D01*
X168754Y88113D01*
X168760Y88018D01*
X168769Y87922D01*
X168782Y87828D01*
X168798Y87734D01*
X168819Y87640D01*
X168844Y87548D01*
X168872Y87457D01*
X168904Y87367D01*
X168939Y87278D01*
X168978Y87191D01*
X169021Y87105D01*
X169067Y87021D01*
X169117Y86940D01*
X169169Y86860D01*
X169225Y86782D01*
X169285Y86707D01*
X169347Y86635D01*
X169412Y86565D01*
X169480Y86497D01*
X169550Y86433D01*
X169623Y86371D01*
X169699Y86313D01*
X169777Y86257D01*
X169857Y86205D01*
X169939Y86156D01*
X170023Y86111D01*
X170109Y86069D01*
X170196Y86030D01*
X170285Y85995D01*
X170376Y85964D01*
X170467Y85937D01*
X170560Y85913D01*
X170653Y85893D01*
X170747Y85877D01*
X170842Y85865D01*
X170937Y85856D01*
X171033Y85852D01*
X171128Y85851D01*
X171129Y85852D02*
X171491Y85861D01*
X171853Y85879D01*
X172214Y85906D01*
X172574Y85941D01*
X172934Y85984D01*
X173293Y86036D01*
X173650Y86097D01*
X174005Y86166D01*
X174359Y86243D01*
X174711Y86329D01*
X175061Y86423D01*
X175409Y86526D01*
X175754Y86636D01*
X176096Y86755D01*
D11*
X217000Y296890D02*
X291000Y296890D01*
X359000Y357590D01*
X217000Y296890D02*
X149000Y357590D01*
X201000Y485590D02*
X202865Y484318D01*
X204761Y483091D01*
X206686Y481911D01*
X208639Y480779D01*
X210619Y479695D01*
X212626Y478659D01*
X214657Y477673D01*
X216711Y476737D01*
X218788Y475851D01*
X220886Y475016D01*
X223003Y474233D01*
X225139Y473502D01*
X227293Y472823D01*
X229462Y472197D01*
X231646Y471624D01*
X233843Y471104D01*
X236052Y470639D01*
X238272Y470227D01*
X240502Y469870D01*
X242739Y469568D01*
X244983Y469320D01*
X247233Y469127D01*
X249486Y468989D01*
X251742Y468907D01*
X254000Y468879D01*
X256258Y468907D01*
X258514Y468989D01*
X260767Y469127D01*
X263017Y469320D01*
X265261Y469568D01*
X267498Y469870D01*
X269728Y470227D01*
X271948Y470639D01*
X274157Y471104D01*
X276354Y471624D01*
X278538Y472197D01*
X280707Y472823D01*
X282861Y473502D01*
X284997Y474233D01*
X287114Y475016D01*
X289212Y475851D01*
X291289Y476737D01*
X293343Y477673D01*
X295374Y478659D01*
X297381Y479695D01*
X299361Y480779D01*
X301314Y481911D01*
X303239Y483091D01*
X305135Y484318D01*
X307000Y485590D01*
X149000Y368590D02*
X149000Y357590D01*
X359000Y357590D02*
X359000Y368590D01*
X359000Y465590D02*
X359002Y466313D01*
X358986Y467036D01*
X358953Y467759D01*
X358902Y468480D01*
X358833Y469200D01*
X358748Y469919D01*
X358644Y470634D01*
X358523Y471348D01*
X358385Y472058D01*
X358230Y472764D01*
X358057Y473466D01*
X357867Y474164D01*
X357661Y474857D01*
X357437Y475545D01*
X357197Y476228D01*
X356940Y476904D01*
X356667Y477574D01*
X356378Y478236D01*
X356073Y478892D01*
X355751Y479540D01*
X355414Y480180D01*
X355062Y480812D01*
X354694Y481435D01*
X354311Y482048D01*
X353913Y482652D01*
X353501Y483247D01*
X353075Y483831D01*
X352634Y484404D01*
X352179Y484967D01*
X351711Y485518D01*
X351230Y486058D01*
X350735Y486586D01*
X350228Y487101D01*
X349708Y487604D01*
X349177Y488095D01*
X348633Y488572D01*
X348078Y489036D01*
X347512Y489486D01*
X346935Y489922D01*
X346348Y490344D01*
X345750Y490752D01*
X345143Y491145D01*
X344526Y491523D01*
X343901Y491886D01*
X343266Y492233D01*
X342624Y492565D01*
X341973Y492881D01*
X341315Y493182D01*
X340650Y493466D01*
X339978Y493734D01*
X339300Y493985D01*
X338616Y494220D01*
X337926Y494438D01*
X337231Y494639D01*
X336532Y494823D01*
X335828Y494991D01*
X335121Y495140D01*
X334410Y495273D01*
X333696Y495388D01*
X332979Y495486D01*
X332260Y495566D01*
X331540Y495629D01*
X330818Y495674D01*
X330095Y495702D01*
X329372Y495712D01*
X328649Y495704D01*
X327926Y495679D01*
X327204Y495636D01*
X326483Y495576D01*
X325764Y495498D01*
X325047Y495402D01*
X324332Y495289D01*
X323621Y495159D01*
X322913Y495011D01*
X322209Y494846D01*
X321509Y494665D01*
X320813Y494466D01*
X320123Y494250D01*
X319438Y494017D01*
X318759Y493768D01*
X318086Y493502D01*
X317420Y493220D01*
X316761Y492922D01*
X316110Y492608D01*
X315466Y492278D01*
X314831Y491933D01*
X314204Y491572D01*
X313586Y491196D01*
X312977Y490805D01*
X312379Y490399D01*
X311790Y489979D01*
X311212Y489544D01*
X310644Y489096D01*
X310088Y488634D01*
X309543Y488159D01*
X309009Y487670D01*
X308488Y487168D01*
X307979Y486654D01*
X307483Y486128D01*
X307000Y485590D01*
X201000Y485590D02*
X200499Y486122D01*
X199986Y486642D01*
X199460Y487149D01*
X198922Y487643D01*
X198372Y488124D01*
X197811Y488591D01*
X197238Y489045D01*
X196655Y489484D01*
X196061Y489909D01*
X195456Y490320D01*
X194842Y490715D01*
X194219Y491096D01*
X193586Y491461D01*
X192944Y491810D01*
X192295Y492144D01*
X191637Y492462D01*
X190972Y492764D01*
X190299Y493049D01*
X189620Y493318D01*
X188935Y493570D01*
X188243Y493806D01*
X187546Y494024D01*
X186844Y494226D01*
X186137Y494410D01*
X185426Y494577D01*
X184711Y494726D01*
X183992Y494858D01*
X183271Y494973D01*
X182547Y495070D01*
X181821Y495149D01*
X181093Y495210D01*
X180364Y495254D01*
X179634Y495280D01*
X178903Y495288D01*
X178173Y495278D01*
X177443Y495251D01*
X176714Y495205D01*
X175986Y495142D01*
X175260Y495061D01*
X174536Y494963D01*
X173815Y494846D01*
X173097Y494713D01*
X172382Y494561D01*
X171672Y494393D01*
X170965Y494207D01*
X170264Y494004D01*
X169567Y493783D01*
X168876Y493546D01*
X168191Y493292D01*
X167513Y493022D01*
X166841Y492735D01*
X166176Y492432D01*
X165519Y492112D01*
X164870Y491777D01*
X164230Y491426D01*
X163598Y491059D01*
X162975Y490677D01*
X162362Y490280D01*
X161759Y489868D01*
X161166Y489442D01*
X160583Y489001D01*
X160012Y488546D01*
X159451Y488078D01*
X158903Y487595D01*
X158366Y487100D01*
X157841Y486592D01*
X157329Y486071D01*
X156830Y485537D01*
X156344Y484992D01*
X155872Y484435D01*
X155413Y483866D01*
X154968Y483287D01*
X154538Y482697D01*
X154122Y482096D01*
X153720Y481486D01*
X153334Y480866D01*
X152963Y480236D01*
X152608Y479598D01*
X152268Y478952D01*
X151944Y478297D01*
X151636Y477635D01*
X151345Y476965D01*
X151069Y476288D01*
X150811Y475605D01*
X150569Y474916D01*
X150344Y474221D01*
X150136Y473520D01*
X149945Y472815D01*
X149772Y472106D01*
X149615Y471392D01*
X149477Y470675D01*
X149356Y469955D01*
X149252Y469232D01*
X149166Y468506D01*
X149098Y467779D01*
X149047Y467050D01*
X149015Y466320D01*
X149000Y465590D01*
X359000Y465590D02*
X359000Y436590D01*
X149000Y436590D02*
X149000Y465590D01*
M02*
