G04 EAGLE Gerber X2 export*
G75*
%MOMM*%
%FSLAX34Y34*%
%LPD*%
%AMOC8*
5,1,8,0,0,1.08239X$1,22.5*%
G01*
%ADD10C,0.508000*%


D10*
X238760Y228600D02*
X238762Y228700D01*
X238768Y228801D01*
X238778Y228900D01*
X238792Y229000D01*
X238809Y229099D01*
X238831Y229197D01*
X238857Y229294D01*
X238886Y229390D01*
X238919Y229484D01*
X238956Y229578D01*
X238996Y229670D01*
X239040Y229760D01*
X239088Y229848D01*
X239139Y229935D01*
X239193Y230019D01*
X239251Y230101D01*
X239312Y230181D01*
X239376Y230258D01*
X239443Y230333D01*
X239513Y230405D01*
X239586Y230474D01*
X239661Y230540D01*
X239739Y230604D01*
X239819Y230664D01*
X239902Y230721D01*
X239987Y230774D01*
X240074Y230824D01*
X240163Y230871D01*
X240253Y230914D01*
X240345Y230954D01*
X240439Y230990D01*
X240534Y231022D01*
X240630Y231050D01*
X240728Y231075D01*
X240826Y231095D01*
X240925Y231112D01*
X241025Y231125D01*
X241124Y231134D01*
X241225Y231139D01*
X241325Y231140D01*
X241425Y231137D01*
X241526Y231130D01*
X241625Y231119D01*
X241725Y231104D01*
X241823Y231086D01*
X241921Y231063D01*
X242018Y231036D01*
X242113Y231006D01*
X242208Y230972D01*
X242301Y230934D01*
X242392Y230893D01*
X242482Y230848D01*
X242570Y230800D01*
X242656Y230748D01*
X242740Y230693D01*
X242821Y230634D01*
X242900Y230572D01*
X242977Y230508D01*
X243051Y230440D01*
X243122Y230369D01*
X243191Y230296D01*
X243256Y230220D01*
X243319Y230141D01*
X243378Y230060D01*
X243434Y229977D01*
X243487Y229892D01*
X243536Y229804D01*
X243582Y229715D01*
X243624Y229624D01*
X243663Y229531D01*
X243698Y229437D01*
X243729Y229342D01*
X243757Y229245D01*
X243780Y229148D01*
X243800Y229049D01*
X243816Y228950D01*
X243828Y228851D01*
X243836Y228750D01*
X243840Y228650D01*
X243840Y228550D01*
X243836Y228450D01*
X243828Y228349D01*
X243816Y228250D01*
X243800Y228151D01*
X243780Y228052D01*
X243757Y227955D01*
X243729Y227858D01*
X243698Y227763D01*
X243663Y227669D01*
X243624Y227576D01*
X243582Y227485D01*
X243536Y227396D01*
X243487Y227308D01*
X243434Y227223D01*
X243378Y227140D01*
X243319Y227059D01*
X243256Y226980D01*
X243191Y226904D01*
X243122Y226831D01*
X243051Y226760D01*
X242977Y226692D01*
X242900Y226628D01*
X242821Y226566D01*
X242740Y226507D01*
X242656Y226452D01*
X242570Y226400D01*
X242482Y226352D01*
X242392Y226307D01*
X242301Y226266D01*
X242208Y226228D01*
X242113Y226194D01*
X242018Y226164D01*
X241921Y226137D01*
X241823Y226114D01*
X241725Y226096D01*
X241625Y226081D01*
X241526Y226070D01*
X241425Y226063D01*
X241325Y226060D01*
X241225Y226061D01*
X241124Y226066D01*
X241025Y226075D01*
X240925Y226088D01*
X240826Y226105D01*
X240728Y226125D01*
X240630Y226150D01*
X240534Y226178D01*
X240439Y226210D01*
X240345Y226246D01*
X240253Y226286D01*
X240163Y226329D01*
X240074Y226376D01*
X239987Y226426D01*
X239902Y226479D01*
X239819Y226536D01*
X239739Y226596D01*
X239661Y226660D01*
X239586Y226726D01*
X239513Y226795D01*
X239443Y226867D01*
X239376Y226942D01*
X239312Y227019D01*
X239251Y227099D01*
X239193Y227181D01*
X239139Y227265D01*
X239088Y227352D01*
X239040Y227440D01*
X238996Y227530D01*
X238956Y227622D01*
X238919Y227716D01*
X238886Y227810D01*
X238857Y227906D01*
X238831Y228003D01*
X238809Y228101D01*
X238792Y228200D01*
X238778Y228300D01*
X238768Y228399D01*
X238762Y228500D01*
X238760Y228600D01*
M02*
