G04 EAGLE Gerber X2 export*
G75*
%MOMM*%
%FSLAX34Y34*%
%LPD*%
%AMOC8*
5,1,8,0,0,1.08239X$1,22.5*%
G01*
%ADD10C,0.025400*%
%ADD11C,0.254000*%
%ADD12C,0.203200*%


D10*
X370736Y533268D02*
X368980Y531804D01*
X368980Y531805D02*
X368679Y532152D01*
X368370Y532492D01*
X368053Y532825D01*
X367728Y533150D01*
X367396Y533467D01*
X367056Y533776D01*
X366708Y534077D01*
X366354Y534370D01*
X365992Y534653D01*
X365624Y534928D01*
X365249Y535195D01*
X364868Y535452D01*
X364481Y535700D01*
X364089Y535938D01*
X363690Y536167D01*
X363286Y536387D01*
X362878Y536597D01*
X362464Y536797D01*
X362045Y536987D01*
X361622Y537166D01*
X361195Y537336D01*
X360764Y537495D01*
X360329Y537644D01*
X359891Y537783D01*
X359450Y537911D01*
X359005Y538028D01*
X358558Y538135D01*
X358109Y538231D01*
X357657Y538316D01*
X357204Y538390D01*
X356748Y538454D01*
X356292Y538506D01*
X355834Y538548D01*
X355376Y538578D01*
X354916Y538598D01*
X354457Y538607D01*
X354456Y540892D01*
X354457Y540893D01*
X354972Y540883D01*
X355487Y540862D01*
X356001Y540828D01*
X356514Y540782D01*
X357026Y540723D01*
X357536Y540652D01*
X358045Y540569D01*
X358551Y540474D01*
X359055Y540366D01*
X359556Y540247D01*
X360054Y540116D01*
X360549Y539972D01*
X361040Y539817D01*
X361528Y539650D01*
X362011Y539471D01*
X362490Y539281D01*
X362964Y539080D01*
X363433Y538867D01*
X363897Y538643D01*
X364356Y538408D01*
X364808Y538161D01*
X365255Y537905D01*
X365695Y537637D01*
X366129Y537359D01*
X366556Y537071D01*
X366976Y536772D01*
X367388Y536463D01*
X367794Y536145D01*
X368191Y535817D01*
X368580Y535480D01*
X368961Y535133D01*
X369334Y534777D01*
X369698Y534413D01*
X370053Y534040D01*
X370399Y533658D01*
X370736Y533268D01*
X370552Y533114D01*
X370219Y533500D01*
X369877Y533877D01*
X369525Y534246D01*
X369165Y534606D01*
X368797Y534958D01*
X368420Y535301D01*
X368035Y535634D01*
X367642Y535959D01*
X367242Y536273D01*
X366834Y536578D01*
X366419Y536874D01*
X365997Y537159D01*
X365568Y537434D01*
X365132Y537698D01*
X364691Y537952D01*
X364243Y538195D01*
X363790Y538428D01*
X363332Y538649D01*
X362868Y538860D01*
X362399Y539059D01*
X361925Y539247D01*
X361448Y539424D01*
X360966Y539589D01*
X360480Y539742D01*
X359991Y539884D01*
X359498Y540014D01*
X359003Y540132D01*
X358505Y540238D01*
X358004Y540333D01*
X357501Y540415D01*
X356997Y540485D01*
X356491Y540543D01*
X355983Y540588D01*
X355475Y540622D01*
X354966Y540643D01*
X354457Y540653D01*
X354457Y540413D01*
X354960Y540404D01*
X355463Y540382D01*
X355966Y540349D01*
X356467Y540304D01*
X356968Y540247D01*
X357466Y540177D01*
X357963Y540096D01*
X358458Y540003D01*
X358951Y539898D01*
X359440Y539781D01*
X359927Y539653D01*
X360411Y539513D01*
X360891Y539361D01*
X361367Y539198D01*
X361840Y539023D01*
X362308Y538837D01*
X362771Y538640D01*
X363230Y538432D01*
X363683Y538213D01*
X364131Y537983D01*
X364574Y537743D01*
X365010Y537492D01*
X365440Y537230D01*
X365864Y536958D01*
X366282Y536677D01*
X366692Y536385D01*
X367095Y536083D01*
X367491Y535772D01*
X367880Y535452D01*
X368260Y535122D01*
X368633Y534783D01*
X368997Y534436D01*
X369353Y534079D01*
X369700Y533715D01*
X370038Y533342D01*
X370368Y532961D01*
X370183Y532807D01*
X369858Y533184D01*
X369523Y533552D01*
X369180Y533913D01*
X368828Y534265D01*
X368468Y534608D01*
X368100Y534943D01*
X367724Y535269D01*
X367340Y535586D01*
X366949Y535893D01*
X366550Y536191D01*
X366144Y536480D01*
X365732Y536758D01*
X365313Y537027D01*
X364888Y537285D01*
X364456Y537533D01*
X364019Y537771D01*
X363576Y537998D01*
X363128Y538215D01*
X362675Y538420D01*
X362217Y538615D01*
X361754Y538799D01*
X361287Y538971D01*
X360816Y539133D01*
X360342Y539283D01*
X359864Y539421D01*
X359383Y539548D01*
X358899Y539664D01*
X358412Y539767D01*
X357923Y539860D01*
X357431Y539940D01*
X356939Y540008D01*
X356444Y540065D01*
X355948Y540110D01*
X355452Y540143D01*
X354954Y540164D01*
X354457Y540173D01*
X354457Y539933D01*
X354949Y539924D01*
X355440Y539903D01*
X355931Y539870D01*
X356421Y539826D01*
X356909Y539770D01*
X357397Y539702D01*
X357882Y539623D01*
X358365Y539532D01*
X358846Y539429D01*
X359325Y539315D01*
X359800Y539190D01*
X360273Y539053D01*
X360742Y538905D01*
X361207Y538745D01*
X361668Y538575D01*
X362126Y538393D01*
X362578Y538201D01*
X363026Y537997D01*
X363469Y537784D01*
X363907Y537559D01*
X364339Y537324D01*
X364765Y537079D01*
X365185Y536823D01*
X365600Y536558D01*
X366007Y536283D01*
X366408Y535998D01*
X366802Y535703D01*
X367189Y535399D01*
X367568Y535086D01*
X367940Y534764D01*
X368304Y534433D01*
X368660Y534094D01*
X369007Y533746D01*
X369347Y533390D01*
X369677Y533026D01*
X369999Y532653D01*
X369814Y532500D01*
X369497Y532867D01*
X369170Y533227D01*
X368835Y533579D01*
X368491Y533923D01*
X368140Y534259D01*
X367780Y534585D01*
X367413Y534904D01*
X367038Y535213D01*
X366655Y535513D01*
X366266Y535804D01*
X365870Y536086D01*
X365467Y536358D01*
X365058Y536620D01*
X364643Y536872D01*
X364221Y537115D01*
X363794Y537347D01*
X363362Y537569D01*
X362924Y537780D01*
X362482Y537981D01*
X362034Y538171D01*
X361583Y538351D01*
X361127Y538519D01*
X360667Y538677D01*
X360204Y538823D01*
X359737Y538958D01*
X359267Y539082D01*
X358794Y539195D01*
X358319Y539297D01*
X357841Y539386D01*
X357362Y539465D01*
X356880Y539532D01*
X356397Y539587D01*
X355913Y539631D01*
X355428Y539663D01*
X354943Y539684D01*
X354457Y539693D01*
X354457Y539453D01*
X354937Y539444D01*
X355417Y539423D01*
X355896Y539392D01*
X356374Y539348D01*
X356851Y539294D01*
X357327Y539227D01*
X357801Y539150D01*
X358272Y539061D01*
X358742Y538961D01*
X359209Y538849D01*
X359673Y538727D01*
X360135Y538593D01*
X360592Y538448D01*
X361047Y538293D01*
X361497Y538126D01*
X361943Y537949D01*
X362385Y537761D01*
X362823Y537563D01*
X363255Y537354D01*
X363682Y537135D01*
X364104Y536905D01*
X364520Y536666D01*
X364931Y536417D01*
X365335Y536158D01*
X365733Y535889D01*
X366124Y535611D01*
X366509Y535323D01*
X366887Y535027D01*
X367257Y534721D01*
X367620Y534407D01*
X367975Y534084D01*
X368323Y533752D01*
X368662Y533413D01*
X368993Y533065D01*
X369316Y532709D01*
X369630Y532346D01*
X369446Y532193D01*
X369135Y532551D01*
X368817Y532902D01*
X368489Y533246D01*
X368154Y533581D01*
X367811Y533909D01*
X367460Y534228D01*
X367101Y534538D01*
X366735Y534840D01*
X366362Y535133D01*
X365982Y535417D01*
X365596Y535692D01*
X365203Y535957D01*
X364803Y536213D01*
X364398Y536460D01*
X363987Y536696D01*
X363570Y536923D01*
X363148Y537139D01*
X362721Y537345D01*
X362289Y537541D01*
X361852Y537727D01*
X361411Y537902D01*
X360967Y538067D01*
X360518Y538220D01*
X360066Y538363D01*
X359610Y538495D01*
X359151Y538617D01*
X358690Y538727D01*
X358226Y538826D01*
X357760Y538913D01*
X357292Y538990D01*
X356822Y539055D01*
X356351Y539110D01*
X355878Y539152D01*
X355405Y539184D01*
X354931Y539204D01*
X354457Y539213D01*
X354457Y538973D01*
X354925Y538964D01*
X355393Y538944D01*
X355861Y538913D01*
X356327Y538871D01*
X356793Y538817D01*
X357257Y538753D01*
X357719Y538677D01*
X358180Y538590D01*
X358638Y538492D01*
X359094Y538384D01*
X359546Y538264D01*
X359996Y538133D01*
X360443Y537992D01*
X360886Y537840D01*
X361326Y537678D01*
X361761Y537505D01*
X362192Y537322D01*
X362619Y537128D01*
X363041Y536924D01*
X363458Y536710D01*
X363869Y536487D01*
X364275Y536253D01*
X364676Y536010D01*
X365070Y535757D01*
X365459Y535495D01*
X365840Y535224D01*
X366216Y534943D01*
X366584Y534654D01*
X366946Y534356D01*
X367300Y534049D01*
X367646Y533734D01*
X367986Y533411D01*
X368317Y533079D01*
X368640Y532740D01*
X368955Y532393D01*
X369261Y532039D01*
X369077Y531885D01*
X368774Y532235D01*
X368463Y532578D01*
X368144Y532913D01*
X367817Y533240D01*
X367482Y533559D01*
X367140Y533870D01*
X366790Y534173D01*
X366433Y534467D01*
X366069Y534753D01*
X365699Y535030D01*
X365321Y535298D01*
X364938Y535557D01*
X364548Y535807D01*
X364153Y536047D01*
X363752Y536277D01*
X363345Y536498D01*
X362934Y536709D01*
X362517Y536911D01*
X362096Y537102D01*
X361670Y537283D01*
X361240Y537454D01*
X360806Y537614D01*
X360368Y537764D01*
X359927Y537904D01*
X359483Y538032D01*
X359036Y538151D01*
X358586Y538258D01*
X358133Y538355D01*
X357679Y538440D01*
X357222Y538515D01*
X356764Y538579D01*
X356304Y538632D01*
X355843Y538674D01*
X355382Y538704D01*
X354919Y538724D01*
X354457Y538733D01*
X354204Y540892D02*
X354204Y538606D01*
X354203Y538607D02*
X353738Y538598D01*
X353273Y538578D01*
X352809Y538547D01*
X352346Y538504D01*
X351884Y538450D01*
X351423Y538385D01*
X350964Y538309D01*
X350507Y538222D01*
X350052Y538124D01*
X349600Y538014D01*
X349150Y537894D01*
X348704Y537763D01*
X348261Y537621D01*
X347821Y537468D01*
X347386Y537305D01*
X346954Y537131D01*
X346527Y536947D01*
X346104Y536753D01*
X345686Y536548D01*
X345273Y536333D01*
X344866Y536108D01*
X344464Y535874D01*
X344068Y535630D01*
X343678Y535376D01*
X343294Y535113D01*
X342917Y534840D01*
X342547Y534559D01*
X342183Y534269D01*
X341827Y533970D01*
X341478Y533662D01*
X341136Y533346D01*
X340802Y533022D01*
X340477Y532689D01*
X340159Y532349D01*
X339850Y532002D01*
X339549Y531647D01*
X339257Y531285D01*
X338974Y530915D01*
X338700Y530539D01*
X338435Y530157D01*
X338179Y529768D01*
X337933Y529373D01*
X337697Y528972D01*
X337470Y528566D01*
X335453Y529641D01*
X335453Y529642D01*
X335707Y530097D01*
X335971Y530547D01*
X336247Y530989D01*
X336533Y531425D01*
X336830Y531854D01*
X337136Y532276D01*
X337454Y532690D01*
X337781Y533096D01*
X338118Y533494D01*
X338464Y533883D01*
X338820Y534265D01*
X339185Y534637D01*
X339559Y535000D01*
X339941Y535355D01*
X340332Y535700D01*
X340732Y536035D01*
X341139Y536360D01*
X341554Y536676D01*
X341977Y536981D01*
X342407Y537276D01*
X342844Y537560D01*
X343288Y537834D01*
X343738Y538097D01*
X344195Y538349D01*
X344657Y538589D01*
X345126Y538819D01*
X345599Y539037D01*
X346078Y539243D01*
X346562Y539438D01*
X347050Y539620D01*
X347543Y539791D01*
X348040Y539950D01*
X348540Y540097D01*
X349044Y540232D01*
X349551Y540354D01*
X350060Y540464D01*
X350573Y540561D01*
X351087Y540646D01*
X351604Y540719D01*
X352121Y540779D01*
X352641Y540826D01*
X353161Y540861D01*
X353682Y540883D01*
X354203Y540893D01*
X354203Y540653D01*
X353688Y540643D01*
X353173Y540621D01*
X352658Y540587D01*
X352145Y540540D01*
X351633Y540481D01*
X351122Y540409D01*
X350614Y540325D01*
X350107Y540228D01*
X349603Y540120D01*
X349102Y539999D01*
X348604Y539866D01*
X348109Y539721D01*
X347618Y539563D01*
X347131Y539394D01*
X346649Y539214D01*
X346170Y539021D01*
X345697Y538817D01*
X345228Y538602D01*
X344765Y538375D01*
X344308Y538137D01*
X343857Y537888D01*
X343411Y537628D01*
X342973Y537358D01*
X342540Y537077D01*
X342115Y536785D01*
X341697Y536483D01*
X341287Y536171D01*
X340884Y535849D01*
X340489Y535518D01*
X340103Y535177D01*
X339724Y534827D01*
X339355Y534467D01*
X338994Y534099D01*
X338642Y533722D01*
X338299Y533337D01*
X337966Y532943D01*
X337643Y532542D01*
X337329Y532133D01*
X337026Y531716D01*
X336733Y531292D01*
X336450Y530861D01*
X336177Y530423D01*
X335916Y529979D01*
X335665Y529529D01*
X335876Y529416D01*
X336124Y529861D01*
X336383Y530300D01*
X336652Y530733D01*
X336932Y531159D01*
X337222Y531578D01*
X337522Y531990D01*
X337832Y532394D01*
X338152Y532791D01*
X338481Y533180D01*
X338820Y533561D01*
X339168Y533934D01*
X339524Y534298D01*
X339890Y534653D01*
X340264Y534999D01*
X340646Y535336D01*
X341036Y535664D01*
X341435Y535982D01*
X341840Y536290D01*
X342254Y536589D01*
X342674Y536877D01*
X343101Y537155D01*
X343535Y537423D01*
X343975Y537679D01*
X344421Y537926D01*
X344873Y538161D01*
X345331Y538385D01*
X345794Y538598D01*
X346262Y538800D01*
X346735Y538990D01*
X347212Y539169D01*
X347694Y539336D01*
X348179Y539491D01*
X348668Y539634D01*
X349161Y539766D01*
X349656Y539886D01*
X350154Y539993D01*
X350655Y540088D01*
X351158Y540172D01*
X351662Y540243D01*
X352169Y540301D01*
X352676Y540348D01*
X353185Y540382D01*
X353694Y540403D01*
X354203Y540413D01*
X354203Y540173D01*
X353700Y540163D01*
X353196Y540142D01*
X352694Y540108D01*
X352192Y540062D01*
X351692Y540004D01*
X351193Y539934D01*
X350696Y539852D01*
X350201Y539758D01*
X349709Y539651D01*
X349219Y539533D01*
X348732Y539403D01*
X348249Y539261D01*
X347769Y539108D01*
X347293Y538943D01*
X346821Y538766D01*
X346354Y538578D01*
X345892Y538379D01*
X345434Y538168D01*
X344981Y537946D01*
X344535Y537714D01*
X344093Y537471D01*
X343658Y537217D01*
X343230Y536952D01*
X342807Y536678D01*
X342392Y536393D01*
X341984Y536098D01*
X341582Y535793D01*
X341189Y535479D01*
X340803Y535155D01*
X340425Y534822D01*
X340055Y534479D01*
X339694Y534128D01*
X339342Y533768D01*
X338998Y533400D01*
X338663Y533024D01*
X338338Y532639D01*
X338022Y532247D01*
X337715Y531847D01*
X337419Y531440D01*
X337132Y531026D01*
X336855Y530605D01*
X336589Y530177D01*
X336333Y529743D01*
X336088Y529303D01*
X336300Y529190D01*
X336542Y529625D01*
X336795Y530054D01*
X337058Y530476D01*
X337332Y530893D01*
X337615Y531302D01*
X337908Y531704D01*
X338211Y532099D01*
X338523Y532487D01*
X338845Y532867D01*
X339176Y533239D01*
X339516Y533603D01*
X339864Y533959D01*
X340221Y534306D01*
X340586Y534644D01*
X340960Y534973D01*
X341341Y535293D01*
X341730Y535604D01*
X342127Y535905D01*
X342530Y536196D01*
X342941Y536478D01*
X343358Y536750D01*
X343782Y537011D01*
X344212Y537262D01*
X344648Y537502D01*
X345089Y537732D01*
X345537Y537951D01*
X345989Y538159D01*
X346446Y538356D01*
X346908Y538542D01*
X347374Y538717D01*
X347844Y538880D01*
X348319Y539032D01*
X348796Y539172D01*
X349277Y539300D01*
X349761Y539417D01*
X350248Y539522D01*
X350737Y539616D01*
X351228Y539697D01*
X351721Y539766D01*
X352216Y539824D01*
X352711Y539869D01*
X353208Y539902D01*
X353706Y539923D01*
X354203Y539933D01*
X354203Y539693D01*
X353712Y539684D01*
X353220Y539663D01*
X352729Y539630D01*
X352239Y539585D01*
X351751Y539528D01*
X351263Y539459D01*
X350778Y539379D01*
X350295Y539287D01*
X349814Y539183D01*
X349336Y539068D01*
X348860Y538941D01*
X348388Y538802D01*
X347920Y538652D01*
X347455Y538491D01*
X346994Y538318D01*
X346538Y538134D01*
X346086Y537940D01*
X345639Y537734D01*
X345197Y537518D01*
X344761Y537291D01*
X344330Y537053D01*
X343905Y536805D01*
X343487Y536547D01*
X343074Y536279D01*
X342669Y536000D01*
X342270Y535712D01*
X341878Y535415D01*
X341494Y535108D01*
X341117Y534791D01*
X340748Y534466D01*
X340387Y534132D01*
X340034Y533789D01*
X339689Y533438D01*
X339354Y533078D01*
X339027Y532710D01*
X338709Y532335D01*
X338400Y531952D01*
X338101Y531562D01*
X337811Y531164D01*
X337531Y530759D01*
X337261Y530348D01*
X337001Y529931D01*
X336751Y529507D01*
X336512Y529077D01*
X336724Y528964D01*
X336960Y529389D01*
X337207Y529807D01*
X337464Y530220D01*
X337731Y530626D01*
X338008Y531026D01*
X338294Y531419D01*
X338590Y531804D01*
X338895Y532183D01*
X339209Y532554D01*
X339532Y532917D01*
X339863Y533272D01*
X340204Y533619D01*
X340552Y533958D01*
X340909Y534288D01*
X341274Y534610D01*
X341646Y534922D01*
X342026Y535226D01*
X342413Y535520D01*
X342807Y535804D01*
X343208Y536079D01*
X343615Y536344D01*
X344029Y536599D01*
X344449Y536844D01*
X344874Y537079D01*
X345305Y537303D01*
X345742Y537517D01*
X346184Y537720D01*
X346630Y537913D01*
X347081Y538094D01*
X347536Y538265D01*
X347995Y538424D01*
X348458Y538572D01*
X348924Y538709D01*
X349394Y538835D01*
X349867Y538949D01*
X350342Y539052D01*
X350819Y539143D01*
X351299Y539222D01*
X351780Y539290D01*
X352263Y539346D01*
X352747Y539390D01*
X353232Y539423D01*
X353717Y539444D01*
X354203Y539453D01*
X354203Y539213D01*
X353723Y539204D01*
X353244Y539183D01*
X352765Y539151D01*
X352286Y539107D01*
X351809Y539052D01*
X351334Y538985D01*
X350860Y538906D01*
X350389Y538816D01*
X349919Y538715D01*
X349452Y538602D01*
X348989Y538478D01*
X348528Y538343D01*
X348071Y538196D01*
X347617Y538039D01*
X347167Y537870D01*
X346722Y537691D01*
X346281Y537501D01*
X345845Y537300D01*
X345413Y537089D01*
X344987Y536867D01*
X344567Y536636D01*
X344152Y536394D01*
X343744Y536141D01*
X343341Y535880D01*
X342945Y535608D01*
X342556Y535327D01*
X342173Y535036D01*
X341798Y534737D01*
X341430Y534428D01*
X341070Y534111D01*
X340718Y533784D01*
X340374Y533450D01*
X340037Y533107D01*
X339710Y532756D01*
X339391Y532397D01*
X339080Y532031D01*
X338779Y531657D01*
X338487Y531276D01*
X338204Y530888D01*
X337931Y530493D01*
X337667Y530092D01*
X337413Y529684D01*
X337169Y529271D01*
X336935Y528851D01*
X337147Y528738D01*
X337378Y529152D01*
X337619Y529561D01*
X337870Y529964D01*
X338130Y530360D01*
X338400Y530750D01*
X338680Y531133D01*
X338968Y531509D01*
X339266Y531879D01*
X339572Y532241D01*
X339888Y532595D01*
X340211Y532942D01*
X340543Y533280D01*
X340884Y533611D01*
X341232Y533933D01*
X341587Y534247D01*
X341951Y534551D01*
X342321Y534847D01*
X342699Y535134D01*
X343083Y535412D01*
X343475Y535680D01*
X343872Y535939D01*
X344276Y536188D01*
X344685Y536427D01*
X345101Y536656D01*
X345521Y536875D01*
X345947Y537083D01*
X346378Y537282D01*
X346814Y537469D01*
X347254Y537647D01*
X347698Y537813D01*
X348146Y537968D01*
X348598Y538113D01*
X349053Y538247D01*
X349511Y538369D01*
X349972Y538481D01*
X350435Y538581D01*
X350901Y538670D01*
X351369Y538747D01*
X351839Y538813D01*
X352310Y538868D01*
X352782Y538912D01*
X353255Y538943D01*
X353729Y538964D01*
X354203Y538973D01*
X354203Y538733D01*
X353735Y538724D01*
X353267Y538704D01*
X352800Y538672D01*
X352333Y538629D01*
X351868Y538575D01*
X351404Y538510D01*
X350942Y538433D01*
X350482Y538345D01*
X350024Y538246D01*
X349569Y538136D01*
X349117Y538015D01*
X348667Y537883D01*
X348221Y537741D01*
X347779Y537587D01*
X347340Y537423D01*
X346906Y537248D01*
X346476Y537062D01*
X346050Y536867D01*
X345629Y536660D01*
X345214Y536444D01*
X344804Y536218D01*
X344399Y535982D01*
X344001Y535736D01*
X343608Y535481D01*
X343222Y535216D01*
X342842Y534942D01*
X342469Y534658D01*
X342103Y534366D01*
X341744Y534065D01*
X341393Y533755D01*
X341049Y533437D01*
X340713Y533111D01*
X340385Y532776D01*
X340066Y532434D01*
X339754Y532084D01*
X339451Y531727D01*
X339158Y531362D01*
X338872Y530990D01*
X338597Y530612D01*
X338330Y530227D01*
X338073Y529835D01*
X337825Y529438D01*
X337587Y529034D01*
X337359Y528625D01*
X354456Y497968D02*
X354456Y500254D01*
X354457Y500253D02*
X354925Y500262D01*
X355393Y500283D01*
X355861Y500314D01*
X356328Y500357D01*
X356793Y500412D01*
X357257Y500478D01*
X357719Y500555D01*
X358179Y500643D01*
X358637Y500743D01*
X359093Y500854D01*
X359545Y500976D01*
X359994Y501109D01*
X360440Y501253D01*
X360883Y501407D01*
X361321Y501573D01*
X361755Y501749D01*
X362185Y501936D01*
X362610Y502133D01*
X363030Y502340D01*
X363445Y502558D01*
X363855Y502786D01*
X364259Y503023D01*
X364657Y503271D01*
X365048Y503528D01*
X365434Y503795D01*
X365813Y504071D01*
X366184Y504356D01*
X366549Y504650D01*
X366907Y504953D01*
X367257Y505265D01*
X367599Y505585D01*
X367933Y505913D01*
X368259Y506249D01*
X368577Y506594D01*
X368887Y506946D01*
X370631Y505469D01*
X370632Y505469D01*
X370285Y505074D01*
X369929Y504688D01*
X369564Y504311D01*
X369189Y503942D01*
X368806Y503583D01*
X368413Y503234D01*
X368013Y502894D01*
X367604Y502564D01*
X367187Y502244D01*
X366763Y501935D01*
X366331Y501636D01*
X365892Y501347D01*
X365446Y501070D01*
X364993Y500803D01*
X364534Y500548D01*
X364069Y500304D01*
X363598Y500071D01*
X363121Y499850D01*
X362639Y499641D01*
X362152Y499443D01*
X361661Y499258D01*
X361165Y499084D01*
X360665Y498923D01*
X360161Y498774D01*
X359654Y498638D01*
X359143Y498514D01*
X358630Y498402D01*
X358114Y498303D01*
X357596Y498217D01*
X357076Y498143D01*
X356554Y498083D01*
X356031Y498035D01*
X355507Y497999D01*
X354982Y497977D01*
X354457Y497967D01*
X354457Y498207D01*
X354976Y498217D01*
X355495Y498239D01*
X356013Y498274D01*
X356530Y498321D01*
X357046Y498382D01*
X357560Y498454D01*
X358073Y498540D01*
X358583Y498637D01*
X359090Y498748D01*
X359595Y498870D01*
X360097Y499005D01*
X360595Y499153D01*
X361089Y499312D01*
X361579Y499483D01*
X362065Y499667D01*
X362546Y499862D01*
X363023Y500069D01*
X363494Y500287D01*
X363960Y500517D01*
X364420Y500759D01*
X364873Y501011D01*
X365321Y501275D01*
X365762Y501549D01*
X366196Y501834D01*
X366623Y502130D01*
X367043Y502436D01*
X367455Y502752D01*
X367859Y503078D01*
X368255Y503414D01*
X368643Y503760D01*
X369022Y504115D01*
X369392Y504479D01*
X369754Y504852D01*
X370106Y505234D01*
X370449Y505624D01*
X370265Y505779D01*
X369927Y505393D01*
X369579Y505016D01*
X369221Y504647D01*
X368855Y504287D01*
X368480Y503936D01*
X368097Y503595D01*
X367705Y503263D01*
X367306Y502940D01*
X366899Y502628D01*
X366484Y502325D01*
X366062Y502033D01*
X365632Y501751D01*
X365196Y501480D01*
X364754Y501219D01*
X364305Y500970D01*
X363851Y500731D01*
X363390Y500504D01*
X362925Y500288D01*
X362454Y500083D01*
X361978Y499890D01*
X361497Y499709D01*
X361013Y499540D01*
X360524Y499382D01*
X360032Y499237D01*
X359536Y499103D01*
X359037Y498982D01*
X358535Y498873D01*
X358031Y498776D01*
X357525Y498692D01*
X357016Y498620D01*
X356506Y498560D01*
X355995Y498513D01*
X355483Y498479D01*
X354970Y498457D01*
X354457Y498447D01*
X354457Y498687D01*
X354964Y498697D01*
X355471Y498718D01*
X355977Y498753D01*
X356483Y498799D01*
X356987Y498858D01*
X357489Y498929D01*
X357990Y499012D01*
X358488Y499108D01*
X358984Y499216D01*
X359477Y499336D01*
X359967Y499468D01*
X360454Y499612D01*
X360937Y499767D01*
X361416Y499935D01*
X361891Y500114D01*
X362361Y500305D01*
X362826Y500507D01*
X363287Y500720D01*
X363742Y500945D01*
X364191Y501181D01*
X364635Y501428D01*
X365072Y501685D01*
X365503Y501953D01*
X365927Y502232D01*
X366344Y502520D01*
X366754Y502819D01*
X367157Y503128D01*
X367552Y503447D01*
X367939Y503775D01*
X368318Y504113D01*
X368688Y504460D01*
X369050Y504815D01*
X369403Y505180D01*
X369747Y505553D01*
X370082Y505934D01*
X369899Y506089D01*
X369568Y505712D01*
X369228Y505344D01*
X368879Y504984D01*
X368521Y504632D01*
X368155Y504289D01*
X367781Y503956D01*
X367398Y503631D01*
X367008Y503316D01*
X366610Y503011D01*
X366205Y502716D01*
X365792Y502430D01*
X365373Y502155D01*
X364947Y501890D01*
X364515Y501636D01*
X364077Y501392D01*
X363633Y501159D01*
X363183Y500937D01*
X362728Y500726D01*
X362268Y500526D01*
X361803Y500338D01*
X361334Y500160D01*
X360861Y499995D01*
X360383Y499841D01*
X359902Y499699D01*
X359418Y499568D01*
X358931Y499450D01*
X358441Y499343D01*
X357948Y499249D01*
X357454Y499166D01*
X356957Y499096D01*
X356459Y499038D01*
X355959Y498992D01*
X355459Y498958D01*
X354958Y498937D01*
X354457Y498927D01*
X354457Y499167D01*
X354952Y499177D01*
X355447Y499198D01*
X355942Y499231D01*
X356435Y499277D01*
X356927Y499334D01*
X357418Y499404D01*
X357907Y499485D01*
X358393Y499579D01*
X358878Y499684D01*
X359359Y499801D01*
X359838Y499930D01*
X360313Y500070D01*
X360785Y500223D01*
X361252Y500386D01*
X361716Y500561D01*
X362175Y500747D01*
X362630Y500945D01*
X363079Y501153D01*
X363524Y501373D01*
X363962Y501603D01*
X364396Y501844D01*
X364823Y502095D01*
X365243Y502357D01*
X365658Y502629D01*
X366065Y502911D01*
X366466Y503203D01*
X366859Y503505D01*
X367244Y503816D01*
X367622Y504136D01*
X367992Y504466D01*
X368354Y504804D01*
X368708Y505152D01*
X369053Y505508D01*
X369389Y505872D01*
X369716Y506244D01*
X369533Y506399D01*
X369209Y506031D01*
X368877Y505672D01*
X368537Y505320D01*
X368187Y504977D01*
X367830Y504642D01*
X367464Y504317D01*
X367091Y504000D01*
X366710Y503693D01*
X366321Y503395D01*
X365926Y503106D01*
X365523Y502828D01*
X365114Y502559D01*
X364698Y502300D01*
X364276Y502052D01*
X363848Y501814D01*
X363415Y501587D01*
X362976Y501370D01*
X362531Y501164D01*
X362082Y500969D01*
X361629Y500785D01*
X361171Y500612D01*
X360709Y500450D01*
X360243Y500300D01*
X359773Y500161D01*
X359300Y500034D01*
X358825Y499918D01*
X358346Y499814D01*
X357865Y499722D01*
X357382Y499641D01*
X356898Y499572D01*
X356411Y499515D01*
X355924Y499471D01*
X355435Y499438D01*
X354946Y499416D01*
X354457Y499407D01*
X354457Y499647D01*
X354940Y499656D01*
X355423Y499677D01*
X355906Y499710D01*
X356388Y499754D01*
X356868Y499810D01*
X357347Y499878D01*
X357824Y499958D01*
X358299Y500049D01*
X358771Y500152D01*
X359241Y500266D01*
X359708Y500392D01*
X360172Y500529D01*
X360632Y500678D01*
X361089Y500837D01*
X361541Y501008D01*
X361990Y501190D01*
X362433Y501383D01*
X362872Y501586D01*
X363306Y501800D01*
X363734Y502025D01*
X364157Y502260D01*
X364573Y502505D01*
X364984Y502761D01*
X365388Y503026D01*
X365786Y503302D01*
X366177Y503586D01*
X366561Y503881D01*
X366937Y504184D01*
X367306Y504497D01*
X367667Y504819D01*
X368020Y505149D01*
X368365Y505488D01*
X368702Y505835D01*
X369030Y506191D01*
X369349Y506554D01*
X369166Y506709D01*
X368851Y506350D01*
X368527Y505999D01*
X368194Y505656D01*
X367853Y505322D01*
X367505Y504995D01*
X367148Y504678D01*
X366783Y504369D01*
X366412Y504069D01*
X366033Y503778D01*
X365647Y503497D01*
X365254Y503225D01*
X364854Y502963D01*
X364449Y502711D01*
X364037Y502468D01*
X363620Y502236D01*
X363197Y502014D01*
X362768Y501803D01*
X362335Y501602D01*
X361897Y501411D01*
X361454Y501232D01*
X361007Y501063D01*
X360556Y500905D01*
X360102Y500759D01*
X359644Y500623D01*
X359182Y500499D01*
X358718Y500386D01*
X358251Y500284D01*
X357782Y500194D01*
X357311Y500116D01*
X356838Y500049D01*
X356364Y499993D01*
X355888Y499949D01*
X355411Y499917D01*
X354934Y499896D01*
X354457Y499887D01*
X354457Y500127D01*
X354928Y500136D01*
X355400Y500157D01*
X355870Y500189D01*
X356340Y500232D01*
X356809Y500287D01*
X357276Y500353D01*
X357741Y500431D01*
X358204Y500520D01*
X358665Y500620D01*
X359123Y500732D01*
X359579Y500854D01*
X360031Y500988D01*
X360480Y501133D01*
X360926Y501289D01*
X361367Y501455D01*
X361804Y501633D01*
X362237Y501821D01*
X362665Y502019D01*
X363088Y502228D01*
X363505Y502447D01*
X363918Y502676D01*
X364324Y502916D01*
X364725Y503165D01*
X365119Y503424D01*
X365507Y503692D01*
X365888Y503970D01*
X366263Y504257D01*
X366630Y504553D01*
X366990Y504858D01*
X367342Y505172D01*
X367687Y505494D01*
X368023Y505825D01*
X368351Y506163D01*
X368671Y506510D01*
X368983Y506864D01*
X335758Y508671D02*
X337743Y509806D01*
X337742Y509805D02*
X337980Y509407D01*
X338226Y509015D01*
X338483Y508630D01*
X338748Y508250D01*
X339022Y507877D01*
X339306Y507511D01*
X339598Y507152D01*
X339899Y506800D01*
X340208Y506455D01*
X340525Y506118D01*
X340851Y505788D01*
X341184Y505467D01*
X341525Y505153D01*
X341874Y504848D01*
X342229Y504552D01*
X342592Y504264D01*
X342962Y503985D01*
X343338Y503715D01*
X343721Y503454D01*
X344110Y503203D01*
X344504Y502961D01*
X344905Y502728D01*
X345311Y502506D01*
X345722Y502293D01*
X346139Y502090D01*
X346560Y501897D01*
X346985Y501715D01*
X347415Y501543D01*
X347849Y501381D01*
X348287Y501230D01*
X348728Y501089D01*
X349173Y500959D01*
X349620Y500840D01*
X350070Y500732D01*
X350523Y500634D01*
X350978Y500548D01*
X351435Y500473D01*
X351894Y500408D01*
X352354Y500355D01*
X352815Y500313D01*
X353277Y500282D01*
X353740Y500262D01*
X354203Y500253D01*
X354203Y497968D01*
X354203Y497967D01*
X353684Y497977D01*
X353165Y497999D01*
X352647Y498033D01*
X352130Y498080D01*
X351615Y498139D01*
X351101Y498211D01*
X350589Y498295D01*
X350079Y498392D01*
X349571Y498501D01*
X349067Y498622D01*
X348565Y498755D01*
X348067Y498901D01*
X347572Y499058D01*
X347082Y499228D01*
X346595Y499409D01*
X346113Y499602D01*
X345636Y499806D01*
X345165Y500022D01*
X344698Y500249D01*
X344237Y500488D01*
X343782Y500737D01*
X343333Y500998D01*
X342891Y501269D01*
X342455Y501551D01*
X342026Y501843D01*
X341604Y502146D01*
X341190Y502459D01*
X340784Y502781D01*
X340385Y503114D01*
X339994Y503456D01*
X339612Y503807D01*
X339239Y504167D01*
X338874Y504537D01*
X338519Y504915D01*
X338172Y505301D01*
X337835Y505696D01*
X337508Y506099D01*
X337191Y506509D01*
X336883Y506928D01*
X336586Y507353D01*
X336299Y507786D01*
X336023Y508225D01*
X335758Y508671D01*
X335966Y508790D01*
X336228Y508349D01*
X336502Y507915D01*
X336785Y507487D01*
X337079Y507066D01*
X337383Y506653D01*
X337697Y506247D01*
X338021Y505849D01*
X338354Y505458D01*
X338696Y505076D01*
X339048Y504703D01*
X339408Y504337D01*
X339777Y503981D01*
X340155Y503634D01*
X340541Y503296D01*
X340935Y502967D01*
X341337Y502648D01*
X341747Y502339D01*
X342164Y502040D01*
X342588Y501751D01*
X343019Y501472D01*
X343456Y501204D01*
X343900Y500946D01*
X344350Y500700D01*
X344805Y500464D01*
X345267Y500239D01*
X345733Y500026D01*
X346205Y499823D01*
X346681Y499633D01*
X347162Y499454D01*
X347647Y499286D01*
X348136Y499131D01*
X348629Y498987D01*
X349125Y498855D01*
X349624Y498735D01*
X350125Y498627D01*
X350630Y498532D01*
X351136Y498449D01*
X351644Y498378D01*
X352154Y498319D01*
X352665Y498272D01*
X353177Y498238D01*
X353690Y498217D01*
X354203Y498207D01*
X354203Y498447D01*
X353695Y498457D01*
X353189Y498478D01*
X352682Y498512D01*
X352177Y498558D01*
X351673Y498616D01*
X351171Y498686D01*
X350670Y498768D01*
X350172Y498863D01*
X349676Y498969D01*
X349183Y499088D01*
X348693Y499218D01*
X348206Y499360D01*
X347722Y499514D01*
X347243Y499680D01*
X346767Y499857D01*
X346297Y500045D01*
X345830Y500245D01*
X345369Y500456D01*
X344913Y500678D01*
X344462Y500911D01*
X344018Y501155D01*
X343579Y501410D01*
X343146Y501675D01*
X342721Y501951D01*
X342301Y502236D01*
X341889Y502532D01*
X341484Y502838D01*
X341087Y503153D01*
X340698Y503478D01*
X340316Y503812D01*
X339942Y504155D01*
X339577Y504508D01*
X339221Y504869D01*
X338873Y505238D01*
X338535Y505616D01*
X338206Y506002D01*
X337886Y506395D01*
X337575Y506797D01*
X337275Y507205D01*
X336984Y507621D01*
X336704Y508044D01*
X336434Y508473D01*
X336174Y508909D01*
X336383Y509028D01*
X336639Y508597D01*
X336906Y508173D01*
X337183Y507755D01*
X337471Y507344D01*
X337768Y506940D01*
X338074Y506544D01*
X338391Y506154D01*
X338716Y505773D01*
X339051Y505400D01*
X339394Y505035D01*
X339747Y504678D01*
X340107Y504330D01*
X340477Y503990D01*
X340854Y503660D01*
X341239Y503339D01*
X341632Y503027D01*
X342032Y502725D01*
X342439Y502433D01*
X342853Y502150D01*
X343274Y501878D01*
X343702Y501616D01*
X344136Y501364D01*
X344575Y501123D01*
X345021Y500893D01*
X345471Y500673D01*
X345927Y500465D01*
X346388Y500267D01*
X346854Y500081D01*
X347323Y499906D01*
X347797Y499742D01*
X348275Y499590D01*
X348756Y499450D01*
X349241Y499321D01*
X349729Y499204D01*
X350219Y499098D01*
X350711Y499005D01*
X351206Y498923D01*
X351703Y498854D01*
X352201Y498796D01*
X352700Y498751D01*
X353200Y498718D01*
X353701Y498697D01*
X354203Y498687D01*
X354203Y498927D01*
X353707Y498936D01*
X353212Y498957D01*
X352718Y498990D01*
X352224Y499035D01*
X351732Y499092D01*
X351241Y499161D01*
X350752Y499241D01*
X350265Y499334D01*
X349781Y499438D01*
X349299Y499554D01*
X348820Y499681D01*
X348345Y499820D01*
X347872Y499970D01*
X347404Y500132D01*
X346940Y500305D01*
X346480Y500489D01*
X346024Y500684D01*
X345574Y500890D01*
X345128Y501107D01*
X344688Y501335D01*
X344254Y501573D01*
X343825Y501822D01*
X343402Y502081D01*
X342986Y502350D01*
X342577Y502629D01*
X342174Y502918D01*
X341779Y503217D01*
X341391Y503525D01*
X341010Y503842D01*
X340637Y504169D01*
X340273Y504504D01*
X339916Y504848D01*
X339568Y505201D01*
X339228Y505561D01*
X338897Y505930D01*
X338576Y506307D01*
X338263Y506692D01*
X337960Y507084D01*
X337666Y507483D01*
X337383Y507889D01*
X337109Y508302D01*
X336845Y508721D01*
X336591Y509147D01*
X336799Y509266D01*
X337050Y508846D01*
X337311Y508431D01*
X337582Y508023D01*
X337862Y507622D01*
X338152Y507227D01*
X338452Y506840D01*
X338761Y506460D01*
X339079Y506088D01*
X339405Y505723D01*
X339741Y505367D01*
X340085Y505018D01*
X340438Y504678D01*
X340798Y504347D01*
X341166Y504024D01*
X341543Y503711D01*
X341926Y503406D01*
X342317Y503111D01*
X342715Y502826D01*
X343119Y502550D01*
X343530Y502284D01*
X343948Y502028D01*
X344371Y501782D01*
X344801Y501547D01*
X345236Y501322D01*
X345676Y501108D01*
X346121Y500904D01*
X346571Y500711D01*
X347026Y500529D01*
X347485Y500358D01*
X347947Y500198D01*
X348414Y500050D01*
X348884Y499912D01*
X349357Y499786D01*
X349833Y499672D01*
X350312Y499569D01*
X350793Y499478D01*
X351276Y499398D01*
X351761Y499330D01*
X352248Y499274D01*
X352735Y499230D01*
X353224Y499197D01*
X353713Y499176D01*
X354203Y499167D01*
X354203Y499407D01*
X353719Y499416D01*
X353236Y499437D01*
X352753Y499469D01*
X352271Y499513D01*
X351790Y499569D01*
X351311Y499636D01*
X350834Y499714D01*
X350359Y499805D01*
X349886Y499906D01*
X349415Y500019D01*
X348948Y500144D01*
X348483Y500279D01*
X348022Y500426D01*
X347565Y500584D01*
X347112Y500753D01*
X346663Y500933D01*
X346218Y501123D01*
X345778Y501325D01*
X345343Y501537D01*
X344914Y501759D01*
X344489Y501991D01*
X344071Y502234D01*
X343658Y502487D01*
X343252Y502750D01*
X342852Y503022D01*
X342459Y503304D01*
X342073Y503596D01*
X341694Y503897D01*
X341323Y504206D01*
X340959Y504525D01*
X340603Y504852D01*
X340254Y505188D01*
X339914Y505533D01*
X339583Y505885D01*
X339260Y506245D01*
X338946Y506613D01*
X338641Y506988D01*
X338345Y507371D01*
X338058Y507761D01*
X337781Y508157D01*
X337513Y508560D01*
X337256Y508970D01*
X337008Y509385D01*
X337216Y509504D01*
X337461Y509094D01*
X337716Y508689D01*
X337980Y508291D01*
X338254Y507900D01*
X338537Y507515D01*
X338829Y507137D01*
X339131Y506766D01*
X339441Y506402D01*
X339760Y506047D01*
X340088Y505699D01*
X340424Y505359D01*
X340768Y505027D01*
X341119Y504703D01*
X341479Y504389D01*
X341846Y504083D01*
X342221Y503785D01*
X342602Y503498D01*
X342990Y503219D01*
X343385Y502950D01*
X343786Y502690D01*
X344194Y502440D01*
X344607Y502201D01*
X345026Y501971D01*
X345451Y501751D01*
X345880Y501542D01*
X346315Y501343D01*
X346754Y501155D01*
X347198Y500977D01*
X347646Y500810D01*
X348097Y500654D01*
X348553Y500509D01*
X349012Y500375D01*
X349473Y500252D01*
X349938Y500140D01*
X350405Y500040D01*
X350875Y499951D01*
X351346Y499873D01*
X351820Y499807D01*
X352294Y499752D01*
X352770Y499708D01*
X353247Y499677D01*
X353725Y499656D01*
X354203Y499647D01*
X354203Y499887D01*
X353731Y499896D01*
X353259Y499916D01*
X352788Y499948D01*
X352318Y499991D01*
X351849Y500045D01*
X351381Y500111D01*
X350916Y500187D01*
X350452Y500275D01*
X349990Y500375D01*
X349532Y500485D01*
X349075Y500606D01*
X348622Y500739D01*
X348172Y500882D01*
X347726Y501036D01*
X347284Y501201D01*
X346846Y501376D01*
X346412Y501562D01*
X345983Y501759D01*
X345558Y501966D01*
X345139Y502183D01*
X344725Y502410D01*
X344317Y502646D01*
X343914Y502893D01*
X343518Y503150D01*
X343128Y503415D01*
X342744Y503691D01*
X342368Y503975D01*
X341998Y504268D01*
X341635Y504571D01*
X341280Y504882D01*
X340933Y505201D01*
X340593Y505529D01*
X340261Y505865D01*
X339938Y506208D01*
X339622Y506560D01*
X339316Y506919D01*
X339018Y507285D01*
X338729Y507658D01*
X338449Y508038D01*
X338179Y508425D01*
X337918Y508819D01*
X337666Y509218D01*
X337425Y509623D01*
X337633Y509743D01*
X337872Y509342D01*
X338120Y508948D01*
X338378Y508559D01*
X338645Y508177D01*
X338921Y507802D01*
X339207Y507433D01*
X339501Y507071D01*
X339804Y506717D01*
X340115Y506370D01*
X340434Y506031D01*
X340762Y505699D01*
X341098Y505375D01*
X341441Y505060D01*
X341792Y504753D01*
X342150Y504454D01*
X342515Y504165D01*
X342887Y503884D01*
X343266Y503612D01*
X343651Y503349D01*
X344042Y503096D01*
X344440Y502853D01*
X344843Y502619D01*
X345252Y502394D01*
X345666Y502180D01*
X346085Y501976D01*
X346509Y501782D01*
X346937Y501598D01*
X347370Y501425D01*
X347807Y501262D01*
X348247Y501110D01*
X348692Y500969D01*
X349139Y500838D01*
X349590Y500718D01*
X350043Y500609D01*
X350499Y500511D01*
X350957Y500424D01*
X351417Y500348D01*
X351878Y500283D01*
X352341Y500230D01*
X352806Y500187D01*
X353271Y500156D01*
X353736Y500136D01*
X354203Y500127D01*
D11*
X370078Y527304D02*
X370078Y532384D01*
X370078Y511048D02*
X370078Y506476D01*
D10*
X186586Y534538D02*
X184830Y533074D01*
X184830Y533075D02*
X184529Y533422D01*
X184220Y533762D01*
X183903Y534095D01*
X183578Y534420D01*
X183246Y534737D01*
X182906Y535046D01*
X182558Y535347D01*
X182204Y535640D01*
X181842Y535923D01*
X181474Y536198D01*
X181099Y536465D01*
X180718Y536722D01*
X180331Y536970D01*
X179939Y537208D01*
X179540Y537437D01*
X179136Y537657D01*
X178728Y537867D01*
X178314Y538067D01*
X177895Y538257D01*
X177472Y538436D01*
X177045Y538606D01*
X176614Y538765D01*
X176179Y538914D01*
X175741Y539053D01*
X175300Y539181D01*
X174855Y539298D01*
X174408Y539405D01*
X173959Y539501D01*
X173507Y539586D01*
X173054Y539660D01*
X172598Y539724D01*
X172142Y539776D01*
X171684Y539818D01*
X171226Y539848D01*
X170766Y539868D01*
X170307Y539877D01*
X170306Y542162D01*
X170307Y542163D01*
X170822Y542153D01*
X171337Y542132D01*
X171851Y542098D01*
X172364Y542052D01*
X172876Y541993D01*
X173386Y541922D01*
X173895Y541839D01*
X174401Y541744D01*
X174905Y541636D01*
X175406Y541517D01*
X175904Y541386D01*
X176399Y541242D01*
X176890Y541087D01*
X177378Y540920D01*
X177861Y540741D01*
X178340Y540551D01*
X178814Y540350D01*
X179283Y540137D01*
X179747Y539913D01*
X180206Y539678D01*
X180658Y539431D01*
X181105Y539175D01*
X181545Y538907D01*
X181979Y538629D01*
X182406Y538341D01*
X182826Y538042D01*
X183238Y537733D01*
X183644Y537415D01*
X184041Y537087D01*
X184430Y536750D01*
X184811Y536403D01*
X185184Y536047D01*
X185548Y535683D01*
X185903Y535310D01*
X186249Y534928D01*
X186586Y534538D01*
X186402Y534384D01*
X186069Y534770D01*
X185727Y535147D01*
X185375Y535516D01*
X185015Y535876D01*
X184647Y536228D01*
X184270Y536571D01*
X183885Y536904D01*
X183492Y537229D01*
X183092Y537543D01*
X182684Y537848D01*
X182269Y538144D01*
X181847Y538429D01*
X181418Y538704D01*
X180982Y538968D01*
X180541Y539222D01*
X180093Y539465D01*
X179640Y539698D01*
X179182Y539919D01*
X178718Y540130D01*
X178249Y540329D01*
X177775Y540517D01*
X177298Y540694D01*
X176816Y540859D01*
X176330Y541012D01*
X175841Y541154D01*
X175348Y541284D01*
X174853Y541402D01*
X174355Y541508D01*
X173854Y541603D01*
X173351Y541685D01*
X172847Y541755D01*
X172341Y541813D01*
X171833Y541858D01*
X171325Y541892D01*
X170816Y541913D01*
X170307Y541923D01*
X170307Y541683D01*
X170810Y541674D01*
X171313Y541652D01*
X171816Y541619D01*
X172317Y541574D01*
X172818Y541517D01*
X173316Y541447D01*
X173813Y541366D01*
X174308Y541273D01*
X174801Y541168D01*
X175290Y541051D01*
X175777Y540923D01*
X176261Y540783D01*
X176741Y540631D01*
X177217Y540468D01*
X177690Y540293D01*
X178158Y540107D01*
X178621Y539910D01*
X179080Y539702D01*
X179533Y539483D01*
X179981Y539253D01*
X180424Y539013D01*
X180860Y538762D01*
X181290Y538500D01*
X181714Y538228D01*
X182132Y537947D01*
X182542Y537655D01*
X182945Y537353D01*
X183341Y537042D01*
X183730Y536722D01*
X184110Y536392D01*
X184483Y536053D01*
X184847Y535706D01*
X185203Y535349D01*
X185550Y534985D01*
X185888Y534612D01*
X186218Y534231D01*
X186033Y534077D01*
X185708Y534454D01*
X185373Y534822D01*
X185030Y535183D01*
X184678Y535535D01*
X184318Y535878D01*
X183950Y536213D01*
X183574Y536539D01*
X183190Y536856D01*
X182799Y537163D01*
X182400Y537461D01*
X181994Y537750D01*
X181582Y538028D01*
X181163Y538297D01*
X180738Y538555D01*
X180306Y538803D01*
X179869Y539041D01*
X179426Y539268D01*
X178978Y539485D01*
X178525Y539690D01*
X178067Y539885D01*
X177604Y540069D01*
X177137Y540241D01*
X176666Y540403D01*
X176192Y540553D01*
X175714Y540691D01*
X175233Y540818D01*
X174749Y540934D01*
X174262Y541037D01*
X173773Y541130D01*
X173281Y541210D01*
X172789Y541278D01*
X172294Y541335D01*
X171798Y541380D01*
X171302Y541413D01*
X170804Y541434D01*
X170307Y541443D01*
X170307Y541203D01*
X170799Y541194D01*
X171290Y541173D01*
X171781Y541140D01*
X172271Y541096D01*
X172759Y541040D01*
X173247Y540972D01*
X173732Y540893D01*
X174215Y540802D01*
X174696Y540699D01*
X175175Y540585D01*
X175650Y540460D01*
X176123Y540323D01*
X176592Y540175D01*
X177057Y540015D01*
X177518Y539845D01*
X177976Y539663D01*
X178428Y539471D01*
X178876Y539267D01*
X179319Y539054D01*
X179757Y538829D01*
X180189Y538594D01*
X180615Y538349D01*
X181035Y538093D01*
X181450Y537828D01*
X181857Y537553D01*
X182258Y537268D01*
X182652Y536973D01*
X183039Y536669D01*
X183418Y536356D01*
X183790Y536034D01*
X184154Y535703D01*
X184510Y535364D01*
X184857Y535016D01*
X185197Y534660D01*
X185527Y534296D01*
X185849Y533923D01*
X185664Y533770D01*
X185347Y534137D01*
X185020Y534497D01*
X184685Y534849D01*
X184341Y535193D01*
X183990Y535529D01*
X183630Y535855D01*
X183263Y536174D01*
X182888Y536483D01*
X182505Y536783D01*
X182116Y537074D01*
X181720Y537356D01*
X181317Y537628D01*
X180908Y537890D01*
X180493Y538142D01*
X180071Y538385D01*
X179644Y538617D01*
X179212Y538839D01*
X178774Y539050D01*
X178332Y539251D01*
X177884Y539441D01*
X177433Y539621D01*
X176977Y539789D01*
X176517Y539947D01*
X176054Y540093D01*
X175587Y540228D01*
X175117Y540352D01*
X174644Y540465D01*
X174169Y540567D01*
X173691Y540656D01*
X173212Y540735D01*
X172730Y540802D01*
X172247Y540857D01*
X171763Y540901D01*
X171278Y540933D01*
X170793Y540954D01*
X170307Y540963D01*
X170307Y540723D01*
X170787Y540714D01*
X171267Y540693D01*
X171746Y540662D01*
X172224Y540618D01*
X172701Y540564D01*
X173177Y540497D01*
X173651Y540420D01*
X174122Y540331D01*
X174592Y540231D01*
X175059Y540119D01*
X175523Y539997D01*
X175985Y539863D01*
X176442Y539718D01*
X176897Y539563D01*
X177347Y539396D01*
X177793Y539219D01*
X178235Y539031D01*
X178673Y538833D01*
X179105Y538624D01*
X179532Y538405D01*
X179954Y538175D01*
X180370Y537936D01*
X180781Y537687D01*
X181185Y537428D01*
X181583Y537159D01*
X181974Y536881D01*
X182359Y536593D01*
X182737Y536297D01*
X183107Y535991D01*
X183470Y535677D01*
X183825Y535354D01*
X184173Y535022D01*
X184512Y534683D01*
X184843Y534335D01*
X185166Y533979D01*
X185480Y533616D01*
X185296Y533463D01*
X184985Y533821D01*
X184667Y534172D01*
X184339Y534516D01*
X184004Y534851D01*
X183661Y535179D01*
X183310Y535498D01*
X182951Y535808D01*
X182585Y536110D01*
X182212Y536403D01*
X181832Y536687D01*
X181446Y536962D01*
X181053Y537227D01*
X180653Y537483D01*
X180248Y537730D01*
X179837Y537966D01*
X179420Y538193D01*
X178998Y538409D01*
X178571Y538615D01*
X178139Y538811D01*
X177702Y538997D01*
X177261Y539172D01*
X176817Y539337D01*
X176368Y539490D01*
X175916Y539633D01*
X175460Y539765D01*
X175001Y539887D01*
X174540Y539997D01*
X174076Y540096D01*
X173610Y540183D01*
X173142Y540260D01*
X172672Y540325D01*
X172201Y540380D01*
X171728Y540422D01*
X171255Y540454D01*
X170781Y540474D01*
X170307Y540483D01*
X170307Y540243D01*
X170775Y540234D01*
X171243Y540214D01*
X171711Y540183D01*
X172177Y540141D01*
X172643Y540087D01*
X173107Y540023D01*
X173569Y539947D01*
X174030Y539860D01*
X174488Y539762D01*
X174944Y539654D01*
X175396Y539534D01*
X175846Y539403D01*
X176293Y539262D01*
X176736Y539110D01*
X177176Y538948D01*
X177611Y538775D01*
X178042Y538592D01*
X178469Y538398D01*
X178891Y538194D01*
X179308Y537980D01*
X179719Y537757D01*
X180125Y537523D01*
X180526Y537280D01*
X180920Y537027D01*
X181309Y536765D01*
X181690Y536494D01*
X182066Y536213D01*
X182434Y535924D01*
X182796Y535626D01*
X183150Y535319D01*
X183496Y535004D01*
X183836Y534681D01*
X184167Y534349D01*
X184490Y534010D01*
X184805Y533663D01*
X185111Y533309D01*
X184927Y533155D01*
X184624Y533505D01*
X184313Y533848D01*
X183994Y534183D01*
X183667Y534510D01*
X183332Y534829D01*
X182990Y535140D01*
X182640Y535443D01*
X182283Y535737D01*
X181919Y536023D01*
X181549Y536300D01*
X181171Y536568D01*
X180788Y536827D01*
X180398Y537077D01*
X180003Y537317D01*
X179602Y537547D01*
X179195Y537768D01*
X178784Y537979D01*
X178367Y538181D01*
X177946Y538372D01*
X177520Y538553D01*
X177090Y538724D01*
X176656Y538884D01*
X176218Y539034D01*
X175777Y539174D01*
X175333Y539302D01*
X174886Y539421D01*
X174436Y539528D01*
X173983Y539625D01*
X173529Y539710D01*
X173072Y539785D01*
X172614Y539849D01*
X172154Y539902D01*
X171693Y539944D01*
X171232Y539974D01*
X170769Y539994D01*
X170307Y540003D01*
X170054Y542162D02*
X170054Y539876D01*
X170053Y539877D02*
X169588Y539868D01*
X169123Y539848D01*
X168659Y539817D01*
X168196Y539774D01*
X167734Y539720D01*
X167273Y539655D01*
X166814Y539579D01*
X166357Y539492D01*
X165902Y539394D01*
X165450Y539284D01*
X165000Y539164D01*
X164554Y539033D01*
X164111Y538891D01*
X163671Y538738D01*
X163236Y538575D01*
X162804Y538401D01*
X162377Y538217D01*
X161954Y538023D01*
X161536Y537818D01*
X161123Y537603D01*
X160716Y537378D01*
X160314Y537144D01*
X159918Y536900D01*
X159528Y536646D01*
X159144Y536383D01*
X158767Y536110D01*
X158397Y535829D01*
X158033Y535539D01*
X157677Y535240D01*
X157328Y534932D01*
X156986Y534616D01*
X156652Y534292D01*
X156327Y533959D01*
X156009Y533619D01*
X155700Y533272D01*
X155399Y532917D01*
X155107Y532555D01*
X154824Y532185D01*
X154550Y531809D01*
X154285Y531427D01*
X154029Y531038D01*
X153783Y530643D01*
X153547Y530242D01*
X153320Y529836D01*
X151303Y530911D01*
X151303Y530912D01*
X151557Y531367D01*
X151821Y531817D01*
X152097Y532259D01*
X152383Y532695D01*
X152680Y533124D01*
X152986Y533546D01*
X153304Y533960D01*
X153631Y534366D01*
X153968Y534764D01*
X154314Y535153D01*
X154670Y535535D01*
X155035Y535907D01*
X155409Y536270D01*
X155791Y536625D01*
X156182Y536970D01*
X156582Y537305D01*
X156989Y537630D01*
X157404Y537946D01*
X157827Y538251D01*
X158257Y538546D01*
X158694Y538830D01*
X159138Y539104D01*
X159588Y539367D01*
X160045Y539619D01*
X160507Y539859D01*
X160976Y540089D01*
X161449Y540307D01*
X161928Y540513D01*
X162412Y540708D01*
X162900Y540890D01*
X163393Y541061D01*
X163890Y541220D01*
X164390Y541367D01*
X164894Y541502D01*
X165401Y541624D01*
X165910Y541734D01*
X166423Y541831D01*
X166937Y541916D01*
X167454Y541989D01*
X167971Y542049D01*
X168491Y542096D01*
X169011Y542131D01*
X169532Y542153D01*
X170053Y542163D01*
X170053Y541923D01*
X169538Y541913D01*
X169023Y541891D01*
X168508Y541857D01*
X167995Y541810D01*
X167483Y541751D01*
X166972Y541679D01*
X166464Y541595D01*
X165957Y541498D01*
X165453Y541390D01*
X164952Y541269D01*
X164454Y541136D01*
X163959Y540991D01*
X163468Y540833D01*
X162981Y540664D01*
X162499Y540484D01*
X162020Y540291D01*
X161547Y540087D01*
X161078Y539872D01*
X160615Y539645D01*
X160158Y539407D01*
X159707Y539158D01*
X159261Y538898D01*
X158823Y538628D01*
X158390Y538347D01*
X157965Y538055D01*
X157547Y537753D01*
X157137Y537441D01*
X156734Y537119D01*
X156339Y536788D01*
X155953Y536447D01*
X155574Y536097D01*
X155205Y535737D01*
X154844Y535369D01*
X154492Y534992D01*
X154149Y534607D01*
X153816Y534213D01*
X153493Y533812D01*
X153179Y533403D01*
X152876Y532986D01*
X152583Y532562D01*
X152300Y532131D01*
X152027Y531693D01*
X151766Y531249D01*
X151515Y530799D01*
X151726Y530686D01*
X151974Y531131D01*
X152233Y531570D01*
X152502Y532003D01*
X152782Y532429D01*
X153072Y532848D01*
X153372Y533260D01*
X153682Y533664D01*
X154002Y534061D01*
X154331Y534450D01*
X154670Y534831D01*
X155018Y535204D01*
X155374Y535568D01*
X155740Y535923D01*
X156114Y536269D01*
X156496Y536606D01*
X156886Y536934D01*
X157285Y537252D01*
X157690Y537560D01*
X158104Y537859D01*
X158524Y538147D01*
X158951Y538425D01*
X159385Y538693D01*
X159825Y538949D01*
X160271Y539196D01*
X160723Y539431D01*
X161181Y539655D01*
X161644Y539868D01*
X162112Y540070D01*
X162585Y540260D01*
X163062Y540439D01*
X163544Y540606D01*
X164029Y540761D01*
X164518Y540904D01*
X165011Y541036D01*
X165506Y541156D01*
X166004Y541263D01*
X166505Y541358D01*
X167008Y541442D01*
X167512Y541513D01*
X168019Y541571D01*
X168526Y541618D01*
X169035Y541652D01*
X169544Y541673D01*
X170053Y541683D01*
X170053Y541443D01*
X169550Y541433D01*
X169046Y541412D01*
X168544Y541378D01*
X168042Y541332D01*
X167542Y541274D01*
X167043Y541204D01*
X166546Y541122D01*
X166051Y541028D01*
X165559Y540921D01*
X165069Y540803D01*
X164582Y540673D01*
X164099Y540531D01*
X163619Y540378D01*
X163143Y540213D01*
X162671Y540036D01*
X162204Y539848D01*
X161742Y539649D01*
X161284Y539438D01*
X160831Y539216D01*
X160385Y538984D01*
X159943Y538741D01*
X159508Y538487D01*
X159080Y538222D01*
X158657Y537948D01*
X158242Y537663D01*
X157834Y537368D01*
X157432Y537063D01*
X157039Y536749D01*
X156653Y536425D01*
X156275Y536092D01*
X155905Y535749D01*
X155544Y535398D01*
X155192Y535038D01*
X154848Y534670D01*
X154513Y534294D01*
X154188Y533909D01*
X153872Y533517D01*
X153565Y533117D01*
X153269Y532710D01*
X152982Y532296D01*
X152705Y531875D01*
X152439Y531447D01*
X152183Y531013D01*
X151938Y530573D01*
X152150Y530460D01*
X152392Y530895D01*
X152645Y531324D01*
X152908Y531746D01*
X153182Y532163D01*
X153465Y532572D01*
X153758Y532974D01*
X154061Y533369D01*
X154373Y533757D01*
X154695Y534137D01*
X155026Y534509D01*
X155366Y534873D01*
X155714Y535229D01*
X156071Y535576D01*
X156436Y535914D01*
X156810Y536243D01*
X157191Y536563D01*
X157580Y536874D01*
X157977Y537175D01*
X158380Y537466D01*
X158791Y537748D01*
X159208Y538020D01*
X159632Y538281D01*
X160062Y538532D01*
X160498Y538772D01*
X160939Y539002D01*
X161387Y539221D01*
X161839Y539429D01*
X162296Y539626D01*
X162758Y539812D01*
X163224Y539987D01*
X163694Y540150D01*
X164169Y540302D01*
X164646Y540442D01*
X165127Y540570D01*
X165611Y540687D01*
X166098Y540792D01*
X166587Y540886D01*
X167078Y540967D01*
X167571Y541036D01*
X168066Y541094D01*
X168561Y541139D01*
X169058Y541172D01*
X169556Y541193D01*
X170053Y541203D01*
X170053Y540963D01*
X169562Y540954D01*
X169070Y540933D01*
X168579Y540900D01*
X168089Y540855D01*
X167601Y540798D01*
X167113Y540729D01*
X166628Y540649D01*
X166145Y540557D01*
X165664Y540453D01*
X165186Y540338D01*
X164710Y540211D01*
X164238Y540072D01*
X163770Y539922D01*
X163305Y539761D01*
X162844Y539588D01*
X162388Y539404D01*
X161936Y539210D01*
X161489Y539004D01*
X161047Y538788D01*
X160611Y538561D01*
X160180Y538323D01*
X159755Y538075D01*
X159337Y537817D01*
X158924Y537549D01*
X158519Y537270D01*
X158120Y536982D01*
X157728Y536685D01*
X157344Y536378D01*
X156967Y536061D01*
X156598Y535736D01*
X156237Y535402D01*
X155884Y535059D01*
X155539Y534708D01*
X155204Y534348D01*
X154877Y533980D01*
X154559Y533605D01*
X154250Y533222D01*
X153951Y532832D01*
X153661Y532434D01*
X153381Y532029D01*
X153111Y531618D01*
X152851Y531201D01*
X152601Y530777D01*
X152362Y530347D01*
X152574Y530234D01*
X152810Y530659D01*
X153057Y531077D01*
X153314Y531490D01*
X153581Y531896D01*
X153858Y532296D01*
X154144Y532689D01*
X154440Y533074D01*
X154745Y533453D01*
X155059Y533824D01*
X155382Y534187D01*
X155713Y534542D01*
X156054Y534889D01*
X156402Y535228D01*
X156759Y535558D01*
X157124Y535880D01*
X157496Y536192D01*
X157876Y536496D01*
X158263Y536790D01*
X158657Y537074D01*
X159058Y537349D01*
X159465Y537614D01*
X159879Y537869D01*
X160299Y538114D01*
X160724Y538349D01*
X161155Y538573D01*
X161592Y538787D01*
X162034Y538990D01*
X162480Y539183D01*
X162931Y539364D01*
X163386Y539535D01*
X163845Y539694D01*
X164308Y539842D01*
X164774Y539979D01*
X165244Y540105D01*
X165717Y540219D01*
X166192Y540322D01*
X166669Y540413D01*
X167149Y540492D01*
X167630Y540560D01*
X168113Y540616D01*
X168597Y540660D01*
X169082Y540693D01*
X169567Y540714D01*
X170053Y540723D01*
X170053Y540483D01*
X169573Y540474D01*
X169094Y540453D01*
X168615Y540421D01*
X168136Y540377D01*
X167659Y540322D01*
X167184Y540255D01*
X166710Y540176D01*
X166239Y540086D01*
X165769Y539985D01*
X165302Y539872D01*
X164839Y539748D01*
X164378Y539613D01*
X163921Y539466D01*
X163467Y539309D01*
X163017Y539140D01*
X162572Y538961D01*
X162131Y538771D01*
X161695Y538570D01*
X161263Y538359D01*
X160837Y538137D01*
X160417Y537906D01*
X160002Y537664D01*
X159594Y537411D01*
X159191Y537150D01*
X158795Y536878D01*
X158406Y536597D01*
X158023Y536306D01*
X157648Y536007D01*
X157280Y535698D01*
X156920Y535381D01*
X156568Y535054D01*
X156224Y534720D01*
X155887Y534377D01*
X155560Y534026D01*
X155241Y533667D01*
X154930Y533301D01*
X154629Y532927D01*
X154337Y532546D01*
X154054Y532158D01*
X153781Y531763D01*
X153517Y531362D01*
X153263Y530954D01*
X153019Y530541D01*
X152785Y530121D01*
X152997Y530008D01*
X153228Y530422D01*
X153469Y530831D01*
X153720Y531234D01*
X153980Y531630D01*
X154250Y532020D01*
X154530Y532403D01*
X154818Y532779D01*
X155116Y533149D01*
X155422Y533511D01*
X155738Y533865D01*
X156061Y534212D01*
X156393Y534550D01*
X156734Y534881D01*
X157082Y535203D01*
X157437Y535517D01*
X157801Y535821D01*
X158171Y536117D01*
X158549Y536404D01*
X158933Y536682D01*
X159325Y536950D01*
X159722Y537209D01*
X160126Y537458D01*
X160535Y537697D01*
X160951Y537926D01*
X161371Y538145D01*
X161797Y538353D01*
X162228Y538552D01*
X162664Y538739D01*
X163104Y538917D01*
X163548Y539083D01*
X163996Y539238D01*
X164448Y539383D01*
X164903Y539517D01*
X165361Y539639D01*
X165822Y539751D01*
X166285Y539851D01*
X166751Y539940D01*
X167219Y540017D01*
X167689Y540083D01*
X168160Y540138D01*
X168632Y540182D01*
X169105Y540213D01*
X169579Y540234D01*
X170053Y540243D01*
X170053Y540003D01*
X169585Y539994D01*
X169117Y539974D01*
X168650Y539942D01*
X168183Y539899D01*
X167718Y539845D01*
X167254Y539780D01*
X166792Y539703D01*
X166332Y539615D01*
X165874Y539516D01*
X165419Y539406D01*
X164967Y539285D01*
X164517Y539153D01*
X164071Y539011D01*
X163629Y538857D01*
X163190Y538693D01*
X162756Y538518D01*
X162326Y538332D01*
X161900Y538137D01*
X161479Y537930D01*
X161064Y537714D01*
X160654Y537488D01*
X160249Y537252D01*
X159851Y537006D01*
X159458Y536751D01*
X159072Y536486D01*
X158692Y536212D01*
X158319Y535928D01*
X157953Y535636D01*
X157594Y535335D01*
X157243Y535025D01*
X156899Y534707D01*
X156563Y534381D01*
X156235Y534046D01*
X155916Y533704D01*
X155604Y533354D01*
X155301Y532997D01*
X155008Y532632D01*
X154722Y532260D01*
X154447Y531882D01*
X154180Y531497D01*
X153923Y531105D01*
X153675Y530708D01*
X153437Y530304D01*
X153209Y529895D01*
X170306Y499238D02*
X170306Y501524D01*
X170307Y501523D02*
X170775Y501532D01*
X171243Y501553D01*
X171711Y501584D01*
X172178Y501627D01*
X172643Y501682D01*
X173107Y501748D01*
X173569Y501825D01*
X174029Y501913D01*
X174487Y502013D01*
X174943Y502124D01*
X175395Y502246D01*
X175844Y502379D01*
X176290Y502523D01*
X176733Y502677D01*
X177171Y502843D01*
X177605Y503019D01*
X178035Y503206D01*
X178460Y503403D01*
X178880Y503610D01*
X179295Y503828D01*
X179705Y504056D01*
X180109Y504293D01*
X180507Y504541D01*
X180898Y504798D01*
X181284Y505065D01*
X181663Y505341D01*
X182034Y505626D01*
X182399Y505920D01*
X182757Y506223D01*
X183107Y506535D01*
X183449Y506855D01*
X183783Y507183D01*
X184109Y507519D01*
X184427Y507864D01*
X184737Y508216D01*
X186481Y506739D01*
X186482Y506739D01*
X186135Y506344D01*
X185779Y505958D01*
X185414Y505581D01*
X185039Y505212D01*
X184656Y504853D01*
X184263Y504504D01*
X183863Y504164D01*
X183454Y503834D01*
X183037Y503514D01*
X182613Y503205D01*
X182181Y502906D01*
X181742Y502617D01*
X181296Y502340D01*
X180843Y502073D01*
X180384Y501818D01*
X179919Y501574D01*
X179448Y501341D01*
X178971Y501120D01*
X178489Y500911D01*
X178002Y500713D01*
X177511Y500528D01*
X177015Y500354D01*
X176515Y500193D01*
X176011Y500044D01*
X175504Y499908D01*
X174993Y499784D01*
X174480Y499672D01*
X173964Y499573D01*
X173446Y499487D01*
X172926Y499413D01*
X172404Y499353D01*
X171881Y499305D01*
X171357Y499269D01*
X170832Y499247D01*
X170307Y499237D01*
X170307Y499477D01*
X170826Y499487D01*
X171345Y499509D01*
X171863Y499544D01*
X172380Y499591D01*
X172896Y499652D01*
X173410Y499724D01*
X173923Y499810D01*
X174433Y499907D01*
X174940Y500018D01*
X175445Y500140D01*
X175947Y500275D01*
X176445Y500423D01*
X176939Y500582D01*
X177429Y500753D01*
X177915Y500937D01*
X178396Y501132D01*
X178873Y501339D01*
X179344Y501557D01*
X179810Y501787D01*
X180270Y502029D01*
X180723Y502281D01*
X181171Y502545D01*
X181612Y502819D01*
X182046Y503104D01*
X182473Y503400D01*
X182893Y503706D01*
X183305Y504022D01*
X183709Y504348D01*
X184105Y504684D01*
X184493Y505030D01*
X184872Y505385D01*
X185242Y505749D01*
X185604Y506122D01*
X185956Y506504D01*
X186299Y506894D01*
X186115Y507049D01*
X185777Y506663D01*
X185429Y506286D01*
X185071Y505917D01*
X184705Y505557D01*
X184330Y505206D01*
X183947Y504865D01*
X183555Y504533D01*
X183156Y504210D01*
X182749Y503898D01*
X182334Y503595D01*
X181912Y503303D01*
X181482Y503021D01*
X181046Y502750D01*
X180604Y502489D01*
X180155Y502240D01*
X179701Y502001D01*
X179240Y501774D01*
X178775Y501558D01*
X178304Y501353D01*
X177828Y501160D01*
X177347Y500979D01*
X176863Y500810D01*
X176374Y500652D01*
X175882Y500507D01*
X175386Y500373D01*
X174887Y500252D01*
X174385Y500143D01*
X173881Y500046D01*
X173375Y499962D01*
X172866Y499890D01*
X172356Y499830D01*
X171845Y499783D01*
X171333Y499749D01*
X170820Y499727D01*
X170307Y499717D01*
X170307Y499957D01*
X170814Y499967D01*
X171321Y499988D01*
X171827Y500023D01*
X172333Y500069D01*
X172837Y500128D01*
X173339Y500199D01*
X173840Y500282D01*
X174338Y500378D01*
X174834Y500486D01*
X175327Y500606D01*
X175817Y500738D01*
X176304Y500882D01*
X176787Y501037D01*
X177266Y501205D01*
X177741Y501384D01*
X178211Y501575D01*
X178676Y501777D01*
X179137Y501990D01*
X179592Y502215D01*
X180041Y502451D01*
X180485Y502698D01*
X180922Y502955D01*
X181353Y503223D01*
X181777Y503502D01*
X182194Y503790D01*
X182604Y504089D01*
X183007Y504398D01*
X183402Y504717D01*
X183789Y505045D01*
X184168Y505383D01*
X184538Y505730D01*
X184900Y506085D01*
X185253Y506450D01*
X185597Y506823D01*
X185932Y507204D01*
X185749Y507359D01*
X185418Y506982D01*
X185078Y506614D01*
X184729Y506254D01*
X184371Y505902D01*
X184005Y505559D01*
X183631Y505226D01*
X183248Y504901D01*
X182858Y504586D01*
X182460Y504281D01*
X182055Y503986D01*
X181642Y503700D01*
X181223Y503425D01*
X180797Y503160D01*
X180365Y502906D01*
X179927Y502662D01*
X179483Y502429D01*
X179033Y502207D01*
X178578Y501996D01*
X178118Y501796D01*
X177653Y501608D01*
X177184Y501430D01*
X176711Y501265D01*
X176233Y501111D01*
X175752Y500969D01*
X175268Y500838D01*
X174781Y500720D01*
X174291Y500613D01*
X173798Y500519D01*
X173304Y500436D01*
X172807Y500366D01*
X172309Y500308D01*
X171809Y500262D01*
X171309Y500228D01*
X170808Y500207D01*
X170307Y500197D01*
X170307Y500437D01*
X170802Y500447D01*
X171297Y500468D01*
X171792Y500501D01*
X172285Y500547D01*
X172777Y500604D01*
X173268Y500674D01*
X173757Y500755D01*
X174243Y500849D01*
X174728Y500954D01*
X175209Y501071D01*
X175688Y501200D01*
X176163Y501340D01*
X176635Y501493D01*
X177102Y501656D01*
X177566Y501831D01*
X178025Y502017D01*
X178480Y502215D01*
X178929Y502423D01*
X179374Y502643D01*
X179812Y502873D01*
X180246Y503114D01*
X180673Y503365D01*
X181093Y503627D01*
X181508Y503899D01*
X181915Y504181D01*
X182316Y504473D01*
X182709Y504775D01*
X183094Y505086D01*
X183472Y505406D01*
X183842Y505736D01*
X184204Y506074D01*
X184558Y506422D01*
X184903Y506778D01*
X185239Y507142D01*
X185566Y507514D01*
X185383Y507669D01*
X185059Y507301D01*
X184727Y506942D01*
X184387Y506590D01*
X184037Y506247D01*
X183680Y505912D01*
X183314Y505587D01*
X182941Y505270D01*
X182560Y504963D01*
X182171Y504665D01*
X181776Y504376D01*
X181373Y504098D01*
X180964Y503829D01*
X180548Y503570D01*
X180126Y503322D01*
X179698Y503084D01*
X179265Y502857D01*
X178826Y502640D01*
X178381Y502434D01*
X177932Y502239D01*
X177479Y502055D01*
X177021Y501882D01*
X176559Y501720D01*
X176093Y501570D01*
X175623Y501431D01*
X175150Y501304D01*
X174675Y501188D01*
X174196Y501084D01*
X173715Y500992D01*
X173232Y500911D01*
X172748Y500842D01*
X172261Y500785D01*
X171774Y500741D01*
X171285Y500708D01*
X170796Y500686D01*
X170307Y500677D01*
X170307Y500917D01*
X170790Y500926D01*
X171273Y500947D01*
X171756Y500980D01*
X172238Y501024D01*
X172718Y501080D01*
X173197Y501148D01*
X173674Y501228D01*
X174149Y501319D01*
X174621Y501422D01*
X175091Y501536D01*
X175558Y501662D01*
X176022Y501799D01*
X176482Y501948D01*
X176939Y502107D01*
X177391Y502278D01*
X177840Y502460D01*
X178283Y502653D01*
X178722Y502856D01*
X179156Y503070D01*
X179584Y503295D01*
X180007Y503530D01*
X180423Y503775D01*
X180834Y504031D01*
X181238Y504296D01*
X181636Y504572D01*
X182027Y504856D01*
X182411Y505151D01*
X182787Y505454D01*
X183156Y505767D01*
X183517Y506089D01*
X183870Y506419D01*
X184215Y506758D01*
X184552Y507105D01*
X184880Y507461D01*
X185199Y507824D01*
X185016Y507979D01*
X184701Y507620D01*
X184377Y507269D01*
X184044Y506926D01*
X183703Y506592D01*
X183355Y506265D01*
X182998Y505948D01*
X182633Y505639D01*
X182262Y505339D01*
X181883Y505048D01*
X181497Y504767D01*
X181104Y504495D01*
X180704Y504233D01*
X180299Y503981D01*
X179887Y503738D01*
X179470Y503506D01*
X179047Y503284D01*
X178618Y503073D01*
X178185Y502872D01*
X177747Y502681D01*
X177304Y502502D01*
X176857Y502333D01*
X176406Y502175D01*
X175952Y502029D01*
X175494Y501893D01*
X175032Y501769D01*
X174568Y501656D01*
X174101Y501554D01*
X173632Y501464D01*
X173161Y501386D01*
X172688Y501319D01*
X172214Y501263D01*
X171738Y501219D01*
X171261Y501187D01*
X170784Y501166D01*
X170307Y501157D01*
X170307Y501397D01*
X170778Y501406D01*
X171250Y501427D01*
X171720Y501459D01*
X172190Y501502D01*
X172659Y501557D01*
X173126Y501623D01*
X173591Y501701D01*
X174054Y501790D01*
X174515Y501890D01*
X174973Y502002D01*
X175429Y502124D01*
X175881Y502258D01*
X176330Y502403D01*
X176776Y502559D01*
X177217Y502725D01*
X177654Y502903D01*
X178087Y503091D01*
X178515Y503289D01*
X178938Y503498D01*
X179355Y503717D01*
X179768Y503946D01*
X180174Y504186D01*
X180575Y504435D01*
X180969Y504694D01*
X181357Y504962D01*
X181738Y505240D01*
X182113Y505527D01*
X182480Y505823D01*
X182840Y506128D01*
X183192Y506442D01*
X183537Y506764D01*
X183873Y507095D01*
X184201Y507433D01*
X184521Y507780D01*
X184833Y508134D01*
X151608Y509941D02*
X153593Y511076D01*
X153592Y511075D02*
X153830Y510677D01*
X154076Y510285D01*
X154333Y509900D01*
X154598Y509520D01*
X154872Y509147D01*
X155156Y508781D01*
X155448Y508422D01*
X155749Y508070D01*
X156058Y507725D01*
X156375Y507388D01*
X156701Y507058D01*
X157034Y506737D01*
X157375Y506423D01*
X157724Y506118D01*
X158079Y505822D01*
X158442Y505534D01*
X158812Y505255D01*
X159188Y504985D01*
X159571Y504724D01*
X159960Y504473D01*
X160354Y504231D01*
X160755Y503998D01*
X161161Y503776D01*
X161572Y503563D01*
X161989Y503360D01*
X162410Y503167D01*
X162835Y502985D01*
X163265Y502813D01*
X163699Y502651D01*
X164137Y502500D01*
X164578Y502359D01*
X165023Y502229D01*
X165470Y502110D01*
X165920Y502002D01*
X166373Y501904D01*
X166828Y501818D01*
X167285Y501743D01*
X167744Y501678D01*
X168204Y501625D01*
X168665Y501583D01*
X169127Y501552D01*
X169590Y501532D01*
X170053Y501523D01*
X170053Y499238D01*
X170053Y499237D01*
X169534Y499247D01*
X169015Y499269D01*
X168497Y499303D01*
X167980Y499350D01*
X167465Y499409D01*
X166951Y499481D01*
X166439Y499565D01*
X165929Y499662D01*
X165421Y499771D01*
X164917Y499892D01*
X164415Y500025D01*
X163917Y500171D01*
X163422Y500328D01*
X162932Y500498D01*
X162445Y500679D01*
X161963Y500872D01*
X161486Y501076D01*
X161015Y501292D01*
X160548Y501519D01*
X160087Y501758D01*
X159632Y502007D01*
X159183Y502268D01*
X158741Y502539D01*
X158305Y502821D01*
X157876Y503113D01*
X157454Y503416D01*
X157040Y503729D01*
X156634Y504051D01*
X156235Y504384D01*
X155844Y504726D01*
X155462Y505077D01*
X155089Y505437D01*
X154724Y505807D01*
X154369Y506185D01*
X154022Y506571D01*
X153685Y506966D01*
X153358Y507369D01*
X153041Y507779D01*
X152733Y508198D01*
X152436Y508623D01*
X152149Y509056D01*
X151873Y509495D01*
X151608Y509941D01*
X151816Y510060D01*
X152078Y509619D01*
X152352Y509185D01*
X152635Y508757D01*
X152929Y508336D01*
X153233Y507923D01*
X153547Y507517D01*
X153871Y507119D01*
X154204Y506728D01*
X154546Y506346D01*
X154898Y505973D01*
X155258Y505607D01*
X155627Y505251D01*
X156005Y504904D01*
X156391Y504566D01*
X156785Y504237D01*
X157187Y503918D01*
X157597Y503609D01*
X158014Y503310D01*
X158438Y503021D01*
X158869Y502742D01*
X159306Y502474D01*
X159750Y502216D01*
X160200Y501970D01*
X160655Y501734D01*
X161117Y501509D01*
X161583Y501296D01*
X162055Y501093D01*
X162531Y500903D01*
X163012Y500724D01*
X163497Y500556D01*
X163986Y500401D01*
X164479Y500257D01*
X164975Y500125D01*
X165474Y500005D01*
X165975Y499897D01*
X166480Y499802D01*
X166986Y499719D01*
X167494Y499648D01*
X168004Y499589D01*
X168515Y499542D01*
X169027Y499508D01*
X169540Y499487D01*
X170053Y499477D01*
X170053Y499717D01*
X169545Y499727D01*
X169039Y499748D01*
X168532Y499782D01*
X168027Y499828D01*
X167523Y499886D01*
X167021Y499956D01*
X166520Y500038D01*
X166022Y500133D01*
X165526Y500239D01*
X165033Y500358D01*
X164543Y500488D01*
X164056Y500630D01*
X163572Y500784D01*
X163093Y500950D01*
X162617Y501127D01*
X162147Y501315D01*
X161680Y501515D01*
X161219Y501726D01*
X160763Y501948D01*
X160312Y502181D01*
X159868Y502425D01*
X159429Y502680D01*
X158996Y502945D01*
X158571Y503221D01*
X158151Y503506D01*
X157739Y503802D01*
X157334Y504108D01*
X156937Y504423D01*
X156548Y504748D01*
X156166Y505082D01*
X155792Y505425D01*
X155427Y505778D01*
X155071Y506139D01*
X154723Y506508D01*
X154385Y506886D01*
X154056Y507272D01*
X153736Y507665D01*
X153425Y508067D01*
X153125Y508475D01*
X152834Y508891D01*
X152554Y509314D01*
X152284Y509743D01*
X152024Y510179D01*
X152233Y510298D01*
X152489Y509867D01*
X152756Y509443D01*
X153033Y509025D01*
X153321Y508614D01*
X153618Y508210D01*
X153924Y507814D01*
X154241Y507424D01*
X154566Y507043D01*
X154901Y506670D01*
X155244Y506305D01*
X155597Y505948D01*
X155957Y505600D01*
X156327Y505260D01*
X156704Y504930D01*
X157089Y504609D01*
X157482Y504297D01*
X157882Y503995D01*
X158289Y503703D01*
X158703Y503420D01*
X159124Y503148D01*
X159552Y502886D01*
X159986Y502634D01*
X160425Y502393D01*
X160871Y502163D01*
X161321Y501943D01*
X161777Y501735D01*
X162238Y501537D01*
X162704Y501351D01*
X163173Y501176D01*
X163647Y501012D01*
X164125Y500860D01*
X164606Y500720D01*
X165091Y500591D01*
X165579Y500474D01*
X166069Y500368D01*
X166561Y500275D01*
X167056Y500193D01*
X167553Y500124D01*
X168051Y500066D01*
X168550Y500021D01*
X169050Y499988D01*
X169551Y499967D01*
X170053Y499957D01*
X170053Y500197D01*
X169557Y500206D01*
X169062Y500227D01*
X168568Y500260D01*
X168074Y500305D01*
X167582Y500362D01*
X167091Y500431D01*
X166602Y500511D01*
X166115Y500604D01*
X165631Y500708D01*
X165149Y500824D01*
X164670Y500951D01*
X164195Y501090D01*
X163722Y501240D01*
X163254Y501402D01*
X162790Y501575D01*
X162330Y501759D01*
X161874Y501954D01*
X161424Y502160D01*
X160978Y502377D01*
X160538Y502605D01*
X160104Y502843D01*
X159675Y503092D01*
X159252Y503351D01*
X158836Y503620D01*
X158427Y503899D01*
X158024Y504188D01*
X157629Y504487D01*
X157241Y504795D01*
X156860Y505112D01*
X156487Y505439D01*
X156123Y505774D01*
X155766Y506118D01*
X155418Y506471D01*
X155078Y506831D01*
X154747Y507200D01*
X154426Y507577D01*
X154113Y507962D01*
X153810Y508354D01*
X153516Y508753D01*
X153233Y509159D01*
X152959Y509572D01*
X152695Y509991D01*
X152441Y510417D01*
X152649Y510536D01*
X152900Y510116D01*
X153161Y509701D01*
X153432Y509293D01*
X153712Y508892D01*
X154002Y508497D01*
X154302Y508110D01*
X154611Y507730D01*
X154929Y507358D01*
X155255Y506993D01*
X155591Y506637D01*
X155935Y506288D01*
X156288Y505948D01*
X156648Y505617D01*
X157016Y505294D01*
X157393Y504981D01*
X157776Y504676D01*
X158167Y504381D01*
X158565Y504096D01*
X158969Y503820D01*
X159380Y503554D01*
X159798Y503298D01*
X160221Y503052D01*
X160651Y502817D01*
X161086Y502592D01*
X161526Y502378D01*
X161971Y502174D01*
X162421Y501981D01*
X162876Y501799D01*
X163335Y501628D01*
X163797Y501468D01*
X164264Y501320D01*
X164734Y501182D01*
X165207Y501056D01*
X165683Y500942D01*
X166162Y500839D01*
X166643Y500748D01*
X167126Y500668D01*
X167611Y500600D01*
X168098Y500544D01*
X168585Y500500D01*
X169074Y500467D01*
X169563Y500446D01*
X170053Y500437D01*
X170053Y500677D01*
X169569Y500686D01*
X169086Y500707D01*
X168603Y500739D01*
X168121Y500783D01*
X167640Y500839D01*
X167161Y500906D01*
X166684Y500984D01*
X166209Y501075D01*
X165736Y501176D01*
X165265Y501289D01*
X164798Y501414D01*
X164333Y501549D01*
X163872Y501696D01*
X163415Y501854D01*
X162962Y502023D01*
X162513Y502203D01*
X162068Y502393D01*
X161628Y502595D01*
X161193Y502807D01*
X160764Y503029D01*
X160339Y503261D01*
X159921Y503504D01*
X159508Y503757D01*
X159102Y504020D01*
X158702Y504292D01*
X158309Y504574D01*
X157923Y504866D01*
X157544Y505167D01*
X157173Y505476D01*
X156809Y505795D01*
X156453Y506122D01*
X156104Y506458D01*
X155764Y506803D01*
X155433Y507155D01*
X155110Y507515D01*
X154796Y507883D01*
X154491Y508258D01*
X154195Y508641D01*
X153908Y509031D01*
X153631Y509427D01*
X153363Y509830D01*
X153106Y510240D01*
X152858Y510655D01*
X153066Y510774D01*
X153311Y510364D01*
X153566Y509959D01*
X153830Y509561D01*
X154104Y509170D01*
X154387Y508785D01*
X154679Y508407D01*
X154981Y508036D01*
X155291Y507672D01*
X155610Y507317D01*
X155938Y506969D01*
X156274Y506629D01*
X156618Y506297D01*
X156969Y505973D01*
X157329Y505659D01*
X157696Y505353D01*
X158071Y505055D01*
X158452Y504768D01*
X158840Y504489D01*
X159235Y504220D01*
X159636Y503960D01*
X160044Y503710D01*
X160457Y503471D01*
X160876Y503241D01*
X161301Y503021D01*
X161730Y502812D01*
X162165Y502613D01*
X162604Y502425D01*
X163048Y502247D01*
X163496Y502080D01*
X163947Y501924D01*
X164403Y501779D01*
X164862Y501645D01*
X165323Y501522D01*
X165788Y501410D01*
X166255Y501310D01*
X166725Y501221D01*
X167196Y501143D01*
X167670Y501077D01*
X168144Y501022D01*
X168620Y500978D01*
X169097Y500947D01*
X169575Y500926D01*
X170053Y500917D01*
X170053Y501157D01*
X169581Y501166D01*
X169109Y501186D01*
X168638Y501218D01*
X168168Y501261D01*
X167699Y501315D01*
X167231Y501381D01*
X166766Y501457D01*
X166302Y501545D01*
X165840Y501645D01*
X165382Y501755D01*
X164925Y501876D01*
X164472Y502009D01*
X164022Y502152D01*
X163576Y502306D01*
X163134Y502471D01*
X162696Y502646D01*
X162262Y502832D01*
X161833Y503029D01*
X161408Y503236D01*
X160989Y503453D01*
X160575Y503680D01*
X160167Y503916D01*
X159764Y504163D01*
X159368Y504420D01*
X158978Y504685D01*
X158594Y504961D01*
X158218Y505245D01*
X157848Y505538D01*
X157485Y505841D01*
X157130Y506152D01*
X156783Y506471D01*
X156443Y506799D01*
X156111Y507135D01*
X155788Y507478D01*
X155472Y507830D01*
X155166Y508189D01*
X154868Y508555D01*
X154579Y508928D01*
X154299Y509308D01*
X154029Y509695D01*
X153768Y510089D01*
X153516Y510488D01*
X153275Y510893D01*
X153483Y511013D01*
X153722Y510612D01*
X153970Y510218D01*
X154228Y509829D01*
X154495Y509447D01*
X154771Y509072D01*
X155057Y508703D01*
X155351Y508341D01*
X155654Y507987D01*
X155965Y507640D01*
X156284Y507301D01*
X156612Y506969D01*
X156948Y506645D01*
X157291Y506330D01*
X157642Y506023D01*
X158000Y505724D01*
X158365Y505435D01*
X158737Y505154D01*
X159116Y504882D01*
X159501Y504619D01*
X159892Y504366D01*
X160290Y504123D01*
X160693Y503889D01*
X161102Y503664D01*
X161516Y503450D01*
X161935Y503246D01*
X162359Y503052D01*
X162787Y502868D01*
X163220Y502695D01*
X163657Y502532D01*
X164097Y502380D01*
X164542Y502239D01*
X164989Y502108D01*
X165440Y501988D01*
X165893Y501879D01*
X166349Y501781D01*
X166807Y501694D01*
X167267Y501618D01*
X167728Y501553D01*
X168191Y501500D01*
X168656Y501457D01*
X169121Y501426D01*
X169586Y501406D01*
X170053Y501397D01*
D11*
X185928Y528574D02*
X185928Y533654D01*
X185928Y512318D02*
X185928Y507746D01*
D12*
X304700Y514200D02*
X304700Y484400D01*
X304700Y514200D02*
X228700Y514200D01*
X228700Y484400D01*
X228700Y275600D02*
X304700Y275600D01*
X307237Y276562D01*
X309750Y277586D01*
X312236Y278671D01*
X314696Y279816D01*
X317127Y281021D01*
X319528Y282284D01*
X321897Y283606D01*
X324233Y284986D01*
X326535Y286422D01*
X328801Y287914D01*
X331030Y289461D01*
X333221Y291061D01*
X335371Y292715D01*
X337481Y294420D01*
X339549Y296177D01*
X341573Y297984D01*
X343553Y299839D01*
X345486Y301742D01*
X347373Y303692D01*
X349211Y305687D01*
X351000Y307727D01*
X352739Y309810D01*
X354426Y311934D01*
X356062Y314099D01*
X357643Y316303D01*
X359171Y318546D01*
X360643Y320824D01*
X362060Y323138D01*
X363419Y325486D01*
X364721Y327867D01*
X365964Y330278D01*
X367148Y332719D01*
X368272Y335189D01*
X369335Y337685D01*
X370337Y340206D01*
X371278Y342751D01*
X372156Y345318D01*
X372971Y347906D01*
X373722Y350513D01*
X374410Y353137D01*
X375034Y355778D01*
X375592Y358432D01*
X376086Y361100D01*
X376515Y363779D01*
X376878Y366468D01*
X377176Y369165D01*
X377407Y371868D01*
X377573Y374576D01*
X377672Y377287D01*
X377705Y380000D01*
X377672Y382713D01*
X377573Y385424D01*
X377407Y388132D01*
X377176Y390835D01*
X376878Y393532D01*
X376515Y396221D01*
X376086Y398900D01*
X375592Y401568D01*
X375034Y404222D01*
X374410Y406863D01*
X373722Y409487D01*
X372971Y412094D01*
X372156Y414682D01*
X371278Y417249D01*
X370337Y419794D01*
X369335Y422315D01*
X368272Y424811D01*
X367148Y427281D01*
X365964Y429722D01*
X364721Y432133D01*
X363419Y434514D01*
X362060Y436862D01*
X360643Y439176D01*
X359171Y441454D01*
X357643Y443697D01*
X356062Y445901D01*
X354426Y448066D01*
X352739Y450190D01*
X351000Y452273D01*
X349211Y454313D01*
X347373Y456308D01*
X345486Y458258D01*
X343553Y460161D01*
X341573Y462016D01*
X339549Y463823D01*
X337481Y465580D01*
X335371Y467285D01*
X333221Y468939D01*
X331030Y470539D01*
X328801Y472086D01*
X326535Y473578D01*
X324233Y475014D01*
X321897Y476394D01*
X319528Y477716D01*
X317127Y478979D01*
X314696Y480184D01*
X312236Y481329D01*
X309750Y482414D01*
X307237Y483438D01*
X304700Y484400D01*
X228700Y484400D02*
X226163Y483438D01*
X223650Y482414D01*
X221164Y481329D01*
X218704Y480184D01*
X216273Y478979D01*
X213872Y477716D01*
X211503Y476394D01*
X209167Y475014D01*
X206865Y473578D01*
X204599Y472086D01*
X202370Y470539D01*
X200179Y468939D01*
X198029Y467285D01*
X195919Y465580D01*
X193851Y463823D01*
X191827Y462016D01*
X189847Y460161D01*
X187914Y458258D01*
X186027Y456308D01*
X184189Y454313D01*
X182400Y452273D01*
X180661Y450190D01*
X178974Y448066D01*
X177338Y445901D01*
X175757Y443697D01*
X174229Y441454D01*
X172757Y439176D01*
X171340Y436862D01*
X169981Y434514D01*
X168679Y432133D01*
X167436Y429722D01*
X166252Y427281D01*
X165128Y424811D01*
X164065Y422315D01*
X163063Y419794D01*
X162122Y417249D01*
X161244Y414682D01*
X160429Y412094D01*
X159678Y409487D01*
X158990Y406863D01*
X158366Y404222D01*
X157808Y401568D01*
X157314Y398900D01*
X156885Y396221D01*
X156522Y393532D01*
X156224Y390835D01*
X155993Y388132D01*
X155827Y385424D01*
X155728Y382713D01*
X155695Y380000D01*
X155728Y377287D01*
X155827Y374576D01*
X155993Y371868D01*
X156224Y369165D01*
X156522Y366468D01*
X156885Y363779D01*
X157314Y361100D01*
X157808Y358432D01*
X158366Y355778D01*
X158990Y353137D01*
X159678Y350513D01*
X160429Y347906D01*
X161244Y345318D01*
X162122Y342751D01*
X163063Y340206D01*
X164065Y337685D01*
X165128Y335189D01*
X166252Y332719D01*
X167436Y330278D01*
X168679Y327867D01*
X169981Y325486D01*
X171340Y323138D01*
X172757Y320824D01*
X174229Y318546D01*
X175757Y316303D01*
X177338Y314099D01*
X178974Y311934D01*
X180661Y309810D01*
X182400Y307727D01*
X184189Y305687D01*
X186027Y303692D01*
X187914Y301742D01*
X189847Y299839D01*
X191827Y297984D01*
X193851Y296177D01*
X195919Y294420D01*
X198029Y292715D01*
X200179Y291061D01*
X202370Y289461D01*
X204599Y287914D01*
X206865Y286422D01*
X209167Y284986D01*
X211503Y283606D01*
X213872Y282284D01*
X216273Y281021D01*
X218704Y279816D01*
X221164Y278671D01*
X223650Y277586D01*
X226163Y276562D01*
X228700Y275600D01*
M02*
