G04 EAGLE Gerber X2 export*
G75*
%MOMM*%
%FSLAX34Y34*%
%LPD*%
%AMOC8*
5,1,8,0,0,1.08239X$1,22.5*%
G01*
%ADD10C,1.879600*%
%ADD11C,1.950000*%
%ADD12C,0.304800*%

G36*
X299869Y2544D02*
X299869Y2544D01*
X299907Y2543D01*
X304139Y2876D01*
X304144Y2877D01*
X304150Y2877D01*
X304314Y2911D01*
X312363Y5526D01*
X312395Y5543D01*
X312430Y5551D01*
X312576Y5634D01*
X319423Y10609D01*
X319448Y10634D01*
X319478Y10653D01*
X319591Y10777D01*
X324566Y17624D01*
X324582Y17656D01*
X324605Y17684D01*
X324674Y17837D01*
X327289Y25886D01*
X327290Y25891D01*
X327292Y25896D01*
X327324Y26061D01*
X327657Y30293D01*
X327655Y30315D01*
X327659Y30352D01*
X327659Y266127D01*
X327652Y266173D01*
X327654Y266220D01*
X327623Y266349D01*
X327620Y266370D01*
X327617Y266375D01*
X327615Y266383D01*
X327453Y266835D01*
X327586Y267116D01*
X327609Y267197D01*
X327641Y267275D01*
X327646Y267326D01*
X327654Y267352D01*
X327653Y267382D01*
X327659Y267441D01*
X327659Y267752D01*
X327998Y268091D01*
X328026Y268130D01*
X328060Y268161D01*
X328130Y268274D01*
X328142Y268291D01*
X328144Y268297D01*
X328148Y268304D01*
X328353Y268738D01*
X328646Y268842D01*
X328720Y268883D01*
X328797Y268916D01*
X328837Y268948D01*
X328861Y268962D01*
X328881Y268984D01*
X328928Y269021D01*
X329148Y269241D01*
X329581Y269241D01*
X329639Y269250D01*
X329696Y269250D01*
X329793Y269275D01*
X329824Y269280D01*
X329837Y269287D01*
X329858Y269293D01*
X343715Y274711D01*
X343736Y274723D01*
X343776Y274738D01*
X371378Y288413D01*
X371402Y288430D01*
X371455Y288457D01*
X397283Y305244D01*
X397305Y305264D01*
X397354Y305296D01*
X421059Y324968D01*
X421078Y324991D01*
X421123Y325029D01*
X442384Y347319D01*
X442400Y347344D01*
X442441Y347387D01*
X460970Y371995D01*
X460983Y372021D01*
X461019Y372069D01*
X476565Y398662D01*
X476576Y398689D01*
X476605Y398741D01*
X488960Y426959D01*
X488967Y426987D01*
X488990Y427042D01*
X497985Y456503D01*
X497989Y456532D01*
X498006Y456589D01*
X503520Y486896D01*
X503520Y486925D01*
X503531Y486983D01*
X505489Y517725D01*
X505486Y517755D01*
X505489Y517814D01*
X503865Y548575D01*
X503859Y548604D01*
X503855Y548663D01*
X498671Y579027D01*
X498662Y579055D01*
X498651Y579113D01*
X489977Y608671D01*
X489964Y608698D01*
X489947Y608754D01*
X477900Y637105D01*
X477884Y637130D01*
X477861Y637184D01*
X462604Y663944D01*
X462585Y663967D01*
X462556Y664019D01*
X444295Y688827D01*
X444274Y688847D01*
X444239Y688895D01*
X423222Y711415D01*
X423199Y711433D01*
X423158Y711476D01*
X399669Y731405D01*
X399643Y731420D01*
X399598Y731458D01*
X373954Y748524D01*
X373927Y748537D01*
X373878Y748569D01*
X346426Y762543D01*
X346397Y762552D01*
X346345Y762579D01*
X317456Y773271D01*
X317427Y773277D01*
X317371Y773297D01*
X287437Y780564D01*
X287407Y780566D01*
X287350Y780580D01*
X256774Y784322D01*
X256750Y784321D01*
X256708Y784327D01*
X241485Y784853D01*
X241453Y784849D01*
X241360Y784847D01*
X226438Y782887D01*
X226415Y782880D01*
X226373Y782876D01*
X196651Y776296D01*
X196623Y776285D01*
X196566Y776272D01*
X167809Y766287D01*
X167783Y766273D01*
X167727Y766253D01*
X140323Y752997D01*
X140299Y752980D01*
X140246Y752954D01*
X114567Y736606D01*
X114545Y736586D01*
X114495Y736554D01*
X90888Y717336D01*
X90868Y717313D01*
X90822Y717276D01*
X69606Y695446D01*
X69589Y695422D01*
X69548Y695380D01*
X51008Y671235D01*
X50994Y671209D01*
X50959Y671162D01*
X35348Y645028D01*
X35337Y645000D01*
X35307Y644949D01*
X22836Y617180D01*
X22828Y617151D01*
X22804Y617097D01*
X13641Y588068D01*
X13637Y588038D01*
X13619Y587982D01*
X7888Y558085D01*
X7888Y558055D01*
X7877Y557997D01*
X5655Y527637D01*
X5658Y527607D01*
X5654Y527549D01*
X6972Y497136D01*
X6978Y497107D01*
X6981Y497048D01*
X11821Y466994D01*
X11830Y466966D01*
X11840Y466907D01*
X20136Y437618D01*
X20149Y437591D01*
X20165Y437535D01*
X31806Y409407D01*
X31822Y409382D01*
X31844Y409327D01*
X46672Y382741D01*
X46690Y382718D01*
X46719Y382666D01*
X64532Y357981D01*
X64554Y357960D01*
X64588Y357913D01*
X85147Y335462D01*
X85170Y335444D01*
X85211Y335401D01*
X108237Y315489D01*
X108262Y315473D01*
X108307Y315435D01*
X133489Y298331D01*
X133515Y298319D01*
X133565Y298286D01*
X160562Y284221D01*
X160590Y284212D01*
X160643Y284185D01*
X189090Y273349D01*
X189114Y273344D01*
X189153Y273328D01*
X203447Y269270D01*
X203468Y269267D01*
X203488Y269259D01*
X203655Y269241D01*
X204252Y269241D01*
X204353Y269140D01*
X204451Y269070D01*
X204548Y268999D01*
X204551Y268998D01*
X204553Y268996D01*
X204563Y268993D01*
X204705Y268940D01*
X204843Y268905D01*
X205172Y268354D01*
X205178Y268346D01*
X205182Y268337D01*
X205287Y268206D01*
X205741Y267752D01*
X205741Y267610D01*
X205760Y267492D01*
X205779Y267373D01*
X205780Y267370D01*
X205780Y267367D01*
X205785Y267358D01*
X205848Y267220D01*
X205921Y267098D01*
X205764Y266476D01*
X205763Y266465D01*
X205759Y266456D01*
X205741Y266289D01*
X205741Y29828D01*
X205744Y29807D01*
X205743Y29769D01*
X206070Y25619D01*
X206071Y25613D01*
X206071Y25608D01*
X206105Y25444D01*
X208669Y17550D01*
X208686Y17519D01*
X208694Y17484D01*
X208777Y17338D01*
X213656Y10624D01*
X213681Y10599D01*
X213700Y10568D01*
X213824Y10456D01*
X220538Y5577D01*
X220570Y5561D01*
X220598Y5538D01*
X220750Y5469D01*
X228643Y2905D01*
X228649Y2904D01*
X228654Y2901D01*
X228819Y2870D01*
X232969Y2543D01*
X232991Y2545D01*
X233028Y2541D01*
X299848Y2541D01*
X299869Y2544D01*
G37*
%LPC*%
G36*
X289927Y103377D02*
X289927Y103377D01*
X285913Y105040D01*
X282840Y108113D01*
X281177Y112127D01*
X281177Y116473D01*
X282840Y120487D01*
X285913Y123560D01*
X289927Y125223D01*
X294273Y125223D01*
X296941Y124117D01*
X297055Y124091D01*
X297168Y124062D01*
X297175Y124063D01*
X297181Y124061D01*
X297297Y124072D01*
X297414Y124081D01*
X297419Y124084D01*
X297426Y124084D01*
X297533Y124132D01*
X297640Y124178D01*
X297646Y124182D01*
X297650Y124184D01*
X297664Y124197D01*
X297771Y124282D01*
X301528Y128040D01*
X301581Y128114D01*
X301641Y128183D01*
X301653Y128213D01*
X301672Y128240D01*
X301699Y128327D01*
X301733Y128411D01*
X301737Y128452D01*
X301744Y128475D01*
X301743Y128507D01*
X301751Y128578D01*
X301751Y188997D01*
X301739Y189074D01*
X301735Y189153D01*
X301719Y189195D01*
X301712Y189240D01*
X301675Y189309D01*
X301647Y189382D01*
X301610Y189430D01*
X301596Y189457D01*
X301577Y189476D01*
X301546Y189517D01*
X284717Y207523D01*
X284712Y207527D01*
X284708Y207533D01*
X284615Y207603D01*
X284523Y207674D01*
X284516Y207676D01*
X284511Y207680D01*
X284400Y207716D01*
X284290Y207754D01*
X284284Y207754D01*
X284277Y207756D01*
X284160Y207755D01*
X284044Y207756D01*
X284038Y207754D01*
X284031Y207754D01*
X283870Y207707D01*
X281573Y206755D01*
X277227Y206755D01*
X273213Y208418D01*
X270140Y211491D01*
X268477Y215505D01*
X268477Y219851D01*
X270140Y223865D01*
X273213Y226938D01*
X277227Y228601D01*
X281573Y228601D01*
X285587Y226938D01*
X288660Y223865D01*
X290323Y219851D01*
X290323Y215505D01*
X289061Y212459D01*
X289037Y212358D01*
X289008Y212258D01*
X289009Y212239D01*
X289005Y212220D01*
X289015Y212116D01*
X289019Y212012D01*
X289026Y211994D01*
X289028Y211975D01*
X289070Y211880D01*
X289108Y211783D01*
X289122Y211764D01*
X289128Y211750D01*
X289150Y211727D01*
X289208Y211648D01*
X306983Y192629D01*
X306991Y192623D01*
X307001Y192611D01*
X307892Y191720D01*
X307849Y190461D01*
X307850Y190451D01*
X307849Y190435D01*
X307849Y125737D01*
X302082Y119971D01*
X302015Y119876D01*
X301944Y119782D01*
X301942Y119776D01*
X301939Y119771D01*
X301905Y119660D01*
X301868Y119548D01*
X301868Y119542D01*
X301866Y119536D01*
X301870Y119419D01*
X301871Y119302D01*
X301873Y119295D01*
X301873Y119290D01*
X301879Y119273D01*
X301917Y119141D01*
X303023Y116473D01*
X303023Y112127D01*
X301360Y108113D01*
X298287Y105040D01*
X294273Y103377D01*
X289927Y103377D01*
G37*
%LPD*%
%LPC*%
G36*
X239127Y103377D02*
X239127Y103377D01*
X235113Y105040D01*
X232040Y108113D01*
X230377Y112127D01*
X230377Y116473D01*
X232040Y120487D01*
X235113Y123560D01*
X239127Y125223D01*
X243001Y125223D01*
X243087Y125237D01*
X243173Y125242D01*
X243208Y125257D01*
X243244Y125262D01*
X243321Y125303D01*
X243401Y125336D01*
X243429Y125360D01*
X243461Y125378D01*
X243521Y125440D01*
X243587Y125497D01*
X243613Y125537D01*
X243631Y125556D01*
X243644Y125584D01*
X243679Y125637D01*
X271652Y180277D01*
X271659Y180301D01*
X271673Y180321D01*
X271697Y180417D01*
X271727Y180511D01*
X271727Y180536D01*
X271733Y180560D01*
X271725Y180659D01*
X271724Y180757D01*
X271715Y180781D01*
X271714Y180805D01*
X271675Y180896D01*
X271642Y180989D01*
X271627Y181009D01*
X271617Y181032D01*
X271512Y181162D01*
X270140Y182535D01*
X268477Y186549D01*
X268477Y190895D01*
X270140Y194909D01*
X273213Y197982D01*
X277227Y199645D01*
X281573Y199645D01*
X285587Y197982D01*
X288660Y194909D01*
X290323Y190895D01*
X290323Y186549D01*
X288660Y182535D01*
X285587Y179462D01*
X281573Y177799D01*
X277699Y177799D01*
X277613Y177785D01*
X277527Y177780D01*
X277492Y177765D01*
X277456Y177760D01*
X277379Y177719D01*
X277299Y177686D01*
X277271Y177662D01*
X277239Y177644D01*
X277179Y177582D01*
X277113Y177525D01*
X277087Y177485D01*
X277069Y177466D01*
X277056Y177438D01*
X277021Y177385D01*
X249048Y122745D01*
X249041Y122721D01*
X249027Y122701D01*
X249003Y122605D01*
X248973Y122511D01*
X248973Y122486D01*
X248967Y122462D01*
X248975Y122363D01*
X248976Y122265D01*
X248985Y122241D01*
X248986Y122217D01*
X249025Y122126D01*
X249058Y122033D01*
X249073Y122013D01*
X249083Y121990D01*
X249188Y121860D01*
X250560Y120487D01*
X252223Y116473D01*
X252223Y112127D01*
X250560Y108113D01*
X247487Y105040D01*
X243473Y103377D01*
X239127Y103377D01*
G37*
%LPD*%
%LPC*%
G36*
X250968Y734059D02*
X250968Y734059D01*
X245367Y736380D01*
X241080Y740667D01*
X238759Y746268D01*
X238759Y752332D01*
X241080Y757933D01*
X245367Y762220D01*
X250968Y764541D01*
X257032Y764541D01*
X262633Y762220D01*
X266920Y757933D01*
X269241Y752332D01*
X269241Y746268D01*
X266920Y740667D01*
X262633Y736380D01*
X257032Y734059D01*
X250968Y734059D01*
G37*
%LPD*%
%LPC*%
G36*
X264457Y288225D02*
X264457Y288225D01*
X260313Y289942D01*
X257142Y293113D01*
X255425Y297257D01*
X255425Y301743D01*
X257142Y305887D01*
X260313Y309058D01*
X264457Y310775D01*
X268943Y310775D01*
X273087Y309058D01*
X276258Y305887D01*
X277975Y301743D01*
X277975Y297257D01*
X276258Y293113D01*
X273087Y289942D01*
X268943Y288225D01*
X264457Y288225D01*
G37*
%LPD*%
%LPC*%
G36*
X364857Y508507D02*
X364857Y508507D01*
X360843Y510170D01*
X357770Y513243D01*
X356107Y517257D01*
X356107Y521603D01*
X357770Y525617D01*
X360843Y528690D01*
X364857Y530353D01*
X369203Y530353D01*
X373217Y528690D01*
X376290Y525617D01*
X377953Y521603D01*
X377953Y517257D01*
X376290Y513243D01*
X373217Y510170D01*
X369203Y508507D01*
X364857Y508507D01*
G37*
%LPD*%
%LPC*%
G36*
X180707Y509777D02*
X180707Y509777D01*
X176693Y511440D01*
X173620Y514513D01*
X171957Y518527D01*
X171957Y522873D01*
X173620Y526887D01*
X176693Y529960D01*
X180707Y531623D01*
X185053Y531623D01*
X189067Y529960D01*
X192140Y526887D01*
X193803Y522873D01*
X193803Y518527D01*
X192140Y514513D01*
X189067Y511440D01*
X185053Y509777D01*
X180707Y509777D01*
G37*
%LPD*%
%LPC*%
G36*
X251827Y177799D02*
X251827Y177799D01*
X247813Y179462D01*
X244740Y182535D01*
X243077Y186549D01*
X243077Y190895D01*
X244740Y194909D01*
X247813Y197982D01*
X251827Y199645D01*
X256173Y199645D01*
X260187Y197982D01*
X263260Y194909D01*
X264923Y190895D01*
X264923Y186549D01*
X263260Y182535D01*
X260187Y179462D01*
X256173Y177799D01*
X251827Y177799D01*
G37*
%LPD*%
%LPC*%
G36*
X268223Y501023D02*
X268223Y501023D01*
X268223Y511703D01*
X269578Y511488D01*
X271418Y510890D01*
X273142Y510012D01*
X274707Y508875D01*
X276075Y507507D01*
X277212Y505942D01*
X278090Y504218D01*
X278688Y502378D01*
X278903Y501023D01*
X268223Y501023D01*
G37*
%LPD*%
%LPC*%
G36*
X268223Y497977D02*
X268223Y497977D01*
X278903Y497977D01*
X278688Y496622D01*
X278090Y494782D01*
X277212Y493058D01*
X276075Y491493D01*
X274707Y490125D01*
X273142Y488988D01*
X271418Y488110D01*
X269578Y487512D01*
X268223Y487297D01*
X268223Y497977D01*
G37*
%LPD*%
%LPC*%
G36*
X254497Y501023D02*
X254497Y501023D01*
X254712Y502378D01*
X255310Y504218D01*
X256188Y505942D01*
X257325Y507507D01*
X258693Y508875D01*
X260258Y510012D01*
X261982Y510890D01*
X263822Y511488D01*
X265177Y511703D01*
X265177Y501023D01*
X254497Y501023D01*
G37*
%LPD*%
%LPC*%
G36*
X263822Y487512D02*
X263822Y487512D01*
X261982Y488110D01*
X260258Y488988D01*
X258693Y490125D01*
X257325Y491493D01*
X256188Y493058D01*
X255310Y494782D01*
X254712Y496622D01*
X254497Y497977D01*
X265177Y497977D01*
X265177Y487297D01*
X263822Y487512D01*
G37*
%LPD*%
%LPC*%
G36*
X343153Y520953D02*
X343153Y520953D01*
X343153Y531276D01*
X344426Y531075D01*
X346213Y530494D01*
X347887Y529641D01*
X349408Y528536D01*
X350736Y527208D01*
X351841Y525687D01*
X352694Y524013D01*
X353275Y522226D01*
X353476Y520953D01*
X343153Y520953D01*
G37*
%LPD*%
%LPC*%
G36*
X159003Y522223D02*
X159003Y522223D01*
X159003Y532546D01*
X160276Y532345D01*
X162063Y531764D01*
X163737Y530911D01*
X165258Y529806D01*
X166586Y528478D01*
X167691Y526957D01*
X168544Y525283D01*
X169125Y523496D01*
X169326Y522223D01*
X159003Y522223D01*
G37*
%LPD*%
%LPC*%
G36*
X255523Y219201D02*
X255523Y219201D01*
X255523Y229524D01*
X256796Y229323D01*
X258583Y228742D01*
X260257Y227889D01*
X261778Y226784D01*
X263106Y225456D01*
X264211Y223935D01*
X265064Y222261D01*
X265645Y220474D01*
X265846Y219201D01*
X255523Y219201D01*
G37*
%LPD*%
%LPC*%
G36*
X293623Y39623D02*
X293623Y39623D01*
X293623Y49946D01*
X294896Y49745D01*
X296683Y49164D01*
X298357Y48311D01*
X299878Y47206D01*
X301206Y45878D01*
X302311Y44357D01*
X303164Y42683D01*
X303745Y40896D01*
X303946Y39623D01*
X293623Y39623D01*
G37*
%LPD*%
%LPC*%
G36*
X242823Y39623D02*
X242823Y39623D01*
X242823Y49946D01*
X244096Y49745D01*
X245883Y49164D01*
X247557Y48311D01*
X249078Y47206D01*
X250406Y45878D01*
X251511Y44357D01*
X252364Y42683D01*
X252945Y40896D01*
X253146Y39623D01*
X242823Y39623D01*
G37*
%LPD*%
%LPC*%
G36*
X280254Y39623D02*
X280254Y39623D01*
X280455Y40896D01*
X281036Y42683D01*
X281889Y44357D01*
X282994Y45878D01*
X284322Y47206D01*
X285843Y48311D01*
X287517Y49164D01*
X289304Y49745D01*
X290577Y49946D01*
X290577Y39623D01*
X280254Y39623D01*
G37*
%LPD*%
%LPC*%
G36*
X229454Y39623D02*
X229454Y39623D01*
X229655Y40896D01*
X230236Y42683D01*
X231089Y44357D01*
X232194Y45878D01*
X233522Y47206D01*
X235043Y48311D01*
X236717Y49164D01*
X238504Y49745D01*
X239777Y49946D01*
X239777Y39623D01*
X229454Y39623D01*
G37*
%LPD*%
%LPC*%
G36*
X242823Y36577D02*
X242823Y36577D01*
X253146Y36577D01*
X252945Y35304D01*
X252364Y33517D01*
X251511Y31843D01*
X250406Y30322D01*
X249078Y28994D01*
X247557Y27889D01*
X245883Y27036D01*
X244096Y26455D01*
X242823Y26254D01*
X242823Y36577D01*
G37*
%LPD*%
%LPC*%
G36*
X293623Y36577D02*
X293623Y36577D01*
X303946Y36577D01*
X303745Y35304D01*
X303164Y33517D01*
X302311Y31843D01*
X301206Y30322D01*
X299878Y28994D01*
X298357Y27889D01*
X296683Y27036D01*
X294896Y26455D01*
X293623Y26254D01*
X293623Y36577D01*
G37*
%LPD*%
%LPC*%
G36*
X329784Y520953D02*
X329784Y520953D01*
X329985Y522226D01*
X330566Y524013D01*
X331419Y525687D01*
X332524Y527208D01*
X333852Y528536D01*
X335373Y529641D01*
X337047Y530494D01*
X338834Y531075D01*
X340107Y531276D01*
X340107Y520953D01*
X329784Y520953D01*
G37*
%LPD*%
%LPC*%
G36*
X255523Y216155D02*
X255523Y216155D01*
X265846Y216155D01*
X265645Y214882D01*
X265064Y213095D01*
X264211Y211421D01*
X263106Y209900D01*
X261778Y208572D01*
X260257Y207467D01*
X258583Y206614D01*
X256796Y206033D01*
X255523Y205832D01*
X255523Y216155D01*
G37*
%LPD*%
%LPC*%
G36*
X145634Y522223D02*
X145634Y522223D01*
X145835Y523496D01*
X146416Y525283D01*
X147269Y526957D01*
X148374Y528478D01*
X149702Y529806D01*
X151223Y530911D01*
X152897Y531764D01*
X154684Y532345D01*
X155957Y532546D01*
X155957Y522223D01*
X145634Y522223D01*
G37*
%LPD*%
%LPC*%
G36*
X242154Y219201D02*
X242154Y219201D01*
X242355Y220474D01*
X242936Y222261D01*
X243789Y223935D01*
X244894Y225456D01*
X246222Y226784D01*
X247743Y227889D01*
X249417Y228742D01*
X251204Y229323D01*
X252477Y229524D01*
X252477Y219201D01*
X242154Y219201D01*
G37*
%LPD*%
%LPC*%
G36*
X343153Y517907D02*
X343153Y517907D01*
X353476Y517907D01*
X353275Y516634D01*
X352694Y514847D01*
X351841Y513173D01*
X350736Y511652D01*
X349408Y510324D01*
X347887Y509219D01*
X346213Y508366D01*
X344426Y507785D01*
X343153Y507584D01*
X343153Y517907D01*
G37*
%LPD*%
%LPC*%
G36*
X159003Y519177D02*
X159003Y519177D01*
X169326Y519177D01*
X169125Y517904D01*
X168544Y516117D01*
X167691Y514443D01*
X166586Y512922D01*
X165258Y511594D01*
X163737Y510489D01*
X162063Y509636D01*
X160276Y509055D01*
X159003Y508854D01*
X159003Y519177D01*
G37*
%LPD*%
%LPC*%
G36*
X251204Y206033D02*
X251204Y206033D01*
X249417Y206614D01*
X247743Y207467D01*
X246222Y208572D01*
X244894Y209900D01*
X243789Y211421D01*
X242936Y213095D01*
X242355Y214882D01*
X242154Y216155D01*
X252477Y216155D01*
X252477Y205832D01*
X251204Y206033D01*
G37*
%LPD*%
%LPC*%
G36*
X338834Y507785D02*
X338834Y507785D01*
X337047Y508366D01*
X335373Y509219D01*
X333852Y510324D01*
X332524Y511652D01*
X331419Y513173D01*
X330566Y514847D01*
X329985Y516634D01*
X329784Y517907D01*
X340107Y517907D01*
X340107Y507584D01*
X338834Y507785D01*
G37*
%LPD*%
%LPC*%
G36*
X154684Y509055D02*
X154684Y509055D01*
X152897Y509636D01*
X151223Y510489D01*
X149702Y511594D01*
X148374Y512922D01*
X147269Y514443D01*
X146416Y516117D01*
X145835Y517904D01*
X145634Y519177D01*
X155957Y519177D01*
X155957Y508854D01*
X154684Y509055D01*
G37*
%LPD*%
%LPC*%
G36*
X238504Y26455D02*
X238504Y26455D01*
X236717Y27036D01*
X235043Y27889D01*
X233522Y28994D01*
X232194Y30322D01*
X231089Y31843D01*
X230236Y33517D01*
X229655Y35304D01*
X229454Y36577D01*
X239777Y36577D01*
X239777Y26254D01*
X238504Y26455D01*
G37*
%LPD*%
%LPC*%
G36*
X289304Y26455D02*
X289304Y26455D01*
X287517Y27036D01*
X285843Y27889D01*
X284322Y28994D01*
X282994Y30322D01*
X281889Y31843D01*
X281036Y33517D01*
X280455Y35304D01*
X280254Y36577D01*
X290577Y36577D01*
X290577Y26254D01*
X289304Y26455D01*
G37*
%LPD*%
%LPC*%
G36*
X253999Y217677D02*
X253999Y217677D01*
X253999Y217679D01*
X254001Y217679D01*
X254001Y217677D01*
X253999Y217677D01*
G37*
%LPD*%
%LPC*%
G36*
X266699Y499499D02*
X266699Y499499D01*
X266699Y499501D01*
X266701Y499501D01*
X266701Y499499D01*
X266699Y499499D01*
G37*
%LPD*%
%LPC*%
G36*
X292099Y38099D02*
X292099Y38099D01*
X292099Y38101D01*
X292101Y38101D01*
X292101Y38099D01*
X292099Y38099D01*
G37*
%LPD*%
%LPC*%
G36*
X241299Y38099D02*
X241299Y38099D01*
X241299Y38101D01*
X241301Y38101D01*
X241301Y38099D01*
X241299Y38099D01*
G37*
%LPD*%
%LPC*%
G36*
X341629Y519429D02*
X341629Y519429D01*
X341629Y519431D01*
X341631Y519431D01*
X341631Y519429D01*
X341629Y519429D01*
G37*
%LPD*%
%LPC*%
G36*
X157479Y520699D02*
X157479Y520699D01*
X157479Y520701D01*
X157481Y520701D01*
X157481Y520699D01*
X157479Y520699D01*
G37*
%LPD*%
D10*
X341630Y519430D03*
X367030Y519430D03*
X157480Y520700D03*
X182880Y520700D03*
X254000Y217678D03*
X254000Y188722D03*
X279400Y217678D03*
X279400Y188722D03*
X292100Y114300D03*
X292100Y38100D03*
X241300Y114300D03*
X241300Y38100D03*
D11*
X266700Y299500D03*
X266700Y499500D03*
D12*
X279400Y217678D02*
X304800Y190500D01*
X304800Y127000D01*
X292100Y114300D01*
X241300Y114300D02*
X279400Y188722D01*
M02*
