G04 EAGLE Gerber X2 export*
G75*
%MOMM*%
%FSLAX34Y34*%
%LPD*%
%AMOC8*
5,1,8,0,0,1.08239X$1,22.5*%
G01*
%ADD10C,0.254000*%


D10*
X203200Y29828D02*
X203314Y27229D01*
X203653Y24649D01*
X204216Y22108D01*
X204999Y19627D01*
X205995Y17222D01*
X207196Y14914D01*
X208594Y12720D01*
X210179Y10655D01*
X211937Y8737D01*
X213855Y6979D01*
X215920Y5394D01*
X218114Y3996D01*
X220422Y2795D01*
X222827Y1799D01*
X225308Y1016D01*
X227849Y453D01*
X230429Y114D01*
X233028Y0D01*
X299848Y0D01*
X302493Y116D01*
X305118Y461D01*
X307703Y1034D01*
X310229Y1830D01*
X312675Y2844D01*
X315024Y4066D01*
X317257Y5489D01*
X319358Y7101D01*
X321310Y8890D01*
X323099Y10842D01*
X324711Y12943D01*
X326134Y15176D01*
X327356Y17525D01*
X328370Y19971D01*
X329166Y22497D01*
X329739Y25082D01*
X330085Y27707D01*
X330200Y30352D01*
X330200Y266700D01*
X351864Y275536D01*
X372676Y286227D01*
X392476Y298690D01*
X411115Y312832D01*
X428451Y328545D01*
X444351Y345709D01*
X458694Y364193D01*
X471372Y383857D01*
X482288Y404551D01*
X491359Y426118D01*
X498516Y448393D01*
X503704Y471207D01*
X506883Y494387D01*
X508031Y517756D01*
X507137Y541135D01*
X504210Y564348D01*
X499270Y587217D01*
X492356Y609569D01*
X483520Y631233D01*
X472829Y652045D01*
X460365Y671845D01*
X446223Y690484D01*
X430511Y707820D01*
X413347Y723720D01*
X394863Y738063D01*
X375199Y750741D01*
X354505Y761657D01*
X332938Y770728D01*
X310662Y777885D01*
X287848Y783073D01*
X264669Y786252D01*
X241300Y787400D01*
X218418Y784056D01*
X195915Y778730D01*
X173962Y771463D01*
X152726Y762311D01*
X132368Y751342D01*
X113044Y738641D01*
X94900Y724304D01*
X78074Y708441D01*
X62696Y691171D01*
X48881Y672626D01*
X36735Y652949D01*
X26350Y632287D01*
X17805Y610799D01*
X11166Y588648D01*
X6482Y566002D01*
X3790Y543035D01*
X3110Y519920D01*
X4448Y496834D01*
X7792Y473953D01*
X13118Y451450D01*
X20384Y429496D01*
X29537Y408260D01*
X40505Y387902D01*
X53206Y368578D01*
X67543Y350434D01*
X83407Y333609D01*
X100677Y318230D01*
X119221Y304415D01*
X138899Y292269D01*
X159561Y281884D01*
X181049Y273339D01*
X203200Y266700D01*
X203200Y29828D01*
X266700Y748801D02*
X266622Y747806D01*
X266466Y746820D01*
X266233Y745850D01*
X265924Y744901D01*
X265542Y743979D01*
X265089Y743090D01*
X264568Y742239D01*
X263981Y741431D01*
X263333Y740673D01*
X262627Y739967D01*
X261869Y739319D01*
X261061Y738732D01*
X260210Y738211D01*
X259321Y737758D01*
X258399Y737376D01*
X257450Y737067D01*
X256480Y736834D01*
X255494Y736678D01*
X254499Y736600D01*
X253501Y736600D01*
X252506Y736678D01*
X251520Y736834D01*
X250550Y737067D01*
X249601Y737376D01*
X248679Y737758D01*
X247790Y738211D01*
X246939Y738732D01*
X246131Y739319D01*
X245373Y739967D01*
X244667Y740673D01*
X244019Y741431D01*
X243432Y742239D01*
X242911Y743090D01*
X242458Y743979D01*
X242076Y744901D01*
X241767Y745850D01*
X241534Y746820D01*
X241378Y747806D01*
X241300Y748801D01*
X241300Y749799D01*
X241378Y750794D01*
X241534Y751780D01*
X241767Y752750D01*
X242076Y753699D01*
X242458Y754621D01*
X242911Y755510D01*
X243432Y756361D01*
X244019Y757169D01*
X244667Y757927D01*
X245373Y758633D01*
X246131Y759281D01*
X246939Y759868D01*
X247790Y760389D01*
X248679Y760842D01*
X249601Y761224D01*
X250550Y761533D01*
X251520Y761766D01*
X252506Y761922D01*
X253501Y762000D01*
X254499Y762000D01*
X255494Y761922D01*
X256480Y761766D01*
X257450Y761533D01*
X258399Y761224D01*
X259321Y760842D01*
X260210Y760389D01*
X261061Y759868D01*
X261869Y759281D01*
X262627Y758633D01*
X263333Y757927D01*
X263981Y757169D01*
X264568Y756361D01*
X265089Y755510D01*
X265542Y754621D01*
X265924Y753699D01*
X266233Y752750D01*
X266466Y751780D01*
X266622Y750794D01*
X266700Y749799D01*
X266700Y748801D01*
X266700Y748801D02*
X266622Y747806D01*
X266466Y746820D01*
X266233Y745850D01*
X265924Y744901D01*
X265542Y743979D01*
X265089Y743090D01*
X264568Y742239D01*
X263981Y741431D01*
X263333Y740673D01*
X262627Y739967D01*
X261869Y739319D01*
X261061Y738732D01*
X260210Y738211D01*
X259321Y737758D01*
X258399Y737376D01*
X257450Y737067D01*
X256480Y736834D01*
X255494Y736678D01*
X254499Y736600D01*
X253501Y736600D01*
X252506Y736678D01*
X251520Y736834D01*
X250550Y737067D01*
X249601Y737376D01*
X248679Y737758D01*
X247790Y738211D01*
X246939Y738732D01*
X246131Y739319D01*
X245373Y739967D01*
X244667Y740673D01*
X244019Y741431D01*
X243432Y742239D01*
X242911Y743090D01*
X242458Y743979D01*
X242076Y744901D01*
X241767Y745850D01*
X241534Y746820D01*
X241378Y747806D01*
X241300Y748801D01*
X241300Y749799D01*
X241378Y750794D01*
X241534Y751780D01*
X241767Y752750D01*
X242076Y753699D01*
X242458Y754621D01*
X242911Y755510D01*
X243432Y756361D01*
X244019Y757169D01*
X244667Y757927D01*
X245373Y758633D01*
X246131Y759281D01*
X246939Y759868D01*
X247790Y760389D01*
X248679Y760842D01*
X249601Y761224D01*
X250550Y761533D01*
X251520Y761766D01*
X252506Y761922D01*
X253501Y762000D01*
X254499Y762000D01*
X255494Y761922D01*
X256480Y761766D01*
X257450Y761533D01*
X258399Y761224D01*
X259321Y760842D01*
X260210Y760389D01*
X261061Y759868D01*
X261869Y759281D01*
X262627Y758633D01*
X263333Y757927D01*
X263981Y757169D01*
X264568Y756361D01*
X265089Y755510D01*
X265542Y754621D01*
X265924Y753699D01*
X266233Y752750D01*
X266466Y751780D01*
X266622Y750794D01*
X266700Y749799D01*
X266700Y748801D01*
M02*
