G04 EAGLE Gerber X2 export*
G75*
%MOMM*%
%FSLAX34Y34*%
%LPD*%
%AMOC8*
5,1,8,0,0,1.08239X$1,22.5*%
G01*
%ADD10C,2.743200*%
%ADD11C,0.101600*%
%ADD12R,6.273200X6.273200*%
%ADD13C,2.082800*%


D10*
X238760Y457200D03*
D11*
X289870Y153120D02*
X291818Y153120D01*
X291818Y153119D02*
X291905Y153117D01*
X291993Y153111D01*
X292079Y153101D01*
X292166Y153088D01*
X292251Y153070D01*
X292336Y153049D01*
X292420Y153024D01*
X292502Y152995D01*
X292583Y152962D01*
X292663Y152926D01*
X292741Y152887D01*
X292817Y152843D01*
X292891Y152797D01*
X292962Y152747D01*
X293032Y152694D01*
X293099Y152638D01*
X293163Y152579D01*
X293225Y152517D01*
X293284Y152453D01*
X293340Y152386D01*
X293393Y152316D01*
X293443Y152245D01*
X293489Y152171D01*
X293533Y152095D01*
X293572Y152017D01*
X293608Y151937D01*
X293641Y151856D01*
X293670Y151774D01*
X293695Y151690D01*
X293716Y151605D01*
X293734Y151520D01*
X293747Y151433D01*
X293757Y151347D01*
X293763Y151259D01*
X293765Y151172D01*
X293765Y147278D01*
X293763Y147191D01*
X293757Y147103D01*
X293747Y147017D01*
X293734Y146930D01*
X293716Y146845D01*
X293695Y146760D01*
X293670Y146676D01*
X293641Y146594D01*
X293608Y146513D01*
X293572Y146433D01*
X293533Y146355D01*
X293489Y146279D01*
X293443Y146205D01*
X293393Y146134D01*
X293340Y146064D01*
X293284Y145997D01*
X293225Y145933D01*
X293163Y145871D01*
X293099Y145812D01*
X293032Y145756D01*
X292962Y145703D01*
X292891Y145653D01*
X292817Y145607D01*
X292741Y145563D01*
X292663Y145524D01*
X292583Y145488D01*
X292502Y145455D01*
X292420Y145426D01*
X292336Y145401D01*
X292251Y145380D01*
X292166Y145362D01*
X292079Y145349D01*
X291993Y145339D01*
X291905Y145333D01*
X291818Y145331D01*
X291731Y145333D01*
X291643Y145339D01*
X291557Y145349D01*
X291470Y145362D01*
X291385Y145380D01*
X291300Y145401D01*
X291216Y145426D01*
X291134Y145455D01*
X291053Y145488D01*
X290973Y145524D01*
X290895Y145563D01*
X290819Y145607D01*
X290745Y145653D01*
X290674Y145703D01*
X290604Y145756D01*
X290537Y145812D01*
X290473Y145871D01*
X290411Y145933D01*
X290352Y145997D01*
X290296Y146064D01*
X290243Y146134D01*
X290193Y146205D01*
X290147Y146279D01*
X290103Y146355D01*
X290064Y146433D01*
X290028Y146513D01*
X289995Y146594D01*
X289966Y146676D01*
X289941Y146760D01*
X289920Y146845D01*
X289902Y146930D01*
X289889Y147017D01*
X289879Y147103D01*
X289873Y147191D01*
X289871Y147278D01*
X289870Y146953D02*
X289870Y153120D01*
X289871Y146953D02*
X289869Y146873D01*
X289863Y146794D01*
X289853Y146715D01*
X289840Y146636D01*
X289822Y146559D01*
X289801Y146482D01*
X289776Y146406D01*
X289747Y146332D01*
X289715Y146259D01*
X289679Y146188D01*
X289640Y146119D01*
X289597Y146051D01*
X289552Y145986D01*
X289503Y145923D01*
X289451Y145863D01*
X289396Y145805D01*
X289338Y145750D01*
X289278Y145698D01*
X289215Y145649D01*
X289150Y145604D01*
X289082Y145561D01*
X289013Y145522D01*
X288942Y145486D01*
X288869Y145454D01*
X288795Y145425D01*
X288719Y145400D01*
X288642Y145379D01*
X288565Y145361D01*
X288486Y145348D01*
X288407Y145338D01*
X288328Y145332D01*
X288248Y145330D01*
X288168Y145332D01*
X288089Y145338D01*
X288010Y145348D01*
X287931Y145361D01*
X287854Y145379D01*
X287777Y145400D01*
X287701Y145425D01*
X287627Y145454D01*
X287554Y145486D01*
X287483Y145522D01*
X287414Y145561D01*
X287346Y145604D01*
X287281Y145649D01*
X287218Y145698D01*
X287158Y145750D01*
X287100Y145805D01*
X287045Y145863D01*
X286993Y145923D01*
X286944Y145986D01*
X286899Y146051D01*
X286856Y146119D01*
X286817Y146188D01*
X286781Y146259D01*
X286749Y146332D01*
X286720Y146406D01*
X286695Y146482D01*
X286674Y146559D01*
X286656Y146636D01*
X286643Y146715D01*
X286633Y146794D01*
X286627Y146873D01*
X286625Y146953D01*
X286625Y151821D01*
X286627Y151964D01*
X286633Y152107D01*
X286643Y152250D01*
X286657Y152392D01*
X286674Y152534D01*
X286696Y152676D01*
X286721Y152817D01*
X286751Y152957D01*
X286784Y153096D01*
X286821Y153234D01*
X286862Y153371D01*
X286906Y153507D01*
X286955Y153642D01*
X287007Y153775D01*
X287062Y153907D01*
X287122Y154037D01*
X287185Y154166D01*
X287251Y154293D01*
X287321Y154418D01*
X287394Y154540D01*
X287471Y154661D01*
X287551Y154780D01*
X287634Y154896D01*
X287720Y155011D01*
X287809Y155122D01*
X287902Y155232D01*
X287997Y155338D01*
X288096Y155442D01*
X288197Y155543D01*
X288301Y155642D01*
X288407Y155737D01*
X288517Y155830D01*
X288628Y155919D01*
X288743Y156005D01*
X288859Y156088D01*
X288978Y156168D01*
X289099Y156245D01*
X289222Y156318D01*
X289346Y156388D01*
X289473Y156454D01*
X289602Y156517D01*
X289732Y156577D01*
X289864Y156632D01*
X289997Y156684D01*
X290132Y156733D01*
X290268Y156777D01*
X290405Y156818D01*
X290543Y156855D01*
X290682Y156888D01*
X290822Y156918D01*
X290963Y156943D01*
X291105Y156965D01*
X291247Y156982D01*
X291389Y156996D01*
X291532Y157006D01*
X291675Y157012D01*
X291818Y157014D01*
X291961Y157012D01*
X292104Y157006D01*
X292247Y156996D01*
X292389Y156982D01*
X292531Y156965D01*
X292673Y156943D01*
X292814Y156918D01*
X292954Y156888D01*
X293093Y156855D01*
X293231Y156818D01*
X293368Y156777D01*
X293504Y156733D01*
X293639Y156684D01*
X293772Y156632D01*
X293904Y156577D01*
X294034Y156517D01*
X294163Y156454D01*
X294290Y156388D01*
X294415Y156318D01*
X294537Y156245D01*
X294658Y156168D01*
X294777Y156088D01*
X294893Y156005D01*
X295008Y155919D01*
X295119Y155830D01*
X295229Y155737D01*
X295335Y155642D01*
X295439Y155543D01*
X295540Y155442D01*
X295639Y155338D01*
X295734Y155232D01*
X295827Y155122D01*
X295916Y155011D01*
X296002Y154896D01*
X296085Y154780D01*
X296165Y154661D01*
X296242Y154540D01*
X296315Y154418D01*
X296385Y154293D01*
X296451Y154166D01*
X296514Y154037D01*
X296574Y153907D01*
X296629Y153775D01*
X296681Y153642D01*
X296730Y153507D01*
X296774Y153371D01*
X296815Y153234D01*
X296852Y153096D01*
X296885Y152957D01*
X296915Y152817D01*
X296940Y152676D01*
X296962Y152534D01*
X296979Y152392D01*
X296993Y152250D01*
X297003Y152107D01*
X297009Y151964D01*
X297011Y151821D01*
X297011Y146304D01*
X297009Y146166D01*
X297003Y146028D01*
X296993Y145890D01*
X296980Y145752D01*
X296962Y145615D01*
X296941Y145478D01*
X296915Y145342D01*
X296886Y145207D01*
X296853Y145073D01*
X296816Y144940D01*
X296776Y144807D01*
X296732Y144676D01*
X296684Y144547D01*
X296632Y144418D01*
X296577Y144292D01*
X296518Y144166D01*
X296456Y144043D01*
X296390Y143921D01*
X296321Y143802D01*
X296248Y143684D01*
X296172Y143568D01*
X296093Y143455D01*
X296011Y143344D01*
X295925Y143235D01*
X295837Y143129D01*
X295745Y143025D01*
X295651Y142924D01*
X295554Y142826D01*
X295454Y142730D01*
X295351Y142637D01*
X295246Y142548D01*
X295138Y142461D01*
X295028Y142377D01*
X294916Y142297D01*
X294801Y142219D01*
X294684Y142145D01*
X294566Y142075D01*
X294445Y142007D01*
X294322Y141944D01*
X294198Y141883D01*
X294072Y141826D01*
X293944Y141773D01*
X293815Y141724D01*
X293684Y141678D01*
X293553Y141636D01*
X293420Y141597D01*
X293286Y141563D01*
X293151Y141532D01*
X293016Y141505D01*
X292879Y141482D01*
X292742Y141462D01*
X292605Y141447D01*
X292467Y141436D01*
X280106Y147927D02*
X276860Y146629D01*
X280105Y147926D02*
X280180Y147959D01*
X280254Y147995D01*
X280326Y148034D01*
X280396Y148077D01*
X280463Y148123D01*
X280529Y148173D01*
X280591Y148225D01*
X280652Y148281D01*
X280709Y148339D01*
X280764Y148400D01*
X280815Y148464D01*
X280863Y148530D01*
X280908Y148599D01*
X280950Y148669D01*
X280988Y148742D01*
X281023Y148816D01*
X281054Y148892D01*
X281081Y148969D01*
X281104Y149048D01*
X281124Y149127D01*
X281139Y149208D01*
X281151Y149289D01*
X281159Y149371D01*
X281163Y149452D01*
X281162Y149534D01*
X281158Y149616D01*
X281150Y149698D01*
X281138Y149779D01*
X281122Y149859D01*
X281102Y149939D01*
X281078Y150017D01*
X281050Y150094D01*
X281019Y150170D01*
X280984Y150244D01*
X280946Y150316D01*
X280904Y150387D01*
X280858Y150455D01*
X280810Y150521D01*
X280758Y150584D01*
X280703Y150645D01*
X280645Y150703D01*
X280585Y150759D01*
X280522Y150811D01*
X280456Y150860D01*
X280388Y150906D01*
X280318Y150948D01*
X280246Y150988D01*
X280172Y151023D01*
X280097Y151055D01*
X280020Y151083D01*
X279942Y151107D01*
X279862Y151128D01*
X279782Y151145D01*
X279701Y151157D01*
X279620Y151166D01*
X279538Y151171D01*
X279456Y151172D01*
X279457Y151172D02*
X279280Y151168D01*
X279103Y151159D01*
X278926Y151145D01*
X278749Y151128D01*
X278574Y151106D01*
X278398Y151081D01*
X278224Y151050D01*
X278050Y151016D01*
X277877Y150978D01*
X277705Y150935D01*
X277534Y150888D01*
X277364Y150838D01*
X277195Y150783D01*
X277028Y150724D01*
X276863Y150661D01*
X276698Y150594D01*
X276536Y150523D01*
X276860Y146629D02*
X276785Y146596D01*
X276711Y146560D01*
X276639Y146521D01*
X276569Y146478D01*
X276502Y146432D01*
X276436Y146382D01*
X276374Y146330D01*
X276313Y146274D01*
X276256Y146216D01*
X276201Y146155D01*
X276150Y146091D01*
X276102Y146025D01*
X276057Y145956D01*
X276015Y145886D01*
X275977Y145813D01*
X275942Y145739D01*
X275911Y145663D01*
X275884Y145586D01*
X275861Y145507D01*
X275841Y145428D01*
X275826Y145347D01*
X275814Y145266D01*
X275806Y145184D01*
X275802Y145103D01*
X275803Y145021D01*
X275807Y144939D01*
X275815Y144857D01*
X275827Y144776D01*
X275843Y144696D01*
X275863Y144616D01*
X275887Y144538D01*
X275915Y144461D01*
X275946Y144385D01*
X275981Y144311D01*
X276019Y144239D01*
X276061Y144168D01*
X276107Y144100D01*
X276155Y144034D01*
X276207Y143971D01*
X276262Y143910D01*
X276320Y143852D01*
X276380Y143796D01*
X276443Y143744D01*
X276509Y143695D01*
X276577Y143649D01*
X276647Y143607D01*
X276719Y143567D01*
X276793Y143532D01*
X276868Y143500D01*
X276945Y143472D01*
X277023Y143448D01*
X277103Y143427D01*
X277183Y143410D01*
X277264Y143398D01*
X277345Y143389D01*
X277427Y143384D01*
X277509Y143383D01*
X277769Y143390D01*
X278029Y143403D01*
X278289Y143422D01*
X278548Y143447D01*
X278807Y143479D01*
X279064Y143516D01*
X279321Y143560D01*
X279577Y143609D01*
X279831Y143665D01*
X280084Y143726D01*
X280335Y143794D01*
X280585Y143868D01*
X280833Y143947D01*
X281079Y144032D01*
X269226Y143383D02*
X265980Y143383D01*
X269226Y143383D02*
X269313Y143385D01*
X269401Y143391D01*
X269487Y143401D01*
X269574Y143414D01*
X269659Y143432D01*
X269744Y143453D01*
X269828Y143478D01*
X269910Y143507D01*
X269991Y143540D01*
X270071Y143576D01*
X270149Y143615D01*
X270225Y143659D01*
X270299Y143705D01*
X270370Y143755D01*
X270440Y143808D01*
X270507Y143864D01*
X270571Y143923D01*
X270633Y143985D01*
X270692Y144049D01*
X270748Y144116D01*
X270801Y144186D01*
X270851Y144257D01*
X270897Y144331D01*
X270941Y144407D01*
X270980Y144485D01*
X271016Y144565D01*
X271049Y144646D01*
X271078Y144728D01*
X271103Y144812D01*
X271124Y144897D01*
X271142Y144982D01*
X271155Y145069D01*
X271165Y145155D01*
X271171Y145243D01*
X271173Y145330D01*
X271173Y148576D01*
X271171Y148677D01*
X271165Y148777D01*
X271155Y148877D01*
X271142Y148977D01*
X271124Y149076D01*
X271103Y149175D01*
X271078Y149272D01*
X271049Y149369D01*
X271016Y149464D01*
X270980Y149558D01*
X270940Y149650D01*
X270897Y149741D01*
X270850Y149830D01*
X270800Y149917D01*
X270746Y150003D01*
X270689Y150086D01*
X270629Y150166D01*
X270566Y150245D01*
X270499Y150321D01*
X270430Y150394D01*
X270358Y150464D01*
X270284Y150532D01*
X270207Y150597D01*
X270127Y150658D01*
X270045Y150717D01*
X269961Y150772D01*
X269875Y150824D01*
X269787Y150873D01*
X269697Y150918D01*
X269605Y150960D01*
X269512Y150998D01*
X269417Y151032D01*
X269322Y151063D01*
X269225Y151090D01*
X269127Y151113D01*
X269028Y151133D01*
X268928Y151148D01*
X268828Y151160D01*
X268728Y151168D01*
X268627Y151172D01*
X268527Y151172D01*
X268426Y151168D01*
X268326Y151160D01*
X268226Y151148D01*
X268126Y151133D01*
X268027Y151113D01*
X267929Y151090D01*
X267832Y151063D01*
X267737Y151032D01*
X267642Y150998D01*
X267549Y150960D01*
X267457Y150918D01*
X267367Y150873D01*
X267279Y150824D01*
X267193Y150772D01*
X267109Y150717D01*
X267027Y150658D01*
X266947Y150597D01*
X266870Y150532D01*
X266796Y150464D01*
X266724Y150394D01*
X266655Y150321D01*
X266588Y150245D01*
X266525Y150166D01*
X266465Y150086D01*
X266408Y150003D01*
X266354Y149917D01*
X266304Y149830D01*
X266257Y149741D01*
X266214Y149650D01*
X266174Y149558D01*
X266138Y149464D01*
X266105Y149369D01*
X266076Y149272D01*
X266051Y149175D01*
X266030Y149076D01*
X266012Y148977D01*
X265999Y148877D01*
X265989Y148777D01*
X265983Y148677D01*
X265981Y148576D01*
X265980Y148576D02*
X265980Y147278D01*
X271173Y147278D01*
X259307Y143383D02*
X256710Y143383D01*
X259307Y143383D02*
X259394Y143385D01*
X259482Y143391D01*
X259568Y143401D01*
X259655Y143414D01*
X259740Y143432D01*
X259825Y143453D01*
X259909Y143478D01*
X259991Y143507D01*
X260072Y143540D01*
X260152Y143576D01*
X260230Y143615D01*
X260306Y143659D01*
X260380Y143705D01*
X260451Y143755D01*
X260521Y143808D01*
X260588Y143864D01*
X260652Y143923D01*
X260714Y143985D01*
X260773Y144049D01*
X260829Y144116D01*
X260882Y144186D01*
X260932Y144257D01*
X260978Y144331D01*
X261022Y144407D01*
X261061Y144485D01*
X261097Y144565D01*
X261130Y144646D01*
X261159Y144728D01*
X261184Y144812D01*
X261205Y144897D01*
X261223Y144982D01*
X261236Y145069D01*
X261246Y145155D01*
X261252Y145243D01*
X261254Y145330D01*
X261254Y149225D01*
X261252Y149312D01*
X261246Y149400D01*
X261236Y149486D01*
X261223Y149573D01*
X261205Y149658D01*
X261184Y149743D01*
X261159Y149827D01*
X261130Y149909D01*
X261097Y149990D01*
X261061Y150070D01*
X261022Y150148D01*
X260978Y150224D01*
X260932Y150298D01*
X260882Y150369D01*
X260829Y150439D01*
X260773Y150506D01*
X260714Y150570D01*
X260652Y150632D01*
X260588Y150691D01*
X260521Y150747D01*
X260451Y150800D01*
X260380Y150850D01*
X260306Y150896D01*
X260230Y150940D01*
X260152Y150979D01*
X260072Y151015D01*
X259991Y151048D01*
X259909Y151077D01*
X259825Y151102D01*
X259740Y151123D01*
X259655Y151141D01*
X259568Y151154D01*
X259482Y151164D01*
X259394Y151170D01*
X259307Y151172D01*
X256710Y151172D01*
X252123Y151172D02*
X252123Y145330D01*
X252121Y145243D01*
X252115Y145155D01*
X252105Y145069D01*
X252092Y144982D01*
X252074Y144897D01*
X252053Y144812D01*
X252028Y144728D01*
X251999Y144646D01*
X251966Y144565D01*
X251930Y144485D01*
X251891Y144407D01*
X251847Y144331D01*
X251801Y144257D01*
X251751Y144186D01*
X251698Y144116D01*
X251642Y144049D01*
X251583Y143985D01*
X251521Y143923D01*
X251457Y143864D01*
X251390Y143808D01*
X251320Y143755D01*
X251249Y143705D01*
X251175Y143659D01*
X251099Y143615D01*
X251021Y143576D01*
X250941Y143540D01*
X250860Y143507D01*
X250778Y143478D01*
X250694Y143453D01*
X250609Y143432D01*
X250524Y143414D01*
X250437Y143401D01*
X250351Y143391D01*
X250263Y143385D01*
X250176Y143383D01*
X246930Y143383D01*
X246930Y151172D01*
X241389Y151172D02*
X241389Y143383D01*
X241389Y151172D02*
X237494Y151172D01*
X237494Y149874D01*
X231888Y143383D02*
X228642Y143383D01*
X231888Y143383D02*
X231975Y143385D01*
X232063Y143391D01*
X232149Y143401D01*
X232236Y143414D01*
X232321Y143432D01*
X232406Y143453D01*
X232490Y143478D01*
X232572Y143507D01*
X232653Y143540D01*
X232733Y143576D01*
X232811Y143615D01*
X232887Y143659D01*
X232961Y143705D01*
X233032Y143755D01*
X233102Y143808D01*
X233169Y143864D01*
X233233Y143923D01*
X233295Y143985D01*
X233354Y144049D01*
X233410Y144116D01*
X233463Y144186D01*
X233513Y144257D01*
X233559Y144331D01*
X233603Y144407D01*
X233642Y144485D01*
X233678Y144565D01*
X233711Y144646D01*
X233740Y144728D01*
X233765Y144812D01*
X233786Y144897D01*
X233804Y144982D01*
X233817Y145069D01*
X233827Y145155D01*
X233833Y145243D01*
X233835Y145330D01*
X233835Y148576D01*
X233833Y148677D01*
X233827Y148777D01*
X233817Y148877D01*
X233804Y148977D01*
X233786Y149076D01*
X233765Y149175D01*
X233740Y149272D01*
X233711Y149369D01*
X233678Y149464D01*
X233642Y149558D01*
X233602Y149650D01*
X233559Y149741D01*
X233512Y149830D01*
X233462Y149917D01*
X233408Y150003D01*
X233351Y150086D01*
X233291Y150166D01*
X233228Y150245D01*
X233161Y150321D01*
X233092Y150394D01*
X233020Y150464D01*
X232946Y150532D01*
X232869Y150597D01*
X232789Y150658D01*
X232707Y150717D01*
X232623Y150772D01*
X232537Y150824D01*
X232449Y150873D01*
X232359Y150918D01*
X232267Y150960D01*
X232174Y150998D01*
X232079Y151032D01*
X231984Y151063D01*
X231887Y151090D01*
X231789Y151113D01*
X231690Y151133D01*
X231590Y151148D01*
X231490Y151160D01*
X231390Y151168D01*
X231289Y151172D01*
X231189Y151172D01*
X231088Y151168D01*
X230988Y151160D01*
X230888Y151148D01*
X230788Y151133D01*
X230689Y151113D01*
X230591Y151090D01*
X230494Y151063D01*
X230399Y151032D01*
X230304Y150998D01*
X230211Y150960D01*
X230119Y150918D01*
X230029Y150873D01*
X229941Y150824D01*
X229855Y150772D01*
X229771Y150717D01*
X229689Y150658D01*
X229609Y150597D01*
X229532Y150532D01*
X229458Y150464D01*
X229386Y150394D01*
X229317Y150321D01*
X229250Y150245D01*
X229187Y150166D01*
X229127Y150086D01*
X229070Y150003D01*
X229016Y149917D01*
X228966Y149830D01*
X228919Y149741D01*
X228876Y149650D01*
X228836Y149558D01*
X228800Y149464D01*
X228767Y149369D01*
X228738Y149272D01*
X228713Y149175D01*
X228692Y149076D01*
X228674Y148977D01*
X228661Y148877D01*
X228651Y148777D01*
X228645Y148677D01*
X228643Y148576D01*
X228642Y148576D02*
X228642Y147278D01*
X233835Y147278D01*
X223780Y145330D02*
X223780Y155067D01*
X223779Y145330D02*
X223777Y145243D01*
X223771Y145155D01*
X223761Y145069D01*
X223748Y144982D01*
X223730Y144897D01*
X223709Y144812D01*
X223684Y144728D01*
X223655Y144646D01*
X223622Y144565D01*
X223586Y144485D01*
X223547Y144407D01*
X223503Y144331D01*
X223457Y144257D01*
X223407Y144186D01*
X223354Y144116D01*
X223298Y144049D01*
X223239Y143985D01*
X223177Y143923D01*
X223113Y143864D01*
X223046Y143808D01*
X222976Y143755D01*
X222905Y143705D01*
X222831Y143659D01*
X222755Y143615D01*
X222677Y143576D01*
X222597Y143540D01*
X222516Y143507D01*
X222434Y143478D01*
X222350Y143453D01*
X222265Y143432D01*
X222180Y143414D01*
X222093Y143401D01*
X222007Y143391D01*
X221919Y143385D01*
X221832Y143383D01*
X218214Y139488D02*
X216916Y139488D01*
X213021Y151172D01*
X218214Y151172D02*
X215618Y143383D01*
X208063Y143383D02*
X208063Y153120D01*
X208062Y153120D02*
X208060Y153207D01*
X208054Y153295D01*
X208044Y153381D01*
X208031Y153468D01*
X208013Y153553D01*
X207992Y153638D01*
X207967Y153722D01*
X207938Y153804D01*
X207905Y153885D01*
X207869Y153965D01*
X207830Y154043D01*
X207786Y154119D01*
X207740Y154193D01*
X207690Y154264D01*
X207637Y154334D01*
X207581Y154401D01*
X207522Y154465D01*
X207460Y154527D01*
X207396Y154586D01*
X207329Y154642D01*
X207259Y154695D01*
X207188Y154745D01*
X207114Y154791D01*
X207038Y154835D01*
X206960Y154874D01*
X206880Y154910D01*
X206799Y154943D01*
X206717Y154972D01*
X206633Y154997D01*
X206548Y155018D01*
X206463Y155036D01*
X206376Y155049D01*
X206290Y155059D01*
X206202Y155065D01*
X206115Y155067D01*
X205466Y155067D01*
X205466Y151172D02*
X209361Y151172D01*
X202283Y151172D02*
X202283Y143383D01*
X202607Y154418D02*
X202607Y155067D01*
X201958Y155067D01*
X201958Y154418D01*
X202607Y154418D01*
X198608Y151172D02*
X194713Y151172D01*
X197309Y155067D02*
X197309Y145330D01*
X197307Y145243D01*
X197301Y145155D01*
X197291Y145069D01*
X197278Y144982D01*
X197260Y144897D01*
X197239Y144812D01*
X197214Y144728D01*
X197185Y144646D01*
X197152Y144565D01*
X197116Y144485D01*
X197077Y144407D01*
X197033Y144331D01*
X196987Y144257D01*
X196937Y144186D01*
X196884Y144116D01*
X196828Y144049D01*
X196769Y143985D01*
X196707Y143923D01*
X196643Y143864D01*
X196576Y143808D01*
X196506Y143755D01*
X196435Y143705D01*
X196361Y143659D01*
X196285Y143615D01*
X196207Y143576D01*
X196127Y143540D01*
X196046Y143507D01*
X195964Y143478D01*
X195880Y143453D01*
X195795Y143432D01*
X195710Y143414D01*
X195623Y143401D01*
X195537Y143391D01*
X195449Y143385D01*
X195362Y143383D01*
X194713Y143383D01*
X190782Y151172D02*
X185589Y151172D01*
X190782Y143383D01*
X185589Y143383D01*
X303284Y124333D02*
X306530Y124333D01*
X306617Y124335D01*
X306705Y124341D01*
X306791Y124351D01*
X306878Y124364D01*
X306963Y124382D01*
X307048Y124403D01*
X307132Y124428D01*
X307214Y124457D01*
X307295Y124490D01*
X307375Y124526D01*
X307453Y124565D01*
X307529Y124609D01*
X307603Y124655D01*
X307674Y124705D01*
X307744Y124758D01*
X307811Y124814D01*
X307875Y124873D01*
X307937Y124935D01*
X307996Y124999D01*
X308052Y125066D01*
X308105Y125136D01*
X308155Y125207D01*
X308201Y125281D01*
X308245Y125357D01*
X308284Y125435D01*
X308320Y125515D01*
X308353Y125596D01*
X308382Y125678D01*
X308407Y125762D01*
X308428Y125847D01*
X308446Y125932D01*
X308459Y126019D01*
X308469Y126105D01*
X308475Y126193D01*
X308477Y126280D01*
X308477Y130175D01*
X308475Y130262D01*
X308469Y130350D01*
X308459Y130436D01*
X308446Y130523D01*
X308428Y130608D01*
X308407Y130693D01*
X308382Y130777D01*
X308353Y130859D01*
X308320Y130940D01*
X308284Y131020D01*
X308245Y131098D01*
X308201Y131174D01*
X308155Y131248D01*
X308105Y131319D01*
X308052Y131389D01*
X307996Y131456D01*
X307937Y131520D01*
X307875Y131582D01*
X307811Y131641D01*
X307744Y131697D01*
X307674Y131750D01*
X307603Y131800D01*
X307529Y131846D01*
X307453Y131890D01*
X307375Y131929D01*
X307295Y131965D01*
X307214Y131998D01*
X307132Y132027D01*
X307048Y132052D01*
X306963Y132073D01*
X306878Y132091D01*
X306791Y132104D01*
X306705Y132114D01*
X306617Y132120D01*
X306530Y132122D01*
X303284Y132122D01*
X303284Y122386D01*
X303285Y122386D02*
X303287Y122299D01*
X303293Y122211D01*
X303303Y122125D01*
X303316Y122038D01*
X303334Y121953D01*
X303355Y121868D01*
X303380Y121784D01*
X303409Y121702D01*
X303442Y121621D01*
X303478Y121541D01*
X303517Y121463D01*
X303561Y121387D01*
X303607Y121313D01*
X303657Y121242D01*
X303710Y121172D01*
X303766Y121105D01*
X303825Y121041D01*
X303887Y120979D01*
X303951Y120920D01*
X304018Y120864D01*
X304088Y120811D01*
X304159Y120761D01*
X304233Y120715D01*
X304309Y120671D01*
X304387Y120632D01*
X304467Y120596D01*
X304548Y120563D01*
X304630Y120534D01*
X304714Y120509D01*
X304799Y120488D01*
X304884Y120470D01*
X304971Y120457D01*
X305057Y120447D01*
X305145Y120441D01*
X305232Y120439D01*
X305232Y120438D02*
X307828Y120438D01*
X298202Y124333D02*
X298202Y132122D01*
X298526Y135368D02*
X298526Y136017D01*
X297877Y136017D01*
X297877Y135368D01*
X298526Y135368D01*
X294526Y132122D02*
X290632Y132122D01*
X293228Y136017D02*
X293228Y126280D01*
X293226Y126193D01*
X293220Y126105D01*
X293210Y126019D01*
X293197Y125932D01*
X293179Y125847D01*
X293158Y125762D01*
X293133Y125678D01*
X293104Y125596D01*
X293071Y125515D01*
X293035Y125435D01*
X292996Y125357D01*
X292952Y125281D01*
X292906Y125207D01*
X292856Y125136D01*
X292803Y125066D01*
X292747Y124999D01*
X292688Y124935D01*
X292626Y124873D01*
X292562Y124814D01*
X292495Y124758D01*
X292425Y124705D01*
X292354Y124655D01*
X292280Y124609D01*
X292204Y124565D01*
X292126Y124526D01*
X292046Y124490D01*
X291965Y124457D01*
X291883Y124428D01*
X291799Y124403D01*
X291714Y124382D01*
X291629Y124364D01*
X291542Y124351D01*
X291456Y124341D01*
X291368Y124335D01*
X291281Y124333D01*
X290632Y124333D01*
X286715Y124333D02*
X286715Y124982D01*
X286066Y124982D01*
X286066Y124333D01*
X286715Y124333D01*
X281819Y124333D02*
X281819Y132122D01*
X282143Y135368D02*
X282143Y136017D01*
X281494Y136017D01*
X281494Y135368D01*
X282143Y135368D01*
X277176Y129526D02*
X277176Y126929D01*
X277176Y129526D02*
X277174Y129627D01*
X277168Y129727D01*
X277158Y129827D01*
X277145Y129927D01*
X277127Y130026D01*
X277106Y130125D01*
X277081Y130222D01*
X277052Y130319D01*
X277019Y130414D01*
X276983Y130508D01*
X276943Y130600D01*
X276900Y130691D01*
X276853Y130780D01*
X276803Y130867D01*
X276749Y130953D01*
X276692Y131036D01*
X276632Y131116D01*
X276569Y131195D01*
X276502Y131271D01*
X276433Y131344D01*
X276361Y131414D01*
X276287Y131482D01*
X276210Y131547D01*
X276130Y131608D01*
X276048Y131667D01*
X275964Y131722D01*
X275878Y131774D01*
X275790Y131823D01*
X275700Y131868D01*
X275608Y131910D01*
X275515Y131948D01*
X275420Y131982D01*
X275325Y132013D01*
X275228Y132040D01*
X275130Y132063D01*
X275031Y132083D01*
X274931Y132098D01*
X274831Y132110D01*
X274731Y132118D01*
X274630Y132122D01*
X274530Y132122D01*
X274429Y132118D01*
X274329Y132110D01*
X274229Y132098D01*
X274129Y132083D01*
X274030Y132063D01*
X273932Y132040D01*
X273835Y132013D01*
X273740Y131982D01*
X273645Y131948D01*
X273552Y131910D01*
X273460Y131868D01*
X273370Y131823D01*
X273282Y131774D01*
X273196Y131722D01*
X273112Y131667D01*
X273030Y131608D01*
X272950Y131547D01*
X272873Y131482D01*
X272799Y131414D01*
X272727Y131344D01*
X272658Y131271D01*
X272591Y131195D01*
X272528Y131116D01*
X272468Y131036D01*
X272411Y130953D01*
X272357Y130867D01*
X272307Y130780D01*
X272260Y130691D01*
X272217Y130600D01*
X272177Y130508D01*
X272141Y130414D01*
X272108Y130319D01*
X272079Y130222D01*
X272054Y130125D01*
X272033Y130026D01*
X272015Y129927D01*
X272002Y129827D01*
X271992Y129727D01*
X271986Y129627D01*
X271984Y129526D01*
X271983Y129526D02*
X271983Y126929D01*
X271984Y126929D02*
X271986Y126828D01*
X271992Y126728D01*
X272002Y126628D01*
X272015Y126528D01*
X272033Y126429D01*
X272054Y126330D01*
X272079Y126233D01*
X272108Y126136D01*
X272141Y126041D01*
X272177Y125947D01*
X272217Y125855D01*
X272260Y125764D01*
X272307Y125675D01*
X272357Y125588D01*
X272411Y125502D01*
X272468Y125419D01*
X272528Y125339D01*
X272591Y125260D01*
X272658Y125184D01*
X272727Y125111D01*
X272799Y125041D01*
X272873Y124973D01*
X272950Y124908D01*
X273030Y124847D01*
X273112Y124788D01*
X273196Y124733D01*
X273282Y124681D01*
X273370Y124632D01*
X273460Y124587D01*
X273552Y124545D01*
X273645Y124507D01*
X273740Y124473D01*
X273835Y124442D01*
X273932Y124415D01*
X274030Y124392D01*
X274129Y124372D01*
X274229Y124357D01*
X274329Y124345D01*
X274429Y124337D01*
X274530Y124333D01*
X274630Y124333D01*
X274731Y124337D01*
X274831Y124345D01*
X274931Y124357D01*
X275031Y124372D01*
X275130Y124392D01*
X275228Y124415D01*
X275325Y124442D01*
X275420Y124473D01*
X275515Y124507D01*
X275608Y124545D01*
X275700Y124587D01*
X275790Y124632D01*
X275878Y124681D01*
X275964Y124733D01*
X276048Y124788D01*
X276130Y124847D01*
X276210Y124908D01*
X276287Y124973D01*
X276361Y125041D01*
X276433Y125111D01*
X276502Y125184D01*
X276569Y125260D01*
X276632Y125339D01*
X276692Y125419D01*
X276749Y125502D01*
X276803Y125588D01*
X276853Y125675D01*
X276900Y125764D01*
X276943Y125855D01*
X276983Y125947D01*
X277019Y126041D01*
X277052Y126136D01*
X277081Y126233D01*
X277106Y126330D01*
X277127Y126429D01*
X277145Y126528D01*
X277158Y126628D01*
X277168Y126728D01*
X277174Y126828D01*
X277176Y126929D01*
X267651Y123035D02*
X262458Y137315D01*
X257153Y128877D02*
X253907Y127579D01*
X257153Y128876D02*
X257228Y128909D01*
X257302Y128945D01*
X257374Y128984D01*
X257444Y129027D01*
X257511Y129073D01*
X257577Y129123D01*
X257639Y129175D01*
X257700Y129231D01*
X257757Y129289D01*
X257812Y129350D01*
X257863Y129414D01*
X257911Y129480D01*
X257956Y129549D01*
X257998Y129619D01*
X258036Y129692D01*
X258071Y129766D01*
X258102Y129842D01*
X258129Y129919D01*
X258152Y129998D01*
X258172Y130077D01*
X258187Y130158D01*
X258199Y130239D01*
X258207Y130321D01*
X258211Y130402D01*
X258210Y130484D01*
X258206Y130566D01*
X258198Y130648D01*
X258186Y130729D01*
X258170Y130809D01*
X258150Y130889D01*
X258126Y130967D01*
X258098Y131044D01*
X258067Y131120D01*
X258032Y131194D01*
X257994Y131266D01*
X257952Y131337D01*
X257906Y131405D01*
X257858Y131471D01*
X257806Y131534D01*
X257751Y131595D01*
X257693Y131653D01*
X257633Y131709D01*
X257570Y131761D01*
X257504Y131810D01*
X257436Y131856D01*
X257366Y131898D01*
X257294Y131938D01*
X257220Y131973D01*
X257145Y132005D01*
X257068Y132033D01*
X256990Y132057D01*
X256910Y132078D01*
X256830Y132095D01*
X256749Y132107D01*
X256668Y132116D01*
X256586Y132121D01*
X256504Y132122D01*
X256327Y132118D01*
X256150Y132109D01*
X255973Y132095D01*
X255796Y132078D01*
X255621Y132056D01*
X255445Y132031D01*
X255271Y132000D01*
X255097Y131966D01*
X254924Y131928D01*
X254752Y131885D01*
X254581Y131838D01*
X254411Y131788D01*
X254242Y131733D01*
X254075Y131674D01*
X253910Y131611D01*
X253745Y131544D01*
X253583Y131473D01*
X253907Y127579D02*
X253832Y127546D01*
X253758Y127510D01*
X253686Y127471D01*
X253616Y127428D01*
X253549Y127382D01*
X253483Y127332D01*
X253421Y127280D01*
X253360Y127224D01*
X253303Y127166D01*
X253248Y127105D01*
X253197Y127041D01*
X253149Y126975D01*
X253104Y126906D01*
X253062Y126836D01*
X253024Y126763D01*
X252989Y126689D01*
X252958Y126613D01*
X252931Y126536D01*
X252908Y126457D01*
X252888Y126378D01*
X252873Y126297D01*
X252861Y126216D01*
X252853Y126134D01*
X252849Y126053D01*
X252850Y125971D01*
X252854Y125889D01*
X252862Y125807D01*
X252874Y125726D01*
X252890Y125646D01*
X252910Y125566D01*
X252934Y125488D01*
X252962Y125411D01*
X252993Y125335D01*
X253028Y125261D01*
X253066Y125189D01*
X253108Y125118D01*
X253154Y125050D01*
X253202Y124984D01*
X253254Y124921D01*
X253309Y124860D01*
X253367Y124802D01*
X253427Y124746D01*
X253490Y124694D01*
X253556Y124645D01*
X253624Y124599D01*
X253694Y124557D01*
X253766Y124517D01*
X253840Y124482D01*
X253915Y124450D01*
X253992Y124422D01*
X254070Y124398D01*
X254150Y124377D01*
X254230Y124360D01*
X254311Y124348D01*
X254392Y124339D01*
X254474Y124334D01*
X254556Y124333D01*
X254816Y124340D01*
X255076Y124353D01*
X255336Y124372D01*
X255595Y124397D01*
X255854Y124429D01*
X256111Y124466D01*
X256368Y124510D01*
X256624Y124559D01*
X256878Y124615D01*
X257131Y124676D01*
X257382Y124744D01*
X257632Y124818D01*
X257880Y124897D01*
X258126Y124982D01*
X246007Y128877D02*
X243086Y128877D01*
X246007Y128877D02*
X246101Y128875D01*
X246195Y128869D01*
X246288Y128860D01*
X246381Y128846D01*
X246473Y128829D01*
X246565Y128807D01*
X246655Y128783D01*
X246745Y128754D01*
X246833Y128722D01*
X246920Y128686D01*
X247005Y128646D01*
X247088Y128603D01*
X247170Y128557D01*
X247250Y128507D01*
X247327Y128454D01*
X247402Y128398D01*
X247475Y128339D01*
X247546Y128277D01*
X247614Y128212D01*
X247679Y128144D01*
X247741Y128073D01*
X247800Y128000D01*
X247856Y127925D01*
X247909Y127848D01*
X247959Y127768D01*
X248005Y127686D01*
X248048Y127603D01*
X248088Y127518D01*
X248124Y127431D01*
X248156Y127343D01*
X248185Y127253D01*
X248209Y127163D01*
X248231Y127071D01*
X248248Y126979D01*
X248262Y126886D01*
X248271Y126793D01*
X248277Y126699D01*
X248279Y126605D01*
X248277Y126511D01*
X248271Y126417D01*
X248262Y126324D01*
X248248Y126231D01*
X248231Y126139D01*
X248209Y126047D01*
X248185Y125957D01*
X248156Y125867D01*
X248124Y125779D01*
X248088Y125692D01*
X248048Y125607D01*
X248005Y125524D01*
X247959Y125442D01*
X247909Y125362D01*
X247856Y125285D01*
X247800Y125210D01*
X247741Y125137D01*
X247679Y125066D01*
X247614Y124998D01*
X247546Y124933D01*
X247475Y124871D01*
X247402Y124812D01*
X247327Y124756D01*
X247250Y124703D01*
X247170Y124653D01*
X247088Y124607D01*
X247005Y124564D01*
X246920Y124524D01*
X246833Y124488D01*
X246745Y124456D01*
X246655Y124427D01*
X246565Y124403D01*
X246473Y124381D01*
X246381Y124364D01*
X246288Y124350D01*
X246195Y124341D01*
X246101Y124335D01*
X246007Y124333D01*
X243086Y124333D01*
X243086Y130175D01*
X243087Y130175D02*
X243089Y130262D01*
X243095Y130350D01*
X243105Y130436D01*
X243118Y130523D01*
X243136Y130608D01*
X243157Y130693D01*
X243182Y130777D01*
X243211Y130859D01*
X243244Y130940D01*
X243280Y131020D01*
X243319Y131098D01*
X243363Y131174D01*
X243409Y131248D01*
X243459Y131319D01*
X243512Y131389D01*
X243568Y131456D01*
X243627Y131521D01*
X243689Y131582D01*
X243753Y131641D01*
X243820Y131697D01*
X243890Y131750D01*
X243961Y131800D01*
X244035Y131846D01*
X244111Y131890D01*
X244189Y131929D01*
X244269Y131965D01*
X244350Y131998D01*
X244432Y132027D01*
X244516Y132052D01*
X244601Y132073D01*
X244686Y132091D01*
X244773Y132104D01*
X244860Y132114D01*
X244947Y132120D01*
X245034Y132122D01*
X247630Y132122D01*
X237933Y129526D02*
X237933Y126929D01*
X237933Y129526D02*
X237931Y129627D01*
X237925Y129727D01*
X237915Y129827D01*
X237902Y129927D01*
X237884Y130026D01*
X237863Y130125D01*
X237838Y130222D01*
X237809Y130319D01*
X237776Y130414D01*
X237740Y130508D01*
X237700Y130600D01*
X237657Y130691D01*
X237610Y130780D01*
X237560Y130867D01*
X237506Y130953D01*
X237449Y131036D01*
X237389Y131116D01*
X237326Y131195D01*
X237259Y131271D01*
X237190Y131344D01*
X237118Y131414D01*
X237044Y131482D01*
X236967Y131547D01*
X236887Y131608D01*
X236805Y131667D01*
X236721Y131722D01*
X236635Y131774D01*
X236547Y131823D01*
X236457Y131868D01*
X236365Y131910D01*
X236272Y131948D01*
X236177Y131982D01*
X236082Y132013D01*
X235985Y132040D01*
X235887Y132063D01*
X235788Y132083D01*
X235688Y132098D01*
X235588Y132110D01*
X235488Y132118D01*
X235387Y132122D01*
X235287Y132122D01*
X235186Y132118D01*
X235086Y132110D01*
X234986Y132098D01*
X234886Y132083D01*
X234787Y132063D01*
X234689Y132040D01*
X234592Y132013D01*
X234497Y131982D01*
X234402Y131948D01*
X234309Y131910D01*
X234217Y131868D01*
X234127Y131823D01*
X234039Y131774D01*
X233953Y131722D01*
X233869Y131667D01*
X233787Y131608D01*
X233707Y131547D01*
X233630Y131482D01*
X233556Y131414D01*
X233484Y131344D01*
X233415Y131271D01*
X233348Y131195D01*
X233285Y131116D01*
X233225Y131036D01*
X233168Y130953D01*
X233114Y130867D01*
X233064Y130780D01*
X233017Y130691D01*
X232974Y130600D01*
X232934Y130508D01*
X232898Y130414D01*
X232865Y130319D01*
X232836Y130222D01*
X232811Y130125D01*
X232790Y130026D01*
X232772Y129927D01*
X232759Y129827D01*
X232749Y129727D01*
X232743Y129627D01*
X232741Y129526D01*
X232740Y129526D02*
X232740Y126929D01*
X232741Y126929D02*
X232743Y126828D01*
X232749Y126728D01*
X232759Y126628D01*
X232772Y126528D01*
X232790Y126429D01*
X232811Y126330D01*
X232836Y126233D01*
X232865Y126136D01*
X232898Y126041D01*
X232934Y125947D01*
X232974Y125855D01*
X233017Y125764D01*
X233064Y125675D01*
X233114Y125588D01*
X233168Y125502D01*
X233225Y125419D01*
X233285Y125339D01*
X233348Y125260D01*
X233415Y125184D01*
X233484Y125111D01*
X233556Y125041D01*
X233630Y124973D01*
X233707Y124908D01*
X233787Y124847D01*
X233869Y124788D01*
X233953Y124733D01*
X234039Y124681D01*
X234127Y124632D01*
X234217Y124587D01*
X234309Y124545D01*
X234402Y124507D01*
X234497Y124473D01*
X234592Y124442D01*
X234689Y124415D01*
X234787Y124392D01*
X234886Y124372D01*
X234986Y124357D01*
X235086Y124345D01*
X235186Y124337D01*
X235287Y124333D01*
X235387Y124333D01*
X235488Y124337D01*
X235588Y124345D01*
X235688Y124357D01*
X235788Y124372D01*
X235887Y124392D01*
X235985Y124415D01*
X236082Y124442D01*
X236177Y124473D01*
X236272Y124507D01*
X236365Y124545D01*
X236457Y124587D01*
X236547Y124632D01*
X236635Y124681D01*
X236721Y124733D01*
X236805Y124788D01*
X236887Y124847D01*
X236967Y124908D01*
X237044Y124973D01*
X237118Y125041D01*
X237190Y125111D01*
X237259Y125184D01*
X237326Y125260D01*
X237389Y125339D01*
X237449Y125419D01*
X237506Y125502D01*
X237560Y125588D01*
X237610Y125675D01*
X237657Y125764D01*
X237700Y125855D01*
X237740Y125947D01*
X237776Y126041D01*
X237809Y126136D01*
X237838Y126233D01*
X237863Y126330D01*
X237884Y126429D01*
X237902Y126528D01*
X237915Y126628D01*
X237925Y126728D01*
X237931Y126828D01*
X237933Y126929D01*
X227802Y128877D02*
X220012Y128877D01*
X214447Y124333D02*
X214447Y134070D01*
X214446Y134070D02*
X214444Y134157D01*
X214438Y134245D01*
X214428Y134331D01*
X214415Y134418D01*
X214397Y134503D01*
X214376Y134588D01*
X214351Y134672D01*
X214322Y134754D01*
X214289Y134835D01*
X214253Y134915D01*
X214214Y134993D01*
X214170Y135069D01*
X214124Y135143D01*
X214074Y135214D01*
X214021Y135284D01*
X213965Y135351D01*
X213906Y135415D01*
X213844Y135477D01*
X213780Y135536D01*
X213713Y135592D01*
X213643Y135645D01*
X213572Y135695D01*
X213498Y135741D01*
X213422Y135785D01*
X213344Y135824D01*
X213264Y135860D01*
X213183Y135893D01*
X213101Y135922D01*
X213017Y135947D01*
X212932Y135968D01*
X212847Y135986D01*
X212760Y135999D01*
X212674Y136009D01*
X212586Y136015D01*
X212499Y136017D01*
X211850Y136017D01*
X211850Y132122D02*
X215745Y132122D01*
X206383Y128877D02*
X203462Y128877D01*
X206383Y128877D02*
X206477Y128875D01*
X206571Y128869D01*
X206664Y128860D01*
X206757Y128846D01*
X206849Y128829D01*
X206941Y128807D01*
X207031Y128783D01*
X207121Y128754D01*
X207209Y128722D01*
X207296Y128686D01*
X207381Y128646D01*
X207464Y128603D01*
X207546Y128557D01*
X207626Y128507D01*
X207703Y128454D01*
X207778Y128398D01*
X207851Y128339D01*
X207922Y128277D01*
X207990Y128212D01*
X208055Y128144D01*
X208117Y128073D01*
X208176Y128000D01*
X208232Y127925D01*
X208285Y127848D01*
X208335Y127768D01*
X208381Y127686D01*
X208424Y127603D01*
X208464Y127518D01*
X208500Y127431D01*
X208532Y127343D01*
X208561Y127253D01*
X208585Y127163D01*
X208607Y127071D01*
X208624Y126979D01*
X208638Y126886D01*
X208647Y126793D01*
X208653Y126699D01*
X208655Y126605D01*
X208653Y126511D01*
X208647Y126417D01*
X208638Y126324D01*
X208624Y126231D01*
X208607Y126139D01*
X208585Y126047D01*
X208561Y125957D01*
X208532Y125867D01*
X208500Y125779D01*
X208464Y125692D01*
X208424Y125607D01*
X208381Y125524D01*
X208335Y125442D01*
X208285Y125362D01*
X208232Y125285D01*
X208176Y125210D01*
X208117Y125137D01*
X208055Y125066D01*
X207990Y124998D01*
X207922Y124933D01*
X207851Y124871D01*
X207778Y124812D01*
X207703Y124756D01*
X207626Y124703D01*
X207546Y124653D01*
X207464Y124607D01*
X207381Y124564D01*
X207296Y124524D01*
X207209Y124488D01*
X207121Y124456D01*
X207031Y124427D01*
X206941Y124403D01*
X206849Y124381D01*
X206757Y124364D01*
X206664Y124350D01*
X206571Y124341D01*
X206477Y124335D01*
X206383Y124333D01*
X203462Y124333D01*
X203462Y130175D01*
X203463Y130175D02*
X203465Y130262D01*
X203471Y130350D01*
X203481Y130436D01*
X203494Y130523D01*
X203512Y130608D01*
X203533Y130693D01*
X203558Y130777D01*
X203587Y130859D01*
X203620Y130940D01*
X203656Y131020D01*
X203695Y131098D01*
X203739Y131174D01*
X203785Y131248D01*
X203835Y131319D01*
X203888Y131389D01*
X203944Y131456D01*
X204003Y131521D01*
X204065Y131582D01*
X204129Y131641D01*
X204196Y131697D01*
X204266Y131750D01*
X204337Y131800D01*
X204411Y131846D01*
X204487Y131890D01*
X204565Y131929D01*
X204645Y131965D01*
X204726Y131998D01*
X204808Y132027D01*
X204892Y132052D01*
X204977Y132073D01*
X205062Y132091D01*
X205149Y132104D01*
X205236Y132114D01*
X205323Y132120D01*
X205410Y132122D01*
X208006Y132122D01*
X196349Y124333D02*
X193752Y124333D01*
X196349Y124333D02*
X196436Y124335D01*
X196524Y124341D01*
X196610Y124351D01*
X196697Y124364D01*
X196782Y124382D01*
X196867Y124403D01*
X196951Y124428D01*
X197033Y124457D01*
X197114Y124490D01*
X197194Y124526D01*
X197272Y124565D01*
X197348Y124609D01*
X197422Y124655D01*
X197493Y124705D01*
X197563Y124758D01*
X197630Y124814D01*
X197694Y124873D01*
X197756Y124935D01*
X197815Y124999D01*
X197871Y125066D01*
X197924Y125136D01*
X197974Y125207D01*
X198020Y125281D01*
X198064Y125357D01*
X198103Y125435D01*
X198139Y125515D01*
X198172Y125596D01*
X198201Y125678D01*
X198226Y125762D01*
X198247Y125847D01*
X198265Y125932D01*
X198278Y126019D01*
X198288Y126105D01*
X198294Y126193D01*
X198296Y126280D01*
X198296Y130175D01*
X198294Y130262D01*
X198288Y130350D01*
X198278Y130436D01*
X198265Y130523D01*
X198247Y130608D01*
X198226Y130693D01*
X198201Y130777D01*
X198172Y130859D01*
X198139Y130940D01*
X198103Y131020D01*
X198064Y131098D01*
X198020Y131174D01*
X197974Y131248D01*
X197924Y131319D01*
X197871Y131389D01*
X197815Y131456D01*
X197756Y131520D01*
X197694Y131582D01*
X197630Y131641D01*
X197563Y131697D01*
X197493Y131750D01*
X197422Y131800D01*
X197348Y131846D01*
X197272Y131890D01*
X197194Y131929D01*
X197114Y131965D01*
X197033Y131998D01*
X196951Y132027D01*
X196867Y132052D01*
X196782Y132073D01*
X196697Y132091D01*
X196610Y132104D01*
X196524Y132114D01*
X196436Y132120D01*
X196349Y132122D01*
X193752Y132122D01*
X187599Y124333D02*
X184354Y124333D01*
X187599Y124333D02*
X187686Y124335D01*
X187774Y124341D01*
X187860Y124351D01*
X187947Y124364D01*
X188032Y124382D01*
X188117Y124403D01*
X188201Y124428D01*
X188283Y124457D01*
X188364Y124490D01*
X188444Y124526D01*
X188522Y124565D01*
X188598Y124609D01*
X188672Y124655D01*
X188743Y124705D01*
X188813Y124758D01*
X188880Y124814D01*
X188944Y124873D01*
X189006Y124935D01*
X189065Y124999D01*
X189121Y125066D01*
X189174Y125136D01*
X189224Y125207D01*
X189270Y125281D01*
X189314Y125357D01*
X189353Y125435D01*
X189389Y125515D01*
X189422Y125596D01*
X189451Y125678D01*
X189476Y125762D01*
X189497Y125847D01*
X189515Y125932D01*
X189528Y126019D01*
X189538Y126105D01*
X189544Y126193D01*
X189546Y126280D01*
X189546Y129526D01*
X189544Y129627D01*
X189538Y129727D01*
X189528Y129827D01*
X189515Y129927D01*
X189497Y130026D01*
X189476Y130125D01*
X189451Y130222D01*
X189422Y130319D01*
X189389Y130414D01*
X189353Y130508D01*
X189313Y130600D01*
X189270Y130691D01*
X189223Y130780D01*
X189173Y130867D01*
X189119Y130953D01*
X189062Y131036D01*
X189002Y131116D01*
X188939Y131195D01*
X188872Y131271D01*
X188803Y131344D01*
X188731Y131414D01*
X188657Y131482D01*
X188580Y131547D01*
X188500Y131608D01*
X188418Y131667D01*
X188334Y131722D01*
X188248Y131774D01*
X188160Y131823D01*
X188070Y131868D01*
X187978Y131910D01*
X187885Y131948D01*
X187790Y131982D01*
X187695Y132013D01*
X187598Y132040D01*
X187500Y132063D01*
X187401Y132083D01*
X187301Y132098D01*
X187201Y132110D01*
X187101Y132118D01*
X187000Y132122D01*
X186900Y132122D01*
X186799Y132118D01*
X186699Y132110D01*
X186599Y132098D01*
X186499Y132083D01*
X186400Y132063D01*
X186302Y132040D01*
X186205Y132013D01*
X186110Y131982D01*
X186015Y131948D01*
X185922Y131910D01*
X185830Y131868D01*
X185740Y131823D01*
X185652Y131774D01*
X185566Y131722D01*
X185482Y131667D01*
X185400Y131608D01*
X185320Y131547D01*
X185243Y131482D01*
X185169Y131414D01*
X185097Y131344D01*
X185028Y131271D01*
X184961Y131195D01*
X184898Y131116D01*
X184838Y131036D01*
X184781Y130953D01*
X184727Y130867D01*
X184677Y130780D01*
X184630Y130691D01*
X184587Y130600D01*
X184547Y130508D01*
X184511Y130414D01*
X184478Y130319D01*
X184449Y130222D01*
X184424Y130125D01*
X184403Y130026D01*
X184385Y129927D01*
X184372Y129827D01*
X184362Y129727D01*
X184356Y129627D01*
X184354Y129526D01*
X184354Y128228D01*
X189546Y128228D01*
X178667Y128877D02*
X175421Y127579D01*
X178667Y128876D02*
X178742Y128909D01*
X178816Y128945D01*
X178888Y128984D01*
X178958Y129027D01*
X179025Y129073D01*
X179091Y129123D01*
X179153Y129175D01*
X179214Y129231D01*
X179271Y129289D01*
X179326Y129350D01*
X179377Y129414D01*
X179425Y129480D01*
X179470Y129549D01*
X179512Y129619D01*
X179550Y129692D01*
X179585Y129766D01*
X179616Y129842D01*
X179643Y129919D01*
X179666Y129998D01*
X179686Y130077D01*
X179701Y130158D01*
X179713Y130239D01*
X179721Y130321D01*
X179725Y130402D01*
X179724Y130484D01*
X179720Y130566D01*
X179712Y130648D01*
X179700Y130729D01*
X179684Y130809D01*
X179664Y130889D01*
X179640Y130967D01*
X179612Y131044D01*
X179581Y131120D01*
X179546Y131194D01*
X179508Y131266D01*
X179466Y131337D01*
X179420Y131405D01*
X179372Y131471D01*
X179320Y131534D01*
X179265Y131595D01*
X179207Y131653D01*
X179147Y131709D01*
X179084Y131761D01*
X179018Y131810D01*
X178950Y131856D01*
X178880Y131898D01*
X178808Y131938D01*
X178734Y131973D01*
X178659Y132005D01*
X178582Y132033D01*
X178504Y132057D01*
X178424Y132078D01*
X178344Y132095D01*
X178263Y132107D01*
X178182Y132116D01*
X178100Y132121D01*
X178018Y132122D01*
X177841Y132118D01*
X177664Y132109D01*
X177487Y132095D01*
X177310Y132078D01*
X177135Y132056D01*
X176959Y132031D01*
X176785Y132000D01*
X176611Y131966D01*
X176438Y131928D01*
X176266Y131885D01*
X176095Y131838D01*
X175925Y131788D01*
X175756Y131733D01*
X175589Y131674D01*
X175424Y131611D01*
X175259Y131544D01*
X175097Y131473D01*
X175421Y127579D02*
X175346Y127546D01*
X175272Y127510D01*
X175200Y127471D01*
X175130Y127428D01*
X175063Y127382D01*
X174997Y127332D01*
X174935Y127280D01*
X174874Y127224D01*
X174817Y127166D01*
X174762Y127105D01*
X174711Y127041D01*
X174663Y126975D01*
X174618Y126906D01*
X174576Y126836D01*
X174538Y126763D01*
X174503Y126689D01*
X174472Y126613D01*
X174445Y126536D01*
X174422Y126457D01*
X174402Y126378D01*
X174387Y126297D01*
X174375Y126216D01*
X174367Y126134D01*
X174363Y126053D01*
X174364Y125971D01*
X174368Y125889D01*
X174376Y125807D01*
X174388Y125726D01*
X174404Y125646D01*
X174424Y125566D01*
X174448Y125488D01*
X174476Y125411D01*
X174507Y125335D01*
X174542Y125261D01*
X174580Y125189D01*
X174622Y125118D01*
X174668Y125050D01*
X174716Y124984D01*
X174768Y124921D01*
X174823Y124860D01*
X174881Y124802D01*
X174941Y124746D01*
X175004Y124694D01*
X175070Y124645D01*
X175138Y124599D01*
X175208Y124557D01*
X175280Y124517D01*
X175354Y124482D01*
X175429Y124450D01*
X175506Y124422D01*
X175584Y124398D01*
X175664Y124377D01*
X175744Y124360D01*
X175825Y124348D01*
X175906Y124339D01*
X175988Y124334D01*
X176070Y124333D01*
X176330Y124340D01*
X176590Y124353D01*
X176850Y124372D01*
X177109Y124397D01*
X177368Y124429D01*
X177625Y124466D01*
X177882Y124510D01*
X178138Y124559D01*
X178392Y124615D01*
X178645Y124676D01*
X178896Y124744D01*
X179146Y124818D01*
X179394Y124897D01*
X179640Y124982D01*
D12*
X241300Y279400D03*
X366300Y279400D03*
X116300Y279400D03*
D13*
X228600Y52578D03*
X228600Y23622D03*
X254000Y52578D03*
X254000Y23622D03*
M02*
