G04 EAGLE Gerber X2 export*
G75*
%MOMM*%
%FSLAX34Y34*%
%LPD*%
%AMOC8*
5,1,8,0,0,1.08239X$1,22.5*%
G01*
%ADD10C,0.254000*%


D10*
X0Y239268D02*
X904Y218569D01*
X3608Y198028D01*
X8092Y177801D01*
X14322Y158042D01*
X22251Y138900D01*
X31818Y120523D01*
X42950Y103049D01*
X55562Y86612D01*
X69559Y71337D01*
X84834Y57340D01*
X101271Y44728D01*
X118745Y33596D01*
X137122Y24029D01*
X156264Y16100D01*
X176023Y9870D01*
X196250Y5386D01*
X216791Y2682D01*
X237490Y1778D01*
X258189Y2682D01*
X278730Y5386D01*
X298957Y9870D01*
X318716Y16100D01*
X337858Y24029D01*
X356235Y33596D01*
X373709Y44728D01*
X390146Y57340D01*
X405421Y71337D01*
X419418Y86612D01*
X432030Y103049D01*
X443162Y120523D01*
X452729Y138900D01*
X460658Y158042D01*
X466888Y177801D01*
X471372Y198028D01*
X474076Y218569D01*
X474980Y239268D01*
X474980Y260350D01*
X474076Y281049D01*
X471372Y301590D01*
X466888Y321817D01*
X460658Y341576D01*
X452729Y360718D01*
X443162Y379095D01*
X432030Y396569D01*
X419418Y413006D01*
X405421Y428281D01*
X390146Y442278D01*
X373709Y454890D01*
X356235Y466022D01*
X337858Y475589D01*
X318716Y483518D01*
X298957Y489748D01*
X278730Y494232D01*
X258189Y496936D01*
X237490Y497840D01*
X216791Y496936D01*
X196250Y494232D01*
X176023Y489748D01*
X156264Y483518D01*
X137122Y475589D01*
X118745Y466022D01*
X101271Y454890D01*
X84834Y442278D01*
X69559Y428281D01*
X55562Y413006D01*
X42950Y396569D01*
X31818Y379095D01*
X22251Y360718D01*
X14322Y341576D01*
X8092Y321817D01*
X3608Y301590D01*
X904Y281049D01*
X0Y260350D01*
X0Y239268D01*
X251460Y456701D02*
X251382Y455706D01*
X251226Y454720D01*
X250993Y453750D01*
X250684Y452801D01*
X250302Y451879D01*
X249849Y450990D01*
X249328Y450139D01*
X248741Y449331D01*
X248093Y448573D01*
X247387Y447867D01*
X246629Y447219D01*
X245821Y446632D01*
X244970Y446111D01*
X244081Y445658D01*
X243159Y445276D01*
X242210Y444967D01*
X241240Y444734D01*
X240254Y444578D01*
X239259Y444500D01*
X238261Y444500D01*
X237266Y444578D01*
X236280Y444734D01*
X235310Y444967D01*
X234361Y445276D01*
X233439Y445658D01*
X232550Y446111D01*
X231699Y446632D01*
X230891Y447219D01*
X230133Y447867D01*
X229427Y448573D01*
X228779Y449331D01*
X228192Y450139D01*
X227671Y450990D01*
X227218Y451879D01*
X226836Y452801D01*
X226527Y453750D01*
X226294Y454720D01*
X226138Y455706D01*
X226060Y456701D01*
X226060Y457699D01*
X226138Y458694D01*
X226294Y459680D01*
X226527Y460650D01*
X226836Y461599D01*
X227218Y462521D01*
X227671Y463410D01*
X228192Y464261D01*
X228779Y465069D01*
X229427Y465827D01*
X230133Y466533D01*
X230891Y467181D01*
X231699Y467768D01*
X232550Y468289D01*
X233439Y468742D01*
X234361Y469124D01*
X235310Y469433D01*
X236280Y469666D01*
X237266Y469822D01*
X238261Y469900D01*
X239259Y469900D01*
X240254Y469822D01*
X241240Y469666D01*
X242210Y469433D01*
X243159Y469124D01*
X244081Y468742D01*
X244970Y468289D01*
X245821Y467768D01*
X246629Y467181D01*
X247387Y466533D01*
X248093Y465827D01*
X248741Y465069D01*
X249328Y464261D01*
X249849Y463410D01*
X250302Y462521D01*
X250684Y461599D01*
X250993Y460650D01*
X251226Y459680D01*
X251382Y458694D01*
X251460Y457699D01*
X251460Y456701D01*
X251460Y456701D02*
X251382Y455706D01*
X251226Y454720D01*
X250993Y453750D01*
X250684Y452801D01*
X250302Y451879D01*
X249849Y450990D01*
X249328Y450139D01*
X248741Y449331D01*
X248093Y448573D01*
X247387Y447867D01*
X246629Y447219D01*
X245821Y446632D01*
X244970Y446111D01*
X244081Y445658D01*
X243159Y445276D01*
X242210Y444967D01*
X241240Y444734D01*
X240254Y444578D01*
X239259Y444500D01*
X238261Y444500D01*
X237266Y444578D01*
X236280Y444734D01*
X235310Y444967D01*
X234361Y445276D01*
X233439Y445658D01*
X232550Y446111D01*
X231699Y446632D01*
X230891Y447219D01*
X230133Y447867D01*
X229427Y448573D01*
X228779Y449331D01*
X228192Y450139D01*
X227671Y450990D01*
X227218Y451879D01*
X226836Y452801D01*
X226527Y453750D01*
X226294Y454720D01*
X226138Y455706D01*
X226060Y456701D01*
X226060Y457699D01*
X226138Y458694D01*
X226294Y459680D01*
X226527Y460650D01*
X226836Y461599D01*
X227218Y462521D01*
X227671Y463410D01*
X228192Y464261D01*
X228779Y465069D01*
X229427Y465827D01*
X230133Y466533D01*
X230891Y467181D01*
X231699Y467768D01*
X232550Y468289D01*
X233439Y468742D01*
X234361Y469124D01*
X235310Y469433D01*
X236280Y469666D01*
X237266Y469822D01*
X238261Y469900D01*
X239259Y469900D01*
X240254Y469822D01*
X241240Y469666D01*
X242210Y469433D01*
X243159Y469124D01*
X244081Y468742D01*
X244970Y468289D01*
X245821Y467768D01*
X246629Y467181D01*
X247387Y466533D01*
X248093Y465827D01*
X248741Y465069D01*
X249328Y464261D01*
X249849Y463410D01*
X250302Y462521D01*
X250684Y461599D01*
X250993Y460650D01*
X251226Y459680D01*
X251382Y458694D01*
X251460Y457699D01*
X251460Y456701D01*
M02*
