G04 EAGLE Gerber X2 export*
G75*
%MOMM*%
%FSLAX34Y34*%
%LPD*%
%AMOC8*
5,1,8,0,0,1.08239X$1,22.5*%
G01*
%ADD10C,0.203200*%


D10*
X278300Y173700D02*
X204300Y173700D01*
X278300Y173700D02*
X346300Y234400D01*
X204300Y173700D02*
X136300Y234400D01*
X188300Y362400D02*
X190165Y361128D01*
X192061Y359901D01*
X193986Y358721D01*
X195939Y357589D01*
X197919Y356505D01*
X199926Y355469D01*
X201957Y354483D01*
X204011Y353547D01*
X206088Y352661D01*
X208186Y351826D01*
X210303Y351043D01*
X212439Y350312D01*
X214593Y349633D01*
X216762Y349007D01*
X218946Y348434D01*
X221143Y347914D01*
X223352Y347449D01*
X225572Y347037D01*
X227802Y346680D01*
X230039Y346378D01*
X232283Y346130D01*
X234533Y345937D01*
X236786Y345799D01*
X239042Y345717D01*
X241300Y345689D01*
X243558Y345717D01*
X245814Y345799D01*
X248067Y345937D01*
X250317Y346130D01*
X252561Y346378D01*
X254798Y346680D01*
X257028Y347037D01*
X259248Y347449D01*
X261457Y347914D01*
X263654Y348434D01*
X265838Y349007D01*
X268007Y349633D01*
X270161Y350312D01*
X272297Y351043D01*
X274414Y351826D01*
X276512Y352661D01*
X278589Y353547D01*
X280643Y354483D01*
X282674Y355469D01*
X284681Y356505D01*
X286661Y357589D01*
X288614Y358721D01*
X290539Y359901D01*
X292435Y361128D01*
X294300Y362400D01*
X136300Y245400D02*
X136300Y234400D01*
X346300Y234400D02*
X346300Y245400D01*
X346300Y342400D02*
X346302Y343123D01*
X346286Y343846D01*
X346253Y344569D01*
X346202Y345290D01*
X346133Y346010D01*
X346048Y346729D01*
X345944Y347444D01*
X345823Y348158D01*
X345685Y348868D01*
X345530Y349574D01*
X345357Y350276D01*
X345167Y350974D01*
X344961Y351667D01*
X344737Y352355D01*
X344497Y353038D01*
X344240Y353714D01*
X343967Y354384D01*
X343678Y355046D01*
X343373Y355702D01*
X343051Y356350D01*
X342714Y356990D01*
X342362Y357622D01*
X341994Y358245D01*
X341611Y358858D01*
X341213Y359462D01*
X340801Y360057D01*
X340375Y360641D01*
X339934Y361214D01*
X339479Y361777D01*
X339011Y362328D01*
X338530Y362868D01*
X338035Y363396D01*
X337528Y363911D01*
X337008Y364414D01*
X336477Y364905D01*
X335933Y365382D01*
X335378Y365846D01*
X334812Y366296D01*
X334235Y366732D01*
X333648Y367154D01*
X333050Y367562D01*
X332443Y367955D01*
X331826Y368333D01*
X331201Y368696D01*
X330566Y369043D01*
X329924Y369375D01*
X329273Y369691D01*
X328615Y369992D01*
X327950Y370276D01*
X327278Y370544D01*
X326600Y370795D01*
X325916Y371030D01*
X325226Y371248D01*
X324531Y371449D01*
X323832Y371633D01*
X323128Y371801D01*
X322421Y371950D01*
X321710Y372083D01*
X320996Y372198D01*
X320279Y372296D01*
X319560Y372376D01*
X318840Y372439D01*
X318118Y372484D01*
X317395Y372512D01*
X316672Y372522D01*
X315949Y372514D01*
X315226Y372489D01*
X314504Y372446D01*
X313783Y372386D01*
X313064Y372308D01*
X312347Y372212D01*
X311632Y372099D01*
X310921Y371969D01*
X310213Y371821D01*
X309509Y371656D01*
X308809Y371475D01*
X308113Y371276D01*
X307423Y371060D01*
X306738Y370827D01*
X306059Y370578D01*
X305386Y370312D01*
X304720Y370030D01*
X304061Y369732D01*
X303410Y369418D01*
X302766Y369088D01*
X302131Y368743D01*
X301504Y368382D01*
X300886Y368006D01*
X300277Y367615D01*
X299679Y367209D01*
X299090Y366789D01*
X298512Y366354D01*
X297944Y365906D01*
X297388Y365444D01*
X296843Y364969D01*
X296309Y364480D01*
X295788Y363978D01*
X295279Y363464D01*
X294783Y362938D01*
X294300Y362400D01*
X188300Y362400D02*
X187799Y362932D01*
X187286Y363452D01*
X186760Y363959D01*
X186222Y364453D01*
X185672Y364934D01*
X185111Y365401D01*
X184538Y365855D01*
X183955Y366294D01*
X183361Y366719D01*
X182756Y367130D01*
X182142Y367525D01*
X181519Y367906D01*
X180886Y368271D01*
X180244Y368620D01*
X179595Y368954D01*
X178937Y369272D01*
X178272Y369574D01*
X177599Y369859D01*
X176920Y370128D01*
X176235Y370380D01*
X175543Y370616D01*
X174846Y370834D01*
X174144Y371036D01*
X173437Y371220D01*
X172726Y371387D01*
X172011Y371536D01*
X171292Y371668D01*
X170571Y371783D01*
X169847Y371880D01*
X169121Y371959D01*
X168393Y372020D01*
X167664Y372064D01*
X166934Y372090D01*
X166203Y372098D01*
X165473Y372088D01*
X164743Y372061D01*
X164014Y372015D01*
X163286Y371952D01*
X162560Y371871D01*
X161836Y371773D01*
X161115Y371656D01*
X160397Y371523D01*
X159682Y371371D01*
X158972Y371203D01*
X158265Y371017D01*
X157564Y370814D01*
X156867Y370593D01*
X156176Y370356D01*
X155491Y370102D01*
X154813Y369832D01*
X154141Y369545D01*
X153476Y369242D01*
X152819Y368922D01*
X152170Y368587D01*
X151530Y368236D01*
X150898Y367869D01*
X150275Y367487D01*
X149662Y367090D01*
X149059Y366678D01*
X148466Y366252D01*
X147883Y365811D01*
X147312Y365356D01*
X146751Y364888D01*
X146203Y364405D01*
X145666Y363910D01*
X145141Y363402D01*
X144629Y362881D01*
X144130Y362347D01*
X143644Y361802D01*
X143172Y361245D01*
X142713Y360676D01*
X142268Y360097D01*
X141838Y359507D01*
X141422Y358906D01*
X141020Y358296D01*
X140634Y357676D01*
X140263Y357046D01*
X139908Y356408D01*
X139568Y355762D01*
X139244Y355107D01*
X138936Y354445D01*
X138645Y353775D01*
X138369Y353098D01*
X138111Y352415D01*
X137869Y351726D01*
X137644Y351031D01*
X137436Y350330D01*
X137245Y349625D01*
X137072Y348916D01*
X136915Y348202D01*
X136777Y347485D01*
X136656Y346765D01*
X136552Y346042D01*
X136466Y345316D01*
X136398Y344589D01*
X136347Y343860D01*
X136315Y343130D01*
X136300Y342400D01*
X346300Y342400D02*
X346300Y313400D01*
X136300Y313400D02*
X136300Y342400D01*
M02*
