G04 EAGLE Gerber X2 export*
G75*
%MOMM*%
%FSLAX34Y34*%
%LPD*%
%AMOC8*
5,1,8,0,0,1.08239X$1,22.5*%
G01*
%ADD10C,1.879600*%
%ADD11R,6.070000X6.070000*%
%ADD12C,0.304800*%
%ADD13C,0.508000*%

G36*
X213357Y2544D02*
X213357Y2544D01*
X213390Y2543D01*
X218059Y2866D01*
X218075Y2870D01*
X218215Y2893D01*
X227197Y5446D01*
X227217Y5456D01*
X227238Y5459D01*
X227390Y5531D01*
X235332Y10443D01*
X235348Y10457D01*
X235368Y10466D01*
X235494Y10577D01*
X241791Y17472D01*
X241803Y17491D01*
X241819Y17505D01*
X241910Y17646D01*
X246082Y26000D01*
X246089Y26021D01*
X246100Y26039D01*
X246149Y26199D01*
X247879Y35376D01*
X247879Y35392D01*
X247892Y35533D01*
X247791Y40213D01*
X247788Y40232D01*
X247788Y40265D01*
X238783Y139321D01*
X238777Y139345D01*
X238774Y139390D01*
X231839Y177282D01*
X226291Y214170D01*
X226088Y215522D01*
X226035Y215874D01*
X225884Y216875D01*
X225136Y221846D01*
X226361Y234577D01*
X230639Y246631D01*
X237715Y257285D01*
X247165Y265903D01*
X252309Y268675D01*
X252343Y268701D01*
X252382Y268720D01*
X252495Y268818D01*
X252504Y268825D01*
X252506Y268827D01*
X252508Y268830D01*
X261836Y278971D01*
X261848Y278989D01*
X261874Y279016D01*
X279508Y301400D01*
X279521Y301423D01*
X279553Y301463D01*
X294821Y325523D01*
X294832Y325548D01*
X294859Y325591D01*
X307603Y351078D01*
X307611Y351104D01*
X307634Y351149D01*
X317722Y377800D01*
X317727Y377826D01*
X317745Y377874D01*
X325072Y405412D01*
X325074Y405433D01*
X325085Y405468D01*
X327676Y419416D01*
X327676Y419440D01*
X327685Y419480D01*
X331285Y455419D01*
X331284Y455426D01*
X331286Y455438D01*
X336712Y527669D01*
X336711Y527679D01*
X336714Y527695D01*
X339744Y600066D01*
X339743Y600074D01*
X339744Y600085D01*
X340359Y636277D01*
X340357Y636292D01*
X340359Y636317D01*
X339982Y646855D01*
X339977Y646883D01*
X339975Y646936D01*
X336973Y667812D01*
X336964Y667843D01*
X336950Y667918D01*
X331009Y688154D01*
X330995Y688183D01*
X330971Y688255D01*
X322210Y707439D01*
X322191Y707467D01*
X322158Y707535D01*
X310755Y725277D01*
X310733Y725301D01*
X310690Y725364D01*
X296879Y741303D01*
X296854Y741323D01*
X296803Y741379D01*
X280864Y755190D01*
X280836Y755207D01*
X280777Y755255D01*
X263035Y766658D01*
X263005Y766671D01*
X262939Y766710D01*
X243755Y775471D01*
X243724Y775479D01*
X243654Y775509D01*
X223418Y781450D01*
X223385Y781454D01*
X223312Y781473D01*
X202436Y784475D01*
X202408Y784474D01*
X202355Y784482D01*
X191810Y784859D01*
X191800Y784857D01*
X191783Y784859D01*
X151117Y784859D01*
X151106Y784858D01*
X151090Y784859D01*
X140545Y784482D01*
X140517Y784477D01*
X140464Y784475D01*
X119588Y781473D01*
X119557Y781464D01*
X119482Y781450D01*
X99246Y775509D01*
X99217Y775495D01*
X99145Y775471D01*
X79961Y766710D01*
X79933Y766691D01*
X79865Y766658D01*
X62123Y755255D01*
X62099Y755233D01*
X62036Y755190D01*
X46097Y741379D01*
X46077Y741354D01*
X46021Y741303D01*
X32210Y725364D01*
X32193Y725336D01*
X32145Y725277D01*
X20742Y707535D01*
X20729Y707505D01*
X20690Y707439D01*
X11929Y688255D01*
X11921Y688224D01*
X11891Y688154D01*
X5950Y667918D01*
X5946Y667885D01*
X5927Y667812D01*
X2925Y646936D01*
X2926Y646908D01*
X2918Y646855D01*
X2541Y636310D01*
X2543Y636300D01*
X2541Y636283D01*
X2541Y495986D01*
X2552Y495915D01*
X2554Y495843D01*
X2575Y495775D01*
X2580Y495744D01*
X2591Y495723D01*
X2604Y495683D01*
X6742Y486156D01*
X12611Y464802D01*
X15407Y442833D01*
X15245Y432054D01*
X15245Y432053D01*
X15240Y431762D01*
X15242Y431752D01*
X15240Y431736D01*
X15478Y419318D01*
X15483Y419291D01*
X15484Y419240D01*
X18498Y394599D01*
X18507Y394568D01*
X18518Y394497D01*
X24864Y370496D01*
X24877Y370467D01*
X24897Y370398D01*
X34456Y347486D01*
X34473Y347459D01*
X34503Y347393D01*
X47096Y325999D01*
X47117Y325975D01*
X47155Y325914D01*
X62548Y306436D01*
X62572Y306415D01*
X62618Y306359D01*
X80523Y289163D01*
X80545Y289147D01*
X80582Y289112D01*
X90373Y281471D01*
X90382Y281466D01*
X90394Y281455D01*
X90477Y281395D01*
X91500Y280651D01*
X97442Y276333D01*
X109486Y263742D01*
X119094Y249205D01*
X125958Y233189D01*
X129858Y216206D01*
X130670Y198800D01*
X129699Y191520D01*
X129351Y188907D01*
X129338Y188808D01*
X109515Y40138D01*
X109453Y39673D01*
X109334Y38782D01*
X109335Y38762D01*
X109329Y38728D01*
X109056Y34305D01*
X109057Y34294D01*
X109063Y34143D01*
X110396Y25402D01*
X110404Y25379D01*
X110405Y25355D01*
X110459Y25196D01*
X114187Y17179D01*
X114200Y17159D01*
X114208Y17136D01*
X114304Y16998D01*
X120128Y10346D01*
X120147Y10331D01*
X120161Y10311D01*
X120292Y10206D01*
X127746Y5451D01*
X127768Y5441D01*
X127787Y5426D01*
X127942Y5362D01*
X136430Y2885D01*
X136441Y2884D01*
X136589Y2857D01*
X141010Y2543D01*
X141030Y2544D01*
X141064Y2541D01*
X213338Y2541D01*
X213357Y2544D01*
G37*
%LPC*%
G36*
X146818Y361825D02*
X146818Y361825D01*
X145925Y362718D01*
X145925Y419511D01*
X145911Y419601D01*
X145903Y419692D01*
X145891Y419722D01*
X145886Y419754D01*
X145843Y419834D01*
X145807Y419918D01*
X145781Y419950D01*
X145770Y419971D01*
X145747Y419993D01*
X145702Y420049D01*
X107759Y457992D01*
X105155Y460596D01*
X105155Y520212D01*
X105153Y520223D01*
X105154Y520230D01*
X105147Y520266D01*
X105136Y520327D01*
X105119Y520443D01*
X105117Y520449D01*
X105116Y520455D01*
X105061Y520558D01*
X105008Y520663D01*
X105003Y520667D01*
X105000Y520672D01*
X104916Y520752D01*
X104832Y520835D01*
X104826Y520838D01*
X104822Y520842D01*
X104805Y520850D01*
X104685Y520916D01*
X103033Y521600D01*
X99960Y524673D01*
X98297Y528687D01*
X98297Y533033D01*
X99960Y537047D01*
X103033Y540120D01*
X107047Y541783D01*
X111393Y541783D01*
X115407Y540120D01*
X118480Y537047D01*
X120143Y533033D01*
X120143Y528687D01*
X118480Y524673D01*
X115407Y521600D01*
X113755Y520916D01*
X113655Y520854D01*
X113555Y520794D01*
X113551Y520789D01*
X113546Y520786D01*
X113471Y520696D01*
X113395Y520607D01*
X113393Y520601D01*
X113389Y520597D01*
X113347Y520488D01*
X113303Y520379D01*
X113302Y520371D01*
X113301Y520367D01*
X113300Y520349D01*
X113285Y520212D01*
X113285Y464279D01*
X113299Y464189D01*
X113307Y464098D01*
X113319Y464068D01*
X113324Y464036D01*
X113367Y463956D01*
X113403Y463872D01*
X113429Y463840D01*
X113440Y463819D01*
X113463Y463797D01*
X113508Y463741D01*
X151451Y425798D01*
X151525Y425745D01*
X151594Y425685D01*
X151624Y425673D01*
X151650Y425654D01*
X151737Y425627D01*
X151822Y425593D01*
X151863Y425589D01*
X151885Y425582D01*
X151918Y425583D01*
X151989Y425575D01*
X203611Y425575D01*
X203701Y425589D01*
X203792Y425597D01*
X203822Y425609D01*
X203854Y425614D01*
X203934Y425657D01*
X204018Y425693D01*
X204050Y425719D01*
X204071Y425730D01*
X204093Y425753D01*
X204149Y425798D01*
X252252Y473901D01*
X252305Y473975D01*
X252365Y474044D01*
X252377Y474074D01*
X252396Y474100D01*
X252423Y474187D01*
X252457Y474272D01*
X252461Y474313D01*
X252468Y474336D01*
X252467Y474368D01*
X252475Y474439D01*
X252475Y520212D01*
X252473Y520223D01*
X252474Y520230D01*
X252467Y520265D01*
X252456Y520327D01*
X252439Y520443D01*
X252437Y520449D01*
X252436Y520455D01*
X252382Y520557D01*
X252328Y520663D01*
X252323Y520667D01*
X252320Y520672D01*
X252236Y520752D01*
X252152Y520835D01*
X252146Y520838D01*
X252142Y520842D01*
X252125Y520850D01*
X252005Y520916D01*
X250353Y521600D01*
X247280Y524673D01*
X245617Y528687D01*
X245617Y533033D01*
X247280Y537047D01*
X250353Y540120D01*
X254367Y541783D01*
X258713Y541783D01*
X262727Y540120D01*
X265800Y537047D01*
X267463Y533033D01*
X267463Y528687D01*
X265800Y524673D01*
X262727Y521600D01*
X261075Y520916D01*
X260975Y520854D01*
X260875Y520794D01*
X260871Y520789D01*
X260866Y520786D01*
X260791Y520695D01*
X260715Y520607D01*
X260713Y520601D01*
X260709Y520597D01*
X260667Y520488D01*
X260623Y520379D01*
X260622Y520372D01*
X260621Y520367D01*
X260620Y520349D01*
X260605Y520212D01*
X260605Y470756D01*
X258001Y468152D01*
X209898Y420049D01*
X209845Y419975D01*
X209785Y419906D01*
X209773Y419876D01*
X209754Y419850D01*
X209727Y419763D01*
X209693Y419678D01*
X209689Y419637D01*
X209682Y419615D01*
X209683Y419582D01*
X209675Y419511D01*
X209675Y362718D01*
X208782Y361825D01*
X146818Y361825D01*
G37*
%LPD*%
%LPC*%
G36*
X146818Y236825D02*
X146818Y236825D01*
X145925Y237718D01*
X145925Y299682D01*
X146818Y300575D01*
X208782Y300575D01*
X209675Y299682D01*
X209675Y237718D01*
X208782Y236825D01*
X146818Y236825D01*
G37*
%LPD*%
%LPC*%
G36*
X201027Y103377D02*
X201027Y103377D01*
X197013Y105040D01*
X193940Y108113D01*
X192277Y112127D01*
X192277Y116473D01*
X193940Y120487D01*
X197013Y123560D01*
X201027Y125223D01*
X205373Y125223D01*
X208041Y124117D01*
X208155Y124091D01*
X208268Y124062D01*
X208275Y124063D01*
X208281Y124061D01*
X208397Y124072D01*
X208514Y124081D01*
X208519Y124084D01*
X208526Y124084D01*
X208633Y124132D01*
X208740Y124178D01*
X208746Y124182D01*
X208750Y124184D01*
X208764Y124197D01*
X208871Y124282D01*
X212628Y128040D01*
X212681Y128114D01*
X212741Y128183D01*
X212753Y128213D01*
X212772Y128240D01*
X212799Y128327D01*
X212833Y128411D01*
X212837Y128452D01*
X212844Y128475D01*
X212843Y128507D01*
X212851Y128578D01*
X212851Y188922D01*
X212837Y189012D01*
X212829Y189103D01*
X212817Y189133D01*
X212812Y189165D01*
X212769Y189245D01*
X212733Y189329D01*
X212707Y189361D01*
X212696Y189382D01*
X212673Y189404D01*
X212628Y189460D01*
X202058Y200030D01*
X202004Y200069D01*
X201957Y200116D01*
X201905Y200140D01*
X201859Y200174D01*
X201795Y200193D01*
X201773Y200204D01*
X200990Y201096D01*
X200976Y201108D01*
X200956Y201132D01*
X200118Y201971D01*
X200112Y202009D01*
X200080Y202067D01*
X200058Y202130D01*
X200012Y202197D01*
X199996Y202226D01*
X199982Y202240D01*
X199962Y202268D01*
X195492Y207364D01*
X195477Y207376D01*
X195467Y207391D01*
X195383Y207454D01*
X195302Y207520D01*
X195284Y207527D01*
X195269Y207538D01*
X195170Y207571D01*
X195072Y207608D01*
X195053Y207609D01*
X195035Y207614D01*
X194930Y207613D01*
X194826Y207618D01*
X194808Y207612D01*
X194789Y207612D01*
X194628Y207565D01*
X192673Y206755D01*
X188327Y206755D01*
X184313Y208418D01*
X181240Y211491D01*
X179577Y215505D01*
X179577Y219851D01*
X181240Y223865D01*
X184313Y226938D01*
X188327Y228601D01*
X192673Y228601D01*
X196687Y226938D01*
X199760Y223865D01*
X201423Y219851D01*
X201423Y215505D01*
X200013Y212101D01*
X199991Y212011D01*
X199963Y211923D01*
X199964Y211892D01*
X199956Y211861D01*
X199965Y211770D01*
X199966Y211677D01*
X199977Y211648D01*
X199979Y211617D01*
X200017Y211532D01*
X200048Y211445D01*
X200070Y211413D01*
X200079Y211392D01*
X200101Y211368D01*
X200144Y211308D01*
X205410Y205304D01*
X205424Y205292D01*
X205444Y205268D01*
X218949Y191763D01*
X218949Y125737D01*
X213182Y119971D01*
X213115Y119876D01*
X213044Y119782D01*
X213042Y119776D01*
X213039Y119771D01*
X213005Y119660D01*
X212968Y119548D01*
X212968Y119542D01*
X212966Y119536D01*
X212970Y119419D01*
X212971Y119302D01*
X212973Y119295D01*
X212973Y119290D01*
X212979Y119273D01*
X213017Y119141D01*
X214123Y116473D01*
X214123Y112127D01*
X212460Y108113D01*
X209387Y105040D01*
X205373Y103377D01*
X201027Y103377D01*
G37*
%LPD*%
%LPC*%
G36*
X150227Y103377D02*
X150227Y103377D01*
X146213Y105040D01*
X143140Y108113D01*
X141477Y112127D01*
X141477Y116473D01*
X143140Y120487D01*
X146213Y123560D01*
X150227Y125223D01*
X154101Y125223D01*
X154187Y125237D01*
X154273Y125242D01*
X154308Y125257D01*
X154344Y125262D01*
X154421Y125303D01*
X154501Y125336D01*
X154529Y125360D01*
X154561Y125378D01*
X154621Y125440D01*
X154687Y125497D01*
X154713Y125537D01*
X154731Y125556D01*
X154744Y125584D01*
X154779Y125637D01*
X182752Y180277D01*
X182759Y180301D01*
X182773Y180321D01*
X182797Y180417D01*
X182827Y180511D01*
X182827Y180536D01*
X182833Y180560D01*
X182825Y180659D01*
X182824Y180757D01*
X182815Y180781D01*
X182814Y180805D01*
X182775Y180896D01*
X182742Y180989D01*
X182727Y181009D01*
X182717Y181032D01*
X182612Y181162D01*
X181240Y182535D01*
X179577Y186549D01*
X179577Y190895D01*
X181240Y194909D01*
X184313Y197982D01*
X188327Y199645D01*
X192673Y199645D01*
X196687Y197982D01*
X199760Y194909D01*
X201423Y190895D01*
X201423Y186549D01*
X199760Y182535D01*
X196687Y179462D01*
X192673Y177799D01*
X188799Y177799D01*
X188713Y177785D01*
X188627Y177780D01*
X188592Y177765D01*
X188556Y177760D01*
X188479Y177719D01*
X188399Y177686D01*
X188371Y177662D01*
X188339Y177644D01*
X188279Y177582D01*
X188213Y177525D01*
X188187Y177485D01*
X188169Y177466D01*
X188156Y177438D01*
X188121Y177385D01*
X160148Y122745D01*
X160141Y122721D01*
X160127Y122701D01*
X160103Y122605D01*
X160073Y122511D01*
X160073Y122486D01*
X160067Y122462D01*
X160075Y122363D01*
X160076Y122265D01*
X160085Y122241D01*
X160086Y122217D01*
X160125Y122126D01*
X160158Y122033D01*
X160173Y122013D01*
X160183Y121990D01*
X160288Y121860D01*
X161660Y120487D01*
X163323Y116473D01*
X163323Y112127D01*
X161660Y108113D01*
X158587Y105040D01*
X154573Y103377D01*
X150227Y103377D01*
G37*
%LPD*%
%LPC*%
G36*
X179323Y520223D02*
X179323Y520223D01*
X179323Y551591D01*
X208484Y551591D01*
X209131Y551418D01*
X209710Y551083D01*
X210183Y550610D01*
X210518Y550031D01*
X210691Y549384D01*
X210691Y520223D01*
X179323Y520223D01*
G37*
%LPD*%
%LPC*%
G36*
X144909Y520223D02*
X144909Y520223D01*
X144909Y549384D01*
X145082Y550031D01*
X145417Y550610D01*
X145890Y551083D01*
X146469Y551418D01*
X147116Y551591D01*
X176277Y551591D01*
X176277Y520223D01*
X144909Y520223D01*
G37*
%LPD*%
%LPC*%
G36*
X179323Y485809D02*
X179323Y485809D01*
X179323Y517177D01*
X210691Y517177D01*
X210691Y488016D01*
X210518Y487369D01*
X210183Y486790D01*
X209710Y486317D01*
X209131Y485982D01*
X208484Y485809D01*
X179323Y485809D01*
G37*
%LPD*%
%LPC*%
G36*
X147116Y485809D02*
X147116Y485809D01*
X146469Y485982D01*
X145890Y486317D01*
X145417Y486790D01*
X145082Y487369D01*
X144909Y488016D01*
X144909Y517177D01*
X176277Y517177D01*
X176277Y485809D01*
X147116Y485809D01*
G37*
%LPD*%
%LPC*%
G36*
X162068Y734059D02*
X162068Y734059D01*
X156467Y736380D01*
X152180Y740667D01*
X149859Y746268D01*
X149859Y752332D01*
X152180Y757933D01*
X156467Y762220D01*
X162068Y764541D01*
X168132Y764541D01*
X173733Y762220D01*
X178020Y757933D01*
X180341Y752332D01*
X180341Y746268D01*
X178020Y740667D01*
X173733Y736380D01*
X168132Y734059D01*
X162068Y734059D01*
G37*
%LPD*%
%LPC*%
G36*
X162927Y177799D02*
X162927Y177799D01*
X158913Y179462D01*
X155840Y182535D01*
X154177Y186549D01*
X154177Y190895D01*
X155840Y194909D01*
X158913Y197982D01*
X162927Y199645D01*
X167273Y199645D01*
X171287Y197982D01*
X174360Y194909D01*
X176023Y190895D01*
X176023Y186549D01*
X174360Y182535D01*
X171287Y179462D01*
X167273Y177799D01*
X162927Y177799D01*
G37*
%LPD*%
%LPC*%
G36*
X153923Y39623D02*
X153923Y39623D01*
X153923Y49946D01*
X155196Y49745D01*
X156983Y49164D01*
X158657Y48311D01*
X160178Y47206D01*
X161506Y45878D01*
X162611Y44357D01*
X163464Y42683D01*
X164045Y40896D01*
X164246Y39623D01*
X153923Y39623D01*
G37*
%LPD*%
%LPC*%
G36*
X204723Y39623D02*
X204723Y39623D01*
X204723Y49946D01*
X205996Y49745D01*
X207783Y49164D01*
X209457Y48311D01*
X210978Y47206D01*
X212306Y45878D01*
X213411Y44357D01*
X214264Y42683D01*
X214845Y40896D01*
X215046Y39623D01*
X204723Y39623D01*
G37*
%LPD*%
%LPC*%
G36*
X232663Y532383D02*
X232663Y532383D01*
X232663Y542706D01*
X233936Y542505D01*
X235723Y541924D01*
X237397Y541071D01*
X238918Y539966D01*
X240246Y538638D01*
X241351Y537117D01*
X242204Y535443D01*
X242785Y533656D01*
X242986Y532383D01*
X232663Y532383D01*
G37*
%LPD*%
%LPC*%
G36*
X85343Y532383D02*
X85343Y532383D01*
X85343Y542706D01*
X86616Y542505D01*
X88403Y541924D01*
X90077Y541071D01*
X91598Y539966D01*
X92926Y538638D01*
X94031Y537117D01*
X94884Y535443D01*
X95465Y533656D01*
X95666Y532383D01*
X85343Y532383D01*
G37*
%LPD*%
%LPC*%
G36*
X166623Y219201D02*
X166623Y219201D01*
X166623Y229524D01*
X167896Y229323D01*
X169683Y228742D01*
X171357Y227889D01*
X172878Y226784D01*
X174206Y225456D01*
X175311Y223935D01*
X176164Y222261D01*
X176745Y220474D01*
X176946Y219201D01*
X166623Y219201D01*
G37*
%LPD*%
%LPC*%
G36*
X232663Y529337D02*
X232663Y529337D01*
X242986Y529337D01*
X242785Y528064D01*
X242204Y526277D01*
X241351Y524603D01*
X240246Y523082D01*
X238918Y521754D01*
X237397Y520649D01*
X235723Y519796D01*
X233936Y519215D01*
X232663Y519014D01*
X232663Y529337D01*
G37*
%LPD*%
%LPC*%
G36*
X153923Y36577D02*
X153923Y36577D01*
X164246Y36577D01*
X164045Y35304D01*
X163464Y33517D01*
X162611Y31843D01*
X161506Y30322D01*
X160178Y28994D01*
X158657Y27889D01*
X156983Y27036D01*
X155196Y26455D01*
X153923Y26254D01*
X153923Y36577D01*
G37*
%LPD*%
%LPC*%
G36*
X204723Y36577D02*
X204723Y36577D01*
X215046Y36577D01*
X214845Y35304D01*
X214264Y33517D01*
X213411Y31843D01*
X212306Y30322D01*
X210978Y28994D01*
X209457Y27889D01*
X207783Y27036D01*
X205996Y26455D01*
X204723Y26254D01*
X204723Y36577D01*
G37*
%LPD*%
%LPC*%
G36*
X140554Y39623D02*
X140554Y39623D01*
X140755Y40896D01*
X141336Y42683D01*
X142189Y44357D01*
X143294Y45878D01*
X144622Y47206D01*
X146143Y48311D01*
X147817Y49164D01*
X149604Y49745D01*
X150877Y49946D01*
X150877Y39623D01*
X140554Y39623D01*
G37*
%LPD*%
%LPC*%
G36*
X191354Y39623D02*
X191354Y39623D01*
X191555Y40896D01*
X192136Y42683D01*
X192989Y44357D01*
X194094Y45878D01*
X195422Y47206D01*
X196943Y48311D01*
X198617Y49164D01*
X200404Y49745D01*
X201677Y49946D01*
X201677Y39623D01*
X191354Y39623D01*
G37*
%LPD*%
%LPC*%
G36*
X71974Y532383D02*
X71974Y532383D01*
X72175Y533656D01*
X72756Y535443D01*
X73609Y537117D01*
X74714Y538638D01*
X76042Y539966D01*
X77563Y541071D01*
X79237Y541924D01*
X81024Y542505D01*
X82297Y542706D01*
X82297Y532383D01*
X71974Y532383D01*
G37*
%LPD*%
%LPC*%
G36*
X166623Y216155D02*
X166623Y216155D01*
X176946Y216155D01*
X176745Y214882D01*
X176164Y213095D01*
X175311Y211421D01*
X174206Y209900D01*
X172878Y208572D01*
X171357Y207467D01*
X169683Y206614D01*
X167896Y206033D01*
X166623Y205832D01*
X166623Y216155D01*
G37*
%LPD*%
%LPC*%
G36*
X219294Y532383D02*
X219294Y532383D01*
X219495Y533656D01*
X220076Y535443D01*
X220929Y537117D01*
X222034Y538638D01*
X223362Y539966D01*
X224883Y541071D01*
X226557Y541924D01*
X228344Y542505D01*
X229617Y542706D01*
X229617Y532383D01*
X219294Y532383D01*
G37*
%LPD*%
%LPC*%
G36*
X153254Y219201D02*
X153254Y219201D01*
X153455Y220474D01*
X154036Y222261D01*
X154889Y223935D01*
X155994Y225456D01*
X157322Y226784D01*
X158843Y227889D01*
X160517Y228742D01*
X162304Y229323D01*
X163577Y229524D01*
X163577Y219201D01*
X153254Y219201D01*
G37*
%LPD*%
%LPC*%
G36*
X85343Y529337D02*
X85343Y529337D01*
X95666Y529337D01*
X95465Y528064D01*
X94884Y526277D01*
X94031Y524603D01*
X92926Y523082D01*
X91598Y521754D01*
X90077Y520649D01*
X88403Y519796D01*
X86616Y519215D01*
X85343Y519014D01*
X85343Y529337D01*
G37*
%LPD*%
%LPC*%
G36*
X162304Y206033D02*
X162304Y206033D01*
X160517Y206614D01*
X158843Y207467D01*
X157322Y208572D01*
X155994Y209900D01*
X154889Y211421D01*
X154036Y213095D01*
X153455Y214882D01*
X153254Y216155D01*
X163577Y216155D01*
X163577Y205832D01*
X162304Y206033D01*
G37*
%LPD*%
%LPC*%
G36*
X81024Y519215D02*
X81024Y519215D01*
X79237Y519796D01*
X77563Y520649D01*
X76042Y521754D01*
X74714Y523082D01*
X73609Y524603D01*
X72756Y526277D01*
X72175Y528064D01*
X71974Y529337D01*
X82297Y529337D01*
X82297Y519014D01*
X81024Y519215D01*
G37*
%LPD*%
%LPC*%
G36*
X228344Y519215D02*
X228344Y519215D01*
X226557Y519796D01*
X224883Y520649D01*
X223362Y521754D01*
X222034Y523082D01*
X220929Y524603D01*
X220076Y526277D01*
X219495Y528064D01*
X219294Y529337D01*
X229617Y529337D01*
X229617Y519014D01*
X228344Y519215D01*
G37*
%LPD*%
%LPC*%
G36*
X200404Y26455D02*
X200404Y26455D01*
X198617Y27036D01*
X196943Y27889D01*
X195422Y28994D01*
X194094Y30322D01*
X192989Y31843D01*
X192136Y33517D01*
X191555Y35304D01*
X191354Y36577D01*
X201677Y36577D01*
X201677Y26254D01*
X200404Y26455D01*
G37*
%LPD*%
%LPC*%
G36*
X149604Y26455D02*
X149604Y26455D01*
X147817Y27036D01*
X146143Y27889D01*
X144622Y28994D01*
X143294Y30322D01*
X142189Y31843D01*
X141336Y33517D01*
X140755Y35304D01*
X140554Y36577D01*
X150877Y36577D01*
X150877Y26254D01*
X149604Y26455D01*
G37*
%LPD*%
%LPC*%
G36*
X165099Y217677D02*
X165099Y217677D01*
X165099Y217679D01*
X165101Y217679D01*
X165101Y217677D01*
X165099Y217677D01*
G37*
%LPD*%
%LPC*%
G36*
X231139Y530859D02*
X231139Y530859D01*
X231139Y530861D01*
X231141Y530861D01*
X231141Y530859D01*
X231139Y530859D01*
G37*
%LPD*%
%LPC*%
G36*
X203199Y38099D02*
X203199Y38099D01*
X203199Y38101D01*
X203201Y38101D01*
X203201Y38099D01*
X203199Y38099D01*
G37*
%LPD*%
%LPC*%
G36*
X152399Y38099D02*
X152399Y38099D01*
X152399Y38101D01*
X152401Y38101D01*
X152401Y38099D01*
X152399Y38099D01*
G37*
%LPD*%
%LPC*%
G36*
X83819Y530859D02*
X83819Y530859D01*
X83819Y530861D01*
X83821Y530861D01*
X83821Y530859D01*
X83819Y530859D01*
G37*
%LPD*%
%LPC*%
G36*
X177799Y518699D02*
X177799Y518699D01*
X177799Y518701D01*
X177801Y518701D01*
X177801Y518699D01*
X177799Y518699D01*
G37*
%LPD*%
D10*
X231140Y530860D03*
X256540Y530860D03*
X83820Y530860D03*
X109220Y530860D03*
X165100Y217678D03*
X165100Y188722D03*
X190500Y217678D03*
X190500Y188722D03*
X203200Y114300D03*
X203200Y38100D03*
X152400Y114300D03*
X152400Y38100D03*
D11*
X177800Y393700D03*
X177800Y518700D03*
X177800Y268700D03*
D12*
X190500Y217678D02*
X203200Y203200D01*
X215900Y190500D01*
X215900Y127000D01*
X203200Y114300D01*
X152400Y114300D02*
X190500Y188722D01*
D13*
X177800Y393700D02*
X109220Y462280D01*
X109220Y530860D01*
X177800Y393700D02*
X256540Y472440D01*
X256540Y530860D01*
M02*
