G04 EAGLE Gerber X2 export*
G75*
%MOMM*%
%FSLAX34Y34*%
%LPD*%
%AMOC8*
5,1,8,0,0,1.08239X$1,22.5*%
G01*
%ADD10C,0.177800*%
%ADD11C,2.743200*%
%ADD12C,0.101600*%
%ADD13C,2.082800*%
%ADD14C,2.047813*%
%ADD15C,2.094537*%
%ADD16R,6.273200X6.273200*%


D10*
X292717Y710565D02*
X292719Y710449D01*
X292725Y710332D01*
X292734Y710216D01*
X292747Y710101D01*
X292764Y709986D01*
X292785Y709871D01*
X292810Y709758D01*
X292838Y709645D01*
X292870Y709533D01*
X292906Y709422D01*
X292945Y709312D01*
X292988Y709204D01*
X293034Y709097D01*
X293084Y708992D01*
X293137Y708889D01*
X293193Y708787D01*
X293253Y708687D01*
X293316Y708589D01*
X293383Y708494D01*
X293452Y708400D01*
X293524Y708309D01*
X293599Y708220D01*
X293678Y708134D01*
X293759Y708051D01*
X293842Y707970D01*
X293928Y707891D01*
X294017Y707816D01*
X294108Y707744D01*
X294202Y707675D01*
X294297Y707608D01*
X294395Y707545D01*
X294495Y707485D01*
X294597Y707429D01*
X294700Y707376D01*
X294805Y707326D01*
X294912Y707280D01*
X295020Y707237D01*
X295130Y707198D01*
X295241Y707162D01*
X295353Y707130D01*
X295466Y707102D01*
X295579Y707077D01*
X295694Y707056D01*
X295809Y707039D01*
X295924Y707026D01*
X296040Y707017D01*
X296157Y707011D01*
X296273Y707009D01*
X296453Y707011D01*
X296632Y707018D01*
X296812Y707028D01*
X296991Y707043D01*
X297170Y707063D01*
X297348Y707086D01*
X297525Y707114D01*
X297702Y707146D01*
X297878Y707182D01*
X298053Y707223D01*
X298227Y707268D01*
X298400Y707317D01*
X298572Y707369D01*
X298743Y707427D01*
X298912Y707488D01*
X299079Y707553D01*
X299245Y707622D01*
X299409Y707695D01*
X299572Y707772D01*
X299732Y707853D01*
X299891Y707937D01*
X300047Y708026D01*
X300201Y708118D01*
X300353Y708214D01*
X300503Y708313D01*
X300651Y708416D01*
X300795Y708523D01*
X300938Y708633D01*
X301077Y708746D01*
X301214Y708863D01*
X301348Y708982D01*
X301479Y709105D01*
X301607Y709231D01*
X301163Y719455D02*
X301161Y719571D01*
X301155Y719688D01*
X301146Y719804D01*
X301133Y719919D01*
X301116Y720034D01*
X301095Y720149D01*
X301070Y720262D01*
X301042Y720375D01*
X301010Y720487D01*
X300974Y720598D01*
X300935Y720708D01*
X300892Y720816D01*
X300846Y720923D01*
X300796Y721028D01*
X300743Y721131D01*
X300687Y721233D01*
X300627Y721333D01*
X300564Y721431D01*
X300497Y721526D01*
X300428Y721620D01*
X300356Y721711D01*
X300281Y721800D01*
X300202Y721886D01*
X300121Y721969D01*
X300038Y722050D01*
X299952Y722129D01*
X299863Y722204D01*
X299772Y722276D01*
X299678Y722345D01*
X299583Y722412D01*
X299485Y722475D01*
X299385Y722535D01*
X299283Y722591D01*
X299180Y722644D01*
X299075Y722694D01*
X298968Y722740D01*
X298860Y722783D01*
X298750Y722822D01*
X298639Y722858D01*
X298527Y722890D01*
X298414Y722918D01*
X298301Y722943D01*
X298186Y722964D01*
X298071Y722981D01*
X297956Y722994D01*
X297840Y723003D01*
X297723Y723009D01*
X297607Y723011D01*
X297607Y723012D02*
X297448Y723010D01*
X297289Y723004D01*
X297131Y722995D01*
X296972Y722982D01*
X296814Y722965D01*
X296657Y722944D01*
X296500Y722919D01*
X296343Y722891D01*
X296188Y722859D01*
X296033Y722824D01*
X295879Y722784D01*
X295726Y722741D01*
X295574Y722694D01*
X295423Y722644D01*
X295274Y722590D01*
X295125Y722533D01*
X294979Y722472D01*
X294833Y722408D01*
X294690Y722340D01*
X294548Y722269D01*
X294407Y722194D01*
X294269Y722116D01*
X294132Y722035D01*
X293998Y721951D01*
X293865Y721863D01*
X293734Y721772D01*
X293606Y721678D01*
X299385Y716343D02*
X299485Y716404D01*
X299583Y716469D01*
X299679Y716536D01*
X299772Y716607D01*
X299863Y716680D01*
X299952Y716757D01*
X300038Y716836D01*
X300122Y716918D01*
X300203Y717003D01*
X300281Y717090D01*
X300356Y717180D01*
X300429Y717272D01*
X300498Y717367D01*
X300564Y717463D01*
X300627Y717562D01*
X300687Y717663D01*
X300744Y717766D01*
X300797Y717870D01*
X300846Y717976D01*
X300893Y718084D01*
X300935Y718193D01*
X300975Y718303D01*
X301010Y718415D01*
X301042Y718528D01*
X301070Y718642D01*
X301095Y718756D01*
X301116Y718872D01*
X301133Y718988D01*
X301146Y719104D01*
X301155Y719221D01*
X301161Y719338D01*
X301163Y719455D01*
X294495Y713677D02*
X294395Y713616D01*
X294297Y713551D01*
X294201Y713484D01*
X294108Y713413D01*
X294017Y713340D01*
X293928Y713263D01*
X293842Y713184D01*
X293758Y713102D01*
X293677Y713017D01*
X293599Y712930D01*
X293524Y712840D01*
X293451Y712748D01*
X293382Y712653D01*
X293316Y712557D01*
X293253Y712458D01*
X293193Y712357D01*
X293136Y712254D01*
X293083Y712150D01*
X293034Y712044D01*
X292987Y711936D01*
X292945Y711827D01*
X292905Y711717D01*
X292870Y711605D01*
X292838Y711492D01*
X292810Y711378D01*
X292785Y711264D01*
X292764Y711148D01*
X292747Y711032D01*
X292734Y710916D01*
X292725Y710799D01*
X292719Y710682D01*
X292717Y710565D01*
X294495Y713677D02*
X299385Y716344D01*
X286129Y723011D02*
X286129Y707009D01*
X286129Y717677D02*
X281684Y717677D01*
X281582Y717675D01*
X281480Y717669D01*
X281378Y717659D01*
X281277Y717646D01*
X281176Y717628D01*
X281076Y717607D01*
X280977Y717582D01*
X280879Y717553D01*
X280783Y717520D01*
X280687Y717484D01*
X280593Y717444D01*
X280501Y717400D01*
X280410Y717353D01*
X280321Y717302D01*
X280234Y717249D01*
X280150Y717191D01*
X280067Y717131D01*
X279987Y717068D01*
X279910Y717001D01*
X279835Y716932D01*
X279762Y716859D01*
X279693Y716784D01*
X279626Y716707D01*
X279563Y716627D01*
X279503Y716544D01*
X279445Y716460D01*
X279392Y716373D01*
X279341Y716284D01*
X279294Y716193D01*
X279250Y716101D01*
X279210Y716007D01*
X279174Y715911D01*
X279141Y715815D01*
X279112Y715717D01*
X279087Y715618D01*
X279066Y715518D01*
X279048Y715417D01*
X279035Y715316D01*
X279025Y715214D01*
X279019Y715112D01*
X279017Y715010D01*
X279017Y707009D01*
X272153Y707009D02*
X272153Y717677D01*
X272597Y722122D02*
X272597Y723011D01*
X271708Y723011D01*
X271708Y722122D01*
X272597Y722122D01*
X267132Y717677D02*
X261798Y717677D01*
X265354Y723011D02*
X265354Y709676D01*
X265352Y709574D01*
X265346Y709472D01*
X265336Y709370D01*
X265323Y709269D01*
X265305Y709168D01*
X265284Y709068D01*
X265259Y708969D01*
X265230Y708871D01*
X265197Y708775D01*
X265161Y708679D01*
X265121Y708585D01*
X265077Y708493D01*
X265030Y708402D01*
X264979Y708313D01*
X264926Y708226D01*
X264868Y708142D01*
X264808Y708059D01*
X264745Y707979D01*
X264678Y707902D01*
X264609Y707827D01*
X264536Y707754D01*
X264461Y707685D01*
X264384Y707618D01*
X264304Y707555D01*
X264221Y707495D01*
X264137Y707437D01*
X264050Y707384D01*
X263961Y707333D01*
X263870Y707286D01*
X263778Y707242D01*
X263684Y707202D01*
X263588Y707166D01*
X263492Y707133D01*
X263394Y707104D01*
X263295Y707079D01*
X263195Y707058D01*
X263094Y707040D01*
X262993Y707027D01*
X262891Y707017D01*
X262789Y707011D01*
X262687Y707009D01*
X261798Y707009D01*
X257232Y717677D02*
X251898Y717677D01*
X255454Y723011D02*
X255454Y709676D01*
X255452Y709574D01*
X255446Y709472D01*
X255436Y709370D01*
X255423Y709269D01*
X255405Y709168D01*
X255384Y709068D01*
X255359Y708969D01*
X255330Y708871D01*
X255297Y708775D01*
X255261Y708679D01*
X255221Y708585D01*
X255177Y708493D01*
X255130Y708402D01*
X255079Y708313D01*
X255026Y708226D01*
X254968Y708142D01*
X254908Y708059D01*
X254845Y707979D01*
X254778Y707902D01*
X254709Y707827D01*
X254636Y707754D01*
X254561Y707685D01*
X254484Y707618D01*
X254404Y707555D01*
X254321Y707495D01*
X254237Y707437D01*
X254150Y707384D01*
X254061Y707333D01*
X253970Y707286D01*
X253878Y707242D01*
X253784Y707202D01*
X253688Y707166D01*
X253592Y707133D01*
X253494Y707104D01*
X253395Y707079D01*
X253295Y707058D01*
X253194Y707040D01*
X253093Y707027D01*
X252991Y707017D01*
X252889Y707011D01*
X252787Y707009D01*
X251898Y707009D01*
X246530Y701675D02*
X244752Y701675D01*
X239418Y717677D01*
X246530Y717677D02*
X242974Y707009D01*
X225904Y707009D02*
X220570Y723011D01*
X215236Y707009D01*
X216569Y711010D02*
X224570Y711010D01*
X202505Y707009D02*
X202505Y723011D01*
X202505Y707009D02*
X206950Y707009D01*
X207052Y707011D01*
X207154Y707017D01*
X207256Y707027D01*
X207357Y707040D01*
X207458Y707058D01*
X207558Y707079D01*
X207657Y707104D01*
X207755Y707133D01*
X207851Y707166D01*
X207947Y707202D01*
X208041Y707242D01*
X208133Y707286D01*
X208224Y707333D01*
X208313Y707384D01*
X208400Y707437D01*
X208484Y707495D01*
X208567Y707555D01*
X208647Y707618D01*
X208724Y707685D01*
X208799Y707754D01*
X208872Y707827D01*
X208941Y707902D01*
X209008Y707979D01*
X209071Y708059D01*
X209131Y708142D01*
X209189Y708226D01*
X209242Y708313D01*
X209293Y708402D01*
X209340Y708493D01*
X209384Y708585D01*
X209424Y708679D01*
X209460Y708775D01*
X209493Y708871D01*
X209522Y708969D01*
X209547Y709068D01*
X209568Y709168D01*
X209586Y709269D01*
X209599Y709370D01*
X209609Y709472D01*
X209615Y709574D01*
X209617Y709676D01*
X209617Y715010D01*
X209615Y715112D01*
X209609Y715214D01*
X209599Y715316D01*
X209586Y715417D01*
X209568Y715518D01*
X209547Y715618D01*
X209522Y715717D01*
X209493Y715815D01*
X209460Y715911D01*
X209424Y716007D01*
X209384Y716101D01*
X209340Y716193D01*
X209293Y716284D01*
X209242Y716373D01*
X209189Y716460D01*
X209131Y716544D01*
X209071Y716627D01*
X209008Y716707D01*
X208941Y716784D01*
X208872Y716859D01*
X208799Y716932D01*
X208724Y717001D01*
X208647Y717068D01*
X208567Y717131D01*
X208484Y717191D01*
X208400Y717249D01*
X208313Y717302D01*
X208224Y717353D01*
X208133Y717400D01*
X208041Y717444D01*
X207947Y717484D01*
X207851Y717520D01*
X207755Y717553D01*
X207657Y717582D01*
X207558Y717607D01*
X207458Y717628D01*
X207357Y717646D01*
X207256Y717659D01*
X207154Y717669D01*
X207052Y717675D01*
X206950Y717677D01*
X202505Y717677D01*
X188437Y723011D02*
X188437Y707009D01*
X192882Y707009D01*
X192984Y707011D01*
X193086Y707017D01*
X193188Y707027D01*
X193289Y707040D01*
X193390Y707058D01*
X193490Y707079D01*
X193589Y707104D01*
X193687Y707133D01*
X193783Y707166D01*
X193879Y707202D01*
X193973Y707242D01*
X194065Y707286D01*
X194156Y707333D01*
X194245Y707384D01*
X194332Y707437D01*
X194416Y707495D01*
X194499Y707555D01*
X194579Y707618D01*
X194656Y707685D01*
X194731Y707754D01*
X194804Y707827D01*
X194873Y707902D01*
X194940Y707979D01*
X195003Y708059D01*
X195063Y708142D01*
X195121Y708226D01*
X195174Y708313D01*
X195225Y708402D01*
X195272Y708493D01*
X195316Y708585D01*
X195356Y708679D01*
X195392Y708775D01*
X195425Y708871D01*
X195454Y708969D01*
X195479Y709068D01*
X195500Y709168D01*
X195518Y709269D01*
X195531Y709370D01*
X195541Y709472D01*
X195547Y709574D01*
X195549Y709676D01*
X195549Y715010D01*
X195547Y715112D01*
X195541Y715214D01*
X195531Y715316D01*
X195518Y715417D01*
X195500Y715518D01*
X195479Y715618D01*
X195454Y715717D01*
X195425Y715815D01*
X195392Y715911D01*
X195356Y716007D01*
X195316Y716101D01*
X195272Y716193D01*
X195225Y716284D01*
X195174Y716373D01*
X195121Y716460D01*
X195063Y716544D01*
X195003Y716627D01*
X194940Y716707D01*
X194873Y716784D01*
X194804Y716859D01*
X194731Y716932D01*
X194656Y717001D01*
X194579Y717068D01*
X194499Y717131D01*
X194416Y717191D01*
X194332Y717249D01*
X194245Y717302D01*
X194156Y717353D01*
X194065Y717400D01*
X193973Y717444D01*
X193879Y717484D01*
X193783Y717520D01*
X193687Y717553D01*
X193589Y717582D01*
X193490Y717607D01*
X193390Y717628D01*
X193289Y717646D01*
X193188Y717659D01*
X193086Y717669D01*
X192984Y717675D01*
X192882Y717677D01*
X188437Y717677D01*
X181094Y713232D02*
X170426Y713232D01*
X163532Y711454D02*
X163532Y718566D01*
X163530Y718698D01*
X163524Y718829D01*
X163514Y718961D01*
X163501Y719092D01*
X163483Y719222D01*
X163462Y719352D01*
X163437Y719482D01*
X163408Y719610D01*
X163375Y719738D01*
X163338Y719864D01*
X163298Y719990D01*
X163254Y720114D01*
X163206Y720237D01*
X163155Y720358D01*
X163100Y720478D01*
X163042Y720596D01*
X162980Y720712D01*
X162914Y720826D01*
X162846Y720939D01*
X162774Y721049D01*
X162699Y721157D01*
X162620Y721263D01*
X162539Y721367D01*
X162454Y721468D01*
X162367Y721566D01*
X162276Y721662D01*
X162183Y721755D01*
X162087Y721846D01*
X161989Y721933D01*
X161888Y722018D01*
X161784Y722099D01*
X161678Y722178D01*
X161570Y722253D01*
X161460Y722325D01*
X161347Y722393D01*
X161233Y722459D01*
X161117Y722521D01*
X160999Y722579D01*
X160879Y722634D01*
X160758Y722685D01*
X160635Y722733D01*
X160511Y722777D01*
X160385Y722817D01*
X160259Y722854D01*
X160131Y722887D01*
X160003Y722916D01*
X159873Y722941D01*
X159743Y722962D01*
X159613Y722980D01*
X159482Y722993D01*
X159350Y723003D01*
X159219Y723009D01*
X159087Y723011D01*
X158955Y723009D01*
X158824Y723003D01*
X158692Y722993D01*
X158561Y722980D01*
X158431Y722962D01*
X158301Y722941D01*
X158171Y722916D01*
X158043Y722887D01*
X157915Y722854D01*
X157789Y722817D01*
X157663Y722777D01*
X157539Y722733D01*
X157416Y722685D01*
X157295Y722634D01*
X157175Y722579D01*
X157057Y722521D01*
X156941Y722459D01*
X156827Y722393D01*
X156714Y722325D01*
X156604Y722253D01*
X156496Y722178D01*
X156390Y722099D01*
X156286Y722018D01*
X156185Y721933D01*
X156087Y721846D01*
X155991Y721755D01*
X155898Y721662D01*
X155807Y721566D01*
X155720Y721468D01*
X155635Y721367D01*
X155554Y721263D01*
X155475Y721157D01*
X155400Y721049D01*
X155328Y720939D01*
X155260Y720826D01*
X155194Y720712D01*
X155132Y720596D01*
X155074Y720478D01*
X155019Y720358D01*
X154968Y720237D01*
X154920Y720114D01*
X154876Y719990D01*
X154836Y719864D01*
X154799Y719738D01*
X154766Y719610D01*
X154737Y719482D01*
X154712Y719352D01*
X154691Y719222D01*
X154673Y719092D01*
X154660Y718961D01*
X154650Y718829D01*
X154644Y718698D01*
X154642Y718566D01*
X154642Y711454D01*
X154644Y711322D01*
X154650Y711191D01*
X154660Y711059D01*
X154673Y710928D01*
X154691Y710798D01*
X154712Y710668D01*
X154737Y710538D01*
X154766Y710410D01*
X154799Y710282D01*
X154836Y710156D01*
X154876Y710030D01*
X154920Y709906D01*
X154968Y709783D01*
X155019Y709662D01*
X155074Y709542D01*
X155132Y709424D01*
X155194Y709308D01*
X155260Y709194D01*
X155328Y709081D01*
X155400Y708971D01*
X155475Y708863D01*
X155554Y708757D01*
X155635Y708653D01*
X155720Y708552D01*
X155807Y708454D01*
X155898Y708358D01*
X155991Y708265D01*
X156087Y708174D01*
X156185Y708087D01*
X156286Y708002D01*
X156390Y707921D01*
X156496Y707842D01*
X156604Y707767D01*
X156714Y707695D01*
X156827Y707627D01*
X156941Y707561D01*
X157057Y707499D01*
X157175Y707441D01*
X157295Y707386D01*
X157416Y707335D01*
X157539Y707287D01*
X157663Y707243D01*
X157789Y707203D01*
X157915Y707166D01*
X158043Y707133D01*
X158171Y707104D01*
X158301Y707079D01*
X158431Y707058D01*
X158561Y707040D01*
X158692Y707027D01*
X158824Y707017D01*
X158955Y707011D01*
X159087Y707009D01*
X159219Y707011D01*
X159350Y707017D01*
X159482Y707027D01*
X159613Y707040D01*
X159743Y707058D01*
X159873Y707079D01*
X160003Y707104D01*
X160131Y707133D01*
X160259Y707166D01*
X160385Y707203D01*
X160511Y707243D01*
X160635Y707287D01*
X160758Y707335D01*
X160879Y707386D01*
X160999Y707441D01*
X161117Y707499D01*
X161233Y707561D01*
X161347Y707627D01*
X161460Y707695D01*
X161570Y707767D01*
X161678Y707842D01*
X161784Y707921D01*
X161888Y708002D01*
X161989Y708087D01*
X162087Y708174D01*
X162183Y708265D01*
X162276Y708358D01*
X162367Y708454D01*
X162454Y708552D01*
X162539Y708653D01*
X162620Y708757D01*
X162699Y708863D01*
X162774Y708971D01*
X162846Y709081D01*
X162914Y709194D01*
X162980Y709308D01*
X163042Y709424D01*
X163100Y709542D01*
X163155Y709662D01*
X163206Y709783D01*
X163254Y709906D01*
X163298Y710030D01*
X163338Y710156D01*
X163375Y710282D01*
X163408Y710410D01*
X163437Y710538D01*
X163462Y710668D01*
X163483Y710798D01*
X163501Y710928D01*
X163514Y711059D01*
X163524Y711191D01*
X163530Y711322D01*
X163532Y711454D01*
X147533Y707009D02*
X147533Y717677D01*
X143088Y717677D01*
X142986Y717675D01*
X142884Y717669D01*
X142782Y717659D01*
X142681Y717646D01*
X142580Y717628D01*
X142480Y717607D01*
X142381Y717582D01*
X142283Y717553D01*
X142187Y717520D01*
X142091Y717484D01*
X141997Y717444D01*
X141905Y717400D01*
X141814Y717353D01*
X141725Y717302D01*
X141638Y717249D01*
X141554Y717191D01*
X141471Y717131D01*
X141391Y717068D01*
X141314Y717001D01*
X141239Y716932D01*
X141166Y716859D01*
X141097Y716784D01*
X141030Y716707D01*
X140967Y716627D01*
X140907Y716544D01*
X140849Y716460D01*
X140796Y716373D01*
X140745Y716284D01*
X140698Y716193D01*
X140654Y716101D01*
X140614Y716007D01*
X140578Y715911D01*
X140545Y715815D01*
X140516Y715717D01*
X140491Y715618D01*
X140470Y715518D01*
X140452Y715417D01*
X140439Y715316D01*
X140429Y715214D01*
X140423Y715112D01*
X140421Y715010D01*
X140421Y707009D01*
X123794Y713232D02*
X119349Y711454D01*
X123794Y713232D02*
X123882Y713269D01*
X123968Y713310D01*
X124053Y713354D01*
X124135Y713402D01*
X124216Y713454D01*
X124294Y713508D01*
X124370Y713566D01*
X124444Y713627D01*
X124515Y713691D01*
X124583Y713757D01*
X124648Y713827D01*
X124711Y713899D01*
X124770Y713974D01*
X124827Y714051D01*
X124880Y714130D01*
X124930Y714212D01*
X124976Y714295D01*
X125019Y714380D01*
X125058Y714468D01*
X125094Y714556D01*
X125126Y714646D01*
X125154Y714737D01*
X125178Y714830D01*
X125199Y714923D01*
X125215Y715017D01*
X125228Y715111D01*
X125237Y715207D01*
X125242Y715302D01*
X125243Y715397D01*
X125240Y715493D01*
X125233Y715588D01*
X125222Y715683D01*
X125207Y715777D01*
X125188Y715871D01*
X125166Y715964D01*
X125139Y716055D01*
X125109Y716146D01*
X125075Y716235D01*
X125038Y716323D01*
X124997Y716409D01*
X124952Y716493D01*
X124904Y716576D01*
X124852Y716656D01*
X124797Y716734D01*
X124739Y716810D01*
X124678Y716884D01*
X124614Y716954D01*
X124547Y717022D01*
X124477Y717088D01*
X124405Y717150D01*
X124330Y717209D01*
X124253Y717265D01*
X124173Y717318D01*
X124092Y717367D01*
X124008Y717414D01*
X123923Y717456D01*
X123835Y717495D01*
X123747Y717530D01*
X123657Y717562D01*
X123565Y717590D01*
X123473Y717614D01*
X123380Y717634D01*
X123286Y717651D01*
X123191Y717663D01*
X123096Y717672D01*
X123001Y717676D01*
X122905Y717677D01*
X122906Y717677D02*
X122663Y717671D01*
X122421Y717658D01*
X122179Y717640D01*
X121937Y717616D01*
X121696Y717587D01*
X121456Y717551D01*
X121217Y717510D01*
X120979Y717463D01*
X120742Y717411D01*
X120506Y717352D01*
X120272Y717288D01*
X120039Y717219D01*
X119808Y717143D01*
X119579Y717063D01*
X119353Y716977D01*
X119128Y716885D01*
X118905Y716788D01*
X119349Y711454D02*
X119261Y711417D01*
X119175Y711376D01*
X119090Y711332D01*
X119008Y711284D01*
X118927Y711232D01*
X118849Y711178D01*
X118773Y711120D01*
X118699Y711059D01*
X118628Y710995D01*
X118560Y710929D01*
X118495Y710859D01*
X118432Y710787D01*
X118373Y710712D01*
X118316Y710635D01*
X118263Y710556D01*
X118213Y710474D01*
X118167Y710391D01*
X118124Y710306D01*
X118085Y710218D01*
X118049Y710130D01*
X118017Y710040D01*
X117989Y709949D01*
X117965Y709856D01*
X117944Y709763D01*
X117928Y709669D01*
X117915Y709575D01*
X117906Y709479D01*
X117901Y709384D01*
X117900Y709289D01*
X117903Y709193D01*
X117910Y709098D01*
X117921Y709003D01*
X117936Y708909D01*
X117955Y708815D01*
X117977Y708722D01*
X118004Y708631D01*
X118034Y708540D01*
X118068Y708451D01*
X118105Y708363D01*
X118146Y708277D01*
X118191Y708193D01*
X118239Y708110D01*
X118291Y708030D01*
X118346Y707952D01*
X118404Y707876D01*
X118465Y707802D01*
X118529Y707732D01*
X118596Y707664D01*
X118666Y707598D01*
X118738Y707536D01*
X118813Y707477D01*
X118890Y707421D01*
X118970Y707368D01*
X119051Y707319D01*
X119135Y707272D01*
X119220Y707230D01*
X119308Y707191D01*
X119396Y707156D01*
X119486Y707124D01*
X119578Y707096D01*
X119670Y707072D01*
X119763Y707052D01*
X119857Y707035D01*
X119952Y707023D01*
X120047Y707014D01*
X120142Y707010D01*
X120238Y707009D01*
X120238Y707010D02*
X120595Y707019D01*
X120951Y707037D01*
X121307Y707063D01*
X121662Y707097D01*
X122016Y707140D01*
X122368Y707192D01*
X122720Y707251D01*
X123070Y707319D01*
X123418Y707395D01*
X123765Y707480D01*
X124109Y707572D01*
X124451Y707673D01*
X124791Y707782D01*
X125128Y707899D01*
X111672Y707009D02*
X111672Y717677D01*
X112117Y722122D02*
X112117Y723011D01*
X111228Y723011D01*
X111228Y722122D01*
X112117Y722122D01*
X102742Y707009D02*
X98297Y707009D01*
X102742Y707009D02*
X102844Y707011D01*
X102946Y707017D01*
X103048Y707027D01*
X103149Y707040D01*
X103250Y707058D01*
X103350Y707079D01*
X103449Y707104D01*
X103547Y707133D01*
X103643Y707166D01*
X103739Y707202D01*
X103833Y707242D01*
X103925Y707286D01*
X104016Y707333D01*
X104105Y707384D01*
X104192Y707437D01*
X104276Y707495D01*
X104359Y707555D01*
X104439Y707618D01*
X104516Y707685D01*
X104591Y707754D01*
X104664Y707827D01*
X104733Y707902D01*
X104800Y707979D01*
X104863Y708059D01*
X104923Y708142D01*
X104981Y708226D01*
X105034Y708313D01*
X105085Y708402D01*
X105132Y708493D01*
X105176Y708585D01*
X105216Y708679D01*
X105252Y708775D01*
X105285Y708871D01*
X105314Y708969D01*
X105339Y709068D01*
X105360Y709168D01*
X105378Y709269D01*
X105391Y709370D01*
X105401Y709472D01*
X105407Y709574D01*
X105409Y709676D01*
X105409Y715010D01*
X105407Y715112D01*
X105401Y715214D01*
X105391Y715316D01*
X105378Y715417D01*
X105360Y715518D01*
X105339Y715618D01*
X105314Y715717D01*
X105285Y715815D01*
X105252Y715911D01*
X105216Y716007D01*
X105176Y716101D01*
X105132Y716193D01*
X105085Y716284D01*
X105034Y716373D01*
X104981Y716460D01*
X104923Y716544D01*
X104863Y716627D01*
X104800Y716707D01*
X104733Y716784D01*
X104664Y716859D01*
X104591Y716932D01*
X104516Y717001D01*
X104439Y717068D01*
X104359Y717131D01*
X104276Y717191D01*
X104192Y717249D01*
X104105Y717302D01*
X104016Y717353D01*
X103925Y717400D01*
X103833Y717444D01*
X103739Y717484D01*
X103643Y717520D01*
X103547Y717553D01*
X103449Y717582D01*
X103350Y717607D01*
X103250Y717628D01*
X103149Y717646D01*
X103048Y717659D01*
X102946Y717669D01*
X102844Y717675D01*
X102742Y717677D01*
X98297Y717677D01*
X98297Y704342D01*
X98299Y704240D01*
X98305Y704138D01*
X98315Y704036D01*
X98328Y703935D01*
X98346Y703834D01*
X98367Y703734D01*
X98392Y703635D01*
X98421Y703537D01*
X98454Y703441D01*
X98490Y703345D01*
X98530Y703251D01*
X98574Y703159D01*
X98621Y703068D01*
X98672Y702979D01*
X98725Y702892D01*
X98783Y702808D01*
X98843Y702725D01*
X98906Y702645D01*
X98973Y702568D01*
X99042Y702493D01*
X99115Y702420D01*
X99190Y702351D01*
X99267Y702284D01*
X99347Y702221D01*
X99430Y702161D01*
X99514Y702103D01*
X99601Y702050D01*
X99690Y701999D01*
X99781Y701952D01*
X99873Y701908D01*
X99967Y701868D01*
X100063Y701832D01*
X100159Y701799D01*
X100257Y701770D01*
X100356Y701745D01*
X100456Y701724D01*
X100557Y701706D01*
X100658Y701693D01*
X100760Y701683D01*
X100862Y701677D01*
X100964Y701675D01*
X104520Y701675D01*
X90739Y707009D02*
X90739Y717677D01*
X86294Y717677D01*
X86192Y717675D01*
X86090Y717669D01*
X85988Y717659D01*
X85887Y717646D01*
X85786Y717628D01*
X85686Y717607D01*
X85587Y717582D01*
X85489Y717553D01*
X85393Y717520D01*
X85297Y717484D01*
X85203Y717444D01*
X85111Y717400D01*
X85020Y717353D01*
X84931Y717302D01*
X84844Y717249D01*
X84760Y717191D01*
X84677Y717131D01*
X84597Y717068D01*
X84520Y717001D01*
X84445Y716932D01*
X84372Y716859D01*
X84303Y716784D01*
X84236Y716707D01*
X84173Y716627D01*
X84113Y716544D01*
X84055Y716460D01*
X84002Y716373D01*
X83951Y716284D01*
X83904Y716193D01*
X83860Y716101D01*
X83820Y716007D01*
X83784Y715911D01*
X83751Y715815D01*
X83722Y715717D01*
X83697Y715618D01*
X83676Y715518D01*
X83658Y715417D01*
X83645Y715316D01*
X83635Y715214D01*
X83629Y715112D01*
X83627Y715010D01*
X83627Y707009D01*
X73640Y713232D02*
X69640Y713232D01*
X73640Y713233D02*
X73751Y713231D01*
X73862Y713225D01*
X73973Y713215D01*
X74083Y713201D01*
X74193Y713184D01*
X74302Y713162D01*
X74410Y713136D01*
X74517Y713107D01*
X74623Y713074D01*
X74728Y713037D01*
X74831Y712996D01*
X74933Y712952D01*
X75033Y712904D01*
X75131Y712852D01*
X75228Y712797D01*
X75322Y712739D01*
X75415Y712677D01*
X75505Y712612D01*
X75593Y712544D01*
X75678Y712473D01*
X75761Y712399D01*
X75841Y712322D01*
X75918Y712242D01*
X75992Y712159D01*
X76063Y712074D01*
X76131Y711986D01*
X76196Y711896D01*
X76258Y711803D01*
X76316Y711709D01*
X76371Y711612D01*
X76423Y711514D01*
X76471Y711414D01*
X76515Y711312D01*
X76556Y711209D01*
X76593Y711104D01*
X76626Y710998D01*
X76655Y710891D01*
X76681Y710783D01*
X76703Y710674D01*
X76720Y710564D01*
X76734Y710454D01*
X76744Y710343D01*
X76750Y710232D01*
X76752Y710121D01*
X76750Y710010D01*
X76744Y709899D01*
X76734Y709788D01*
X76720Y709678D01*
X76703Y709568D01*
X76681Y709459D01*
X76655Y709351D01*
X76626Y709244D01*
X76593Y709138D01*
X76556Y709033D01*
X76515Y708930D01*
X76471Y708828D01*
X76423Y708728D01*
X76371Y708630D01*
X76316Y708533D01*
X76258Y708439D01*
X76196Y708346D01*
X76131Y708256D01*
X76063Y708168D01*
X75992Y708083D01*
X75918Y708000D01*
X75841Y707920D01*
X75761Y707843D01*
X75678Y707769D01*
X75593Y707698D01*
X75505Y707630D01*
X75415Y707565D01*
X75322Y707503D01*
X75228Y707445D01*
X75131Y707390D01*
X75033Y707338D01*
X74933Y707290D01*
X74831Y707246D01*
X74728Y707205D01*
X74623Y707168D01*
X74517Y707135D01*
X74410Y707106D01*
X74302Y707080D01*
X74193Y707058D01*
X74083Y707041D01*
X73973Y707027D01*
X73862Y707017D01*
X73751Y707011D01*
X73640Y707009D01*
X69640Y707009D01*
X69640Y715010D01*
X69642Y715112D01*
X69648Y715214D01*
X69658Y715316D01*
X69671Y715417D01*
X69689Y715518D01*
X69710Y715618D01*
X69735Y715717D01*
X69764Y715815D01*
X69797Y715911D01*
X69833Y716007D01*
X69873Y716101D01*
X69917Y716193D01*
X69964Y716284D01*
X70015Y716373D01*
X70068Y716460D01*
X70126Y716544D01*
X70186Y716627D01*
X70249Y716707D01*
X70316Y716784D01*
X70385Y716859D01*
X70458Y716932D01*
X70533Y717001D01*
X70610Y717068D01*
X70690Y717131D01*
X70773Y717191D01*
X70857Y717249D01*
X70944Y717302D01*
X71033Y717353D01*
X71124Y717400D01*
X71216Y717444D01*
X71310Y717484D01*
X71406Y717520D01*
X71502Y717553D01*
X71600Y717582D01*
X71699Y717607D01*
X71799Y717628D01*
X71900Y717646D01*
X72001Y717659D01*
X72103Y717669D01*
X72205Y717675D01*
X72307Y717677D01*
X75863Y717677D01*
X62395Y723011D02*
X62395Y709676D01*
X62393Y709574D01*
X62387Y709472D01*
X62377Y709370D01*
X62364Y709269D01*
X62346Y709168D01*
X62325Y709068D01*
X62300Y708969D01*
X62271Y708871D01*
X62238Y708775D01*
X62202Y708679D01*
X62162Y708585D01*
X62118Y708493D01*
X62071Y708402D01*
X62020Y708313D01*
X61967Y708226D01*
X61909Y708142D01*
X61849Y708059D01*
X61786Y707979D01*
X61719Y707902D01*
X61650Y707827D01*
X61577Y707754D01*
X61502Y707685D01*
X61425Y707618D01*
X61345Y707555D01*
X61262Y707495D01*
X61178Y707437D01*
X61091Y707384D01*
X61002Y707333D01*
X60911Y707286D01*
X60819Y707242D01*
X60725Y707202D01*
X60629Y707166D01*
X60533Y707133D01*
X60435Y707104D01*
X60336Y707079D01*
X60236Y707058D01*
X60135Y707040D01*
X60034Y707027D01*
X59932Y707017D01*
X59830Y707011D01*
X59728Y707009D01*
X52933Y713232D02*
X48488Y711454D01*
X52933Y713232D02*
X53021Y713269D01*
X53107Y713310D01*
X53192Y713354D01*
X53274Y713402D01*
X53355Y713454D01*
X53433Y713508D01*
X53509Y713566D01*
X53583Y713627D01*
X53654Y713691D01*
X53722Y713757D01*
X53787Y713827D01*
X53850Y713899D01*
X53909Y713974D01*
X53966Y714051D01*
X54019Y714130D01*
X54069Y714212D01*
X54115Y714295D01*
X54158Y714380D01*
X54197Y714468D01*
X54233Y714556D01*
X54265Y714646D01*
X54293Y714737D01*
X54317Y714830D01*
X54338Y714923D01*
X54354Y715017D01*
X54367Y715111D01*
X54376Y715207D01*
X54381Y715302D01*
X54382Y715397D01*
X54379Y715493D01*
X54372Y715588D01*
X54361Y715683D01*
X54346Y715777D01*
X54327Y715871D01*
X54305Y715964D01*
X54278Y716055D01*
X54248Y716146D01*
X54214Y716235D01*
X54177Y716323D01*
X54136Y716409D01*
X54091Y716493D01*
X54043Y716576D01*
X53991Y716656D01*
X53936Y716734D01*
X53878Y716810D01*
X53817Y716884D01*
X53753Y716954D01*
X53686Y717022D01*
X53616Y717088D01*
X53544Y717150D01*
X53469Y717209D01*
X53392Y717265D01*
X53312Y717318D01*
X53231Y717367D01*
X53147Y717414D01*
X53062Y717456D01*
X52974Y717495D01*
X52886Y717530D01*
X52796Y717562D01*
X52704Y717590D01*
X52612Y717614D01*
X52519Y717634D01*
X52425Y717651D01*
X52330Y717663D01*
X52235Y717672D01*
X52140Y717676D01*
X52044Y717677D01*
X51801Y717671D01*
X51559Y717658D01*
X51317Y717640D01*
X51075Y717616D01*
X50834Y717587D01*
X50594Y717551D01*
X50355Y717510D01*
X50117Y717463D01*
X49880Y717411D01*
X49644Y717352D01*
X49410Y717288D01*
X49177Y717219D01*
X48946Y717143D01*
X48717Y717063D01*
X48491Y716977D01*
X48266Y716885D01*
X48043Y716788D01*
X48488Y711454D02*
X48400Y711417D01*
X48314Y711376D01*
X48229Y711332D01*
X48147Y711284D01*
X48066Y711232D01*
X47988Y711178D01*
X47912Y711120D01*
X47838Y711059D01*
X47767Y710995D01*
X47699Y710929D01*
X47634Y710859D01*
X47571Y710787D01*
X47512Y710712D01*
X47455Y710635D01*
X47402Y710556D01*
X47352Y710474D01*
X47306Y710391D01*
X47263Y710306D01*
X47224Y710218D01*
X47188Y710130D01*
X47156Y710040D01*
X47128Y709949D01*
X47104Y709856D01*
X47083Y709763D01*
X47067Y709669D01*
X47054Y709575D01*
X47045Y709479D01*
X47040Y709384D01*
X47039Y709289D01*
X47042Y709193D01*
X47049Y709098D01*
X47060Y709003D01*
X47075Y708909D01*
X47094Y708815D01*
X47116Y708722D01*
X47143Y708631D01*
X47173Y708540D01*
X47207Y708451D01*
X47244Y708363D01*
X47285Y708277D01*
X47330Y708193D01*
X47378Y708110D01*
X47430Y708030D01*
X47485Y707952D01*
X47543Y707876D01*
X47604Y707802D01*
X47668Y707732D01*
X47735Y707664D01*
X47805Y707598D01*
X47877Y707536D01*
X47952Y707477D01*
X48029Y707421D01*
X48109Y707368D01*
X48190Y707319D01*
X48274Y707272D01*
X48359Y707230D01*
X48447Y707191D01*
X48535Y707156D01*
X48625Y707124D01*
X48717Y707096D01*
X48809Y707072D01*
X48902Y707052D01*
X48996Y707035D01*
X49091Y707023D01*
X49186Y707014D01*
X49281Y707010D01*
X49377Y707009D01*
X49376Y707010D02*
X49733Y707019D01*
X50089Y707037D01*
X50445Y707063D01*
X50800Y707097D01*
X51154Y707140D01*
X51506Y707192D01*
X51858Y707251D01*
X52208Y707319D01*
X52556Y707395D01*
X52903Y707480D01*
X53247Y707572D01*
X53589Y707673D01*
X53929Y707782D01*
X54266Y707899D01*
X227083Y696341D02*
X227083Y680339D01*
X231528Y696341D02*
X222638Y696341D01*
X216938Y691896D02*
X216938Y684784D01*
X216938Y691896D02*
X216936Y692028D01*
X216930Y692159D01*
X216920Y692291D01*
X216907Y692422D01*
X216889Y692552D01*
X216868Y692682D01*
X216843Y692812D01*
X216814Y692940D01*
X216781Y693068D01*
X216744Y693194D01*
X216704Y693320D01*
X216660Y693444D01*
X216612Y693567D01*
X216561Y693688D01*
X216506Y693808D01*
X216448Y693926D01*
X216386Y694042D01*
X216320Y694156D01*
X216252Y694269D01*
X216180Y694379D01*
X216105Y694487D01*
X216026Y694593D01*
X215945Y694697D01*
X215860Y694798D01*
X215773Y694896D01*
X215682Y694992D01*
X215589Y695085D01*
X215493Y695176D01*
X215395Y695263D01*
X215294Y695348D01*
X215190Y695429D01*
X215084Y695508D01*
X214976Y695583D01*
X214866Y695655D01*
X214753Y695723D01*
X214639Y695789D01*
X214523Y695851D01*
X214405Y695909D01*
X214285Y695964D01*
X214164Y696015D01*
X214041Y696063D01*
X213917Y696107D01*
X213791Y696147D01*
X213665Y696184D01*
X213537Y696217D01*
X213409Y696246D01*
X213279Y696271D01*
X213149Y696292D01*
X213019Y696310D01*
X212888Y696323D01*
X212756Y696333D01*
X212625Y696339D01*
X212493Y696341D01*
X212361Y696339D01*
X212230Y696333D01*
X212098Y696323D01*
X211967Y696310D01*
X211837Y696292D01*
X211707Y696271D01*
X211577Y696246D01*
X211449Y696217D01*
X211321Y696184D01*
X211195Y696147D01*
X211069Y696107D01*
X210945Y696063D01*
X210822Y696015D01*
X210701Y695964D01*
X210581Y695909D01*
X210463Y695851D01*
X210347Y695789D01*
X210233Y695723D01*
X210120Y695655D01*
X210010Y695583D01*
X209902Y695508D01*
X209796Y695429D01*
X209692Y695348D01*
X209591Y695263D01*
X209493Y695176D01*
X209397Y695085D01*
X209304Y694992D01*
X209213Y694896D01*
X209126Y694798D01*
X209041Y694697D01*
X208960Y694593D01*
X208881Y694487D01*
X208806Y694379D01*
X208734Y694269D01*
X208666Y694156D01*
X208600Y694042D01*
X208538Y693926D01*
X208480Y693808D01*
X208425Y693688D01*
X208374Y693567D01*
X208326Y693444D01*
X208282Y693320D01*
X208242Y693194D01*
X208205Y693068D01*
X208172Y692940D01*
X208143Y692812D01*
X208118Y692682D01*
X208097Y692552D01*
X208079Y692422D01*
X208066Y692291D01*
X208056Y692159D01*
X208050Y692028D01*
X208048Y691896D01*
X208048Y684784D01*
X208050Y684652D01*
X208056Y684521D01*
X208066Y684389D01*
X208079Y684258D01*
X208097Y684128D01*
X208118Y683998D01*
X208143Y683868D01*
X208172Y683740D01*
X208205Y683612D01*
X208242Y683486D01*
X208282Y683360D01*
X208326Y683236D01*
X208374Y683113D01*
X208425Y682992D01*
X208480Y682872D01*
X208538Y682754D01*
X208600Y682638D01*
X208666Y682524D01*
X208734Y682411D01*
X208806Y682301D01*
X208881Y682193D01*
X208960Y682087D01*
X209041Y681983D01*
X209126Y681882D01*
X209213Y681784D01*
X209304Y681688D01*
X209397Y681595D01*
X209493Y681504D01*
X209591Y681417D01*
X209692Y681332D01*
X209796Y681251D01*
X209902Y681172D01*
X210010Y681097D01*
X210120Y681025D01*
X210233Y680957D01*
X210347Y680891D01*
X210463Y680829D01*
X210581Y680771D01*
X210701Y680716D01*
X210822Y680665D01*
X210945Y680617D01*
X211069Y680573D01*
X211195Y680533D01*
X211321Y680496D01*
X211449Y680463D01*
X211577Y680434D01*
X211707Y680409D01*
X211837Y680388D01*
X211967Y680370D01*
X212098Y680357D01*
X212230Y680347D01*
X212361Y680341D01*
X212493Y680339D01*
X212625Y680341D01*
X212756Y680347D01*
X212888Y680357D01*
X213019Y680370D01*
X213149Y680388D01*
X213279Y680409D01*
X213409Y680434D01*
X213537Y680463D01*
X213665Y680496D01*
X213791Y680533D01*
X213917Y680573D01*
X214041Y680617D01*
X214164Y680665D01*
X214285Y680716D01*
X214405Y680771D01*
X214523Y680829D01*
X214639Y680891D01*
X214753Y680957D01*
X214866Y681025D01*
X214976Y681097D01*
X215084Y681172D01*
X215190Y681251D01*
X215294Y681332D01*
X215395Y681417D01*
X215493Y681504D01*
X215589Y681595D01*
X215682Y681688D01*
X215773Y681784D01*
X215860Y681882D01*
X215945Y681983D01*
X216026Y682087D01*
X216105Y682193D01*
X216180Y682301D01*
X216252Y682411D01*
X216320Y682524D01*
X216386Y682638D01*
X216448Y682754D01*
X216506Y682872D01*
X216561Y682992D01*
X216612Y683113D01*
X216660Y683236D01*
X216704Y683360D01*
X216744Y683486D01*
X216781Y683612D01*
X216814Y683740D01*
X216843Y683868D01*
X216868Y683998D01*
X216889Y684128D01*
X216907Y684258D01*
X216920Y684389D01*
X216930Y684521D01*
X216936Y684652D01*
X216938Y684784D01*
X201307Y684784D02*
X201307Y691896D01*
X201305Y692028D01*
X201299Y692159D01*
X201289Y692291D01*
X201276Y692422D01*
X201258Y692552D01*
X201237Y692682D01*
X201212Y692812D01*
X201183Y692940D01*
X201150Y693068D01*
X201113Y693194D01*
X201073Y693320D01*
X201029Y693444D01*
X200981Y693567D01*
X200930Y693688D01*
X200875Y693808D01*
X200817Y693926D01*
X200755Y694042D01*
X200689Y694156D01*
X200621Y694269D01*
X200549Y694379D01*
X200474Y694487D01*
X200395Y694593D01*
X200314Y694697D01*
X200229Y694798D01*
X200142Y694896D01*
X200051Y694992D01*
X199958Y695085D01*
X199862Y695176D01*
X199764Y695263D01*
X199663Y695348D01*
X199559Y695429D01*
X199453Y695508D01*
X199345Y695583D01*
X199235Y695655D01*
X199122Y695723D01*
X199008Y695789D01*
X198892Y695851D01*
X198774Y695909D01*
X198654Y695964D01*
X198533Y696015D01*
X198410Y696063D01*
X198286Y696107D01*
X198160Y696147D01*
X198034Y696184D01*
X197906Y696217D01*
X197778Y696246D01*
X197648Y696271D01*
X197518Y696292D01*
X197388Y696310D01*
X197257Y696323D01*
X197125Y696333D01*
X196994Y696339D01*
X196862Y696341D01*
X196730Y696339D01*
X196599Y696333D01*
X196467Y696323D01*
X196336Y696310D01*
X196206Y696292D01*
X196076Y696271D01*
X195946Y696246D01*
X195818Y696217D01*
X195690Y696184D01*
X195564Y696147D01*
X195438Y696107D01*
X195314Y696063D01*
X195191Y696015D01*
X195070Y695964D01*
X194950Y695909D01*
X194832Y695851D01*
X194716Y695789D01*
X194602Y695723D01*
X194489Y695655D01*
X194379Y695583D01*
X194271Y695508D01*
X194165Y695429D01*
X194061Y695348D01*
X193960Y695263D01*
X193862Y695176D01*
X193766Y695085D01*
X193673Y694992D01*
X193582Y694896D01*
X193495Y694798D01*
X193410Y694697D01*
X193329Y694593D01*
X193250Y694487D01*
X193175Y694379D01*
X193103Y694269D01*
X193035Y694156D01*
X192969Y694042D01*
X192907Y693926D01*
X192849Y693808D01*
X192794Y693688D01*
X192743Y693567D01*
X192695Y693444D01*
X192651Y693320D01*
X192611Y693194D01*
X192574Y693068D01*
X192541Y692940D01*
X192512Y692812D01*
X192487Y692682D01*
X192466Y692552D01*
X192448Y692422D01*
X192435Y692291D01*
X192425Y692159D01*
X192419Y692028D01*
X192417Y691896D01*
X192417Y684784D01*
X192419Y684652D01*
X192425Y684521D01*
X192435Y684389D01*
X192448Y684258D01*
X192466Y684128D01*
X192487Y683998D01*
X192512Y683868D01*
X192541Y683740D01*
X192574Y683612D01*
X192611Y683486D01*
X192651Y683360D01*
X192695Y683236D01*
X192743Y683113D01*
X192794Y682992D01*
X192849Y682872D01*
X192907Y682754D01*
X192969Y682638D01*
X193035Y682524D01*
X193103Y682411D01*
X193175Y682301D01*
X193250Y682193D01*
X193329Y682087D01*
X193410Y681983D01*
X193495Y681882D01*
X193582Y681784D01*
X193673Y681688D01*
X193766Y681595D01*
X193862Y681504D01*
X193960Y681417D01*
X194061Y681332D01*
X194165Y681251D01*
X194271Y681172D01*
X194379Y681097D01*
X194489Y681025D01*
X194602Y680957D01*
X194716Y680891D01*
X194832Y680829D01*
X194950Y680771D01*
X195070Y680716D01*
X195191Y680665D01*
X195314Y680617D01*
X195438Y680573D01*
X195564Y680533D01*
X195690Y680496D01*
X195818Y680463D01*
X195946Y680434D01*
X196076Y680409D01*
X196206Y680388D01*
X196336Y680370D01*
X196467Y680357D01*
X196599Y680347D01*
X196730Y680341D01*
X196862Y680339D01*
X196994Y680341D01*
X197125Y680347D01*
X197257Y680357D01*
X197388Y680370D01*
X197518Y680388D01*
X197648Y680409D01*
X197778Y680434D01*
X197906Y680463D01*
X198034Y680496D01*
X198160Y680533D01*
X198286Y680573D01*
X198410Y680617D01*
X198533Y680665D01*
X198654Y680716D01*
X198774Y680771D01*
X198892Y680829D01*
X199008Y680891D01*
X199122Y680957D01*
X199235Y681025D01*
X199345Y681097D01*
X199453Y681172D01*
X199559Y681251D01*
X199663Y681332D01*
X199764Y681417D01*
X199862Y681504D01*
X199958Y681595D01*
X200051Y681688D01*
X200142Y681784D01*
X200229Y681882D01*
X200314Y681983D01*
X200395Y682087D01*
X200474Y682193D01*
X200549Y682301D01*
X200621Y682411D01*
X200689Y682524D01*
X200755Y682638D01*
X200817Y682754D01*
X200875Y682872D01*
X200930Y682992D01*
X200981Y683113D01*
X201029Y683236D01*
X201073Y683360D01*
X201113Y683486D01*
X201150Y683612D01*
X201183Y683740D01*
X201212Y683868D01*
X201237Y683998D01*
X201258Y684128D01*
X201276Y684258D01*
X201289Y684389D01*
X201299Y684521D01*
X201305Y684652D01*
X201307Y684784D01*
X177922Y696341D02*
X174366Y680339D01*
X170810Y691007D01*
X167254Y680339D01*
X163698Y696341D01*
X156986Y680339D02*
X149874Y680339D01*
X156986Y680339D02*
X156986Y696341D01*
X149874Y696341D01*
X151652Y689229D02*
X156986Y689229D01*
X144882Y680339D02*
X139548Y696341D01*
X134214Y680339D01*
X135547Y684340D02*
X143548Y684340D01*
X127608Y680339D02*
X127608Y696341D01*
X118718Y696341D02*
X127608Y686562D01*
X124052Y690118D02*
X118718Y680339D01*
X106292Y693674D02*
X106294Y693776D01*
X106300Y693878D01*
X106310Y693980D01*
X106323Y694081D01*
X106341Y694182D01*
X106362Y694282D01*
X106387Y694381D01*
X106416Y694479D01*
X106449Y694575D01*
X106485Y694671D01*
X106525Y694765D01*
X106569Y694857D01*
X106616Y694948D01*
X106667Y695037D01*
X106720Y695124D01*
X106778Y695208D01*
X106838Y695291D01*
X106901Y695371D01*
X106968Y695448D01*
X107037Y695523D01*
X107110Y695596D01*
X107185Y695665D01*
X107262Y695732D01*
X107342Y695795D01*
X107425Y695855D01*
X107509Y695913D01*
X107596Y695966D01*
X107685Y696017D01*
X107776Y696064D01*
X107868Y696108D01*
X107962Y696148D01*
X108058Y696184D01*
X108154Y696217D01*
X108252Y696246D01*
X108351Y696271D01*
X108451Y696292D01*
X108552Y696310D01*
X108653Y696323D01*
X108755Y696333D01*
X108857Y696339D01*
X108959Y696341D01*
X109227Y696338D01*
X109496Y696329D01*
X109764Y696313D01*
X110031Y696291D01*
X110298Y696263D01*
X110564Y696229D01*
X110829Y696189D01*
X111094Y696142D01*
X111357Y696089D01*
X111619Y696031D01*
X111879Y695966D01*
X112138Y695895D01*
X112395Y695818D01*
X112651Y695736D01*
X112904Y695647D01*
X113155Y695552D01*
X113404Y695452D01*
X106292Y693674D02*
X106294Y693585D01*
X106299Y693495D01*
X106308Y693406D01*
X106321Y693318D01*
X106337Y693230D01*
X106356Y693143D01*
X106380Y693056D01*
X106406Y692971D01*
X106436Y692887D01*
X106469Y692804D01*
X106506Y692722D01*
X106546Y692642D01*
X106589Y692564D01*
X106635Y692487D01*
X106684Y692413D01*
X106737Y692340D01*
X106737Y692341D02*
X108959Y690118D01*
X109033Y690041D01*
X109105Y689962D01*
X109174Y689880D01*
X109239Y689795D01*
X109302Y689709D01*
X109362Y689620D01*
X109418Y689529D01*
X109472Y689436D01*
X109522Y689342D01*
X109568Y689246D01*
X109611Y689148D01*
X109651Y689048D01*
X109687Y688948D01*
X109720Y688846D01*
X109749Y688743D01*
X109774Y688639D01*
X109796Y688534D01*
X109814Y688429D01*
X109828Y688323D01*
X109839Y688217D01*
X109846Y688110D01*
X109849Y688003D01*
X109848Y687896D01*
X109849Y687895D02*
X109835Y686784D01*
X109849Y685673D01*
X110293Y681228D02*
X110293Y680339D01*
X110293Y681228D02*
X109404Y681228D01*
X109404Y680339D01*
X110293Y680339D01*
X219831Y643001D02*
X219831Y626999D01*
X221609Y626999D02*
X218053Y626999D01*
X218053Y643001D02*
X221609Y643001D01*
X202254Y633222D02*
X197809Y631444D01*
X202254Y633222D02*
X202342Y633259D01*
X202428Y633300D01*
X202513Y633344D01*
X202595Y633392D01*
X202676Y633444D01*
X202754Y633498D01*
X202830Y633556D01*
X202904Y633617D01*
X202975Y633681D01*
X203043Y633747D01*
X203108Y633817D01*
X203171Y633889D01*
X203230Y633964D01*
X203287Y634041D01*
X203340Y634120D01*
X203390Y634202D01*
X203436Y634285D01*
X203479Y634370D01*
X203518Y634458D01*
X203554Y634546D01*
X203586Y634636D01*
X203614Y634727D01*
X203638Y634820D01*
X203659Y634913D01*
X203675Y635007D01*
X203688Y635101D01*
X203697Y635197D01*
X203702Y635292D01*
X203703Y635387D01*
X203700Y635483D01*
X203693Y635578D01*
X203682Y635673D01*
X203667Y635767D01*
X203648Y635861D01*
X203626Y635954D01*
X203599Y636045D01*
X203569Y636136D01*
X203535Y636225D01*
X203498Y636313D01*
X203457Y636399D01*
X203412Y636483D01*
X203364Y636566D01*
X203312Y636646D01*
X203257Y636724D01*
X203199Y636800D01*
X203138Y636874D01*
X203074Y636944D01*
X203007Y637012D01*
X202937Y637078D01*
X202865Y637140D01*
X202790Y637199D01*
X202713Y637255D01*
X202633Y637308D01*
X202552Y637357D01*
X202468Y637404D01*
X202383Y637446D01*
X202295Y637485D01*
X202207Y637520D01*
X202117Y637552D01*
X202025Y637580D01*
X201933Y637604D01*
X201840Y637624D01*
X201746Y637641D01*
X201651Y637653D01*
X201556Y637662D01*
X201461Y637666D01*
X201365Y637667D01*
X201366Y637667D02*
X201123Y637661D01*
X200881Y637648D01*
X200639Y637630D01*
X200397Y637606D01*
X200156Y637577D01*
X199916Y637541D01*
X199677Y637500D01*
X199439Y637453D01*
X199202Y637401D01*
X198966Y637342D01*
X198732Y637278D01*
X198499Y637209D01*
X198268Y637133D01*
X198039Y637053D01*
X197813Y636967D01*
X197588Y636875D01*
X197365Y636778D01*
X197809Y631444D02*
X197721Y631407D01*
X197635Y631366D01*
X197550Y631322D01*
X197468Y631274D01*
X197387Y631222D01*
X197309Y631168D01*
X197233Y631110D01*
X197159Y631049D01*
X197088Y630985D01*
X197020Y630919D01*
X196955Y630849D01*
X196892Y630777D01*
X196833Y630702D01*
X196776Y630625D01*
X196723Y630546D01*
X196673Y630464D01*
X196627Y630381D01*
X196584Y630296D01*
X196545Y630208D01*
X196509Y630120D01*
X196477Y630030D01*
X196449Y629939D01*
X196425Y629846D01*
X196404Y629753D01*
X196388Y629659D01*
X196375Y629565D01*
X196366Y629469D01*
X196361Y629374D01*
X196360Y629279D01*
X196363Y629183D01*
X196370Y629088D01*
X196381Y628993D01*
X196396Y628899D01*
X196415Y628805D01*
X196437Y628712D01*
X196464Y628621D01*
X196494Y628530D01*
X196528Y628441D01*
X196565Y628353D01*
X196606Y628267D01*
X196651Y628183D01*
X196699Y628100D01*
X196751Y628020D01*
X196806Y627942D01*
X196864Y627866D01*
X196925Y627792D01*
X196989Y627722D01*
X197056Y627654D01*
X197126Y627588D01*
X197198Y627526D01*
X197273Y627467D01*
X197350Y627411D01*
X197430Y627358D01*
X197511Y627309D01*
X197595Y627262D01*
X197680Y627220D01*
X197768Y627181D01*
X197856Y627146D01*
X197946Y627114D01*
X198038Y627086D01*
X198130Y627062D01*
X198223Y627042D01*
X198317Y627025D01*
X198412Y627013D01*
X198507Y627004D01*
X198602Y627000D01*
X198698Y626999D01*
X198698Y627000D02*
X199055Y627009D01*
X199411Y627027D01*
X199767Y627053D01*
X200122Y627087D01*
X200476Y627130D01*
X200828Y627182D01*
X201180Y627241D01*
X201530Y627309D01*
X201878Y627385D01*
X202225Y627470D01*
X202569Y627562D01*
X202911Y627663D01*
X203251Y627772D01*
X203588Y627889D01*
X189520Y629666D02*
X189520Y637667D01*
X189520Y629666D02*
X189518Y629564D01*
X189512Y629462D01*
X189502Y629360D01*
X189489Y629259D01*
X189471Y629158D01*
X189450Y629058D01*
X189425Y628959D01*
X189396Y628861D01*
X189363Y628765D01*
X189327Y628669D01*
X189287Y628575D01*
X189243Y628483D01*
X189196Y628392D01*
X189145Y628303D01*
X189092Y628216D01*
X189034Y628132D01*
X188974Y628049D01*
X188911Y627969D01*
X188844Y627892D01*
X188775Y627817D01*
X188702Y627744D01*
X188627Y627675D01*
X188550Y627608D01*
X188470Y627545D01*
X188387Y627485D01*
X188303Y627427D01*
X188216Y627374D01*
X188127Y627323D01*
X188036Y627276D01*
X187944Y627232D01*
X187850Y627192D01*
X187754Y627156D01*
X187658Y627123D01*
X187560Y627094D01*
X187461Y627069D01*
X187361Y627048D01*
X187260Y627030D01*
X187159Y627017D01*
X187057Y627007D01*
X186955Y627001D01*
X186853Y626999D01*
X182408Y626999D01*
X182408Y637667D01*
X172865Y626999D02*
X168420Y626999D01*
X172865Y626999D02*
X172967Y627001D01*
X173069Y627007D01*
X173171Y627017D01*
X173272Y627030D01*
X173373Y627048D01*
X173473Y627069D01*
X173572Y627094D01*
X173670Y627123D01*
X173766Y627156D01*
X173862Y627192D01*
X173956Y627232D01*
X174048Y627276D01*
X174139Y627323D01*
X174228Y627374D01*
X174315Y627427D01*
X174399Y627485D01*
X174482Y627545D01*
X174562Y627608D01*
X174639Y627675D01*
X174714Y627744D01*
X174787Y627817D01*
X174856Y627892D01*
X174923Y627969D01*
X174986Y628049D01*
X175046Y628132D01*
X175104Y628216D01*
X175157Y628303D01*
X175208Y628392D01*
X175255Y628483D01*
X175299Y628575D01*
X175339Y628669D01*
X175375Y628765D01*
X175408Y628861D01*
X175437Y628959D01*
X175462Y629058D01*
X175483Y629158D01*
X175501Y629259D01*
X175514Y629360D01*
X175524Y629462D01*
X175530Y629564D01*
X175532Y629666D01*
X175532Y635000D01*
X175530Y635102D01*
X175524Y635204D01*
X175514Y635306D01*
X175501Y635407D01*
X175483Y635508D01*
X175462Y635608D01*
X175437Y635707D01*
X175408Y635805D01*
X175375Y635901D01*
X175339Y635997D01*
X175299Y636091D01*
X175255Y636183D01*
X175208Y636274D01*
X175157Y636363D01*
X175104Y636450D01*
X175046Y636534D01*
X174986Y636617D01*
X174923Y636697D01*
X174856Y636774D01*
X174787Y636849D01*
X174714Y636922D01*
X174639Y636991D01*
X174562Y637058D01*
X174482Y637121D01*
X174399Y637181D01*
X174315Y637239D01*
X174228Y637292D01*
X174139Y637343D01*
X174048Y637390D01*
X173956Y637434D01*
X173862Y637474D01*
X173766Y637510D01*
X173670Y637543D01*
X173572Y637572D01*
X173473Y637597D01*
X173373Y637618D01*
X173272Y637636D01*
X173171Y637649D01*
X173069Y637659D01*
X172967Y637665D01*
X172865Y637667D01*
X168420Y637667D01*
X168420Y624332D01*
X168422Y624230D01*
X168428Y624128D01*
X168438Y624026D01*
X168451Y623925D01*
X168469Y623824D01*
X168490Y623724D01*
X168515Y623625D01*
X168544Y623527D01*
X168577Y623431D01*
X168613Y623335D01*
X168653Y623241D01*
X168697Y623149D01*
X168744Y623058D01*
X168795Y622969D01*
X168848Y622882D01*
X168906Y622798D01*
X168966Y622715D01*
X169029Y622635D01*
X169096Y622558D01*
X169165Y622483D01*
X169238Y622410D01*
X169313Y622341D01*
X169390Y622274D01*
X169470Y622211D01*
X169553Y622151D01*
X169637Y622093D01*
X169724Y622040D01*
X169813Y621989D01*
X169904Y621942D01*
X169996Y621898D01*
X170090Y621858D01*
X170186Y621822D01*
X170282Y621789D01*
X170380Y621760D01*
X170479Y621735D01*
X170579Y621714D01*
X170680Y621696D01*
X170781Y621683D01*
X170883Y621673D01*
X170985Y621667D01*
X171087Y621665D01*
X174643Y621665D01*
X158797Y626999D02*
X154352Y626999D01*
X158797Y626999D02*
X158899Y627001D01*
X159001Y627007D01*
X159103Y627017D01*
X159204Y627030D01*
X159305Y627048D01*
X159405Y627069D01*
X159504Y627094D01*
X159602Y627123D01*
X159698Y627156D01*
X159794Y627192D01*
X159888Y627232D01*
X159980Y627276D01*
X160071Y627323D01*
X160160Y627374D01*
X160247Y627427D01*
X160331Y627485D01*
X160414Y627545D01*
X160494Y627608D01*
X160571Y627675D01*
X160646Y627744D01*
X160719Y627817D01*
X160788Y627892D01*
X160855Y627969D01*
X160918Y628049D01*
X160978Y628132D01*
X161036Y628216D01*
X161089Y628303D01*
X161140Y628392D01*
X161187Y628483D01*
X161231Y628575D01*
X161271Y628669D01*
X161307Y628765D01*
X161340Y628861D01*
X161369Y628959D01*
X161394Y629058D01*
X161415Y629158D01*
X161433Y629259D01*
X161446Y629360D01*
X161456Y629462D01*
X161462Y629564D01*
X161464Y629666D01*
X161464Y635000D01*
X161462Y635102D01*
X161456Y635204D01*
X161446Y635306D01*
X161433Y635407D01*
X161415Y635508D01*
X161394Y635608D01*
X161369Y635707D01*
X161340Y635805D01*
X161307Y635901D01*
X161271Y635997D01*
X161231Y636091D01*
X161187Y636183D01*
X161140Y636274D01*
X161089Y636363D01*
X161036Y636450D01*
X160978Y636534D01*
X160918Y636617D01*
X160855Y636697D01*
X160788Y636774D01*
X160719Y636849D01*
X160646Y636922D01*
X160571Y636991D01*
X160494Y637058D01*
X160414Y637121D01*
X160331Y637181D01*
X160247Y637239D01*
X160160Y637292D01*
X160071Y637343D01*
X159980Y637390D01*
X159888Y637434D01*
X159794Y637474D01*
X159698Y637510D01*
X159602Y637543D01*
X159504Y637572D01*
X159405Y637597D01*
X159305Y637618D01*
X159204Y637636D01*
X159103Y637649D01*
X159001Y637659D01*
X158899Y637665D01*
X158797Y637667D01*
X154352Y637667D01*
X154352Y624332D01*
X154354Y624230D01*
X154360Y624128D01*
X154370Y624026D01*
X154383Y623925D01*
X154401Y623824D01*
X154422Y623724D01*
X154447Y623625D01*
X154476Y623527D01*
X154509Y623431D01*
X154545Y623335D01*
X154585Y623241D01*
X154629Y623149D01*
X154676Y623058D01*
X154727Y622969D01*
X154780Y622882D01*
X154838Y622798D01*
X154898Y622715D01*
X154961Y622635D01*
X155028Y622558D01*
X155097Y622483D01*
X155170Y622410D01*
X155245Y622341D01*
X155322Y622274D01*
X155402Y622211D01*
X155485Y622151D01*
X155569Y622093D01*
X155656Y622040D01*
X155745Y621989D01*
X155836Y621942D01*
X155928Y621898D01*
X156022Y621858D01*
X156118Y621822D01*
X156214Y621789D01*
X156312Y621760D01*
X156411Y621735D01*
X156511Y621714D01*
X156612Y621696D01*
X156713Y621683D01*
X156815Y621673D01*
X156917Y621667D01*
X157019Y621665D01*
X160575Y621665D01*
X144649Y626999D02*
X140204Y626999D01*
X144649Y626999D02*
X144751Y627001D01*
X144853Y627007D01*
X144955Y627017D01*
X145056Y627030D01*
X145157Y627048D01*
X145257Y627069D01*
X145356Y627094D01*
X145454Y627123D01*
X145550Y627156D01*
X145646Y627192D01*
X145740Y627232D01*
X145832Y627276D01*
X145923Y627323D01*
X146012Y627374D01*
X146099Y627427D01*
X146183Y627485D01*
X146266Y627545D01*
X146346Y627608D01*
X146423Y627675D01*
X146498Y627744D01*
X146571Y627817D01*
X146640Y627892D01*
X146707Y627969D01*
X146770Y628049D01*
X146830Y628132D01*
X146888Y628216D01*
X146941Y628303D01*
X146992Y628392D01*
X147039Y628483D01*
X147083Y628575D01*
X147123Y628669D01*
X147159Y628765D01*
X147192Y628861D01*
X147221Y628959D01*
X147246Y629058D01*
X147267Y629158D01*
X147285Y629259D01*
X147298Y629360D01*
X147308Y629462D01*
X147314Y629564D01*
X147316Y629666D01*
X147316Y634111D01*
X147314Y634229D01*
X147308Y634346D01*
X147299Y634463D01*
X147285Y634580D01*
X147268Y634696D01*
X147246Y634812D01*
X147221Y634927D01*
X147192Y635041D01*
X147160Y635154D01*
X147123Y635266D01*
X147083Y635376D01*
X147040Y635485D01*
X146992Y635593D01*
X146942Y635699D01*
X146887Y635803D01*
X146830Y635906D01*
X146769Y636006D01*
X146704Y636105D01*
X146637Y636201D01*
X146566Y636295D01*
X146492Y636387D01*
X146416Y636476D01*
X146336Y636562D01*
X146254Y636646D01*
X146168Y636727D01*
X146081Y636805D01*
X145990Y636881D01*
X145897Y636953D01*
X145802Y637022D01*
X145705Y637088D01*
X145605Y637151D01*
X145504Y637210D01*
X145401Y637266D01*
X145295Y637318D01*
X145188Y637367D01*
X145080Y637413D01*
X144970Y637455D01*
X144859Y637493D01*
X144746Y637527D01*
X144633Y637558D01*
X144518Y637585D01*
X144403Y637608D01*
X144287Y637628D01*
X144171Y637643D01*
X144054Y637655D01*
X143936Y637663D01*
X143819Y637667D01*
X143701Y637667D01*
X143584Y637663D01*
X143466Y637655D01*
X143349Y637643D01*
X143233Y637628D01*
X143117Y637608D01*
X143002Y637585D01*
X142887Y637558D01*
X142774Y637527D01*
X142661Y637493D01*
X142550Y637455D01*
X142440Y637413D01*
X142332Y637367D01*
X142225Y637318D01*
X142119Y637266D01*
X142016Y637210D01*
X141915Y637151D01*
X141815Y637088D01*
X141718Y637022D01*
X141623Y636953D01*
X141530Y636881D01*
X141439Y636805D01*
X141352Y636727D01*
X141266Y636646D01*
X141184Y636562D01*
X141104Y636476D01*
X141028Y636387D01*
X140954Y636295D01*
X140883Y636201D01*
X140816Y636105D01*
X140751Y636006D01*
X140690Y635906D01*
X140633Y635803D01*
X140578Y635699D01*
X140528Y635593D01*
X140480Y635485D01*
X140437Y635376D01*
X140397Y635266D01*
X140360Y635154D01*
X140328Y635041D01*
X140299Y634927D01*
X140274Y634812D01*
X140252Y634696D01*
X140235Y634580D01*
X140221Y634463D01*
X140212Y634346D01*
X140206Y634229D01*
X140204Y634111D01*
X140204Y632333D01*
X147316Y632333D01*
X132435Y633222D02*
X127990Y631444D01*
X132435Y633222D02*
X132523Y633259D01*
X132609Y633300D01*
X132694Y633344D01*
X132776Y633392D01*
X132857Y633444D01*
X132935Y633498D01*
X133011Y633556D01*
X133085Y633617D01*
X133156Y633681D01*
X133224Y633747D01*
X133289Y633817D01*
X133352Y633889D01*
X133411Y633964D01*
X133468Y634041D01*
X133521Y634120D01*
X133571Y634202D01*
X133617Y634285D01*
X133660Y634370D01*
X133699Y634458D01*
X133735Y634546D01*
X133767Y634636D01*
X133795Y634727D01*
X133819Y634820D01*
X133840Y634913D01*
X133856Y635007D01*
X133869Y635101D01*
X133878Y635197D01*
X133883Y635292D01*
X133884Y635387D01*
X133881Y635483D01*
X133874Y635578D01*
X133863Y635673D01*
X133848Y635767D01*
X133829Y635861D01*
X133807Y635954D01*
X133780Y636045D01*
X133750Y636136D01*
X133716Y636225D01*
X133679Y636313D01*
X133638Y636399D01*
X133593Y636483D01*
X133545Y636566D01*
X133493Y636646D01*
X133438Y636724D01*
X133380Y636800D01*
X133319Y636874D01*
X133255Y636944D01*
X133188Y637012D01*
X133118Y637078D01*
X133046Y637140D01*
X132971Y637199D01*
X132894Y637255D01*
X132814Y637308D01*
X132733Y637357D01*
X132649Y637404D01*
X132564Y637446D01*
X132476Y637485D01*
X132388Y637520D01*
X132298Y637552D01*
X132206Y637580D01*
X132114Y637604D01*
X132021Y637624D01*
X131927Y637641D01*
X131832Y637653D01*
X131737Y637662D01*
X131642Y637666D01*
X131546Y637667D01*
X131303Y637661D01*
X131061Y637648D01*
X130819Y637630D01*
X130577Y637606D01*
X130336Y637577D01*
X130096Y637541D01*
X129857Y637500D01*
X129619Y637453D01*
X129382Y637401D01*
X129146Y637342D01*
X128912Y637278D01*
X128679Y637209D01*
X128448Y637133D01*
X128219Y637053D01*
X127993Y636967D01*
X127768Y636875D01*
X127545Y636778D01*
X127990Y631444D02*
X127902Y631407D01*
X127816Y631366D01*
X127731Y631322D01*
X127649Y631274D01*
X127568Y631222D01*
X127490Y631168D01*
X127414Y631110D01*
X127340Y631049D01*
X127269Y630985D01*
X127201Y630919D01*
X127136Y630849D01*
X127073Y630777D01*
X127014Y630702D01*
X126957Y630625D01*
X126904Y630546D01*
X126854Y630464D01*
X126808Y630381D01*
X126765Y630296D01*
X126726Y630208D01*
X126690Y630120D01*
X126658Y630030D01*
X126630Y629939D01*
X126606Y629846D01*
X126585Y629753D01*
X126569Y629659D01*
X126556Y629565D01*
X126547Y629469D01*
X126542Y629374D01*
X126541Y629279D01*
X126544Y629183D01*
X126551Y629088D01*
X126562Y628993D01*
X126577Y628899D01*
X126596Y628805D01*
X126618Y628712D01*
X126645Y628621D01*
X126675Y628530D01*
X126709Y628441D01*
X126746Y628353D01*
X126787Y628267D01*
X126832Y628183D01*
X126880Y628100D01*
X126932Y628020D01*
X126987Y627942D01*
X127045Y627866D01*
X127106Y627792D01*
X127170Y627722D01*
X127237Y627654D01*
X127307Y627588D01*
X127379Y627526D01*
X127454Y627467D01*
X127531Y627411D01*
X127611Y627358D01*
X127692Y627309D01*
X127776Y627262D01*
X127861Y627220D01*
X127949Y627181D01*
X128037Y627146D01*
X128127Y627114D01*
X128219Y627086D01*
X128311Y627062D01*
X128404Y627042D01*
X128498Y627025D01*
X128593Y627013D01*
X128688Y627004D01*
X128783Y627000D01*
X128879Y626999D01*
X128879Y627000D02*
X129236Y627009D01*
X129592Y627027D01*
X129948Y627053D01*
X130303Y627087D01*
X130657Y627130D01*
X131009Y627182D01*
X131361Y627241D01*
X131711Y627309D01*
X132059Y627385D01*
X132406Y627470D01*
X132750Y627562D01*
X133092Y627663D01*
X133432Y627772D01*
X133769Y627889D01*
X121545Y637667D02*
X116211Y637667D01*
X119767Y643001D02*
X119767Y629666D01*
X119765Y629564D01*
X119759Y629462D01*
X119749Y629360D01*
X119736Y629259D01*
X119718Y629158D01*
X119697Y629058D01*
X119672Y628959D01*
X119643Y628861D01*
X119610Y628765D01*
X119574Y628669D01*
X119534Y628575D01*
X119490Y628483D01*
X119443Y628392D01*
X119392Y628303D01*
X119339Y628216D01*
X119281Y628132D01*
X119221Y628049D01*
X119158Y627969D01*
X119091Y627892D01*
X119022Y627817D01*
X118949Y627744D01*
X118874Y627675D01*
X118797Y627608D01*
X118717Y627545D01*
X118634Y627485D01*
X118550Y627427D01*
X118463Y627374D01*
X118374Y627323D01*
X118283Y627276D01*
X118191Y627232D01*
X118097Y627192D01*
X118001Y627156D01*
X117905Y627123D01*
X117807Y627094D01*
X117708Y627069D01*
X117608Y627048D01*
X117507Y627030D01*
X117406Y627017D01*
X117304Y627007D01*
X117202Y627001D01*
X117100Y626999D01*
X116211Y626999D01*
X218569Y616331D02*
X218569Y600329D01*
X218569Y616331D02*
X214124Y616331D01*
X213992Y616329D01*
X213861Y616323D01*
X213729Y616313D01*
X213598Y616300D01*
X213468Y616282D01*
X213338Y616261D01*
X213208Y616236D01*
X213080Y616207D01*
X212952Y616174D01*
X212826Y616137D01*
X212700Y616097D01*
X212576Y616053D01*
X212453Y616005D01*
X212332Y615954D01*
X212212Y615899D01*
X212094Y615841D01*
X211978Y615779D01*
X211864Y615713D01*
X211751Y615645D01*
X211641Y615573D01*
X211533Y615498D01*
X211427Y615419D01*
X211323Y615338D01*
X211222Y615253D01*
X211124Y615166D01*
X211028Y615075D01*
X210935Y614982D01*
X210844Y614886D01*
X210757Y614788D01*
X210672Y614687D01*
X210591Y614583D01*
X210512Y614477D01*
X210437Y614369D01*
X210365Y614259D01*
X210297Y614146D01*
X210231Y614032D01*
X210169Y613916D01*
X210111Y613798D01*
X210056Y613678D01*
X210005Y613557D01*
X209957Y613434D01*
X209913Y613310D01*
X209873Y613184D01*
X209836Y613058D01*
X209803Y612930D01*
X209774Y612802D01*
X209749Y612672D01*
X209728Y612542D01*
X209710Y612412D01*
X209697Y612281D01*
X209687Y612149D01*
X209681Y612018D01*
X209679Y611886D01*
X209681Y611754D01*
X209687Y611623D01*
X209697Y611491D01*
X209710Y611360D01*
X209728Y611230D01*
X209749Y611100D01*
X209774Y610970D01*
X209803Y610842D01*
X209836Y610714D01*
X209873Y610588D01*
X209913Y610462D01*
X209957Y610338D01*
X210005Y610215D01*
X210056Y610094D01*
X210111Y609974D01*
X210169Y609856D01*
X210231Y609740D01*
X210297Y609626D01*
X210365Y609513D01*
X210437Y609403D01*
X210512Y609295D01*
X210591Y609189D01*
X210672Y609085D01*
X210757Y608984D01*
X210844Y608886D01*
X210935Y608790D01*
X211028Y608697D01*
X211124Y608606D01*
X211222Y608519D01*
X211323Y608434D01*
X211427Y608353D01*
X211533Y608274D01*
X211641Y608199D01*
X211751Y608127D01*
X211864Y608059D01*
X211978Y607993D01*
X212094Y607931D01*
X212212Y607873D01*
X212332Y607818D01*
X212453Y607767D01*
X212576Y607719D01*
X212700Y607675D01*
X212826Y607635D01*
X212952Y607598D01*
X213080Y607565D01*
X213208Y607536D01*
X213338Y607511D01*
X213468Y607490D01*
X213598Y607472D01*
X213729Y607459D01*
X213861Y607449D01*
X213992Y607443D01*
X214124Y607441D01*
X218569Y607441D01*
X203171Y604774D02*
X203171Y616331D01*
X203171Y604774D02*
X203169Y604642D01*
X203163Y604511D01*
X203153Y604379D01*
X203140Y604248D01*
X203122Y604118D01*
X203101Y603988D01*
X203076Y603858D01*
X203047Y603730D01*
X203014Y603602D01*
X202977Y603476D01*
X202937Y603350D01*
X202893Y603226D01*
X202845Y603103D01*
X202794Y602982D01*
X202739Y602862D01*
X202681Y602744D01*
X202619Y602628D01*
X202553Y602514D01*
X202485Y602401D01*
X202413Y602291D01*
X202338Y602183D01*
X202259Y602077D01*
X202178Y601973D01*
X202093Y601872D01*
X202006Y601774D01*
X201915Y601678D01*
X201822Y601585D01*
X201726Y601494D01*
X201628Y601407D01*
X201527Y601322D01*
X201423Y601241D01*
X201317Y601162D01*
X201209Y601087D01*
X201099Y601015D01*
X200986Y600947D01*
X200872Y600881D01*
X200756Y600819D01*
X200638Y600761D01*
X200518Y600706D01*
X200397Y600655D01*
X200274Y600607D01*
X200150Y600563D01*
X200024Y600523D01*
X199898Y600486D01*
X199770Y600453D01*
X199642Y600424D01*
X199512Y600399D01*
X199382Y600378D01*
X199252Y600360D01*
X199121Y600347D01*
X198989Y600337D01*
X198858Y600331D01*
X198726Y600329D01*
X198594Y600331D01*
X198463Y600337D01*
X198331Y600347D01*
X198200Y600360D01*
X198070Y600378D01*
X197940Y600399D01*
X197810Y600424D01*
X197682Y600453D01*
X197554Y600486D01*
X197428Y600523D01*
X197302Y600563D01*
X197178Y600607D01*
X197055Y600655D01*
X196934Y600706D01*
X196814Y600761D01*
X196696Y600819D01*
X196580Y600881D01*
X196466Y600947D01*
X196353Y601015D01*
X196243Y601087D01*
X196135Y601162D01*
X196029Y601241D01*
X195925Y601322D01*
X195824Y601407D01*
X195726Y601494D01*
X195630Y601585D01*
X195537Y601678D01*
X195446Y601774D01*
X195359Y601872D01*
X195274Y601973D01*
X195193Y602077D01*
X195114Y602183D01*
X195039Y602291D01*
X194967Y602401D01*
X194899Y602514D01*
X194833Y602628D01*
X194771Y602744D01*
X194713Y602862D01*
X194658Y602982D01*
X194607Y603103D01*
X194559Y603226D01*
X194515Y603350D01*
X194475Y603476D01*
X194438Y603602D01*
X194405Y603730D01*
X194376Y603858D01*
X194351Y603988D01*
X194330Y604118D01*
X194312Y604248D01*
X194299Y604379D01*
X194289Y604511D01*
X194283Y604642D01*
X194281Y604774D01*
X194281Y616331D01*
X186464Y616331D02*
X186464Y600329D01*
X179352Y600329D01*
X172917Y600329D02*
X172917Y616331D01*
X172917Y600329D02*
X165805Y600329D01*
X159403Y604774D02*
X159403Y616331D01*
X159403Y604774D02*
X159401Y604642D01*
X159395Y604511D01*
X159385Y604379D01*
X159372Y604248D01*
X159354Y604118D01*
X159333Y603988D01*
X159308Y603858D01*
X159279Y603730D01*
X159246Y603602D01*
X159209Y603476D01*
X159169Y603350D01*
X159125Y603226D01*
X159077Y603103D01*
X159026Y602982D01*
X158971Y602862D01*
X158913Y602744D01*
X158851Y602628D01*
X158785Y602514D01*
X158717Y602401D01*
X158645Y602291D01*
X158570Y602183D01*
X158491Y602077D01*
X158410Y601973D01*
X158325Y601872D01*
X158238Y601774D01*
X158147Y601678D01*
X158054Y601585D01*
X157958Y601494D01*
X157860Y601407D01*
X157759Y601322D01*
X157655Y601241D01*
X157549Y601162D01*
X157441Y601087D01*
X157331Y601015D01*
X157218Y600947D01*
X157104Y600881D01*
X156988Y600819D01*
X156870Y600761D01*
X156750Y600706D01*
X156629Y600655D01*
X156506Y600607D01*
X156382Y600563D01*
X156256Y600523D01*
X156130Y600486D01*
X156002Y600453D01*
X155874Y600424D01*
X155744Y600399D01*
X155614Y600378D01*
X155484Y600360D01*
X155353Y600347D01*
X155221Y600337D01*
X155090Y600331D01*
X154958Y600329D01*
X154826Y600331D01*
X154695Y600337D01*
X154563Y600347D01*
X154432Y600360D01*
X154302Y600378D01*
X154172Y600399D01*
X154042Y600424D01*
X153914Y600453D01*
X153786Y600486D01*
X153660Y600523D01*
X153534Y600563D01*
X153410Y600607D01*
X153287Y600655D01*
X153166Y600706D01*
X153046Y600761D01*
X152928Y600819D01*
X152812Y600881D01*
X152698Y600947D01*
X152585Y601015D01*
X152475Y601087D01*
X152367Y601162D01*
X152261Y601241D01*
X152157Y601322D01*
X152056Y601407D01*
X151958Y601494D01*
X151862Y601585D01*
X151769Y601678D01*
X151678Y601774D01*
X151591Y601872D01*
X151506Y601973D01*
X151425Y602077D01*
X151346Y602183D01*
X151271Y602291D01*
X151199Y602401D01*
X151131Y602514D01*
X151065Y602628D01*
X151003Y602744D01*
X150945Y602862D01*
X150890Y602982D01*
X150839Y603103D01*
X150791Y603226D01*
X150747Y603350D01*
X150707Y603476D01*
X150670Y603602D01*
X150637Y603730D01*
X150608Y603858D01*
X150583Y603988D01*
X150562Y604118D01*
X150544Y604248D01*
X150531Y604379D01*
X150521Y604511D01*
X150515Y604642D01*
X150513Y604774D01*
X150513Y616331D01*
X142497Y616331D02*
X142497Y600329D01*
X142497Y616331D02*
X138052Y616331D01*
X137920Y616329D01*
X137789Y616323D01*
X137657Y616313D01*
X137526Y616300D01*
X137396Y616282D01*
X137266Y616261D01*
X137136Y616236D01*
X137008Y616207D01*
X136880Y616174D01*
X136754Y616137D01*
X136628Y616097D01*
X136504Y616053D01*
X136381Y616005D01*
X136260Y615954D01*
X136140Y615899D01*
X136022Y615841D01*
X135906Y615779D01*
X135792Y615713D01*
X135679Y615645D01*
X135569Y615573D01*
X135461Y615498D01*
X135355Y615419D01*
X135251Y615338D01*
X135150Y615253D01*
X135052Y615166D01*
X134956Y615075D01*
X134863Y614982D01*
X134772Y614886D01*
X134685Y614788D01*
X134600Y614687D01*
X134519Y614583D01*
X134440Y614477D01*
X134365Y614369D01*
X134293Y614259D01*
X134225Y614146D01*
X134159Y614032D01*
X134097Y613916D01*
X134039Y613798D01*
X133984Y613678D01*
X133933Y613557D01*
X133885Y613434D01*
X133841Y613310D01*
X133801Y613184D01*
X133764Y613058D01*
X133731Y612930D01*
X133702Y612802D01*
X133677Y612672D01*
X133656Y612542D01*
X133638Y612412D01*
X133625Y612281D01*
X133615Y612149D01*
X133609Y612018D01*
X133607Y611886D01*
X133609Y611754D01*
X133615Y611623D01*
X133625Y611491D01*
X133638Y611360D01*
X133656Y611230D01*
X133677Y611100D01*
X133702Y610970D01*
X133731Y610842D01*
X133764Y610714D01*
X133801Y610588D01*
X133841Y610462D01*
X133885Y610338D01*
X133933Y610215D01*
X133984Y610094D01*
X134039Y609974D01*
X134097Y609856D01*
X134159Y609740D01*
X134225Y609626D01*
X134293Y609513D01*
X134365Y609403D01*
X134440Y609295D01*
X134519Y609189D01*
X134600Y609085D01*
X134685Y608984D01*
X134772Y608886D01*
X134863Y608790D01*
X134956Y608697D01*
X135052Y608606D01*
X135150Y608519D01*
X135251Y608434D01*
X135355Y608353D01*
X135461Y608274D01*
X135569Y608199D01*
X135679Y608127D01*
X135792Y608059D01*
X135906Y607993D01*
X136022Y607931D01*
X136140Y607873D01*
X136260Y607818D01*
X136381Y607767D01*
X136504Y607719D01*
X136628Y607675D01*
X136754Y607635D01*
X136880Y607598D01*
X137008Y607565D01*
X137136Y607536D01*
X137266Y607511D01*
X137396Y607490D01*
X137526Y607472D01*
X137657Y607459D01*
X137789Y607449D01*
X137920Y607443D01*
X138052Y607441D01*
X142497Y607441D01*
X122807Y600329D02*
X122691Y600331D01*
X122574Y600337D01*
X122458Y600346D01*
X122343Y600359D01*
X122228Y600376D01*
X122113Y600397D01*
X122000Y600422D01*
X121887Y600450D01*
X121775Y600482D01*
X121664Y600518D01*
X121554Y600557D01*
X121446Y600600D01*
X121339Y600646D01*
X121234Y600696D01*
X121131Y600749D01*
X121029Y600805D01*
X120929Y600865D01*
X120831Y600928D01*
X120736Y600995D01*
X120642Y601064D01*
X120551Y601136D01*
X120462Y601211D01*
X120376Y601290D01*
X120293Y601371D01*
X120212Y601454D01*
X120133Y601540D01*
X120058Y601629D01*
X119986Y601720D01*
X119917Y601814D01*
X119850Y601909D01*
X119787Y602007D01*
X119727Y602107D01*
X119671Y602209D01*
X119618Y602312D01*
X119568Y602417D01*
X119522Y602524D01*
X119479Y602632D01*
X119440Y602742D01*
X119404Y602853D01*
X119372Y602965D01*
X119344Y603078D01*
X119319Y603191D01*
X119298Y603306D01*
X119281Y603421D01*
X119268Y603536D01*
X119259Y603652D01*
X119253Y603769D01*
X119251Y603885D01*
X122807Y600329D02*
X122987Y600331D01*
X123166Y600338D01*
X123346Y600348D01*
X123525Y600363D01*
X123704Y600383D01*
X123882Y600406D01*
X124059Y600434D01*
X124236Y600466D01*
X124412Y600502D01*
X124587Y600543D01*
X124761Y600588D01*
X124934Y600637D01*
X125106Y600689D01*
X125277Y600747D01*
X125446Y600808D01*
X125613Y600873D01*
X125779Y600942D01*
X125943Y601015D01*
X126106Y601092D01*
X126266Y601173D01*
X126425Y601257D01*
X126581Y601346D01*
X126735Y601438D01*
X126887Y601534D01*
X127037Y601633D01*
X127185Y601736D01*
X127329Y601843D01*
X127472Y601953D01*
X127611Y602066D01*
X127748Y602183D01*
X127882Y602302D01*
X128013Y602425D01*
X128141Y602551D01*
X127696Y612775D02*
X127694Y612891D01*
X127688Y613008D01*
X127679Y613124D01*
X127666Y613239D01*
X127649Y613354D01*
X127628Y613469D01*
X127603Y613582D01*
X127575Y613695D01*
X127543Y613807D01*
X127507Y613918D01*
X127468Y614028D01*
X127425Y614136D01*
X127379Y614243D01*
X127329Y614348D01*
X127276Y614451D01*
X127220Y614553D01*
X127160Y614653D01*
X127097Y614751D01*
X127030Y614846D01*
X126961Y614940D01*
X126889Y615031D01*
X126814Y615120D01*
X126735Y615206D01*
X126654Y615289D01*
X126571Y615370D01*
X126485Y615449D01*
X126396Y615524D01*
X126305Y615596D01*
X126211Y615665D01*
X126116Y615732D01*
X126018Y615795D01*
X125918Y615855D01*
X125816Y615911D01*
X125713Y615964D01*
X125608Y616014D01*
X125501Y616060D01*
X125393Y616103D01*
X125283Y616142D01*
X125172Y616178D01*
X125060Y616210D01*
X124947Y616238D01*
X124834Y616263D01*
X124719Y616284D01*
X124604Y616301D01*
X124489Y616314D01*
X124373Y616323D01*
X124256Y616329D01*
X124140Y616331D01*
X124140Y616332D02*
X123981Y616330D01*
X123822Y616324D01*
X123664Y616315D01*
X123505Y616302D01*
X123347Y616285D01*
X123190Y616264D01*
X123033Y616239D01*
X122876Y616211D01*
X122721Y616179D01*
X122566Y616144D01*
X122412Y616104D01*
X122259Y616061D01*
X122107Y616014D01*
X121956Y615964D01*
X121807Y615910D01*
X121658Y615853D01*
X121512Y615792D01*
X121366Y615728D01*
X121223Y615660D01*
X121081Y615589D01*
X120940Y615514D01*
X120802Y615436D01*
X120665Y615355D01*
X120531Y615271D01*
X120398Y615183D01*
X120267Y615092D01*
X120139Y614998D01*
X125919Y609663D02*
X126019Y609724D01*
X126117Y609789D01*
X126213Y609856D01*
X126306Y609927D01*
X126397Y610000D01*
X126486Y610077D01*
X126572Y610156D01*
X126656Y610238D01*
X126737Y610323D01*
X126815Y610410D01*
X126890Y610500D01*
X126963Y610592D01*
X127032Y610687D01*
X127098Y610783D01*
X127161Y610882D01*
X127221Y610983D01*
X127278Y611086D01*
X127331Y611190D01*
X127380Y611296D01*
X127427Y611404D01*
X127469Y611513D01*
X127509Y611623D01*
X127544Y611735D01*
X127576Y611848D01*
X127604Y611962D01*
X127629Y612076D01*
X127650Y612192D01*
X127667Y612308D01*
X127680Y612424D01*
X127689Y612541D01*
X127695Y612658D01*
X127697Y612775D01*
X121028Y606997D02*
X120928Y606936D01*
X120830Y606871D01*
X120734Y606804D01*
X120641Y606733D01*
X120550Y606660D01*
X120461Y606583D01*
X120375Y606504D01*
X120291Y606422D01*
X120210Y606337D01*
X120132Y606250D01*
X120057Y606160D01*
X119984Y606068D01*
X119915Y605973D01*
X119849Y605877D01*
X119786Y605778D01*
X119726Y605677D01*
X119669Y605574D01*
X119616Y605470D01*
X119567Y605364D01*
X119520Y605256D01*
X119478Y605147D01*
X119438Y605037D01*
X119403Y604925D01*
X119371Y604812D01*
X119343Y604698D01*
X119318Y604584D01*
X119297Y604468D01*
X119280Y604352D01*
X119267Y604236D01*
X119258Y604119D01*
X119252Y604002D01*
X119250Y603885D01*
X121029Y606997D02*
X125918Y609664D01*
X291463Y584327D02*
X291463Y576326D01*
X291461Y576224D01*
X291455Y576122D01*
X291445Y576020D01*
X291432Y575919D01*
X291414Y575818D01*
X291393Y575718D01*
X291368Y575619D01*
X291339Y575521D01*
X291306Y575425D01*
X291270Y575329D01*
X291230Y575235D01*
X291186Y575143D01*
X291139Y575052D01*
X291088Y574963D01*
X291035Y574876D01*
X290977Y574792D01*
X290917Y574709D01*
X290854Y574629D01*
X290787Y574552D01*
X290718Y574477D01*
X290645Y574404D01*
X290570Y574335D01*
X290493Y574268D01*
X290413Y574205D01*
X290330Y574145D01*
X290246Y574087D01*
X290159Y574034D01*
X290070Y573983D01*
X289979Y573936D01*
X289887Y573892D01*
X289793Y573852D01*
X289697Y573816D01*
X289601Y573783D01*
X289503Y573754D01*
X289404Y573729D01*
X289304Y573708D01*
X289203Y573690D01*
X289102Y573677D01*
X289000Y573667D01*
X288898Y573661D01*
X288796Y573659D01*
X284351Y573659D01*
X284351Y584327D01*
X276874Y584327D02*
X276874Y573659D01*
X276874Y584327D02*
X272429Y584327D01*
X272327Y584325D01*
X272225Y584319D01*
X272123Y584309D01*
X272022Y584296D01*
X271921Y584278D01*
X271821Y584257D01*
X271722Y584232D01*
X271624Y584203D01*
X271528Y584170D01*
X271432Y584134D01*
X271338Y584094D01*
X271246Y584050D01*
X271155Y584003D01*
X271066Y583952D01*
X270979Y583899D01*
X270895Y583841D01*
X270812Y583781D01*
X270732Y583718D01*
X270655Y583651D01*
X270580Y583582D01*
X270507Y583509D01*
X270438Y583434D01*
X270371Y583357D01*
X270308Y583277D01*
X270248Y583194D01*
X270190Y583110D01*
X270137Y583023D01*
X270086Y582934D01*
X270039Y582843D01*
X269995Y582751D01*
X269955Y582657D01*
X269919Y582561D01*
X269886Y582465D01*
X269857Y582367D01*
X269832Y582268D01*
X269811Y582168D01*
X269793Y582067D01*
X269780Y581966D01*
X269770Y581864D01*
X269764Y581762D01*
X269762Y581660D01*
X269762Y573659D01*
X264129Y584327D02*
X258795Y584327D01*
X262351Y589661D02*
X262351Y576326D01*
X262349Y576224D01*
X262343Y576122D01*
X262333Y576020D01*
X262320Y575919D01*
X262302Y575818D01*
X262281Y575718D01*
X262256Y575619D01*
X262227Y575521D01*
X262194Y575425D01*
X262158Y575329D01*
X262118Y575235D01*
X262074Y575143D01*
X262027Y575052D01*
X261976Y574963D01*
X261923Y574876D01*
X261865Y574792D01*
X261805Y574709D01*
X261742Y574629D01*
X261675Y574552D01*
X261606Y574477D01*
X261533Y574404D01*
X261458Y574335D01*
X261381Y574268D01*
X261301Y574205D01*
X261218Y574145D01*
X261134Y574087D01*
X261047Y574034D01*
X260958Y573983D01*
X260867Y573936D01*
X260775Y573892D01*
X260681Y573852D01*
X260585Y573816D01*
X260489Y573783D01*
X260391Y573754D01*
X260292Y573729D01*
X260192Y573708D01*
X260091Y573690D01*
X259990Y573677D01*
X259888Y573667D01*
X259786Y573661D01*
X259684Y573659D01*
X258795Y573659D01*
X252997Y573659D02*
X252997Y584327D01*
X253442Y588772D02*
X253442Y589661D01*
X252553Y589661D01*
X252553Y588772D01*
X253442Y588772D01*
X246446Y589661D02*
X246446Y576326D01*
X246444Y576224D01*
X246438Y576122D01*
X246428Y576020D01*
X246415Y575919D01*
X246397Y575818D01*
X246376Y575718D01*
X246351Y575619D01*
X246322Y575521D01*
X246289Y575425D01*
X246253Y575329D01*
X246213Y575235D01*
X246169Y575143D01*
X246122Y575052D01*
X246071Y574963D01*
X246018Y574876D01*
X245960Y574792D01*
X245900Y574709D01*
X245837Y574629D01*
X245770Y574552D01*
X245701Y574477D01*
X245628Y574404D01*
X245553Y574335D01*
X245476Y574268D01*
X245396Y574205D01*
X245313Y574145D01*
X245229Y574087D01*
X245142Y574034D01*
X245053Y573983D01*
X244962Y573936D01*
X244870Y573892D01*
X244776Y573852D01*
X244680Y573816D01*
X244584Y573783D01*
X244486Y573754D01*
X244387Y573729D01*
X244287Y573708D01*
X244186Y573690D01*
X244085Y573677D01*
X243983Y573667D01*
X243881Y573661D01*
X243779Y573659D01*
X231303Y584327D02*
X225969Y584327D01*
X229525Y589661D02*
X229525Y576326D01*
X229523Y576224D01*
X229517Y576122D01*
X229507Y576020D01*
X229494Y575919D01*
X229476Y575818D01*
X229455Y575718D01*
X229430Y575619D01*
X229401Y575521D01*
X229368Y575425D01*
X229332Y575329D01*
X229292Y575235D01*
X229248Y575143D01*
X229201Y575052D01*
X229150Y574963D01*
X229097Y574876D01*
X229039Y574792D01*
X228979Y574709D01*
X228916Y574629D01*
X228849Y574552D01*
X228780Y574477D01*
X228707Y574404D01*
X228632Y574335D01*
X228555Y574268D01*
X228475Y574205D01*
X228392Y574145D01*
X228308Y574087D01*
X228221Y574034D01*
X228132Y573983D01*
X228041Y573936D01*
X227949Y573892D01*
X227855Y573852D01*
X227759Y573816D01*
X227663Y573783D01*
X227565Y573754D01*
X227466Y573729D01*
X227366Y573708D01*
X227265Y573690D01*
X227164Y573677D01*
X227062Y573667D01*
X226960Y573661D01*
X226858Y573659D01*
X225969Y573659D01*
X219560Y573659D02*
X219560Y589661D01*
X219560Y584327D02*
X215115Y584327D01*
X215013Y584325D01*
X214911Y584319D01*
X214809Y584309D01*
X214708Y584296D01*
X214607Y584278D01*
X214507Y584257D01*
X214408Y584232D01*
X214310Y584203D01*
X214214Y584170D01*
X214118Y584134D01*
X214024Y584094D01*
X213932Y584050D01*
X213841Y584003D01*
X213752Y583952D01*
X213665Y583899D01*
X213581Y583841D01*
X213498Y583781D01*
X213418Y583718D01*
X213341Y583651D01*
X213266Y583582D01*
X213193Y583509D01*
X213124Y583434D01*
X213057Y583357D01*
X212994Y583277D01*
X212934Y583194D01*
X212876Y583110D01*
X212823Y583023D01*
X212772Y582934D01*
X212725Y582843D01*
X212681Y582751D01*
X212641Y582657D01*
X212605Y582561D01*
X212572Y582465D01*
X212543Y582367D01*
X212518Y582268D01*
X212497Y582168D01*
X212479Y582067D01*
X212466Y581966D01*
X212456Y581864D01*
X212450Y581762D01*
X212448Y581660D01*
X212448Y573659D01*
X202824Y573659D02*
X198379Y573659D01*
X202824Y573659D02*
X202926Y573661D01*
X203028Y573667D01*
X203130Y573677D01*
X203231Y573690D01*
X203332Y573708D01*
X203432Y573729D01*
X203531Y573754D01*
X203629Y573783D01*
X203725Y573816D01*
X203821Y573852D01*
X203915Y573892D01*
X204007Y573936D01*
X204098Y573983D01*
X204187Y574034D01*
X204274Y574087D01*
X204358Y574145D01*
X204441Y574205D01*
X204521Y574268D01*
X204598Y574335D01*
X204673Y574404D01*
X204746Y574477D01*
X204815Y574552D01*
X204882Y574629D01*
X204945Y574709D01*
X205005Y574792D01*
X205063Y574876D01*
X205116Y574963D01*
X205167Y575052D01*
X205214Y575143D01*
X205258Y575235D01*
X205298Y575329D01*
X205334Y575425D01*
X205367Y575521D01*
X205396Y575619D01*
X205421Y575718D01*
X205442Y575818D01*
X205460Y575919D01*
X205473Y576020D01*
X205483Y576122D01*
X205489Y576224D01*
X205491Y576326D01*
X205491Y580771D01*
X205489Y580889D01*
X205483Y581006D01*
X205474Y581123D01*
X205460Y581240D01*
X205443Y581356D01*
X205421Y581472D01*
X205396Y581587D01*
X205367Y581701D01*
X205335Y581814D01*
X205298Y581926D01*
X205258Y582036D01*
X205215Y582145D01*
X205167Y582253D01*
X205117Y582359D01*
X205062Y582463D01*
X205005Y582566D01*
X204944Y582666D01*
X204879Y582765D01*
X204812Y582861D01*
X204741Y582955D01*
X204667Y583047D01*
X204591Y583136D01*
X204511Y583222D01*
X204429Y583306D01*
X204343Y583387D01*
X204256Y583465D01*
X204165Y583541D01*
X204072Y583613D01*
X203977Y583682D01*
X203880Y583748D01*
X203780Y583811D01*
X203679Y583870D01*
X203576Y583926D01*
X203470Y583978D01*
X203363Y584027D01*
X203255Y584073D01*
X203145Y584115D01*
X203034Y584153D01*
X202921Y584187D01*
X202808Y584218D01*
X202693Y584245D01*
X202578Y584268D01*
X202462Y584288D01*
X202346Y584303D01*
X202229Y584315D01*
X202111Y584323D01*
X201994Y584327D01*
X201876Y584327D01*
X201759Y584323D01*
X201641Y584315D01*
X201524Y584303D01*
X201408Y584288D01*
X201292Y584268D01*
X201177Y584245D01*
X201062Y584218D01*
X200949Y584187D01*
X200836Y584153D01*
X200725Y584115D01*
X200615Y584073D01*
X200507Y584027D01*
X200400Y583978D01*
X200294Y583926D01*
X200191Y583870D01*
X200090Y583811D01*
X199990Y583748D01*
X199893Y583682D01*
X199798Y583613D01*
X199705Y583541D01*
X199614Y583465D01*
X199527Y583387D01*
X199441Y583306D01*
X199359Y583222D01*
X199279Y583136D01*
X199203Y583047D01*
X199129Y582955D01*
X199058Y582861D01*
X198991Y582765D01*
X198926Y582666D01*
X198865Y582566D01*
X198808Y582463D01*
X198753Y582359D01*
X198703Y582253D01*
X198655Y582145D01*
X198612Y582036D01*
X198572Y581926D01*
X198535Y581814D01*
X198503Y581701D01*
X198474Y581587D01*
X198449Y581472D01*
X198427Y581356D01*
X198410Y581240D01*
X198396Y581123D01*
X198387Y581006D01*
X198381Y580889D01*
X198379Y580771D01*
X198379Y578993D01*
X205491Y578993D01*
X192465Y568325D02*
X190687Y568325D01*
X185353Y584327D01*
X192465Y584327D02*
X188909Y573659D01*
X180573Y589661D02*
X180573Y593217D01*
X174657Y584327D02*
X174657Y573659D01*
X174657Y584327D02*
X169323Y584327D01*
X169323Y582549D01*
X161662Y573659D02*
X157217Y573659D01*
X161662Y573659D02*
X161764Y573661D01*
X161866Y573667D01*
X161968Y573677D01*
X162069Y573690D01*
X162170Y573708D01*
X162270Y573729D01*
X162369Y573754D01*
X162467Y573783D01*
X162563Y573816D01*
X162659Y573852D01*
X162753Y573892D01*
X162845Y573936D01*
X162936Y573983D01*
X163025Y574034D01*
X163112Y574087D01*
X163196Y574145D01*
X163279Y574205D01*
X163359Y574268D01*
X163436Y574335D01*
X163511Y574404D01*
X163584Y574477D01*
X163653Y574552D01*
X163720Y574629D01*
X163783Y574709D01*
X163843Y574792D01*
X163901Y574876D01*
X163954Y574963D01*
X164005Y575052D01*
X164052Y575143D01*
X164096Y575235D01*
X164136Y575329D01*
X164172Y575425D01*
X164205Y575521D01*
X164234Y575619D01*
X164259Y575718D01*
X164280Y575818D01*
X164298Y575919D01*
X164311Y576020D01*
X164321Y576122D01*
X164327Y576224D01*
X164329Y576326D01*
X164329Y580771D01*
X164327Y580889D01*
X164321Y581006D01*
X164312Y581123D01*
X164298Y581240D01*
X164281Y581356D01*
X164259Y581472D01*
X164234Y581587D01*
X164205Y581701D01*
X164173Y581814D01*
X164136Y581926D01*
X164096Y582036D01*
X164053Y582145D01*
X164005Y582253D01*
X163955Y582359D01*
X163900Y582463D01*
X163843Y582566D01*
X163782Y582666D01*
X163717Y582765D01*
X163650Y582861D01*
X163579Y582955D01*
X163505Y583047D01*
X163429Y583136D01*
X163349Y583222D01*
X163267Y583306D01*
X163181Y583387D01*
X163094Y583465D01*
X163003Y583541D01*
X162910Y583613D01*
X162815Y583682D01*
X162718Y583748D01*
X162618Y583811D01*
X162517Y583870D01*
X162414Y583926D01*
X162308Y583978D01*
X162201Y584027D01*
X162093Y584073D01*
X161983Y584115D01*
X161872Y584153D01*
X161759Y584187D01*
X161646Y584218D01*
X161531Y584245D01*
X161416Y584268D01*
X161300Y584288D01*
X161184Y584303D01*
X161067Y584315D01*
X160949Y584323D01*
X160832Y584327D01*
X160714Y584327D01*
X160597Y584323D01*
X160479Y584315D01*
X160362Y584303D01*
X160246Y584288D01*
X160130Y584268D01*
X160015Y584245D01*
X159900Y584218D01*
X159787Y584187D01*
X159674Y584153D01*
X159563Y584115D01*
X159453Y584073D01*
X159345Y584027D01*
X159238Y583978D01*
X159132Y583926D01*
X159029Y583870D01*
X158928Y583811D01*
X158828Y583748D01*
X158731Y583682D01*
X158636Y583613D01*
X158543Y583541D01*
X158452Y583465D01*
X158365Y583387D01*
X158279Y583306D01*
X158197Y583222D01*
X158117Y583136D01*
X158041Y583047D01*
X157967Y582955D01*
X157896Y582861D01*
X157829Y582765D01*
X157764Y582666D01*
X157703Y582566D01*
X157646Y582463D01*
X157591Y582359D01*
X157541Y582253D01*
X157493Y582145D01*
X157450Y582036D01*
X157410Y581926D01*
X157373Y581814D01*
X157341Y581701D01*
X157312Y581587D01*
X157287Y581472D01*
X157265Y581356D01*
X157248Y581240D01*
X157234Y581123D01*
X157225Y581006D01*
X157219Y580889D01*
X157217Y580771D01*
X157217Y578993D01*
X164329Y578993D01*
X141112Y579882D02*
X136667Y578104D01*
X141112Y579882D02*
X141200Y579919D01*
X141286Y579960D01*
X141371Y580004D01*
X141453Y580052D01*
X141534Y580104D01*
X141612Y580158D01*
X141688Y580216D01*
X141762Y580277D01*
X141833Y580341D01*
X141901Y580407D01*
X141966Y580477D01*
X142029Y580549D01*
X142088Y580624D01*
X142145Y580701D01*
X142198Y580780D01*
X142248Y580862D01*
X142294Y580945D01*
X142337Y581030D01*
X142376Y581118D01*
X142412Y581206D01*
X142444Y581296D01*
X142472Y581387D01*
X142496Y581480D01*
X142517Y581573D01*
X142533Y581667D01*
X142546Y581761D01*
X142555Y581857D01*
X142560Y581952D01*
X142561Y582047D01*
X142558Y582143D01*
X142551Y582238D01*
X142540Y582333D01*
X142525Y582427D01*
X142506Y582521D01*
X142484Y582614D01*
X142457Y582705D01*
X142427Y582796D01*
X142393Y582885D01*
X142356Y582973D01*
X142315Y583059D01*
X142270Y583143D01*
X142222Y583226D01*
X142170Y583306D01*
X142115Y583384D01*
X142057Y583460D01*
X141996Y583534D01*
X141932Y583604D01*
X141865Y583672D01*
X141795Y583738D01*
X141723Y583800D01*
X141648Y583859D01*
X141571Y583915D01*
X141491Y583968D01*
X141410Y584017D01*
X141326Y584064D01*
X141241Y584106D01*
X141153Y584145D01*
X141065Y584180D01*
X140975Y584212D01*
X140883Y584240D01*
X140791Y584264D01*
X140698Y584284D01*
X140604Y584301D01*
X140509Y584313D01*
X140414Y584322D01*
X140319Y584326D01*
X140223Y584327D01*
X139980Y584321D01*
X139738Y584308D01*
X139496Y584290D01*
X139254Y584266D01*
X139013Y584237D01*
X138773Y584201D01*
X138534Y584160D01*
X138296Y584113D01*
X138059Y584061D01*
X137823Y584002D01*
X137589Y583938D01*
X137356Y583869D01*
X137125Y583793D01*
X136896Y583713D01*
X136670Y583627D01*
X136445Y583535D01*
X136222Y583438D01*
X136667Y578104D02*
X136579Y578067D01*
X136493Y578026D01*
X136408Y577982D01*
X136326Y577934D01*
X136245Y577882D01*
X136167Y577828D01*
X136091Y577770D01*
X136017Y577709D01*
X135946Y577645D01*
X135878Y577579D01*
X135813Y577509D01*
X135750Y577437D01*
X135691Y577362D01*
X135634Y577285D01*
X135581Y577206D01*
X135531Y577124D01*
X135485Y577041D01*
X135442Y576956D01*
X135403Y576868D01*
X135367Y576780D01*
X135335Y576690D01*
X135307Y576599D01*
X135283Y576506D01*
X135262Y576413D01*
X135246Y576319D01*
X135233Y576225D01*
X135224Y576129D01*
X135219Y576034D01*
X135218Y575939D01*
X135221Y575843D01*
X135228Y575748D01*
X135239Y575653D01*
X135254Y575559D01*
X135273Y575465D01*
X135295Y575372D01*
X135322Y575281D01*
X135352Y575190D01*
X135386Y575101D01*
X135423Y575013D01*
X135464Y574927D01*
X135509Y574843D01*
X135557Y574760D01*
X135609Y574680D01*
X135664Y574602D01*
X135722Y574526D01*
X135783Y574452D01*
X135847Y574382D01*
X135914Y574314D01*
X135984Y574248D01*
X136056Y574186D01*
X136131Y574127D01*
X136208Y574071D01*
X136288Y574018D01*
X136369Y573969D01*
X136453Y573922D01*
X136538Y573880D01*
X136626Y573841D01*
X136714Y573806D01*
X136804Y573774D01*
X136896Y573746D01*
X136988Y573722D01*
X137081Y573702D01*
X137175Y573685D01*
X137270Y573673D01*
X137365Y573664D01*
X137460Y573660D01*
X137556Y573659D01*
X137556Y573660D02*
X137913Y573669D01*
X138269Y573687D01*
X138625Y573713D01*
X138980Y573747D01*
X139334Y573790D01*
X139686Y573842D01*
X140038Y573901D01*
X140388Y573969D01*
X140736Y574045D01*
X141083Y574130D01*
X141427Y574222D01*
X141769Y574323D01*
X142109Y574432D01*
X142446Y574549D01*
X130222Y584327D02*
X124888Y584327D01*
X128444Y589661D02*
X128444Y576326D01*
X128442Y576224D01*
X128436Y576122D01*
X128426Y576020D01*
X128413Y575919D01*
X128395Y575818D01*
X128374Y575718D01*
X128349Y575619D01*
X128320Y575521D01*
X128287Y575425D01*
X128251Y575329D01*
X128211Y575235D01*
X128167Y575143D01*
X128120Y575052D01*
X128069Y574963D01*
X128016Y574876D01*
X127958Y574792D01*
X127898Y574709D01*
X127835Y574629D01*
X127768Y574552D01*
X127699Y574477D01*
X127626Y574404D01*
X127551Y574335D01*
X127474Y574268D01*
X127394Y574205D01*
X127311Y574145D01*
X127227Y574087D01*
X127140Y574034D01*
X127051Y573983D01*
X126960Y573936D01*
X126868Y573892D01*
X126774Y573852D01*
X126678Y573816D01*
X126582Y573783D01*
X126484Y573754D01*
X126385Y573729D01*
X126285Y573708D01*
X126184Y573690D01*
X126083Y573677D01*
X125981Y573667D01*
X125879Y573661D01*
X125777Y573659D01*
X124888Y573659D01*
X118384Y573659D02*
X118384Y584327D01*
X113050Y584327D01*
X113050Y582549D01*
X108057Y580771D02*
X108057Y577215D01*
X108057Y580771D02*
X108055Y580889D01*
X108049Y581006D01*
X108040Y581123D01*
X108026Y581240D01*
X108009Y581356D01*
X107987Y581472D01*
X107962Y581587D01*
X107933Y581701D01*
X107901Y581814D01*
X107864Y581926D01*
X107824Y582036D01*
X107781Y582145D01*
X107733Y582253D01*
X107683Y582359D01*
X107628Y582463D01*
X107571Y582566D01*
X107510Y582666D01*
X107445Y582765D01*
X107378Y582861D01*
X107307Y582955D01*
X107233Y583047D01*
X107157Y583136D01*
X107077Y583222D01*
X106995Y583306D01*
X106909Y583387D01*
X106822Y583465D01*
X106731Y583541D01*
X106638Y583613D01*
X106543Y583682D01*
X106446Y583748D01*
X106346Y583811D01*
X106245Y583870D01*
X106142Y583926D01*
X106036Y583978D01*
X105929Y584027D01*
X105821Y584073D01*
X105711Y584115D01*
X105600Y584153D01*
X105487Y584187D01*
X105374Y584218D01*
X105259Y584245D01*
X105144Y584268D01*
X105028Y584288D01*
X104912Y584303D01*
X104795Y584315D01*
X104677Y584323D01*
X104560Y584327D01*
X104442Y584327D01*
X104325Y584323D01*
X104207Y584315D01*
X104090Y584303D01*
X103974Y584288D01*
X103858Y584268D01*
X103743Y584245D01*
X103628Y584218D01*
X103515Y584187D01*
X103402Y584153D01*
X103291Y584115D01*
X103181Y584073D01*
X103073Y584027D01*
X102966Y583978D01*
X102860Y583926D01*
X102757Y583870D01*
X102656Y583811D01*
X102556Y583748D01*
X102459Y583682D01*
X102364Y583613D01*
X102271Y583541D01*
X102180Y583465D01*
X102093Y583387D01*
X102007Y583306D01*
X101925Y583222D01*
X101845Y583136D01*
X101769Y583047D01*
X101695Y582955D01*
X101624Y582861D01*
X101557Y582765D01*
X101492Y582666D01*
X101431Y582566D01*
X101374Y582463D01*
X101319Y582359D01*
X101269Y582253D01*
X101221Y582145D01*
X101178Y582036D01*
X101138Y581926D01*
X101101Y581814D01*
X101069Y581701D01*
X101040Y581587D01*
X101015Y581472D01*
X100993Y581356D01*
X100976Y581240D01*
X100962Y581123D01*
X100953Y581006D01*
X100947Y580889D01*
X100945Y580771D01*
X100945Y577215D01*
X100947Y577097D01*
X100953Y576980D01*
X100962Y576863D01*
X100976Y576746D01*
X100993Y576630D01*
X101015Y576514D01*
X101040Y576399D01*
X101069Y576285D01*
X101101Y576172D01*
X101138Y576060D01*
X101178Y575950D01*
X101221Y575841D01*
X101269Y575733D01*
X101319Y575627D01*
X101374Y575523D01*
X101431Y575420D01*
X101492Y575320D01*
X101557Y575221D01*
X101624Y575125D01*
X101695Y575031D01*
X101769Y574939D01*
X101845Y574850D01*
X101925Y574764D01*
X102007Y574680D01*
X102093Y574599D01*
X102180Y574521D01*
X102271Y574445D01*
X102364Y574373D01*
X102459Y574304D01*
X102556Y574238D01*
X102656Y574175D01*
X102757Y574116D01*
X102860Y574060D01*
X102966Y574008D01*
X103073Y573959D01*
X103181Y573913D01*
X103291Y573871D01*
X103402Y573833D01*
X103515Y573799D01*
X103628Y573768D01*
X103743Y573741D01*
X103858Y573718D01*
X103974Y573698D01*
X104090Y573683D01*
X104207Y573671D01*
X104325Y573663D01*
X104442Y573659D01*
X104560Y573659D01*
X104677Y573663D01*
X104795Y573671D01*
X104912Y573683D01*
X105028Y573698D01*
X105144Y573718D01*
X105259Y573741D01*
X105374Y573768D01*
X105487Y573799D01*
X105600Y573833D01*
X105711Y573871D01*
X105821Y573913D01*
X105929Y573959D01*
X106036Y574008D01*
X106142Y574060D01*
X106245Y574116D01*
X106346Y574175D01*
X106446Y574238D01*
X106543Y574304D01*
X106638Y574373D01*
X106731Y574445D01*
X106822Y574521D01*
X106909Y574599D01*
X106995Y574680D01*
X107077Y574764D01*
X107157Y574850D01*
X107233Y574939D01*
X107307Y575031D01*
X107378Y575125D01*
X107445Y575221D01*
X107510Y575320D01*
X107571Y575420D01*
X107628Y575523D01*
X107683Y575627D01*
X107733Y575733D01*
X107781Y575841D01*
X107824Y575950D01*
X107864Y576060D01*
X107901Y576172D01*
X107933Y576285D01*
X107962Y576399D01*
X107987Y576514D01*
X108009Y576630D01*
X108026Y576746D01*
X108040Y576863D01*
X108049Y576980D01*
X108055Y577097D01*
X108057Y577215D01*
X93989Y573659D02*
X93989Y584327D01*
X89544Y584327D01*
X89442Y584325D01*
X89340Y584319D01*
X89238Y584309D01*
X89137Y584296D01*
X89036Y584278D01*
X88936Y584257D01*
X88837Y584232D01*
X88739Y584203D01*
X88643Y584170D01*
X88547Y584134D01*
X88453Y584094D01*
X88361Y584050D01*
X88270Y584003D01*
X88181Y583952D01*
X88094Y583899D01*
X88010Y583841D01*
X87927Y583781D01*
X87847Y583718D01*
X87770Y583651D01*
X87695Y583582D01*
X87622Y583509D01*
X87553Y583434D01*
X87486Y583357D01*
X87423Y583277D01*
X87363Y583194D01*
X87305Y583110D01*
X87252Y583023D01*
X87201Y582934D01*
X87154Y582843D01*
X87110Y582751D01*
X87070Y582657D01*
X87034Y582561D01*
X87001Y582465D01*
X86972Y582367D01*
X86947Y582268D01*
X86926Y582168D01*
X86908Y582067D01*
X86895Y581966D01*
X86885Y581864D01*
X86879Y581762D01*
X86877Y581660D01*
X86877Y573659D01*
X77334Y573659D02*
X72889Y573659D01*
X77334Y573659D02*
X77436Y573661D01*
X77538Y573667D01*
X77640Y573677D01*
X77741Y573690D01*
X77842Y573708D01*
X77942Y573729D01*
X78041Y573754D01*
X78139Y573783D01*
X78235Y573816D01*
X78331Y573852D01*
X78425Y573892D01*
X78517Y573936D01*
X78608Y573983D01*
X78697Y574034D01*
X78784Y574087D01*
X78868Y574145D01*
X78951Y574205D01*
X79031Y574268D01*
X79108Y574335D01*
X79183Y574404D01*
X79256Y574477D01*
X79325Y574552D01*
X79392Y574629D01*
X79455Y574709D01*
X79515Y574792D01*
X79573Y574876D01*
X79626Y574963D01*
X79677Y575052D01*
X79724Y575143D01*
X79768Y575235D01*
X79808Y575329D01*
X79844Y575425D01*
X79877Y575521D01*
X79906Y575619D01*
X79931Y575718D01*
X79952Y575818D01*
X79970Y575919D01*
X79983Y576020D01*
X79993Y576122D01*
X79999Y576224D01*
X80001Y576326D01*
X80001Y581660D01*
X79999Y581762D01*
X79993Y581864D01*
X79983Y581966D01*
X79970Y582067D01*
X79952Y582168D01*
X79931Y582268D01*
X79906Y582367D01*
X79877Y582465D01*
X79844Y582561D01*
X79808Y582657D01*
X79768Y582751D01*
X79724Y582843D01*
X79677Y582934D01*
X79626Y583023D01*
X79573Y583110D01*
X79515Y583194D01*
X79455Y583277D01*
X79392Y583357D01*
X79325Y583434D01*
X79256Y583509D01*
X79183Y583582D01*
X79108Y583651D01*
X79031Y583718D01*
X78951Y583781D01*
X78868Y583841D01*
X78784Y583899D01*
X78697Y583952D01*
X78608Y584003D01*
X78517Y584050D01*
X78425Y584094D01*
X78331Y584134D01*
X78235Y584170D01*
X78139Y584203D01*
X78041Y584232D01*
X77942Y584257D01*
X77842Y584278D01*
X77741Y584296D01*
X77640Y584309D01*
X77538Y584319D01*
X77436Y584325D01*
X77334Y584327D01*
X72889Y584327D01*
X72889Y570992D01*
X72891Y570890D01*
X72897Y570788D01*
X72907Y570686D01*
X72920Y570585D01*
X72938Y570484D01*
X72959Y570384D01*
X72984Y570285D01*
X73013Y570187D01*
X73046Y570091D01*
X73082Y569995D01*
X73122Y569901D01*
X73166Y569809D01*
X73213Y569718D01*
X73264Y569629D01*
X73317Y569542D01*
X73375Y569458D01*
X73435Y569375D01*
X73498Y569295D01*
X73565Y569218D01*
X73634Y569143D01*
X73707Y569070D01*
X73782Y569001D01*
X73859Y568934D01*
X73939Y568871D01*
X74022Y568811D01*
X74106Y568753D01*
X74193Y568700D01*
X74282Y568649D01*
X74373Y568602D01*
X74465Y568558D01*
X74559Y568518D01*
X74655Y568482D01*
X74751Y568449D01*
X74849Y568420D01*
X74948Y568395D01*
X75048Y568374D01*
X75149Y568356D01*
X75250Y568343D01*
X75352Y568333D01*
X75454Y568327D01*
X75556Y568325D01*
X79112Y568325D01*
X63186Y573659D02*
X58741Y573659D01*
X63186Y573659D02*
X63288Y573661D01*
X63390Y573667D01*
X63492Y573677D01*
X63593Y573690D01*
X63694Y573708D01*
X63794Y573729D01*
X63893Y573754D01*
X63991Y573783D01*
X64087Y573816D01*
X64183Y573852D01*
X64277Y573892D01*
X64369Y573936D01*
X64460Y573983D01*
X64549Y574034D01*
X64636Y574087D01*
X64720Y574145D01*
X64803Y574205D01*
X64883Y574268D01*
X64960Y574335D01*
X65035Y574404D01*
X65108Y574477D01*
X65177Y574552D01*
X65244Y574629D01*
X65307Y574709D01*
X65367Y574792D01*
X65425Y574876D01*
X65478Y574963D01*
X65529Y575052D01*
X65576Y575143D01*
X65620Y575235D01*
X65660Y575329D01*
X65696Y575425D01*
X65729Y575521D01*
X65758Y575619D01*
X65783Y575718D01*
X65804Y575818D01*
X65822Y575919D01*
X65835Y576020D01*
X65845Y576122D01*
X65851Y576224D01*
X65853Y576326D01*
X65853Y580771D01*
X65851Y580889D01*
X65845Y581006D01*
X65836Y581123D01*
X65822Y581240D01*
X65805Y581356D01*
X65783Y581472D01*
X65758Y581587D01*
X65729Y581701D01*
X65697Y581814D01*
X65660Y581926D01*
X65620Y582036D01*
X65577Y582145D01*
X65529Y582253D01*
X65479Y582359D01*
X65424Y582463D01*
X65367Y582566D01*
X65306Y582666D01*
X65241Y582765D01*
X65174Y582861D01*
X65103Y582955D01*
X65029Y583047D01*
X64953Y583136D01*
X64873Y583222D01*
X64791Y583306D01*
X64705Y583387D01*
X64618Y583465D01*
X64527Y583541D01*
X64434Y583613D01*
X64339Y583682D01*
X64242Y583748D01*
X64142Y583811D01*
X64041Y583870D01*
X63938Y583926D01*
X63832Y583978D01*
X63725Y584027D01*
X63617Y584073D01*
X63507Y584115D01*
X63396Y584153D01*
X63283Y584187D01*
X63170Y584218D01*
X63055Y584245D01*
X62940Y584268D01*
X62824Y584288D01*
X62708Y584303D01*
X62591Y584315D01*
X62473Y584323D01*
X62356Y584327D01*
X62238Y584327D01*
X62121Y584323D01*
X62003Y584315D01*
X61886Y584303D01*
X61770Y584288D01*
X61654Y584268D01*
X61539Y584245D01*
X61424Y584218D01*
X61311Y584187D01*
X61198Y584153D01*
X61087Y584115D01*
X60977Y584073D01*
X60869Y584027D01*
X60762Y583978D01*
X60656Y583926D01*
X60553Y583870D01*
X60452Y583811D01*
X60352Y583748D01*
X60255Y583682D01*
X60160Y583613D01*
X60067Y583541D01*
X59976Y583465D01*
X59889Y583387D01*
X59803Y583306D01*
X59721Y583222D01*
X59641Y583136D01*
X59565Y583047D01*
X59491Y582955D01*
X59420Y582861D01*
X59353Y582765D01*
X59288Y582666D01*
X59227Y582566D01*
X59170Y582463D01*
X59115Y582359D01*
X59065Y582253D01*
X59017Y582145D01*
X58974Y582036D01*
X58934Y581926D01*
X58897Y581814D01*
X58865Y581701D01*
X58836Y581587D01*
X58811Y581472D01*
X58789Y581356D01*
X58772Y581240D01*
X58758Y581123D01*
X58749Y581006D01*
X58743Y580889D01*
X58741Y580771D01*
X58741Y578993D01*
X65853Y578993D01*
X51691Y573659D02*
X51691Y584327D01*
X46357Y584327D01*
X46357Y582549D01*
D11*
X165100Y749300D03*
D12*
X311383Y540081D02*
X323038Y539266D01*
X322812Y536028D01*
X322811Y536028D02*
X322803Y535941D01*
X322791Y535855D01*
X322775Y535769D01*
X322756Y535684D01*
X322732Y535599D01*
X322705Y535516D01*
X322674Y535435D01*
X322640Y535354D01*
X322602Y535276D01*
X322560Y535199D01*
X322515Y535124D01*
X322467Y535051D01*
X322415Y534981D01*
X322361Y534913D01*
X322303Y534847D01*
X322242Y534784D01*
X322179Y534724D01*
X322113Y534666D01*
X322045Y534612D01*
X321974Y534561D01*
X321901Y534513D01*
X321826Y534468D01*
X321749Y534427D01*
X321670Y534389D01*
X321589Y534355D01*
X321507Y534325D01*
X321424Y534298D01*
X321340Y534275D01*
X321255Y534256D01*
X321169Y534240D01*
X321082Y534229D01*
X320995Y534221D01*
X320908Y534217D01*
X320820Y534218D01*
X320733Y534222D01*
X320733Y534221D02*
X316848Y534493D01*
X316761Y534501D01*
X316675Y534513D01*
X316589Y534529D01*
X316504Y534548D01*
X316419Y534572D01*
X316336Y534599D01*
X316255Y534630D01*
X316174Y534664D01*
X316096Y534702D01*
X316019Y534744D01*
X315944Y534789D01*
X315871Y534837D01*
X315801Y534889D01*
X315732Y534944D01*
X315667Y535001D01*
X315604Y535062D01*
X315544Y535125D01*
X315486Y535191D01*
X315432Y535259D01*
X315381Y535330D01*
X315333Y535403D01*
X315288Y535478D01*
X315247Y535555D01*
X315209Y535634D01*
X315175Y535715D01*
X315145Y535797D01*
X315118Y535880D01*
X315095Y535964D01*
X315076Y536049D01*
X315060Y536135D01*
X315049Y536222D01*
X315041Y536309D01*
X315037Y536396D01*
X315038Y536484D01*
X315042Y536571D01*
X315041Y536571D02*
X315268Y539809D01*
X326263Y529551D02*
X326172Y528256D01*
X314245Y525186D01*
X314607Y530366D02*
X322197Y527232D01*
X311155Y508908D02*
X311019Y506965D01*
X311156Y508908D02*
X311164Y508995D01*
X311176Y509081D01*
X311192Y509167D01*
X311211Y509252D01*
X311235Y509337D01*
X311262Y509420D01*
X311293Y509501D01*
X311327Y509582D01*
X311365Y509660D01*
X311407Y509737D01*
X311452Y509812D01*
X311500Y509885D01*
X311552Y509955D01*
X311607Y510024D01*
X311664Y510089D01*
X311725Y510152D01*
X311788Y510212D01*
X311854Y510270D01*
X311922Y510324D01*
X311993Y510375D01*
X312066Y510423D01*
X312141Y510468D01*
X312218Y510509D01*
X312297Y510547D01*
X312378Y510581D01*
X312460Y510611D01*
X312543Y510638D01*
X312627Y510661D01*
X312712Y510680D01*
X312798Y510696D01*
X312885Y510707D01*
X312972Y510715D01*
X313059Y510719D01*
X313147Y510718D01*
X313234Y510714D01*
X313233Y510715D02*
X317119Y510443D01*
X317119Y510442D02*
X317206Y510434D01*
X317292Y510422D01*
X317378Y510406D01*
X317463Y510387D01*
X317548Y510363D01*
X317631Y510336D01*
X317712Y510305D01*
X317793Y510271D01*
X317871Y510233D01*
X317948Y510191D01*
X318023Y510146D01*
X318096Y510098D01*
X318166Y510046D01*
X318235Y509991D01*
X318300Y509934D01*
X318363Y509873D01*
X318423Y509810D01*
X318481Y509744D01*
X318535Y509676D01*
X318586Y509605D01*
X318634Y509532D01*
X318679Y509457D01*
X318720Y509380D01*
X318758Y509301D01*
X318792Y509220D01*
X318822Y509138D01*
X318849Y509055D01*
X318872Y508971D01*
X318891Y508886D01*
X318907Y508800D01*
X318918Y508713D01*
X318926Y508626D01*
X318930Y508539D01*
X318929Y508451D01*
X318925Y508364D01*
X318917Y508277D01*
X318905Y508191D01*
X318889Y508105D01*
X318870Y508020D01*
X318846Y507935D01*
X318819Y507852D01*
X318788Y507771D01*
X318754Y507690D01*
X318716Y507612D01*
X318674Y507535D01*
X318629Y507460D01*
X318581Y507387D01*
X318529Y507317D01*
X318474Y507249D01*
X318417Y507183D01*
X318356Y507120D01*
X318293Y507060D01*
X318227Y507002D01*
X318159Y506948D01*
X318088Y506897D01*
X318015Y506849D01*
X317940Y506804D01*
X317863Y506763D01*
X317784Y506725D01*
X317703Y506691D01*
X317621Y506661D01*
X317538Y506634D01*
X317454Y506611D01*
X317369Y506592D01*
X317283Y506576D01*
X317196Y506565D01*
X317109Y506557D01*
X317022Y506553D01*
X316934Y506554D01*
X316847Y506558D01*
X317171Y506535D02*
X311019Y506965D01*
X317170Y506535D02*
X317250Y506528D01*
X317328Y506516D01*
X317407Y506501D01*
X317484Y506482D01*
X317560Y506459D01*
X317635Y506432D01*
X317709Y506402D01*
X317781Y506368D01*
X317852Y506331D01*
X317920Y506291D01*
X317986Y506247D01*
X318051Y506199D01*
X318112Y506149D01*
X318172Y506096D01*
X318228Y506040D01*
X318282Y505981D01*
X318333Y505919D01*
X318380Y505856D01*
X318425Y505790D01*
X318466Y505721D01*
X318504Y505651D01*
X318538Y505579D01*
X318569Y505506D01*
X318596Y505431D01*
X318620Y505355D01*
X318639Y505278D01*
X318655Y505200D01*
X318667Y505121D01*
X318675Y505042D01*
X318679Y504962D01*
X318680Y504882D01*
X318676Y504803D01*
X318669Y504723D01*
X318657Y504645D01*
X318642Y504566D01*
X318623Y504489D01*
X318600Y504413D01*
X318573Y504338D01*
X318543Y504264D01*
X318509Y504192D01*
X318472Y504121D01*
X318432Y504053D01*
X318388Y503987D01*
X318340Y503922D01*
X318290Y503861D01*
X318237Y503801D01*
X318181Y503745D01*
X318122Y503691D01*
X318060Y503640D01*
X317997Y503593D01*
X317931Y503548D01*
X317862Y503507D01*
X317792Y503469D01*
X317720Y503435D01*
X317647Y503404D01*
X317572Y503377D01*
X317496Y503353D01*
X317419Y503334D01*
X317341Y503318D01*
X317262Y503306D01*
X317183Y503298D01*
X317103Y503294D01*
X317023Y503293D01*
X316944Y503297D01*
X312088Y503637D01*
X311945Y503649D01*
X311803Y503664D01*
X311661Y503684D01*
X311520Y503708D01*
X311380Y503736D01*
X311240Y503767D01*
X311101Y503802D01*
X310964Y503841D01*
X310827Y503884D01*
X310692Y503931D01*
X310558Y503981D01*
X310425Y504035D01*
X310294Y504093D01*
X310165Y504154D01*
X310037Y504218D01*
X309912Y504287D01*
X309788Y504358D01*
X309666Y504433D01*
X309546Y504512D01*
X309429Y504593D01*
X309313Y504678D01*
X309201Y504766D01*
X309090Y504857D01*
X308982Y504951D01*
X308877Y505048D01*
X308775Y505148D01*
X308675Y505251D01*
X308578Y505356D01*
X308484Y505464D01*
X308393Y505575D01*
X308306Y505688D01*
X308221Y505803D01*
X308139Y505921D01*
X308061Y506041D01*
X307986Y506163D01*
X307915Y506287D01*
X307847Y506413D01*
X307783Y506541D01*
X307722Y506670D01*
X307664Y506801D01*
X307611Y506934D01*
X307560Y507068D01*
X307514Y507203D01*
X307472Y507340D01*
X307433Y507478D01*
X307398Y507616D01*
X307367Y507756D01*
X307339Y507896D01*
X307316Y508038D01*
X307296Y508179D01*
X307281Y508322D01*
X307269Y508464D01*
X307261Y508607D01*
X307257Y508750D01*
X307258Y508893D01*
X307262Y509036D01*
X307270Y509179D01*
X307282Y509322D01*
X307297Y509464D01*
X307317Y509606D01*
X307341Y509747D01*
X307369Y509887D01*
X307400Y510027D01*
X307435Y510166D01*
X307474Y510303D01*
X307517Y510440D01*
X307564Y510575D01*
X307614Y510709D01*
X307668Y510842D01*
X307726Y510973D01*
X307787Y511102D01*
X307851Y511230D01*
X307920Y511355D01*
X307991Y511479D01*
X308066Y511601D01*
X308145Y511721D01*
X308226Y511838D01*
X308311Y511954D01*
X308399Y512066D01*
X308490Y512177D01*
X308584Y512285D01*
X308681Y512390D01*
X308781Y512492D01*
X308884Y512592D01*
X308989Y512689D01*
X309097Y512783D01*
X309208Y512874D01*
X309321Y512961D01*
X309436Y513046D01*
X309554Y513128D01*
X309674Y513206D01*
X309796Y513281D01*
X309920Y513352D01*
X310046Y513420D01*
X310174Y513484D01*
X310303Y513545D01*
X310434Y513603D01*
X310567Y513656D01*
X310701Y513707D01*
X310836Y513753D01*
X310973Y513795D01*
X311111Y513834D01*
X311249Y513869D01*
X311389Y513900D01*
X311529Y513928D01*
X311671Y513951D01*
X311812Y513971D01*
X311955Y513986D01*
X312097Y513998D01*
X312240Y514006D01*
X312383Y514010D01*
X312526Y514009D01*
X312669Y514005D01*
X312812Y513997D01*
X312812Y513998D02*
X318316Y513613D01*
X318454Y513602D01*
X318592Y513586D01*
X318729Y513567D01*
X318865Y513543D01*
X319000Y513516D01*
X319135Y513485D01*
X319269Y513451D01*
X319402Y513412D01*
X319534Y513370D01*
X319664Y513324D01*
X319793Y513274D01*
X319921Y513221D01*
X320047Y513164D01*
X320171Y513103D01*
X320294Y513040D01*
X320414Y512972D01*
X320533Y512901D01*
X320650Y512827D01*
X320764Y512750D01*
X320877Y512669D01*
X320987Y512585D01*
X321094Y512499D01*
X321200Y512409D01*
X321302Y512316D01*
X321402Y512220D01*
X321499Y512122D01*
X321593Y512021D01*
X321685Y511917D01*
X321773Y511811D01*
X321858Y511702D01*
X321941Y511591D01*
X322020Y511477D01*
X322095Y511361D01*
X322168Y511244D01*
X322237Y511124D01*
X322303Y511002D01*
X322365Y510879D01*
X322424Y510753D01*
X322479Y510627D01*
X322530Y510498D01*
X322578Y510369D01*
X322622Y510238D01*
X322663Y510105D01*
X322699Y509972D01*
X322732Y509838D01*
X322761Y509702D01*
X322786Y509567D01*
X322808Y509430D01*
X322825Y509293D01*
X322839Y509155D01*
X322848Y509017D01*
X322854Y508879D01*
X322856Y508741D01*
X315518Y496862D02*
X316587Y493534D01*
X315518Y496862D02*
X315491Y496939D01*
X315461Y497015D01*
X315426Y497089D01*
X315389Y497162D01*
X315347Y497233D01*
X315302Y497301D01*
X315254Y497368D01*
X315203Y497431D01*
X315149Y497493D01*
X315091Y497551D01*
X315031Y497607D01*
X314969Y497660D01*
X314904Y497710D01*
X314836Y497756D01*
X314766Y497799D01*
X314695Y497839D01*
X314621Y497875D01*
X314546Y497908D01*
X314469Y497936D01*
X314391Y497961D01*
X314312Y497983D01*
X314232Y498000D01*
X314151Y498013D01*
X314070Y498023D01*
X313988Y498028D01*
X313906Y498030D01*
X313824Y498027D01*
X313743Y498021D01*
X313661Y498011D01*
X313581Y497996D01*
X313501Y497978D01*
X313422Y497956D01*
X313344Y497930D01*
X313268Y497900D01*
X313193Y497867D01*
X313120Y497830D01*
X313049Y497789D01*
X312979Y497745D01*
X312913Y497698D01*
X312848Y497648D01*
X312786Y497594D01*
X312727Y497538D01*
X312670Y497478D01*
X312616Y497416D01*
X312566Y497352D01*
X312519Y497285D01*
X312475Y497216D01*
X312434Y497145D01*
X312397Y497072D01*
X312363Y496997D01*
X312334Y496920D01*
X312308Y496843D01*
X312285Y496764D01*
X312267Y496684D01*
X312253Y496603D01*
X312242Y496522D01*
X312236Y496440D01*
X312235Y496441D02*
X312228Y496264D01*
X312224Y496087D01*
X312225Y495910D01*
X312230Y495733D01*
X312239Y495556D01*
X312253Y495379D01*
X312271Y495202D01*
X312293Y495027D01*
X312319Y494851D01*
X312350Y494677D01*
X312384Y494503D01*
X312423Y494330D01*
X312466Y494158D01*
X312513Y493987D01*
X312565Y493818D01*
X312620Y493649D01*
X312679Y493482D01*
X316587Y493533D02*
X316614Y493456D01*
X316644Y493380D01*
X316679Y493306D01*
X316716Y493233D01*
X316758Y493162D01*
X316803Y493094D01*
X316851Y493027D01*
X316902Y492963D01*
X316956Y492902D01*
X317014Y492844D01*
X317074Y492788D01*
X317136Y492735D01*
X317201Y492685D01*
X317269Y492639D01*
X317339Y492596D01*
X317410Y492556D01*
X317484Y492520D01*
X317559Y492487D01*
X317636Y492459D01*
X317714Y492433D01*
X317793Y492412D01*
X317873Y492395D01*
X317954Y492382D01*
X318035Y492372D01*
X318117Y492367D01*
X318199Y492365D01*
X318281Y492368D01*
X318362Y492374D01*
X318444Y492384D01*
X318524Y492399D01*
X318604Y492417D01*
X318683Y492439D01*
X318761Y492465D01*
X318837Y492495D01*
X318912Y492528D01*
X318985Y492565D01*
X319056Y492606D01*
X319126Y492650D01*
X319193Y492697D01*
X319257Y492747D01*
X319319Y492801D01*
X319378Y492857D01*
X319435Y492917D01*
X319489Y492979D01*
X319539Y493043D01*
X319586Y493110D01*
X319630Y493179D01*
X319671Y493250D01*
X319708Y493323D01*
X319742Y493398D01*
X319771Y493475D01*
X319797Y493552D01*
X319820Y493631D01*
X319838Y493711D01*
X319852Y493792D01*
X319863Y493873D01*
X319869Y493955D01*
X319870Y493955D02*
X319881Y494215D01*
X319887Y494475D01*
X319886Y494736D01*
X319879Y494996D01*
X319865Y495256D01*
X319846Y495516D01*
X319820Y495775D01*
X319789Y496033D01*
X319751Y496291D01*
X319707Y496548D01*
X319657Y496803D01*
X319601Y497058D01*
X319539Y497310D01*
X319472Y497562D01*
X319292Y485692D02*
X319066Y482454D01*
X319292Y485692D02*
X319296Y485779D01*
X319297Y485867D01*
X319293Y485954D01*
X319285Y486041D01*
X319274Y486128D01*
X319258Y486214D01*
X319239Y486299D01*
X319216Y486383D01*
X319189Y486466D01*
X319159Y486548D01*
X319125Y486629D01*
X319087Y486708D01*
X319046Y486785D01*
X319001Y486860D01*
X318953Y486933D01*
X318902Y487004D01*
X318848Y487072D01*
X318790Y487138D01*
X318730Y487201D01*
X318667Y487262D01*
X318601Y487320D01*
X318533Y487374D01*
X318463Y487426D01*
X318390Y487474D01*
X318315Y487519D01*
X318238Y487561D01*
X318160Y487599D01*
X318079Y487633D01*
X317998Y487664D01*
X317915Y487691D01*
X317830Y487715D01*
X317745Y487734D01*
X317659Y487750D01*
X317573Y487762D01*
X317486Y487770D01*
X317485Y487770D02*
X314248Y487997D01*
X314248Y487996D02*
X314148Y488001D01*
X314047Y488002D01*
X313946Y487999D01*
X313846Y487993D01*
X313746Y487982D01*
X313646Y487968D01*
X313547Y487949D01*
X313449Y487927D01*
X313351Y487901D01*
X313255Y487872D01*
X313160Y487838D01*
X313067Y487801D01*
X312974Y487761D01*
X312884Y487717D01*
X312795Y487669D01*
X312708Y487618D01*
X312624Y487564D01*
X312541Y487506D01*
X312461Y487445D01*
X312383Y487382D01*
X312308Y487315D01*
X312235Y487245D01*
X312165Y487173D01*
X312098Y487098D01*
X312034Y487020D01*
X311973Y486940D01*
X311915Y486858D01*
X311860Y486773D01*
X311809Y486687D01*
X311761Y486598D01*
X311716Y486508D01*
X311675Y486416D01*
X311638Y486322D01*
X311604Y486227D01*
X311574Y486131D01*
X311548Y486034D01*
X311526Y485936D01*
X311507Y485837D01*
X311492Y485737D01*
X311481Y485637D01*
X311474Y485537D01*
X311471Y485436D01*
X311472Y485336D01*
X311477Y485235D01*
X311485Y485135D01*
X311498Y485035D01*
X311514Y484935D01*
X311534Y484837D01*
X311558Y484739D01*
X311586Y484642D01*
X311617Y484547D01*
X311653Y484452D01*
X311691Y484359D01*
X311734Y484268D01*
X311780Y484178D01*
X311829Y484091D01*
X311882Y484005D01*
X311938Y483921D01*
X311997Y483840D01*
X312059Y483761D01*
X312124Y483684D01*
X312193Y483610D01*
X312264Y483539D01*
X312337Y483470D01*
X312414Y483404D01*
X312493Y483342D01*
X312574Y483282D01*
X312657Y483226D01*
X312743Y483173D01*
X312831Y483123D01*
X312920Y483077D01*
X313011Y483034D01*
X313104Y482995D01*
X313198Y482960D01*
X313294Y482928D01*
X313390Y482900D01*
X313488Y482875D01*
X313587Y482855D01*
X313686Y482838D01*
X313786Y482825D01*
X313886Y482816D01*
X313885Y482816D02*
X315181Y482726D01*
X315543Y487906D01*
X318600Y475797D02*
X318419Y473206D01*
X318600Y475796D02*
X318604Y475883D01*
X318605Y475971D01*
X318601Y476058D01*
X318593Y476145D01*
X318582Y476232D01*
X318566Y476318D01*
X318547Y476403D01*
X318524Y476487D01*
X318497Y476570D01*
X318467Y476652D01*
X318433Y476733D01*
X318395Y476812D01*
X318354Y476889D01*
X318309Y476964D01*
X318261Y477037D01*
X318210Y477108D01*
X318156Y477176D01*
X318098Y477242D01*
X318038Y477305D01*
X317975Y477366D01*
X317909Y477424D01*
X317841Y477478D01*
X317771Y477530D01*
X317698Y477578D01*
X317623Y477623D01*
X317546Y477665D01*
X317468Y477703D01*
X317387Y477737D01*
X317306Y477768D01*
X317223Y477795D01*
X317138Y477819D01*
X317053Y477838D01*
X316967Y477854D01*
X316881Y477866D01*
X316794Y477874D01*
X316793Y477875D02*
X312908Y478147D01*
X312908Y478146D02*
X312821Y478150D01*
X312733Y478151D01*
X312646Y478147D01*
X312559Y478139D01*
X312472Y478128D01*
X312386Y478112D01*
X312301Y478093D01*
X312217Y478070D01*
X312134Y478043D01*
X312052Y478013D01*
X311971Y477979D01*
X311892Y477941D01*
X311815Y477900D01*
X311740Y477855D01*
X311667Y477807D01*
X311596Y477756D01*
X311528Y477702D01*
X311462Y477644D01*
X311399Y477584D01*
X311338Y477521D01*
X311281Y477456D01*
X311226Y477387D01*
X311174Y477317D01*
X311126Y477244D01*
X311081Y477169D01*
X311039Y477092D01*
X311001Y477014D01*
X310967Y476933D01*
X310936Y476852D01*
X310909Y476769D01*
X310885Y476684D01*
X310866Y476599D01*
X310850Y476513D01*
X310838Y476427D01*
X310830Y476340D01*
X310649Y473750D01*
X310329Y469174D02*
X316157Y468767D01*
X316157Y468766D02*
X316244Y468758D01*
X316330Y468746D01*
X316416Y468730D01*
X316501Y468711D01*
X316586Y468687D01*
X316669Y468660D01*
X316750Y468629D01*
X316831Y468595D01*
X316909Y468557D01*
X316986Y468515D01*
X317061Y468470D01*
X317134Y468422D01*
X317204Y468370D01*
X317273Y468315D01*
X317338Y468258D01*
X317401Y468197D01*
X317461Y468134D01*
X317519Y468068D01*
X317573Y468000D01*
X317624Y467929D01*
X317672Y467856D01*
X317717Y467781D01*
X317758Y467704D01*
X317796Y467625D01*
X317830Y467544D01*
X317860Y467462D01*
X317887Y467379D01*
X317910Y467295D01*
X317929Y467210D01*
X317945Y467124D01*
X317956Y467037D01*
X317964Y466950D01*
X317968Y466863D01*
X317967Y466775D01*
X317963Y466688D01*
X317737Y463450D01*
X309967Y463994D01*
X309580Y458466D02*
X317350Y457922D01*
X309580Y458466D02*
X309308Y454581D01*
X310603Y454490D01*
X316688Y448445D02*
X316461Y445207D01*
X316687Y448444D02*
X316691Y448531D01*
X316692Y448619D01*
X316688Y448706D01*
X316680Y448793D01*
X316669Y448880D01*
X316653Y448966D01*
X316634Y449051D01*
X316611Y449135D01*
X316584Y449218D01*
X316554Y449300D01*
X316520Y449381D01*
X316482Y449460D01*
X316441Y449537D01*
X316396Y449612D01*
X316348Y449685D01*
X316297Y449756D01*
X316243Y449824D01*
X316185Y449890D01*
X316125Y449953D01*
X316062Y450014D01*
X315996Y450072D01*
X315928Y450126D01*
X315858Y450178D01*
X315785Y450226D01*
X315710Y450271D01*
X315633Y450313D01*
X315555Y450351D01*
X315474Y450385D01*
X315393Y450416D01*
X315310Y450443D01*
X315225Y450467D01*
X315140Y450486D01*
X315054Y450502D01*
X314968Y450514D01*
X314881Y450522D01*
X314881Y450523D02*
X311643Y450749D01*
X311543Y450754D01*
X311442Y450755D01*
X311341Y450752D01*
X311241Y450746D01*
X311141Y450735D01*
X311041Y450721D01*
X310942Y450702D01*
X310844Y450680D01*
X310746Y450654D01*
X310650Y450625D01*
X310555Y450591D01*
X310462Y450554D01*
X310369Y450514D01*
X310279Y450470D01*
X310190Y450422D01*
X310103Y450371D01*
X310019Y450317D01*
X309936Y450259D01*
X309856Y450198D01*
X309778Y450135D01*
X309703Y450068D01*
X309630Y449998D01*
X309560Y449926D01*
X309493Y449851D01*
X309429Y449773D01*
X309368Y449693D01*
X309310Y449611D01*
X309255Y449526D01*
X309204Y449440D01*
X309156Y449351D01*
X309111Y449261D01*
X309070Y449169D01*
X309033Y449075D01*
X308999Y448980D01*
X308969Y448884D01*
X308943Y448787D01*
X308921Y448689D01*
X308902Y448590D01*
X308887Y448490D01*
X308876Y448390D01*
X308869Y448290D01*
X308866Y448189D01*
X308867Y448089D01*
X308872Y447988D01*
X308880Y447888D01*
X308893Y447788D01*
X308909Y447688D01*
X308929Y447590D01*
X308953Y447492D01*
X308981Y447395D01*
X309012Y447300D01*
X309048Y447205D01*
X309086Y447112D01*
X309129Y447021D01*
X309175Y446931D01*
X309224Y446844D01*
X309277Y446758D01*
X309333Y446674D01*
X309392Y446593D01*
X309454Y446514D01*
X309519Y446437D01*
X309588Y446363D01*
X309659Y446292D01*
X309732Y446223D01*
X309809Y446157D01*
X309888Y446095D01*
X309969Y446035D01*
X310052Y445979D01*
X310138Y445926D01*
X310226Y445876D01*
X310315Y445830D01*
X310406Y445787D01*
X310499Y445748D01*
X310593Y445713D01*
X310689Y445681D01*
X310785Y445653D01*
X310883Y445628D01*
X310982Y445608D01*
X311081Y445591D01*
X311181Y445578D01*
X311281Y445569D01*
X312576Y445479D01*
X312938Y450659D01*
X314180Y440492D02*
X304467Y441171D01*
X314180Y440491D02*
X314267Y440483D01*
X314353Y440471D01*
X314439Y440455D01*
X314524Y440436D01*
X314609Y440412D01*
X314692Y440385D01*
X314773Y440354D01*
X314854Y440320D01*
X314932Y440282D01*
X315009Y440240D01*
X315084Y440195D01*
X315157Y440147D01*
X315227Y440095D01*
X315296Y440040D01*
X315361Y439983D01*
X315424Y439922D01*
X315484Y439859D01*
X315542Y439793D01*
X315596Y439725D01*
X315647Y439654D01*
X315695Y439581D01*
X315740Y439506D01*
X315781Y439429D01*
X315819Y439350D01*
X315853Y439269D01*
X315883Y439187D01*
X315910Y439104D01*
X315933Y439020D01*
X315952Y438935D01*
X315968Y438849D01*
X315979Y438762D01*
X315987Y438675D01*
X315991Y438588D01*
X315990Y438500D01*
X315986Y438413D01*
X319619Y434533D02*
X319529Y433237D01*
X307601Y430167D01*
X307964Y435348D02*
X315553Y432214D01*
X315026Y424677D02*
X305313Y425357D01*
X305313Y425356D02*
X305226Y425360D01*
X305138Y425361D01*
X305051Y425357D01*
X304964Y425349D01*
X304877Y425338D01*
X304791Y425322D01*
X304706Y425303D01*
X304622Y425280D01*
X304539Y425253D01*
X304457Y425223D01*
X304376Y425189D01*
X304297Y425151D01*
X304220Y425110D01*
X304145Y425065D01*
X304072Y425017D01*
X304001Y424966D01*
X303933Y424912D01*
X303867Y424854D01*
X303804Y424794D01*
X303743Y424731D01*
X303686Y424666D01*
X303631Y424597D01*
X303579Y424527D01*
X303531Y424454D01*
X303486Y424379D01*
X303444Y424302D01*
X303406Y424224D01*
X303372Y424143D01*
X303341Y424062D01*
X303314Y423979D01*
X303290Y423894D01*
X303271Y423809D01*
X303255Y423723D01*
X303243Y423637D01*
X303235Y423550D01*
X303234Y423550D02*
X303189Y422902D01*
X307074Y422631D02*
X307346Y426516D01*
X306852Y419455D02*
X314623Y418912D01*
X303637Y420005D02*
X302990Y420050D01*
X302944Y419403D01*
X303592Y419357D01*
X303637Y420005D01*
X306596Y415789D02*
X306324Y411903D01*
X302620Y414765D02*
X312333Y414086D01*
X312333Y414085D02*
X312420Y414077D01*
X312506Y414065D01*
X312592Y414049D01*
X312677Y414030D01*
X312762Y414006D01*
X312845Y413979D01*
X312926Y413948D01*
X313007Y413914D01*
X313085Y413876D01*
X313162Y413834D01*
X313237Y413789D01*
X313310Y413741D01*
X313380Y413689D01*
X313449Y413634D01*
X313514Y413577D01*
X313577Y413516D01*
X313637Y413453D01*
X313695Y413387D01*
X313749Y413319D01*
X313800Y413248D01*
X313848Y413175D01*
X313893Y413100D01*
X313934Y413023D01*
X313972Y412944D01*
X314006Y412863D01*
X314036Y412781D01*
X314063Y412698D01*
X314086Y412614D01*
X314105Y412529D01*
X314121Y412443D01*
X314132Y412356D01*
X314140Y412269D01*
X314144Y412182D01*
X314143Y412094D01*
X314139Y412007D01*
X314140Y412008D02*
X314095Y411360D01*
X306050Y407982D02*
X305688Y402802D01*
X313820Y407439D01*
X313458Y402259D01*
X31743Y409502D02*
X31516Y412739D01*
X31743Y409501D02*
X31751Y409414D01*
X31763Y409328D01*
X31779Y409242D01*
X31798Y409157D01*
X31822Y409072D01*
X31849Y408989D01*
X31880Y408908D01*
X31914Y408827D01*
X31952Y408749D01*
X31994Y408672D01*
X32039Y408597D01*
X32087Y408524D01*
X32139Y408454D01*
X32194Y408385D01*
X32251Y408320D01*
X32312Y408257D01*
X32375Y408197D01*
X32441Y408139D01*
X32509Y408085D01*
X32580Y408034D01*
X32653Y407986D01*
X32728Y407941D01*
X32805Y407900D01*
X32884Y407862D01*
X32965Y407828D01*
X33047Y407798D01*
X33130Y407771D01*
X33214Y407748D01*
X33299Y407729D01*
X33385Y407713D01*
X33472Y407702D01*
X33559Y407694D01*
X33646Y407690D01*
X33734Y407691D01*
X33821Y407695D01*
X37706Y407967D01*
X37793Y407975D01*
X37879Y407987D01*
X37965Y408003D01*
X38050Y408022D01*
X38135Y408046D01*
X38218Y408073D01*
X38299Y408104D01*
X38380Y408138D01*
X38458Y408176D01*
X38535Y408218D01*
X38610Y408263D01*
X38683Y408311D01*
X38753Y408363D01*
X38822Y408418D01*
X38887Y408475D01*
X38950Y408536D01*
X39010Y408599D01*
X39068Y408665D01*
X39122Y408733D01*
X39173Y408804D01*
X39221Y408877D01*
X39266Y408952D01*
X39307Y409029D01*
X39345Y409108D01*
X39379Y409189D01*
X39409Y409271D01*
X39436Y409354D01*
X39459Y409438D01*
X39478Y409523D01*
X39494Y409609D01*
X39505Y409696D01*
X39513Y409783D01*
X39517Y409870D01*
X39516Y409958D01*
X39512Y410045D01*
X39513Y410045D02*
X39286Y413283D01*
X29574Y412603D01*
X29573Y412603D02*
X29486Y412595D01*
X29400Y412583D01*
X29314Y412567D01*
X29229Y412548D01*
X29144Y412524D01*
X29061Y412497D01*
X28980Y412466D01*
X28899Y412432D01*
X28821Y412394D01*
X28744Y412352D01*
X28669Y412307D01*
X28596Y412259D01*
X28526Y412207D01*
X28458Y412152D01*
X28392Y412095D01*
X28329Y412034D01*
X28269Y411971D01*
X28211Y411905D01*
X28157Y411837D01*
X28106Y411766D01*
X28058Y411693D01*
X28013Y411618D01*
X27972Y411541D01*
X27934Y411462D01*
X27900Y411381D01*
X27870Y411299D01*
X27843Y411216D01*
X27820Y411132D01*
X27801Y411047D01*
X27785Y410961D01*
X27774Y410874D01*
X27766Y410787D01*
X27762Y410700D01*
X27763Y410612D01*
X27767Y410525D01*
X27948Y407935D01*
X31162Y417809D02*
X38932Y418353D01*
X42192Y418255D02*
X42840Y418301D01*
X42795Y418948D01*
X42147Y418903D01*
X42192Y418255D01*
X38676Y422019D02*
X38404Y425904D01*
X42470Y423586D02*
X32757Y422906D01*
X32757Y422907D02*
X32670Y422903D01*
X32582Y422902D01*
X32495Y422906D01*
X32408Y422914D01*
X32321Y422925D01*
X32235Y422941D01*
X32150Y422960D01*
X32066Y422983D01*
X31983Y423010D01*
X31901Y423040D01*
X31820Y423074D01*
X31741Y423112D01*
X31664Y423153D01*
X31589Y423198D01*
X31516Y423246D01*
X31445Y423297D01*
X31377Y423351D01*
X31311Y423409D01*
X31248Y423469D01*
X31187Y423532D01*
X31130Y423597D01*
X31075Y423666D01*
X31023Y423736D01*
X30975Y423809D01*
X30930Y423884D01*
X30888Y423961D01*
X30850Y424039D01*
X30816Y424120D01*
X30785Y424201D01*
X30758Y424284D01*
X30734Y424369D01*
X30715Y424454D01*
X30699Y424540D01*
X30687Y424626D01*
X30679Y424713D01*
X30634Y425361D01*
X30360Y429268D02*
X31008Y429313D01*
X30963Y429960D01*
X30315Y429915D01*
X30360Y429268D01*
X30019Y434152D02*
X37789Y434696D01*
X41049Y434598D02*
X41697Y434644D01*
X41652Y435291D01*
X41004Y435246D01*
X41049Y434598D01*
X34875Y439146D02*
X32285Y438965D01*
X34875Y439146D02*
X34975Y439155D01*
X35075Y439168D01*
X35175Y439185D01*
X35273Y439205D01*
X35371Y439230D01*
X35467Y439258D01*
X35563Y439290D01*
X35657Y439325D01*
X35750Y439364D01*
X35841Y439407D01*
X35930Y439453D01*
X36018Y439503D01*
X36104Y439556D01*
X36187Y439612D01*
X36268Y439672D01*
X36347Y439734D01*
X36424Y439800D01*
X36497Y439869D01*
X36568Y439940D01*
X36637Y440014D01*
X36702Y440091D01*
X36764Y440170D01*
X36823Y440251D01*
X36879Y440335D01*
X36932Y440421D01*
X36981Y440508D01*
X37027Y440598D01*
X37070Y440689D01*
X37108Y440782D01*
X37144Y440877D01*
X37175Y440972D01*
X37203Y441069D01*
X37227Y441167D01*
X37247Y441265D01*
X37263Y441365D01*
X37276Y441465D01*
X37284Y441565D01*
X37289Y441666D01*
X37290Y441766D01*
X37287Y441867D01*
X37280Y441967D01*
X37269Y442067D01*
X37254Y442167D01*
X37235Y442266D01*
X37213Y442364D01*
X37187Y442461D01*
X37157Y442557D01*
X37123Y442652D01*
X37086Y442746D01*
X37045Y442838D01*
X37000Y442928D01*
X36952Y443017D01*
X36901Y443103D01*
X36846Y443188D01*
X36788Y443270D01*
X36727Y443350D01*
X36663Y443428D01*
X36596Y443503D01*
X36526Y443575D01*
X36453Y443645D01*
X36378Y443712D01*
X36300Y443775D01*
X36220Y443836D01*
X36137Y443894D01*
X36053Y443948D01*
X35966Y443999D01*
X35877Y444047D01*
X35787Y444091D01*
X35694Y444131D01*
X35601Y444168D01*
X35506Y444202D01*
X35410Y444231D01*
X35312Y444257D01*
X35214Y444279D01*
X35115Y444298D01*
X35015Y444312D01*
X34915Y444323D01*
X34815Y444329D01*
X34714Y444332D01*
X34613Y444331D01*
X34513Y444326D01*
X31923Y444145D01*
X31823Y444136D01*
X31723Y444123D01*
X31623Y444106D01*
X31525Y444086D01*
X31427Y444061D01*
X31331Y444033D01*
X31235Y444001D01*
X31141Y443966D01*
X31048Y443927D01*
X30957Y443884D01*
X30868Y443838D01*
X30780Y443788D01*
X30694Y443735D01*
X30611Y443679D01*
X30530Y443619D01*
X30451Y443557D01*
X30374Y443491D01*
X30301Y443422D01*
X30230Y443351D01*
X30161Y443277D01*
X30096Y443200D01*
X30034Y443121D01*
X29975Y443040D01*
X29919Y442956D01*
X29866Y442870D01*
X29817Y442783D01*
X29771Y442693D01*
X29728Y442602D01*
X29690Y442509D01*
X29654Y442414D01*
X29623Y442319D01*
X29595Y442222D01*
X29571Y442124D01*
X29551Y442026D01*
X29535Y441926D01*
X29522Y441826D01*
X29514Y441726D01*
X29509Y441625D01*
X29508Y441525D01*
X29511Y441424D01*
X29518Y441324D01*
X29529Y441224D01*
X29544Y441124D01*
X29563Y441025D01*
X29585Y440927D01*
X29611Y440830D01*
X29641Y440734D01*
X29675Y440639D01*
X29712Y440545D01*
X29753Y440453D01*
X29798Y440363D01*
X29846Y440274D01*
X29897Y440188D01*
X29952Y440103D01*
X30010Y440021D01*
X30071Y439941D01*
X30135Y439863D01*
X30202Y439788D01*
X30272Y439716D01*
X30345Y439646D01*
X30420Y439579D01*
X30498Y439516D01*
X30578Y439455D01*
X30661Y439397D01*
X30745Y439343D01*
X30832Y439292D01*
X30921Y439244D01*
X31011Y439200D01*
X31104Y439160D01*
X31197Y439123D01*
X31292Y439089D01*
X31388Y439060D01*
X31486Y439034D01*
X31584Y439012D01*
X31683Y438993D01*
X31783Y438979D01*
X31883Y438968D01*
X31983Y438962D01*
X32084Y438959D01*
X32185Y438960D01*
X32285Y438965D01*
X27736Y448195D02*
X41619Y454371D01*
X32831Y459075D02*
X31310Y462222D01*
X32831Y459075D02*
X32868Y459003D01*
X32909Y458932D01*
X32954Y458863D01*
X33001Y458796D01*
X33052Y458732D01*
X33106Y458670D01*
X33163Y458611D01*
X33222Y458555D01*
X33285Y458502D01*
X33350Y458452D01*
X33417Y458405D01*
X33486Y458361D01*
X33558Y458321D01*
X33631Y458284D01*
X33706Y458251D01*
X33782Y458222D01*
X33860Y458197D01*
X33939Y458175D01*
X34019Y458157D01*
X34100Y458143D01*
X34181Y458133D01*
X34263Y458127D01*
X34345Y458125D01*
X34427Y458127D01*
X34509Y458133D01*
X34590Y458143D01*
X34671Y458157D01*
X34751Y458174D01*
X34830Y458196D01*
X34908Y458221D01*
X34984Y458251D01*
X35059Y458284D01*
X35133Y458320D01*
X35204Y458360D01*
X35274Y458404D01*
X35341Y458450D01*
X35406Y458500D01*
X35468Y458554D01*
X35528Y458610D01*
X35585Y458669D01*
X35639Y458730D01*
X35690Y458794D01*
X35737Y458861D01*
X35782Y458930D01*
X35823Y459001D01*
X35860Y459074D01*
X35894Y459148D01*
X35925Y459224D01*
X35951Y459302D01*
X35974Y459381D01*
X35993Y459460D01*
X36008Y459541D01*
X36019Y459622D01*
X36026Y459704D01*
X36029Y459786D01*
X36028Y459868D01*
X36023Y459949D01*
X36024Y459949D02*
X36007Y460125D01*
X35986Y460301D01*
X35960Y460477D01*
X35931Y460652D01*
X35897Y460826D01*
X35859Y460999D01*
X35816Y461171D01*
X35770Y461342D01*
X35720Y461512D01*
X35665Y461681D01*
X35607Y461848D01*
X35544Y462014D01*
X35478Y462178D01*
X35407Y462341D01*
X35333Y462502D01*
X35255Y462661D01*
X35173Y462818D01*
X31309Y462223D02*
X31272Y462295D01*
X31231Y462366D01*
X31186Y462435D01*
X31139Y462502D01*
X31088Y462566D01*
X31034Y462628D01*
X30977Y462687D01*
X30918Y462743D01*
X30855Y462796D01*
X30790Y462846D01*
X30723Y462893D01*
X30654Y462937D01*
X30582Y462977D01*
X30509Y463014D01*
X30434Y463047D01*
X30358Y463076D01*
X30280Y463101D01*
X30201Y463123D01*
X30121Y463141D01*
X30040Y463155D01*
X29959Y463165D01*
X29877Y463171D01*
X29795Y463173D01*
X29713Y463171D01*
X29631Y463165D01*
X29550Y463155D01*
X29469Y463141D01*
X29389Y463124D01*
X29310Y463102D01*
X29232Y463077D01*
X29156Y463047D01*
X29081Y463014D01*
X29007Y462978D01*
X28936Y462938D01*
X28866Y462894D01*
X28799Y462848D01*
X28734Y462798D01*
X28672Y462744D01*
X28612Y462688D01*
X28555Y462629D01*
X28501Y462568D01*
X28450Y462504D01*
X28403Y462437D01*
X28358Y462368D01*
X28317Y462297D01*
X28280Y462224D01*
X28246Y462150D01*
X28215Y462074D01*
X28189Y461996D01*
X28166Y461917D01*
X28147Y461838D01*
X28132Y461757D01*
X28121Y461676D01*
X28114Y461594D01*
X28111Y461512D01*
X28112Y461430D01*
X28117Y461349D01*
X28142Y461089D01*
X28173Y460831D01*
X28210Y460573D01*
X28253Y460316D01*
X28303Y460061D01*
X28358Y459806D01*
X28419Y459553D01*
X28487Y459302D01*
X28560Y459052D01*
X28639Y458804D01*
X28724Y458558D01*
X28815Y458314D01*
X28911Y458072D01*
X29013Y457832D01*
X32054Y470193D02*
X31850Y473107D01*
X32053Y470193D02*
X32058Y470098D01*
X32059Y470003D01*
X32055Y469908D01*
X32048Y469813D01*
X32037Y469719D01*
X32022Y469625D01*
X32003Y469532D01*
X31980Y469439D01*
X31953Y469348D01*
X31922Y469258D01*
X31888Y469169D01*
X31849Y469082D01*
X31808Y468996D01*
X31762Y468913D01*
X31714Y468831D01*
X31662Y468751D01*
X31606Y468674D01*
X31548Y468599D01*
X31486Y468527D01*
X31421Y468457D01*
X31354Y468390D01*
X31284Y468326D01*
X31211Y468264D01*
X31135Y468206D01*
X31057Y468151D01*
X30977Y468100D01*
X30895Y468052D01*
X30811Y468007D01*
X30726Y467966D01*
X30638Y467928D01*
X30549Y467895D01*
X30459Y467865D01*
X30367Y467838D01*
X30275Y467816D01*
X30182Y467798D01*
X30087Y467783D01*
X29993Y467772D01*
X29898Y467766D01*
X29803Y467763D01*
X29708Y467764D01*
X29613Y467770D01*
X29518Y467779D01*
X29424Y467792D01*
X29330Y467809D01*
X29237Y467830D01*
X29146Y467855D01*
X29055Y467884D01*
X28965Y467917D01*
X28877Y467953D01*
X28791Y467993D01*
X28706Y468036D01*
X28624Y468083D01*
X28543Y468134D01*
X28464Y468188D01*
X28388Y468245D01*
X28314Y468305D01*
X28243Y468368D01*
X28175Y468434D01*
X28109Y468503D01*
X28047Y468575D01*
X27987Y468649D01*
X27930Y468725D01*
X27877Y468804D01*
X27827Y468885D01*
X27781Y468968D01*
X27738Y469053D01*
X27699Y469140D01*
X27663Y469228D01*
X27631Y469318D01*
X27603Y469409D01*
X27579Y469501D01*
X27558Y469594D01*
X27542Y469687D01*
X27529Y469782D01*
X27521Y469876D01*
X27317Y472790D01*
X33145Y473198D01*
X33145Y473197D02*
X33232Y473201D01*
X33320Y473202D01*
X33407Y473198D01*
X33494Y473190D01*
X33581Y473179D01*
X33667Y473163D01*
X33752Y473144D01*
X33836Y473121D01*
X33919Y473094D01*
X34001Y473064D01*
X34082Y473030D01*
X34161Y472992D01*
X34238Y472951D01*
X34313Y472906D01*
X34386Y472858D01*
X34457Y472807D01*
X34525Y472753D01*
X34591Y472695D01*
X34654Y472635D01*
X34715Y472572D01*
X34772Y472506D01*
X34827Y472438D01*
X34879Y472368D01*
X34927Y472295D01*
X34972Y472220D01*
X35014Y472143D01*
X35052Y472065D01*
X35086Y471984D01*
X35117Y471903D01*
X35144Y471820D01*
X35168Y471735D01*
X35187Y471650D01*
X35203Y471564D01*
X35215Y471478D01*
X35223Y471391D01*
X35404Y468801D01*
X32138Y478293D02*
X29548Y478112D01*
X32138Y478293D02*
X32238Y478302D01*
X32338Y478315D01*
X32438Y478332D01*
X32536Y478352D01*
X32634Y478377D01*
X32730Y478405D01*
X32826Y478437D01*
X32920Y478472D01*
X33013Y478511D01*
X33104Y478554D01*
X33193Y478600D01*
X33281Y478650D01*
X33367Y478703D01*
X33450Y478759D01*
X33531Y478819D01*
X33610Y478881D01*
X33687Y478947D01*
X33760Y479016D01*
X33831Y479087D01*
X33900Y479161D01*
X33965Y479238D01*
X34027Y479317D01*
X34086Y479398D01*
X34142Y479482D01*
X34195Y479568D01*
X34244Y479655D01*
X34290Y479745D01*
X34333Y479836D01*
X34371Y479929D01*
X34407Y480024D01*
X34438Y480119D01*
X34466Y480216D01*
X34490Y480314D01*
X34510Y480412D01*
X34526Y480512D01*
X34539Y480612D01*
X34547Y480712D01*
X34552Y480813D01*
X34553Y480913D01*
X34550Y481014D01*
X34543Y481114D01*
X34532Y481214D01*
X34517Y481314D01*
X34498Y481413D01*
X34476Y481511D01*
X34450Y481608D01*
X34420Y481704D01*
X34386Y481799D01*
X34349Y481893D01*
X34308Y481985D01*
X34263Y482075D01*
X34215Y482164D01*
X34164Y482250D01*
X34109Y482335D01*
X34051Y482417D01*
X33990Y482497D01*
X33926Y482575D01*
X33859Y482650D01*
X33789Y482722D01*
X33716Y482792D01*
X33641Y482859D01*
X33563Y482922D01*
X33483Y482983D01*
X33400Y483041D01*
X33316Y483095D01*
X33229Y483146D01*
X33140Y483194D01*
X33050Y483238D01*
X32957Y483278D01*
X32864Y483315D01*
X32769Y483349D01*
X32673Y483378D01*
X32575Y483404D01*
X32477Y483426D01*
X32378Y483445D01*
X32278Y483459D01*
X32178Y483470D01*
X32078Y483476D01*
X31977Y483479D01*
X31876Y483478D01*
X31776Y483473D01*
X29186Y483292D01*
X29086Y483283D01*
X28986Y483270D01*
X28886Y483253D01*
X28788Y483233D01*
X28690Y483208D01*
X28594Y483180D01*
X28498Y483148D01*
X28404Y483113D01*
X28311Y483074D01*
X28220Y483031D01*
X28131Y482985D01*
X28043Y482935D01*
X27957Y482882D01*
X27874Y482826D01*
X27793Y482766D01*
X27714Y482704D01*
X27637Y482638D01*
X27564Y482569D01*
X27493Y482498D01*
X27424Y482424D01*
X27359Y482347D01*
X27297Y482268D01*
X27238Y482187D01*
X27182Y482103D01*
X27129Y482017D01*
X27080Y481930D01*
X27034Y481840D01*
X26991Y481749D01*
X26953Y481656D01*
X26917Y481561D01*
X26886Y481466D01*
X26858Y481369D01*
X26834Y481271D01*
X26814Y481173D01*
X26798Y481073D01*
X26785Y480973D01*
X26777Y480873D01*
X26772Y480772D01*
X26771Y480672D01*
X26774Y480571D01*
X26781Y480471D01*
X26792Y480371D01*
X26807Y480271D01*
X26826Y480172D01*
X26848Y480074D01*
X26874Y479977D01*
X26904Y479881D01*
X26938Y479786D01*
X26975Y479692D01*
X27016Y479600D01*
X27061Y479510D01*
X27109Y479421D01*
X27160Y479335D01*
X27215Y479250D01*
X27273Y479168D01*
X27334Y479088D01*
X27398Y479010D01*
X27465Y478935D01*
X27535Y478863D01*
X27608Y478793D01*
X27683Y478726D01*
X27761Y478663D01*
X27841Y478602D01*
X27924Y478544D01*
X28008Y478490D01*
X28095Y478439D01*
X28184Y478391D01*
X28274Y478347D01*
X28367Y478307D01*
X28460Y478270D01*
X28555Y478236D01*
X28651Y478207D01*
X28749Y478181D01*
X28847Y478159D01*
X28946Y478140D01*
X29046Y478126D01*
X29146Y478115D01*
X29246Y478109D01*
X29347Y478106D01*
X29448Y478107D01*
X29548Y478112D01*
X30784Y488355D02*
X30240Y496125D01*
X25320Y501360D02*
X35032Y502039D01*
X35033Y502040D02*
X35120Y502048D01*
X35206Y502060D01*
X35292Y502076D01*
X35377Y502095D01*
X35462Y502119D01*
X35545Y502146D01*
X35626Y502177D01*
X35707Y502211D01*
X35785Y502249D01*
X35862Y502291D01*
X35937Y502336D01*
X36010Y502384D01*
X36080Y502436D01*
X36149Y502491D01*
X36214Y502548D01*
X36277Y502609D01*
X36337Y502672D01*
X36395Y502738D01*
X36449Y502806D01*
X36500Y502877D01*
X36548Y502950D01*
X36593Y503025D01*
X36634Y503102D01*
X36672Y503181D01*
X36706Y503262D01*
X36736Y503344D01*
X36763Y503427D01*
X36786Y503511D01*
X36805Y503596D01*
X36821Y503682D01*
X36832Y503769D01*
X36840Y503856D01*
X36844Y503943D01*
X36843Y504031D01*
X36839Y504118D01*
X36794Y504765D01*
X32909Y504493D02*
X33180Y500608D01*
X29290Y509721D02*
X29086Y512635D01*
X29289Y509720D02*
X29294Y509625D01*
X29295Y509530D01*
X29291Y509435D01*
X29284Y509340D01*
X29273Y509246D01*
X29258Y509152D01*
X29239Y509059D01*
X29216Y508966D01*
X29189Y508875D01*
X29158Y508785D01*
X29124Y508696D01*
X29085Y508609D01*
X29044Y508523D01*
X28998Y508440D01*
X28950Y508358D01*
X28898Y508278D01*
X28842Y508201D01*
X28784Y508126D01*
X28722Y508054D01*
X28657Y507984D01*
X28590Y507917D01*
X28520Y507853D01*
X28447Y507791D01*
X28371Y507733D01*
X28293Y507678D01*
X28213Y507627D01*
X28131Y507579D01*
X28047Y507534D01*
X27962Y507493D01*
X27874Y507455D01*
X27785Y507422D01*
X27695Y507392D01*
X27603Y507365D01*
X27511Y507343D01*
X27418Y507325D01*
X27323Y507310D01*
X27229Y507299D01*
X27134Y507293D01*
X27039Y507290D01*
X26944Y507291D01*
X26849Y507297D01*
X26754Y507306D01*
X26660Y507319D01*
X26566Y507336D01*
X26473Y507357D01*
X26382Y507382D01*
X26291Y507411D01*
X26201Y507444D01*
X26113Y507480D01*
X26027Y507520D01*
X25942Y507563D01*
X25860Y507610D01*
X25779Y507661D01*
X25700Y507715D01*
X25624Y507772D01*
X25550Y507832D01*
X25479Y507895D01*
X25411Y507961D01*
X25345Y508030D01*
X25283Y508102D01*
X25223Y508176D01*
X25166Y508252D01*
X25113Y508331D01*
X25063Y508412D01*
X25017Y508495D01*
X24974Y508580D01*
X24935Y508667D01*
X24899Y508755D01*
X24867Y508845D01*
X24839Y508936D01*
X24815Y509028D01*
X24794Y509121D01*
X24778Y509214D01*
X24765Y509309D01*
X24757Y509403D01*
X24757Y509404D02*
X24553Y512318D01*
X30381Y512725D01*
X30468Y512729D01*
X30556Y512730D01*
X30643Y512726D01*
X30730Y512718D01*
X30817Y512707D01*
X30903Y512691D01*
X30988Y512672D01*
X31072Y512649D01*
X31155Y512622D01*
X31237Y512592D01*
X31318Y512558D01*
X31397Y512520D01*
X31474Y512479D01*
X31549Y512434D01*
X31622Y512386D01*
X31693Y512335D01*
X31761Y512281D01*
X31827Y512223D01*
X31890Y512163D01*
X31951Y512100D01*
X32008Y512034D01*
X32063Y511966D01*
X32115Y511896D01*
X32163Y511823D01*
X32208Y511748D01*
X32250Y511671D01*
X32288Y511593D01*
X32322Y511512D01*
X32353Y511431D01*
X32380Y511348D01*
X32404Y511263D01*
X32423Y511178D01*
X32439Y511092D01*
X32451Y511006D01*
X32459Y510919D01*
X32459Y510918D02*
X32641Y508328D01*
X24057Y519414D02*
X23876Y522004D01*
X24058Y519414D02*
X24066Y519327D01*
X24078Y519241D01*
X24094Y519155D01*
X24113Y519070D01*
X24137Y518985D01*
X24164Y518902D01*
X24195Y518821D01*
X24229Y518740D01*
X24267Y518662D01*
X24309Y518585D01*
X24354Y518510D01*
X24402Y518437D01*
X24454Y518367D01*
X24509Y518298D01*
X24566Y518233D01*
X24627Y518170D01*
X24690Y518110D01*
X24756Y518052D01*
X24824Y517998D01*
X24895Y517947D01*
X24968Y517899D01*
X25043Y517854D01*
X25120Y517813D01*
X25199Y517775D01*
X25280Y517741D01*
X25362Y517711D01*
X25445Y517684D01*
X25529Y517661D01*
X25614Y517642D01*
X25700Y517626D01*
X25787Y517615D01*
X25874Y517607D01*
X25961Y517603D01*
X26049Y517604D01*
X26136Y517608D01*
X26136Y517607D02*
X30021Y517879D01*
X30108Y517887D01*
X30194Y517899D01*
X30280Y517915D01*
X30365Y517934D01*
X30450Y517958D01*
X30533Y517985D01*
X30614Y518016D01*
X30695Y518050D01*
X30773Y518088D01*
X30850Y518130D01*
X30925Y518175D01*
X30998Y518223D01*
X31068Y518275D01*
X31137Y518330D01*
X31202Y518387D01*
X31265Y518448D01*
X31325Y518511D01*
X31383Y518577D01*
X31437Y518645D01*
X31488Y518716D01*
X31536Y518789D01*
X31581Y518864D01*
X31622Y518941D01*
X31660Y519020D01*
X31694Y519101D01*
X31724Y519183D01*
X31751Y519266D01*
X31774Y519350D01*
X31793Y519435D01*
X31809Y519521D01*
X31820Y519608D01*
X31828Y519695D01*
X31832Y519782D01*
X31831Y519870D01*
X31827Y519957D01*
X31646Y522547D01*
X23447Y528142D02*
X23220Y531380D01*
X23447Y528142D02*
X23455Y528055D01*
X23467Y527969D01*
X23483Y527883D01*
X23502Y527798D01*
X23526Y527713D01*
X23553Y527630D01*
X23584Y527549D01*
X23618Y527468D01*
X23656Y527390D01*
X23698Y527313D01*
X23743Y527238D01*
X23791Y527165D01*
X23843Y527095D01*
X23898Y527026D01*
X23955Y526961D01*
X24016Y526898D01*
X24079Y526838D01*
X24145Y526780D01*
X24213Y526726D01*
X24284Y526675D01*
X24357Y526627D01*
X24432Y526582D01*
X24509Y526541D01*
X24588Y526503D01*
X24669Y526469D01*
X24751Y526439D01*
X24834Y526412D01*
X24918Y526389D01*
X25003Y526370D01*
X25089Y526354D01*
X25176Y526343D01*
X25263Y526335D01*
X25350Y526331D01*
X25438Y526332D01*
X25525Y526336D01*
X25525Y526335D02*
X28763Y526562D01*
X28863Y526571D01*
X28963Y526584D01*
X29063Y526601D01*
X29161Y526621D01*
X29259Y526646D01*
X29355Y526674D01*
X29451Y526706D01*
X29545Y526741D01*
X29638Y526780D01*
X29729Y526823D01*
X29818Y526869D01*
X29906Y526919D01*
X29992Y526972D01*
X30075Y527028D01*
X30156Y527088D01*
X30235Y527150D01*
X30312Y527216D01*
X30385Y527285D01*
X30456Y527356D01*
X30525Y527430D01*
X30590Y527507D01*
X30652Y527586D01*
X30711Y527667D01*
X30767Y527751D01*
X30820Y527837D01*
X30869Y527924D01*
X30915Y528014D01*
X30958Y528105D01*
X30996Y528198D01*
X31032Y528293D01*
X31063Y528388D01*
X31091Y528485D01*
X31115Y528583D01*
X31135Y528681D01*
X31151Y528781D01*
X31164Y528881D01*
X31172Y528981D01*
X31177Y529082D01*
X31178Y529182D01*
X31175Y529283D01*
X31168Y529383D01*
X31157Y529483D01*
X31142Y529583D01*
X31123Y529682D01*
X31101Y529780D01*
X31075Y529877D01*
X31045Y529973D01*
X31011Y530068D01*
X30974Y530162D01*
X30933Y530254D01*
X30888Y530344D01*
X30840Y530433D01*
X30789Y530519D01*
X30734Y530604D01*
X30676Y530686D01*
X30615Y530766D01*
X30551Y530844D01*
X30484Y530919D01*
X30414Y530991D01*
X30341Y531061D01*
X30266Y531128D01*
X30188Y531191D01*
X30108Y531252D01*
X30025Y531310D01*
X29941Y531364D01*
X29854Y531415D01*
X29765Y531463D01*
X29675Y531507D01*
X29582Y531547D01*
X29489Y531584D01*
X29394Y531618D01*
X29298Y531647D01*
X29200Y531673D01*
X29102Y531695D01*
X29003Y531714D01*
X28903Y531728D01*
X28803Y531739D01*
X28703Y531745D01*
X28602Y531748D01*
X28501Y531747D01*
X28401Y531742D01*
X27106Y531652D01*
X27468Y526471D01*
X27356Y537370D02*
X25835Y540517D01*
X27357Y537369D02*
X27394Y537297D01*
X27435Y537226D01*
X27480Y537157D01*
X27527Y537090D01*
X27578Y537026D01*
X27632Y536964D01*
X27689Y536905D01*
X27748Y536849D01*
X27811Y536796D01*
X27876Y536746D01*
X27943Y536699D01*
X28012Y536655D01*
X28084Y536615D01*
X28157Y536578D01*
X28232Y536545D01*
X28308Y536516D01*
X28386Y536491D01*
X28465Y536469D01*
X28545Y536451D01*
X28626Y536437D01*
X28707Y536427D01*
X28789Y536421D01*
X28871Y536419D01*
X28953Y536421D01*
X29035Y536427D01*
X29116Y536437D01*
X29197Y536451D01*
X29277Y536468D01*
X29356Y536490D01*
X29434Y536515D01*
X29510Y536545D01*
X29585Y536578D01*
X29659Y536614D01*
X29730Y536654D01*
X29800Y536698D01*
X29867Y536744D01*
X29932Y536794D01*
X29994Y536848D01*
X30054Y536904D01*
X30111Y536963D01*
X30165Y537024D01*
X30216Y537088D01*
X30263Y537155D01*
X30308Y537224D01*
X30349Y537295D01*
X30386Y537368D01*
X30420Y537442D01*
X30451Y537518D01*
X30477Y537596D01*
X30500Y537675D01*
X30519Y537754D01*
X30534Y537835D01*
X30545Y537916D01*
X30552Y537998D01*
X30555Y538080D01*
X30554Y538162D01*
X30549Y538243D01*
X30549Y538244D02*
X30532Y538420D01*
X30511Y538596D01*
X30485Y538772D01*
X30456Y538947D01*
X30422Y539121D01*
X30384Y539294D01*
X30341Y539466D01*
X30295Y539637D01*
X30245Y539807D01*
X30190Y539976D01*
X30132Y540143D01*
X30069Y540309D01*
X30003Y540473D01*
X29932Y540636D01*
X29858Y540797D01*
X29780Y540956D01*
X29698Y541113D01*
X25835Y540517D02*
X25798Y540589D01*
X25757Y540660D01*
X25712Y540729D01*
X25665Y540796D01*
X25614Y540860D01*
X25560Y540922D01*
X25503Y540981D01*
X25444Y541037D01*
X25381Y541090D01*
X25316Y541140D01*
X25249Y541187D01*
X25180Y541231D01*
X25108Y541271D01*
X25035Y541308D01*
X24960Y541341D01*
X24884Y541370D01*
X24806Y541395D01*
X24727Y541417D01*
X24647Y541435D01*
X24566Y541449D01*
X24485Y541459D01*
X24403Y541465D01*
X24321Y541467D01*
X24239Y541465D01*
X24157Y541459D01*
X24076Y541449D01*
X23995Y541435D01*
X23915Y541418D01*
X23836Y541396D01*
X23758Y541371D01*
X23682Y541341D01*
X23607Y541308D01*
X23533Y541272D01*
X23462Y541232D01*
X23392Y541188D01*
X23325Y541142D01*
X23260Y541092D01*
X23198Y541038D01*
X23138Y540982D01*
X23081Y540923D01*
X23027Y540862D01*
X22976Y540798D01*
X22929Y540731D01*
X22884Y540662D01*
X22843Y540591D01*
X22806Y540518D01*
X22772Y540444D01*
X22741Y540368D01*
X22715Y540290D01*
X22692Y540211D01*
X22673Y540132D01*
X22658Y540051D01*
X22647Y539970D01*
X22640Y539888D01*
X22637Y539806D01*
X22638Y539724D01*
X22643Y539643D01*
X22668Y539383D01*
X22699Y539125D01*
X22736Y538867D01*
X22779Y538610D01*
X22829Y538355D01*
X22884Y538100D01*
X22945Y537847D01*
X23013Y537596D01*
X23086Y537346D01*
X23165Y537098D01*
X23250Y536852D01*
X23341Y536608D01*
X23437Y536366D01*
X23539Y536126D01*
D13*
X231140Y530860D03*
X256540Y530860D03*
X83820Y530860D03*
X109220Y530860D03*
X165100Y217678D03*
X165100Y188722D03*
X190500Y217678D03*
X190500Y188722D03*
D14*
X203200Y114300D03*
D15*
X203200Y38100D03*
D14*
X152400Y114300D03*
D15*
X152400Y38100D03*
D16*
X177800Y393700D03*
X177800Y518700D03*
X177800Y268700D03*
M02*
