G04 EAGLE Gerber X2 export*
G75*
%MOMM*%
%FSLAX34Y34*%
%LPD*%
%AMOC8*
5,1,8,0,0,1.08239X$1,22.5*%
G01*
%ADD10C,1.879600*%

G36*
X213357Y2544D02*
X213357Y2544D01*
X213390Y2543D01*
X218059Y2866D01*
X218075Y2870D01*
X218215Y2893D01*
X227197Y5446D01*
X227217Y5456D01*
X227238Y5459D01*
X227390Y5531D01*
X235332Y10443D01*
X235348Y10457D01*
X235368Y10466D01*
X235494Y10577D01*
X241791Y17472D01*
X241803Y17491D01*
X241819Y17505D01*
X241910Y17646D01*
X246082Y26000D01*
X246089Y26021D01*
X246100Y26039D01*
X246149Y26199D01*
X247879Y35376D01*
X247879Y35392D01*
X247892Y35533D01*
X247791Y40213D01*
X247788Y40232D01*
X247788Y40265D01*
X238783Y139321D01*
X238777Y139345D01*
X238774Y139390D01*
X231839Y177282D01*
X226291Y214170D01*
X226088Y215522D01*
X226035Y215874D01*
X225884Y216875D01*
X225136Y221846D01*
X226361Y234577D01*
X230639Y246631D01*
X237715Y257285D01*
X247165Y265903D01*
X252309Y268675D01*
X252343Y268701D01*
X252382Y268720D01*
X252495Y268818D01*
X252504Y268825D01*
X252506Y268827D01*
X252508Y268830D01*
X261836Y278971D01*
X261848Y278989D01*
X261874Y279016D01*
X279508Y301400D01*
X279521Y301423D01*
X279553Y301463D01*
X294821Y325523D01*
X294832Y325548D01*
X294859Y325591D01*
X307603Y351078D01*
X307611Y351104D01*
X307634Y351149D01*
X317722Y377800D01*
X317727Y377826D01*
X317745Y377874D01*
X325072Y405412D01*
X325074Y405433D01*
X325085Y405468D01*
X327676Y419416D01*
X327676Y419440D01*
X327685Y419480D01*
X331285Y455419D01*
X331284Y455426D01*
X331286Y455438D01*
X336712Y527669D01*
X336711Y527679D01*
X336714Y527695D01*
X339744Y600066D01*
X339743Y600074D01*
X339744Y600085D01*
X340359Y636277D01*
X340357Y636292D01*
X340359Y636317D01*
X339982Y646855D01*
X339977Y646883D01*
X339975Y646936D01*
X336973Y667812D01*
X336964Y667843D01*
X336950Y667918D01*
X331009Y688154D01*
X330995Y688183D01*
X330971Y688255D01*
X322210Y707439D01*
X322191Y707467D01*
X322158Y707535D01*
X310755Y725277D01*
X310733Y725301D01*
X310690Y725364D01*
X296879Y741303D01*
X296854Y741323D01*
X296803Y741379D01*
X280864Y755190D01*
X280836Y755207D01*
X280777Y755255D01*
X263035Y766658D01*
X263005Y766671D01*
X262939Y766710D01*
X243755Y775471D01*
X243724Y775479D01*
X243654Y775509D01*
X223418Y781450D01*
X223385Y781454D01*
X223312Y781473D01*
X202436Y784475D01*
X202408Y784474D01*
X202355Y784482D01*
X191810Y784859D01*
X191800Y784857D01*
X191783Y784859D01*
X151117Y784859D01*
X151106Y784858D01*
X151090Y784859D01*
X140545Y784482D01*
X140517Y784477D01*
X140464Y784475D01*
X119588Y781473D01*
X119557Y781464D01*
X119482Y781450D01*
X99246Y775509D01*
X99217Y775495D01*
X99145Y775471D01*
X79961Y766710D01*
X79933Y766691D01*
X79865Y766658D01*
X62123Y755255D01*
X62099Y755233D01*
X62036Y755190D01*
X46097Y741379D01*
X46077Y741354D01*
X46021Y741303D01*
X32210Y725364D01*
X32193Y725336D01*
X32145Y725277D01*
X20742Y707535D01*
X20729Y707505D01*
X20690Y707439D01*
X11929Y688255D01*
X11921Y688224D01*
X11891Y688154D01*
X5950Y667918D01*
X5946Y667885D01*
X5927Y667812D01*
X2925Y646936D01*
X2926Y646908D01*
X2918Y646855D01*
X2541Y636310D01*
X2543Y636300D01*
X2541Y636283D01*
X2541Y495986D01*
X2552Y495915D01*
X2554Y495843D01*
X2575Y495775D01*
X2580Y495744D01*
X2591Y495723D01*
X2604Y495683D01*
X6742Y486156D01*
X12611Y464802D01*
X15407Y442833D01*
X15245Y432054D01*
X15245Y432053D01*
X15240Y431762D01*
X15242Y431752D01*
X15240Y431736D01*
X15478Y419318D01*
X15483Y419291D01*
X15484Y419240D01*
X18498Y394599D01*
X18507Y394568D01*
X18518Y394497D01*
X24864Y370496D01*
X24877Y370467D01*
X24897Y370398D01*
X34456Y347486D01*
X34473Y347459D01*
X34503Y347393D01*
X47096Y325999D01*
X47117Y325975D01*
X47155Y325914D01*
X62548Y306436D01*
X62572Y306415D01*
X62618Y306359D01*
X80523Y289163D01*
X80545Y289147D01*
X80582Y289112D01*
X90373Y281471D01*
X90382Y281466D01*
X90394Y281455D01*
X90477Y281395D01*
X91500Y280651D01*
X97442Y276333D01*
X109486Y263742D01*
X119094Y249205D01*
X125958Y233189D01*
X129858Y216206D01*
X130670Y198800D01*
X129699Y191520D01*
X129351Y188907D01*
X129338Y188808D01*
X109515Y40138D01*
X109453Y39673D01*
X109334Y38782D01*
X109335Y38762D01*
X109329Y38728D01*
X109056Y34305D01*
X109057Y34294D01*
X109063Y34143D01*
X110396Y25402D01*
X110404Y25379D01*
X110405Y25355D01*
X110459Y25196D01*
X114187Y17179D01*
X114200Y17159D01*
X114208Y17136D01*
X114304Y16998D01*
X120128Y10346D01*
X120147Y10331D01*
X120161Y10311D01*
X120292Y10206D01*
X127746Y5451D01*
X127768Y5441D01*
X127787Y5426D01*
X127942Y5362D01*
X136430Y2885D01*
X136441Y2884D01*
X136589Y2857D01*
X141010Y2543D01*
X141030Y2544D01*
X141064Y2541D01*
X213338Y2541D01*
X213357Y2544D01*
G37*
%LPC*%
G36*
X162068Y734059D02*
X162068Y734059D01*
X156467Y736380D01*
X152180Y740667D01*
X149859Y746268D01*
X149859Y752332D01*
X152180Y757933D01*
X156467Y762220D01*
X162068Y764541D01*
X168132Y764541D01*
X173733Y762220D01*
X178020Y757933D01*
X180341Y752332D01*
X180341Y746268D01*
X178020Y740667D01*
X173733Y736380D01*
X168132Y734059D01*
X162068Y734059D01*
G37*
%LPD*%
%LPC*%
G36*
X150227Y27177D02*
X150227Y27177D01*
X146213Y28840D01*
X143140Y31913D01*
X141477Y35927D01*
X141477Y40273D01*
X143140Y44287D01*
X146213Y47360D01*
X150227Y49023D01*
X154573Y49023D01*
X158587Y47360D01*
X161660Y44287D01*
X163323Y40273D01*
X163323Y35927D01*
X161660Y31913D01*
X158587Y28840D01*
X154573Y27177D01*
X150227Y27177D01*
G37*
%LPD*%
%LPC*%
G36*
X201027Y27177D02*
X201027Y27177D01*
X197013Y28840D01*
X193940Y31913D01*
X192277Y35927D01*
X192277Y40273D01*
X193940Y44287D01*
X197013Y47360D01*
X201027Y49023D01*
X205373Y49023D01*
X209387Y47360D01*
X212460Y44287D01*
X214123Y40273D01*
X214123Y35927D01*
X212460Y31913D01*
X209387Y28840D01*
X205373Y27177D01*
X201027Y27177D01*
G37*
%LPD*%
%LPC*%
G36*
X150227Y103377D02*
X150227Y103377D01*
X146213Y105040D01*
X143140Y108113D01*
X141477Y112127D01*
X141477Y116473D01*
X143140Y120487D01*
X146213Y123560D01*
X150227Y125223D01*
X154573Y125223D01*
X158587Y123560D01*
X161660Y120487D01*
X163323Y116473D01*
X163323Y112127D01*
X161660Y108113D01*
X158587Y105040D01*
X154573Y103377D01*
X150227Y103377D01*
G37*
%LPD*%
%LPC*%
G36*
X201027Y103377D02*
X201027Y103377D01*
X197013Y105040D01*
X193940Y108113D01*
X192277Y112127D01*
X192277Y116473D01*
X193940Y120487D01*
X197013Y123560D01*
X201027Y125223D01*
X205373Y125223D01*
X209387Y123560D01*
X212460Y120487D01*
X214123Y116473D01*
X214123Y112127D01*
X212460Y108113D01*
X209387Y105040D01*
X205373Y103377D01*
X201027Y103377D01*
G37*
%LPD*%
%LPC*%
G36*
X188327Y177799D02*
X188327Y177799D01*
X184313Y179462D01*
X181240Y182535D01*
X179577Y186549D01*
X179577Y190895D01*
X181240Y194909D01*
X184313Y197982D01*
X188327Y199645D01*
X192673Y199645D01*
X196687Y197982D01*
X199760Y194909D01*
X201423Y190895D01*
X201423Y186549D01*
X199760Y182535D01*
X196687Y179462D01*
X192673Y177799D01*
X188327Y177799D01*
G37*
%LPD*%
%LPC*%
G36*
X162927Y206755D02*
X162927Y206755D01*
X158913Y208418D01*
X155840Y211491D01*
X154177Y215505D01*
X154177Y219851D01*
X155840Y223865D01*
X158913Y226938D01*
X162927Y228601D01*
X167273Y228601D01*
X171287Y226938D01*
X174360Y223865D01*
X176023Y219851D01*
X176023Y215505D01*
X174360Y211491D01*
X171287Y208418D01*
X167273Y206755D01*
X162927Y206755D01*
G37*
%LPD*%
%LPC*%
G36*
X188327Y206755D02*
X188327Y206755D01*
X184313Y208418D01*
X181240Y211491D01*
X179577Y215505D01*
X179577Y219851D01*
X181240Y223865D01*
X184313Y226938D01*
X188327Y228601D01*
X192673Y228601D01*
X196687Y226938D01*
X199760Y223865D01*
X201423Y219851D01*
X201423Y215505D01*
X199760Y211491D01*
X196687Y208418D01*
X192673Y206755D01*
X188327Y206755D01*
G37*
%LPD*%
%LPC*%
G36*
X81647Y519937D02*
X81647Y519937D01*
X77633Y521600D01*
X74560Y524673D01*
X72897Y528687D01*
X72897Y533033D01*
X74560Y537047D01*
X77633Y540120D01*
X81647Y541783D01*
X85993Y541783D01*
X90007Y540120D01*
X93080Y537047D01*
X94743Y533033D01*
X94743Y528687D01*
X93080Y524673D01*
X90007Y521600D01*
X85993Y519937D01*
X81647Y519937D01*
G37*
%LPD*%
%LPC*%
G36*
X228967Y519937D02*
X228967Y519937D01*
X224953Y521600D01*
X221880Y524673D01*
X220217Y528687D01*
X220217Y533033D01*
X221880Y537047D01*
X224953Y540120D01*
X228967Y541783D01*
X233313Y541783D01*
X237327Y540120D01*
X240400Y537047D01*
X242063Y533033D01*
X242063Y528687D01*
X240400Y524673D01*
X237327Y521600D01*
X233313Y519937D01*
X228967Y519937D01*
G37*
%LPD*%
%LPC*%
G36*
X258063Y532383D02*
X258063Y532383D01*
X258063Y542706D01*
X259336Y542505D01*
X261123Y541924D01*
X262797Y541071D01*
X264318Y539966D01*
X265646Y538638D01*
X266751Y537117D01*
X267604Y535443D01*
X268185Y533656D01*
X268386Y532383D01*
X258063Y532383D01*
G37*
%LPD*%
%LPC*%
G36*
X110743Y532383D02*
X110743Y532383D01*
X110743Y542706D01*
X112016Y542505D01*
X113803Y541924D01*
X115477Y541071D01*
X116998Y539966D01*
X118326Y538638D01*
X119431Y537117D01*
X120284Y535443D01*
X120865Y533656D01*
X121066Y532383D01*
X110743Y532383D01*
G37*
%LPD*%
%LPC*%
G36*
X166623Y190245D02*
X166623Y190245D01*
X166623Y200568D01*
X167896Y200367D01*
X169683Y199786D01*
X171357Y198933D01*
X172878Y197828D01*
X174206Y196500D01*
X175311Y194979D01*
X176164Y193305D01*
X176745Y191518D01*
X176946Y190245D01*
X166623Y190245D01*
G37*
%LPD*%
%LPC*%
G36*
X153254Y190245D02*
X153254Y190245D01*
X153455Y191518D01*
X154036Y193305D01*
X154889Y194979D01*
X155994Y196500D01*
X157322Y197828D01*
X158843Y198933D01*
X160517Y199786D01*
X162304Y200367D01*
X163577Y200568D01*
X163577Y190245D01*
X153254Y190245D01*
G37*
%LPD*%
%LPC*%
G36*
X244694Y532383D02*
X244694Y532383D01*
X244895Y533656D01*
X245476Y535443D01*
X246329Y537117D01*
X247434Y538638D01*
X248762Y539966D01*
X250283Y541071D01*
X251957Y541924D01*
X253744Y542505D01*
X255017Y542706D01*
X255017Y532383D01*
X244694Y532383D01*
G37*
%LPD*%
%LPC*%
G36*
X97374Y532383D02*
X97374Y532383D01*
X97575Y533656D01*
X98156Y535443D01*
X99009Y537117D01*
X100114Y538638D01*
X101442Y539966D01*
X102963Y541071D01*
X104637Y541924D01*
X106424Y542505D01*
X107697Y542706D01*
X107697Y532383D01*
X97374Y532383D01*
G37*
%LPD*%
%LPC*%
G36*
X166623Y187199D02*
X166623Y187199D01*
X176946Y187199D01*
X176745Y185926D01*
X176164Y184139D01*
X175311Y182465D01*
X174206Y180944D01*
X172878Y179616D01*
X171357Y178511D01*
X169683Y177658D01*
X167896Y177077D01*
X166623Y176876D01*
X166623Y187199D01*
G37*
%LPD*%
%LPC*%
G36*
X110743Y529337D02*
X110743Y529337D01*
X121066Y529337D01*
X120865Y528064D01*
X120284Y526277D01*
X119431Y524603D01*
X118326Y523082D01*
X116998Y521754D01*
X115477Y520649D01*
X113803Y519796D01*
X112016Y519215D01*
X110743Y519014D01*
X110743Y529337D01*
G37*
%LPD*%
%LPC*%
G36*
X258063Y529337D02*
X258063Y529337D01*
X268386Y529337D01*
X268185Y528064D01*
X267604Y526277D01*
X266751Y524603D01*
X265646Y523082D01*
X264318Y521754D01*
X262797Y520649D01*
X261123Y519796D01*
X259336Y519215D01*
X258063Y519014D01*
X258063Y529337D01*
G37*
%LPD*%
%LPC*%
G36*
X162304Y177077D02*
X162304Y177077D01*
X160517Y177658D01*
X158843Y178511D01*
X157322Y179616D01*
X155994Y180944D01*
X154889Y182465D01*
X154036Y184139D01*
X153455Y185926D01*
X153254Y187199D01*
X163577Y187199D01*
X163577Y176876D01*
X162304Y177077D01*
G37*
%LPD*%
%LPC*%
G36*
X106424Y519215D02*
X106424Y519215D01*
X104637Y519796D01*
X102963Y520649D01*
X101442Y521754D01*
X100114Y523082D01*
X99009Y524603D01*
X98156Y526277D01*
X97575Y528064D01*
X97374Y529337D01*
X107697Y529337D01*
X107697Y519014D01*
X106424Y519215D01*
G37*
%LPD*%
%LPC*%
G36*
X253744Y519215D02*
X253744Y519215D01*
X251957Y519796D01*
X250283Y520649D01*
X248762Y521754D01*
X247434Y523082D01*
X246329Y524603D01*
X245476Y526277D01*
X244895Y528064D01*
X244694Y529337D01*
X255017Y529337D01*
X255017Y519014D01*
X253744Y519215D01*
G37*
%LPD*%
%LPC*%
G36*
X109219Y530859D02*
X109219Y530859D01*
X109219Y530861D01*
X109221Y530861D01*
X109221Y530859D01*
X109219Y530859D01*
G37*
%LPD*%
%LPC*%
G36*
X165099Y188721D02*
X165099Y188721D01*
X165099Y188723D01*
X165101Y188723D01*
X165101Y188721D01*
X165099Y188721D01*
G37*
%LPD*%
%LPC*%
G36*
X256539Y530859D02*
X256539Y530859D01*
X256539Y530861D01*
X256541Y530861D01*
X256541Y530859D01*
X256539Y530859D01*
G37*
%LPD*%
D10*
X231140Y530860D03*
X256540Y530860D03*
X83820Y530860D03*
X109220Y530860D03*
X165100Y217678D03*
X165100Y188722D03*
X190500Y217678D03*
X190500Y188722D03*
X203200Y114300D03*
X203200Y38100D03*
X152400Y114300D03*
X152400Y38100D03*
M02*
