G04 EAGLE Gerber X2 export*
G75*
%MOMM*%
%FSLAX34Y34*%
%LPD*%
%AMOC8*
5,1,8,0,0,1.08239X$1,22.5*%
G01*
%ADD10C,0.254000*%


D10*
X0Y495300D02*
X4797Y482791D01*
X8486Y469912D01*
X11038Y456760D01*
X12434Y443436D01*
X12700Y431800D01*
X13161Y415671D01*
X15027Y399644D01*
X18282Y383840D01*
X22902Y368380D01*
X28852Y353382D01*
X36086Y338959D01*
X44550Y325222D01*
X54179Y312274D01*
X64900Y300215D01*
X76631Y289137D01*
X88900Y279400D01*
X95349Y274269D01*
X101326Y268595D01*
X106785Y262423D01*
X111686Y255797D01*
X115991Y248770D01*
X119667Y241395D01*
X122687Y233727D01*
X125026Y225825D01*
X126668Y217749D01*
X127600Y209561D01*
X127814Y201323D01*
X127310Y193097D01*
X127000Y190500D01*
X106816Y39118D01*
X106548Y36116D01*
X106543Y33101D01*
X106801Y30098D01*
X107319Y27129D01*
X108095Y24216D01*
X109121Y21382D01*
X110390Y18648D01*
X111893Y16035D01*
X113618Y13563D01*
X115552Y11251D01*
X117679Y9116D01*
X119985Y7175D01*
X122451Y5442D01*
X125059Y3930D01*
X127789Y2652D01*
X130620Y1616D01*
X133530Y831D01*
X136498Y303D01*
X139500Y35D01*
X141064Y0D01*
X213338Y0D01*
X216574Y141D01*
X219786Y564D01*
X222948Y1265D01*
X226038Y2239D01*
X229031Y3479D01*
X231904Y4975D01*
X234636Y6716D01*
X237207Y8688D01*
X239595Y10876D01*
X241783Y13265D01*
X243756Y15835D01*
X245496Y18567D01*
X246992Y21440D01*
X248232Y24433D01*
X249206Y27523D01*
X249907Y30685D01*
X250330Y33897D01*
X250471Y37134D01*
X250330Y40370D01*
X250319Y40495D01*
X241300Y139700D01*
X228600Y215900D01*
X228146Y220182D01*
X228067Y224488D01*
X228363Y228784D01*
X229033Y233039D01*
X230071Y237218D01*
X231469Y241291D01*
X233217Y245227D01*
X235301Y248996D01*
X237706Y252568D01*
X240413Y255917D01*
X243401Y259018D01*
X246649Y261846D01*
X250130Y264381D01*
X253820Y266602D01*
X254000Y266700D01*
X270398Y285193D01*
X285122Y305044D01*
X298060Y326103D01*
X309114Y348210D01*
X318198Y371196D01*
X325245Y394886D01*
X330200Y419100D01*
X342507Y609689D01*
X342900Y636283D01*
X342325Y649454D01*
X340604Y662524D01*
X337751Y675395D01*
X333787Y687968D01*
X328742Y700148D01*
X322654Y711842D01*
X315571Y722960D01*
X307545Y733419D01*
X298639Y743139D01*
X288919Y752045D01*
X278460Y760071D01*
X267342Y767154D01*
X255648Y773242D01*
X243468Y778287D01*
X230895Y782251D01*
X218024Y785104D01*
X204954Y786825D01*
X191783Y787400D01*
X151117Y787400D01*
X137946Y786825D01*
X124876Y785104D01*
X112005Y782251D01*
X99432Y778287D01*
X87252Y773242D01*
X75559Y767154D01*
X64440Y760071D01*
X53981Y752045D01*
X44261Y743139D01*
X35355Y733419D01*
X27329Y722960D01*
X20246Y711842D01*
X14158Y700148D01*
X9113Y687968D01*
X5149Y675395D01*
X2296Y662524D01*
X575Y649454D01*
X0Y636283D01*
X0Y495300D01*
X177800Y748801D02*
X177722Y747806D01*
X177566Y746820D01*
X177333Y745850D01*
X177024Y744901D01*
X176642Y743979D01*
X176189Y743090D01*
X175668Y742239D01*
X175081Y741431D01*
X174433Y740673D01*
X173727Y739967D01*
X172969Y739319D01*
X172161Y738732D01*
X171310Y738211D01*
X170421Y737758D01*
X169499Y737376D01*
X168550Y737067D01*
X167580Y736834D01*
X166594Y736678D01*
X165599Y736600D01*
X164601Y736600D01*
X163606Y736678D01*
X162620Y736834D01*
X161650Y737067D01*
X160701Y737376D01*
X159779Y737758D01*
X158890Y738211D01*
X158039Y738732D01*
X157231Y739319D01*
X156473Y739967D01*
X155767Y740673D01*
X155119Y741431D01*
X154532Y742239D01*
X154011Y743090D01*
X153558Y743979D01*
X153176Y744901D01*
X152867Y745850D01*
X152634Y746820D01*
X152478Y747806D01*
X152400Y748801D01*
X152400Y749799D01*
X152478Y750794D01*
X152634Y751780D01*
X152867Y752750D01*
X153176Y753699D01*
X153558Y754621D01*
X154011Y755510D01*
X154532Y756361D01*
X155119Y757169D01*
X155767Y757927D01*
X156473Y758633D01*
X157231Y759281D01*
X158039Y759868D01*
X158890Y760389D01*
X159779Y760842D01*
X160701Y761224D01*
X161650Y761533D01*
X162620Y761766D01*
X163606Y761922D01*
X164601Y762000D01*
X165599Y762000D01*
X166594Y761922D01*
X167580Y761766D01*
X168550Y761533D01*
X169499Y761224D01*
X170421Y760842D01*
X171310Y760389D01*
X172161Y759868D01*
X172969Y759281D01*
X173727Y758633D01*
X174433Y757927D01*
X175081Y757169D01*
X175668Y756361D01*
X176189Y755510D01*
X176642Y754621D01*
X177024Y753699D01*
X177333Y752750D01*
X177566Y751780D01*
X177722Y750794D01*
X177800Y749799D01*
X177800Y748801D01*
X177800Y748801D02*
X177722Y747806D01*
X177566Y746820D01*
X177333Y745850D01*
X177024Y744901D01*
X176642Y743979D01*
X176189Y743090D01*
X175668Y742239D01*
X175081Y741431D01*
X174433Y740673D01*
X173727Y739967D01*
X172969Y739319D01*
X172161Y738732D01*
X171310Y738211D01*
X170421Y737758D01*
X169499Y737376D01*
X168550Y737067D01*
X167580Y736834D01*
X166594Y736678D01*
X165599Y736600D01*
X164601Y736600D01*
X163606Y736678D01*
X162620Y736834D01*
X161650Y737067D01*
X160701Y737376D01*
X159779Y737758D01*
X158890Y738211D01*
X158039Y738732D01*
X157231Y739319D01*
X156473Y739967D01*
X155767Y740673D01*
X155119Y741431D01*
X154532Y742239D01*
X154011Y743090D01*
X153558Y743979D01*
X153176Y744901D01*
X152867Y745850D01*
X152634Y746820D01*
X152478Y747806D01*
X152400Y748801D01*
X152400Y749799D01*
X152478Y750794D01*
X152634Y751780D01*
X152867Y752750D01*
X153176Y753699D01*
X153558Y754621D01*
X154011Y755510D01*
X154532Y756361D01*
X155119Y757169D01*
X155767Y757927D01*
X156473Y758633D01*
X157231Y759281D01*
X158039Y759868D01*
X158890Y760389D01*
X159779Y760842D01*
X160701Y761224D01*
X161650Y761533D01*
X162620Y761766D01*
X163606Y761922D01*
X164601Y762000D01*
X165599Y762000D01*
X166594Y761922D01*
X167580Y761766D01*
X168550Y761533D01*
X169499Y761224D01*
X170421Y760842D01*
X171310Y760389D01*
X172161Y759868D01*
X172969Y759281D01*
X173727Y758633D01*
X174433Y757927D01*
X175081Y757169D01*
X175668Y756361D01*
X176189Y755510D01*
X176642Y754621D01*
X177024Y753699D01*
X177333Y752750D01*
X177566Y751780D01*
X177722Y750794D01*
X177800Y749799D01*
X177800Y748801D01*
M02*
